<svg width="1941" height="1080" viewBox="0 0 1941 1080" fill="none" xmlns="http://www.w3.org/2000/svg">
<path opacity="0.1" d="M1 1080V0" stroke="#555555" stroke-opacity="0.5" stroke-miterlimit="10"/>
<path opacity="0.1" d="M29.1025 1080V0" stroke="#555555" stroke-opacity="0.5" stroke-miterlimit="10"/>
<path opacity="0.1" d="M57.2051 1080V0" stroke="#555555" stroke-opacity="0.5" stroke-miterlimit="10"/>
<path opacity="0.1" d="M85.3076 1080V0" stroke="#555555" stroke-opacity="0.5" stroke-miterlimit="10"/>
<path opacity="0.1" d="M113.403 1080V0" stroke="#555555" stroke-opacity="0.5" stroke-miterlimit="10"/>
<path opacity="0.1" d="M141.506 1080V0" stroke="#555555" stroke-opacity="0.5" stroke-miterlimit="10"/>
<path opacity="0.1" d="M169.608 1080V0" stroke="#555555" stroke-opacity="0.5" stroke-miterlimit="10"/>
<path opacity="0.1" d="M197.711 1080V0" stroke="#555555" stroke-opacity="0.5" stroke-miterlimit="10"/>
<path opacity="0.1" d="M225.813 1080V0" stroke="#555555" stroke-opacity="0.5" stroke-miterlimit="10"/>
<path opacity="0.1" d="M253.916 1080V0" stroke="#555555" stroke-opacity="0.5" stroke-miterlimit="10"/>
<path opacity="0.1" d="M282.012 1080V0" stroke="#555555" stroke-opacity="0.5" stroke-miterlimit="10"/>
<path opacity="0.1" d="M310.114 1080V0" stroke="#555555" stroke-opacity="0.5" stroke-miterlimit="10"/>
<path opacity="0.1" d="M338.217 1080V0" stroke="#555555" stroke-opacity="0.5" stroke-miterlimit="10"/>
<path opacity="0.1" d="M366.319 1080V0" stroke="#555555" stroke-opacity="0.5" stroke-miterlimit="10"/>
<path opacity="0.1" d="M394.422 1080V0" stroke="#555555" stroke-opacity="0.5" stroke-miterlimit="10"/>
<path opacity="0.1" d="M422.524 1080V0" stroke="#555555" stroke-opacity="0.5" stroke-miterlimit="10"/>
<path opacity="0.1" d="M450.62 1080V0" stroke="#555555" stroke-opacity="0.5" stroke-miterlimit="10"/>
<path opacity="0.1" d="M478.723 1080V0" stroke="#555555" stroke-opacity="0.5" stroke-miterlimit="10"/>
<path opacity="0.1" d="M506.825 1080V0" stroke="#555555" stroke-opacity="0.5" stroke-miterlimit="10"/>
<path opacity="0.1" d="M534.928 1080V0" stroke="#555555" stroke-opacity="0.5" stroke-miterlimit="10"/>
<path opacity="0.1" d="M563.03 1080V0" stroke="#555555" stroke-opacity="0.5" stroke-miterlimit="10"/>
<path opacity="0.1" d="M591.133 1080V0" stroke="#555555" stroke-opacity="0.5" stroke-miterlimit="10"/>
<path opacity="0.1" d="M619.229 1080V0" stroke="#555555" stroke-opacity="0.5" stroke-miterlimit="10"/>
<path opacity="0.1" d="M647.331 1080V0" stroke="#555555" stroke-opacity="0.5" stroke-miterlimit="10"/>
<path opacity="0.1" d="M675.434 1080V0" stroke="#555555" stroke-opacity="0.5" stroke-miterlimit="10"/>
<path opacity="0.1" d="M703.536 1080V0" stroke="#555555" stroke-opacity="0.5" stroke-miterlimit="10"/>
<path opacity="0.1" d="M731.639 1080V0" stroke="#555555" stroke-opacity="0.5" stroke-miterlimit="10"/>
<path opacity="0.1" d="M759.741 1080V0" stroke="#555555" stroke-opacity="0.5" stroke-miterlimit="10"/>
<path opacity="0.1" d="M787.844 1080V0" stroke="#555555" stroke-opacity="0.5" stroke-miterlimit="10"/>
<path opacity="0.1" d="M815.939 1080V0" stroke="#555555" stroke-opacity="0.5" stroke-miterlimit="10"/>
<path opacity="0.1" d="M844.042 1080V0" stroke="#555555" stroke-opacity="0.5" stroke-miterlimit="10"/>
<path opacity="0.1" d="M872.145 1080V0" stroke="#555555" stroke-opacity="0.5" stroke-miterlimit="10"/>
<path opacity="0.1" d="M900.247 1080V0" stroke="#555555" stroke-opacity="0.5" stroke-miterlimit="10"/>
<path opacity="0.1" d="M928.35 1080V0" stroke="#555555" stroke-opacity="0.5" stroke-miterlimit="10"/>
<path opacity="0.1" d="M956.452 1080V0" stroke="#555555" stroke-opacity="0.5" stroke-miterlimit="10"/>
<path opacity="0.1" d="M984.548 1080V0" stroke="#555555" stroke-opacity="0.5" stroke-miterlimit="10"/>
<path opacity="0.1" d="M1012.65 1080V0" stroke="#555555" stroke-opacity="0.5" stroke-miterlimit="10"/>
<path opacity="0.1" d="M1040.75 1080V0" stroke="#555555" stroke-opacity="0.5" stroke-miterlimit="10"/>
<path opacity="0.1" d="M1068.86 1080V0" stroke="#555555" stroke-opacity="0.5" stroke-miterlimit="10"/>
<path opacity="0.1" d="M1096.96 1080V0" stroke="#555555" stroke-opacity="0.5" stroke-miterlimit="10"/>
<path opacity="0.1" d="M1125.06 1080V0" stroke="#555555" stroke-opacity="0.5" stroke-miterlimit="10"/>
<path opacity="0.1" d="M1153.16 1080V0" stroke="#555555" stroke-opacity="0.5" stroke-miterlimit="10"/>
<path opacity="0.1" d="M1181.26 1080V0" stroke="#555555" stroke-opacity="0.5" stroke-miterlimit="10"/>
<path opacity="0.1" d="M1209.36 1080V0" stroke="#555555" stroke-opacity="0.5" stroke-miterlimit="10"/>
<path opacity="0.1" d="M1237.46 1080V0" stroke="#555555" stroke-opacity="0.5" stroke-miterlimit="10"/>
<path opacity="0.1" d="M1265.57 1080V0" stroke="#555555" stroke-opacity="0.5" stroke-miterlimit="10"/>
<path opacity="0.1" d="M1293.67 1080V0" stroke="#555555" stroke-opacity="0.5" stroke-miterlimit="10"/>
<path opacity="0.1" d="M1321.77 1080V0" stroke="#555555" stroke-opacity="0.5" stroke-miterlimit="10"/>
<path opacity="0.1" d="M1349.87 1080V0" stroke="#555555" stroke-opacity="0.5" stroke-miterlimit="10"/>
<path opacity="0.1" d="M1377.97 1080V0" stroke="#555555" stroke-opacity="0.5" stroke-miterlimit="10"/>
<path opacity="0.1" d="M1406.07 1080V0" stroke="#555555" stroke-opacity="0.5" stroke-miterlimit="10"/>
<path opacity="0.1" d="M1434.17 1080V0" stroke="#555555" stroke-opacity="0.5" stroke-miterlimit="10"/>
<path opacity="0.1" d="M1462.28 1080V0" stroke="#555555" stroke-opacity="0.5" stroke-miterlimit="10"/>
<path opacity="0.1" d="M1490.37 1080V0" stroke="#555555" stroke-opacity="0.5" stroke-miterlimit="10"/>
<path opacity="0.1" d="M1518.48 1080V0" stroke="#555555" stroke-opacity="0.5" stroke-miterlimit="10"/>
<path opacity="0.1" d="M1546.58 1080V0" stroke="#555555" stroke-opacity="0.5" stroke-miterlimit="10"/>
<path opacity="0.1" d="M1574.68 1080V0" stroke="#555555" stroke-opacity="0.5" stroke-miterlimit="10"/>
<path opacity="0.1" d="M1602.78 1080V0" stroke="#555555" stroke-opacity="0.5" stroke-miterlimit="10"/>
<path opacity="0.1" d="M1630.89 1080V0" stroke="#555555" stroke-opacity="0.5" stroke-miterlimit="10"/>
<path opacity="0.1" d="M1658.99 1080V0" stroke="#555555" stroke-opacity="0.5" stroke-miterlimit="10"/>
<path opacity="0.1" d="M1687.08 1080V0" stroke="#555555" stroke-opacity="0.5" stroke-miterlimit="10"/>
<path opacity="0.1" d="M1715.19 1080V0" stroke="#555555" stroke-opacity="0.5" stroke-miterlimit="10"/>
<path opacity="0.1" d="M1743.29 1080V0" stroke="#555555" stroke-opacity="0.5" stroke-miterlimit="10"/>
<path opacity="0.1" d="M1771.39 1080V0" stroke="#555555" stroke-opacity="0.5" stroke-miterlimit="10"/>
<path opacity="0.1" d="M1799.49 1080V0" stroke="#555555" stroke-opacity="0.5" stroke-miterlimit="10"/>
<path opacity="0.1" d="M1827.6 1080V0" stroke="#555555" stroke-opacity="0.5" stroke-miterlimit="10"/>
<path opacity="0.1" d="M1855.7 1080V0" stroke="#555555" stroke-opacity="0.5" stroke-miterlimit="10"/>
<path opacity="0.1" d="M1883.79 1080V0" stroke="#555555" stroke-opacity="0.5" stroke-miterlimit="10"/>
<path opacity="0.1" d="M1911.9 1080V0" stroke="#555555" stroke-opacity="0.5" stroke-miterlimit="10"/>
<path opacity="0.1" d="M1940 1080V0" stroke="#555555" stroke-opacity="0.5" stroke-miterlimit="10"/>
<path opacity="0.1" d="M1927.96 1072H1" stroke="#555555" stroke-opacity="0.5" stroke-miterlimit="10"/>
<path opacity="0.1" d="M1927.96 1044H1" stroke="#555555" stroke-opacity="0.5" stroke-miterlimit="10"/>
<path opacity="0.1" d="M1927.96 1016H1" stroke="#555555" stroke-opacity="0.5" stroke-miterlimit="10"/>
<path opacity="0.1" d="M1927.96 988H1" stroke="#555555" stroke-opacity="0.5" stroke-miterlimit="10"/>
<path opacity="0.1" d="M1927.96 960H1" stroke="#555555" stroke-opacity="0.5" stroke-miterlimit="10"/>
<path opacity="0.1" d="M1927.96 932H1" stroke="#555555" stroke-opacity="0.5" stroke-miterlimit="10"/>
<path opacity="0.1" d="M1927.96 904H1" stroke="#555555" stroke-opacity="0.5" stroke-miterlimit="10"/>
<path opacity="0.1" d="M1927.96 876H1" stroke="#555555" stroke-opacity="0.5" stroke-miterlimit="10"/>
<path opacity="0.1" d="M1927.96 848H1" stroke="#555555" stroke-opacity="0.5" stroke-miterlimit="10"/>
<path opacity="0.1" d="M1927.96 820H1" stroke="#555555" stroke-opacity="0.5" stroke-miterlimit="10"/>
<path opacity="0.1" d="M1927.96 792H1" stroke="#555555" stroke-opacity="0.5" stroke-miterlimit="10"/>
<path opacity="0.1" d="M1927.96 764H1" stroke="#555555" stroke-opacity="0.5" stroke-miterlimit="10"/>
<path opacity="0.1" d="M1927.96 736H1" stroke="#555555" stroke-opacity="0.5" stroke-miterlimit="10"/>
<path opacity="0.1" d="M1927.96 708H1" stroke="#555555" stroke-opacity="0.5" stroke-miterlimit="10"/>
<path opacity="0.1" d="M1927.96 680H1" stroke="#555555" stroke-opacity="0.5" stroke-miterlimit="10"/>
<path opacity="0.1" d="M1927.96 652H1" stroke="#555555" stroke-opacity="0.5" stroke-miterlimit="10"/>
<path opacity="0.1" d="M1927.96 624H1" stroke="#555555" stroke-opacity="0.5" stroke-miterlimit="10"/>
<path opacity="0.1" d="M1927.96 596H1" stroke="#555555" stroke-opacity="0.5" stroke-miterlimit="10"/>
<path opacity="0.1" d="M1927.96 568H1" stroke="#555555" stroke-opacity="0.5" stroke-miterlimit="10"/>
<path opacity="0.1" d="M1927.96 540H1" stroke="#555555" stroke-opacity="0.5" stroke-miterlimit="10"/>
<path opacity="0.1" d="M1927.96 512H1" stroke="#555555" stroke-opacity="0.5" stroke-miterlimit="10"/>
<path opacity="0.1" d="M1927.96 484H1" stroke="#555555" stroke-opacity="0.5" stroke-miterlimit="10"/>
<path opacity="0.1" d="M1927.96 456H1" stroke="#555555" stroke-opacity="0.5" stroke-miterlimit="10"/>
<path opacity="0.1" d="M1927.96 428H1" stroke="#555555" stroke-opacity="0.5" stroke-miterlimit="10"/>
<path opacity="0.1" d="M1927.96 400H1" stroke="#555555" stroke-opacity="0.5" stroke-miterlimit="10"/>
<path opacity="0.1" d="M1927.96 372H1" stroke="#555555" stroke-opacity="0.5" stroke-miterlimit="10"/>
<path opacity="0.1" d="M1927.96 344H1" stroke="#555555" stroke-opacity="0.5" stroke-miterlimit="10"/>
<path opacity="0.1" d="M1927.96 316H1" stroke="#555555" stroke-opacity="0.5" stroke-miterlimit="10"/>
<path opacity="0.1" d="M1927.96 288H1" stroke="#555555" stroke-opacity="0.5" stroke-miterlimit="10"/>
<path opacity="0.1" d="M1927.96 260H1" stroke="#555555" stroke-opacity="0.5" stroke-miterlimit="10"/>
<path opacity="0.1" d="M1927.96 232H1" stroke="#555555" stroke-opacity="0.5" stroke-miterlimit="10"/>
<path opacity="0.1" d="M1927.96 204H1" stroke="#555555" stroke-opacity="0.5" stroke-miterlimit="10"/>
<path opacity="0.1" d="M1927.96 176H1" stroke="#555555" stroke-opacity="0.5" stroke-miterlimit="10"/>
<path opacity="0.1" d="M1927.96 148H1" stroke="#555555" stroke-opacity="0.5" stroke-miterlimit="10"/>
<path opacity="0.1" d="M1927.96 120H1" stroke="#555555" stroke-opacity="0.5" stroke-miterlimit="10"/>
<path opacity="0.1" d="M1927.96 92H1" stroke="#555555" stroke-opacity="0.5" stroke-miterlimit="10"/>
<path opacity="0.1" d="M1927.96 64H1" stroke="#555555" stroke-opacity="0.5" stroke-miterlimit="10"/>
<path opacity="0.1" d="M1927.96 36H1" stroke="#555555" stroke-opacity="0.5" stroke-miterlimit="10"/>
<path opacity="0.1" d="M1927.96 8H1" stroke="#555555" stroke-opacity="0.5" stroke-miterlimit="10"/>
</svg>
