<svg width="320" height="171" viewBox="0 0 320 171" fill="none" xmlns="http://www.w3.org/2000/svg">
<g filter="url(#filter0_d_7_8891)">
<rect x="10" y="6" width="300" height="151" rx="20" fill="white"/>
</g>
<path opacity="0.1" fill-rule="evenodd" clip-rule="evenodd" d="M84.0986 82C99.617 82 112.197 69.464 112.197 54C112.197 38.536 99.617 26 84.0986 26C68.5802 26 56 38.536 56 54C56 69.464 68.5802 82 84.0986 82Z" stroke="#0062FF" stroke-width="2.4"/>
<path d="M71.7145 110.179C70.8622 110.179 70.0994 110.019 69.4261 109.7C68.7528 109.376 68.218 108.933 67.8217 108.37C67.4297 107.808 67.2209 107.164 67.1953 106.44H69.4964C69.5391 106.977 69.7713 107.415 70.1932 107.756C70.6151 108.093 71.1222 108.261 71.7145 108.261C72.179 108.261 72.5923 108.155 72.9545 107.942C73.3168 107.729 73.6023 107.433 73.8111 107.053C74.0199 106.674 74.1222 106.241 74.1179 105.756C74.1222 105.261 74.0178 104.822 73.8047 104.439C73.5916 104.055 73.2997 103.755 72.929 103.538C72.5582 103.316 72.1321 103.205 71.6506 103.205C71.2585 103.201 70.8729 103.273 70.4936 103.423C70.1143 103.572 69.8139 103.768 69.5923 104.011L67.451 103.659L68.1349 96.9091H75.7287V98.8906H70.0973L69.7202 102.362H69.7969C70.0398 102.076 70.3828 101.839 70.826 101.652C71.2692 101.46 71.755 101.364 72.2834 101.364C73.076 101.364 73.7834 101.552 74.4055 101.927C75.0277 102.298 75.5178 102.809 75.8757 103.461C76.2337 104.113 76.4126 104.859 76.4126 105.698C76.4126 106.563 76.2124 107.335 75.8118 108.012C75.4155 108.685 74.8636 109.216 74.1562 109.604C73.4531 109.987 72.6392 110.179 71.7145 110.179ZM83.2074 110.179C82.2571 110.179 81.4134 110.019 80.6761 109.7C79.9432 109.38 79.3679 108.943 78.9503 108.389C78.5369 107.831 78.3324 107.198 78.3366 106.491C78.3324 105.941 78.4517 105.436 78.6946 104.976C78.9375 104.516 79.2656 104.132 79.679 103.825C80.0966 103.514 80.5611 103.316 81.0724 103.231V103.141C80.3991 102.992 79.8537 102.649 79.4361 102.112C79.0227 101.571 78.8182 100.947 78.8224 100.239C78.8182 99.5661 79.0057 98.9652 79.3849 98.4368C79.7642 97.9084 80.2841 97.4929 80.9446 97.1903C81.6051 96.8835 82.3594 96.7301 83.2074 96.7301C84.0469 96.7301 84.7947 96.8835 85.451 97.1903C86.1115 97.4929 86.6314 97.9084 87.0107 98.4368C87.3942 98.9652 87.5859 99.5661 87.5859 100.239C87.5859 100.947 87.375 101.571 86.9531 102.112C86.5355 102.649 85.9964 102.992 85.3359 103.141V103.231C85.8473 103.316 86.3075 103.514 86.7166 103.825C87.13 104.132 87.4581 104.516 87.701 104.976C87.9482 105.436 88.0717 105.941 88.0717 106.491C88.0717 107.198 87.8629 107.831 87.4453 108.389C87.0277 108.943 86.4524 109.38 85.7195 109.7C84.9908 110.019 84.1534 110.179 83.2074 110.179ZM83.2074 108.351C83.6974 108.351 84.1236 108.268 84.4858 108.102C84.848 107.931 85.1293 107.692 85.3295 107.386C85.5298 107.079 85.6321 106.725 85.6364 106.325C85.6321 105.907 85.5234 105.538 85.3104 105.219C85.1016 104.895 84.8139 104.641 84.4474 104.458C84.0852 104.275 83.6719 104.183 83.2074 104.183C82.7386 104.183 82.321 104.275 81.9545 104.458C81.5881 104.641 81.2983 104.895 81.0852 105.219C80.8764 105.538 80.7741 105.907 80.7784 106.325C80.7741 106.725 80.8722 107.079 81.0724 107.386C81.2727 107.688 81.554 107.925 81.9162 108.095C82.2827 108.266 82.7131 108.351 83.2074 108.351ZM83.2074 102.387C83.608 102.387 83.9616 102.306 84.2685 102.144C84.5795 101.982 84.8246 101.756 85.0036 101.467C85.1825 101.177 85.2741 100.842 85.2784 100.463C85.2741 100.088 85.1847 99.7599 85.0099 99.4787C84.8352 99.1932 84.5923 98.9737 84.2812 98.8203C83.9702 98.6626 83.6122 98.5838 83.2074 98.5838C82.794 98.5838 82.4297 98.6626 82.1143 98.8203C81.8033 98.9737 81.5604 99.1932 81.3857 99.4787C81.2152 99.7599 81.1321 100.088 81.1364 100.463C81.1321 100.842 81.2173 101.177 81.392 101.467C81.571 101.752 81.8161 101.978 82.1271 102.144C82.4425 102.306 82.8026 102.387 83.2074 102.387ZM97.1724 107.545V106.855C97.1724 106.348 97.2789 105.881 97.492 105.455C97.7093 105.029 98.0247 104.686 98.438 104.426C98.8514 104.166 99.3521 104.036 99.9402 104.036C100.545 104.036 101.052 104.166 101.461 104.426C101.871 104.682 102.18 105.023 102.388 105.449C102.601 105.875 102.708 106.344 102.708 106.855V107.545C102.708 108.053 102.601 108.519 102.388 108.945C102.175 109.371 101.862 109.714 101.449 109.974C101.04 110.234 100.537 110.364 99.9402 110.364C99.3436 110.364 98.8386 110.234 98.4252 109.974C98.0119 109.714 97.6987 109.371 97.4856 108.945C97.2768 108.519 97.1724 108.053 97.1724 107.545ZM98.8407 106.855V107.545C98.8407 107.882 98.9217 108.191 99.0836 108.472C99.2456 108.754 99.5311 108.894 99.9402 108.894C100.354 108.894 100.637 108.756 100.79 108.479C100.948 108.197 101.027 107.886 101.027 107.545V106.855C101.027 106.514 100.952 106.203 100.803 105.922C100.654 105.636 100.366 105.494 99.9402 105.494C99.5396 105.494 99.2562 105.636 99.09 105.922C98.9238 106.203 98.8407 106.514 98.8407 106.855ZM90.5183 100.054V99.3636C90.5183 98.8523 90.627 98.3835 90.8443 97.9574C91.0616 97.5312 91.377 97.1903 91.7903 96.9347C92.2037 96.6747 92.7044 96.5447 93.2924 96.5447C93.8933 96.5447 94.3983 96.6747 94.8074 96.9347C95.2207 97.1903 95.5318 97.5312 95.7406 97.9574C95.9494 98.3835 96.0538 98.8523 96.0538 99.3636V100.054C96.0538 100.565 95.9473 101.034 95.7342 101.46C95.5254 101.882 95.2143 102.221 94.801 102.477C94.3876 102.732 93.8848 102.86 93.2924 102.86C92.6916 102.86 92.1845 102.732 91.7711 102.477C91.362 102.221 91.051 101.88 90.8379 101.454C90.6248 101.028 90.5183 100.561 90.5183 100.054ZM92.1994 99.3636V100.054C92.1994 100.395 92.2782 100.706 92.4359 100.987C92.5978 101.264 92.8833 101.403 93.2924 101.403C93.7015 101.403 93.9828 101.264 94.1362 100.987C94.2939 100.706 94.3727 100.395 94.3727 100.054V99.3636C94.3727 99.0227 94.2981 98.7116 94.149 98.4304C93.9998 98.1449 93.7143 98.0021 93.2924 98.0021C92.8876 98.0021 92.6042 98.1449 92.4423 98.4304C92.2804 98.7159 92.1994 99.027 92.1994 99.3636ZM91.247 110L100.247 96.9091H101.845L92.845 110H91.247Z" fill="#171725"/>
<path d="M47.0795 129H46.0227C45.9602 128.696 45.8509 128.429 45.6946 128.199C45.5412 127.969 45.3537 127.776 45.1321 127.619C44.9134 127.46 44.6705 127.341 44.4034 127.261C44.1364 127.182 43.858 127.142 43.5682 127.142C43.0398 127.142 42.5611 127.276 42.1321 127.543C41.706 127.81 41.3665 128.203 41.1136 128.723C40.8636 129.243 40.7386 129.881 40.7386 130.636C40.7386 131.392 40.8636 132.03 41.1136 132.55C41.3665 133.07 41.706 133.463 42.1321 133.73C42.5611 133.997 43.0398 134.131 43.5682 134.131C43.858 134.131 44.1364 134.091 44.4034 134.011C44.6705 133.932 44.9134 133.814 45.1321 133.658C45.3537 133.499 45.5412 133.304 45.6946 133.074C45.8509 132.841 45.9602 132.574 46.0227 132.273H47.0795C47 132.719 46.8551 133.118 46.6449 133.47C46.4347 133.822 46.1733 134.122 45.8608 134.369C45.5483 134.614 45.1974 134.8 44.8082 134.928C44.4219 135.055 44.0085 135.119 43.5682 135.119C42.8239 135.119 42.1619 134.938 41.5824 134.574C41.0028 134.21 40.5469 133.693 40.2145 133.023C39.8821 132.352 39.7159 131.557 39.7159 130.636C39.7159 129.716 39.8821 128.92 40.2145 128.25C40.5469 127.58 41.0028 127.062 41.5824 126.699C42.1619 126.335 42.8239 126.153 43.5682 126.153C44.0085 126.153 44.4219 126.217 44.8082 126.345C45.1974 126.473 45.5483 126.661 45.8608 126.908C46.1733 127.152 46.4347 127.45 46.6449 127.803C46.8551 128.152 47 128.551 47.0795 129ZM49.6566 126.273V135H48.6509V126.273H49.6566ZM51.4986 135V128.455H52.5043V135H51.4986ZM52.0099 127.364C51.8139 127.364 51.6449 127.297 51.5028 127.163C51.3636 127.03 51.294 126.869 51.294 126.682C51.294 126.494 51.3636 126.334 51.5028 126.2C51.6449 126.067 51.8139 126 52.0099 126C52.206 126 52.3736 126.067 52.5128 126.2C52.6548 126.334 52.7259 126.494 52.7259 126.682C52.7259 126.869 52.6548 127.03 52.5128 127.163C52.3736 127.297 52.206 127.364 52.0099 127.364ZM57.0906 135.136C56.4599 135.136 55.9158 134.997 55.4585 134.719C55.0039 134.438 54.6531 134.045 54.4059 133.543C54.1616 133.037 54.0394 132.449 54.0394 131.778C54.0394 131.108 54.1616 130.517 54.4059 130.006C54.6531 129.491 54.9968 129.091 55.4371 128.804C55.8803 128.514 56.3974 128.369 56.9883 128.369C57.3292 128.369 57.6658 128.426 57.9982 128.54C58.3306 128.653 58.6332 128.838 58.9059 129.094C59.1786 129.347 59.396 129.682 59.5579 130.099C59.7198 130.517 59.8008 131.031 59.8008 131.642V132.068H54.7553V131.199H58.7781C58.7781 130.83 58.7042 130.5 58.5565 130.21C58.4116 129.92 58.2042 129.692 57.9343 129.524C57.6673 129.357 57.3519 129.273 56.9883 129.273C56.5877 129.273 56.2411 129.372 55.9485 129.571C55.6587 129.767 55.4357 130.023 55.2795 130.338C55.1232 130.653 55.0451 130.991 55.0451 131.352V131.932C55.0451 132.426 55.1303 132.845 55.3008 133.189C55.4741 133.53 55.7141 133.79 56.021 133.969C56.3278 134.145 56.6843 134.233 57.0906 134.233C57.3548 134.233 57.5934 134.196 57.8065 134.122C58.0224 134.045 58.2085 133.932 58.3647 133.781C58.521 133.628 58.6417 133.437 58.7269 133.21L59.6985 133.483C59.5962 133.812 59.4244 134.102 59.1829 134.352C58.9414 134.599 58.6431 134.793 58.288 134.932C57.9329 135.068 57.5337 135.136 57.0906 135.136ZM62.3363 131.062V135H61.3306V128.455H62.3022V129.477H62.3874C62.5408 129.145 62.7738 128.878 63.0863 128.676C63.3988 128.472 63.8022 128.369 64.2965 128.369C64.7397 128.369 65.1275 128.46 65.4599 128.642C65.7923 128.821 66.0508 129.094 66.2354 129.46C66.4201 129.824 66.5124 130.284 66.5124 130.841V135H65.5067V130.909C65.5067 130.395 65.3732 129.994 65.1062 129.707C64.8391 129.418 64.4727 129.273 64.0067 129.273C63.6857 129.273 63.3988 129.342 63.146 129.482C62.896 129.621 62.6985 129.824 62.5536 130.091C62.4087 130.358 62.3363 130.682 62.3363 131.062ZM71.1967 128.455V129.307H67.8047V128.455H71.1967ZM68.7933 126.886H69.799V133.125C69.799 133.409 69.8402 133.622 69.9226 133.764C70.0078 133.903 70.1158 133.997 70.2464 134.045C70.38 134.091 70.5206 134.114 70.6683 134.114C70.7791 134.114 70.87 134.108 70.9411 134.097C71.0121 134.082 71.0689 134.071 71.1115 134.062L71.3161 134.966C71.2479 134.991 71.1527 135.017 71.0305 135.043C70.9084 135.071 70.7536 135.085 70.5661 135.085C70.282 135.085 70.0036 135.024 69.7308 134.902C69.4609 134.78 69.2365 134.594 69.0575 134.344C68.8814 134.094 68.7933 133.778 68.7933 133.398V126.886ZM75.3835 135.136C74.7528 135.136 74.2088 134.997 73.7514 134.719C73.2969 134.438 72.946 134.045 72.6989 133.543C72.4545 133.037 72.3324 132.449 72.3324 131.778C72.3324 131.108 72.4545 130.517 72.6989 130.006C72.946 129.491 73.2898 129.091 73.7301 128.804C74.1733 128.514 74.6903 128.369 75.2812 128.369C75.6222 128.369 75.9588 128.426 76.2912 128.54C76.6236 128.653 76.9261 128.838 77.1989 129.094C77.4716 129.347 77.6889 129.682 77.8509 130.099C78.0128 130.517 78.0938 131.031 78.0938 131.642V132.068H73.0483V131.199H77.071C77.071 130.83 76.9972 130.5 76.8494 130.21C76.7045 129.92 76.4972 129.692 76.2273 129.524C75.9602 129.357 75.6449 129.273 75.2812 129.273C74.8807 129.273 74.5341 129.372 74.2415 129.571C73.9517 129.767 73.7287 130.023 73.5724 130.338C73.4162 130.653 73.3381 130.991 73.3381 131.352V131.932C73.3381 132.426 73.4233 132.845 73.5938 133.189C73.767 133.53 74.0071 133.79 74.3139 133.969C74.6207 134.145 74.9773 134.233 75.3835 134.233C75.6477 134.233 75.8864 134.196 76.0994 134.122C76.3153 134.045 76.5014 133.932 76.6577 133.781C76.8139 133.628 76.9347 133.437 77.0199 133.21L77.9915 133.483C77.8892 133.812 77.7173 134.102 77.4759 134.352C77.2344 134.599 76.9361 134.793 76.581 134.932C76.2259 135.068 75.8267 135.136 75.3835 135.136ZM84.2599 129.92L83.3565 130.176C83.2997 130.026 83.2159 129.879 83.1051 129.737C82.9972 129.592 82.8494 129.473 82.6619 129.379C82.4744 129.286 82.2344 129.239 81.9418 129.239C81.5412 129.239 81.2074 129.331 80.9403 129.516C80.6761 129.697 80.544 129.929 80.544 130.21C80.544 130.46 80.6349 130.658 80.8168 130.803C80.9986 130.947 81.2827 131.068 81.669 131.165L82.6406 131.403C83.2259 131.545 83.6619 131.763 83.9489 132.055C84.2358 132.345 84.3793 132.719 84.3793 133.176C84.3793 133.551 84.2713 133.886 84.0554 134.182C83.8423 134.477 83.544 134.71 83.1605 134.881C82.777 135.051 82.331 135.136 81.8224 135.136C81.1548 135.136 80.6023 134.991 80.1648 134.702C79.7273 134.412 79.4503 133.989 79.3338 133.432L80.2884 133.193C80.3793 133.545 80.5511 133.81 80.804 133.986C81.0597 134.162 81.3935 134.25 81.8054 134.25C82.2741 134.25 82.6463 134.151 82.9219 133.952C83.2003 133.75 83.3395 133.509 83.3395 133.227C83.3395 133 83.2599 132.81 83.1009 132.656C82.9418 132.5 82.6974 132.384 82.3679 132.307L81.277 132.051C80.6776 131.909 80.2372 131.689 79.956 131.391C79.6776 131.089 79.5384 130.713 79.5384 130.261C79.5384 129.892 79.642 129.565 79.8494 129.281C80.0597 128.997 80.3452 128.774 80.706 128.612C81.0696 128.45 81.4815 128.369 81.9418 128.369C82.5895 128.369 83.098 128.511 83.4673 128.795C83.8395 129.08 84.1037 129.455 84.2599 129.92ZM88.9272 127.21V126.273H95.4727V127.21H92.7283V135H91.6715V127.21H88.9272ZM98.0028 135.153C97.5881 135.153 97.2116 135.075 96.8736 134.919C96.5355 134.76 96.267 134.531 96.0682 134.233C95.8693 133.932 95.7699 133.568 95.7699 133.142C95.7699 132.767 95.8438 132.463 95.9915 132.23C96.1392 131.994 96.3366 131.81 96.5838 131.676C96.831 131.543 97.1037 131.443 97.402 131.378C97.7031 131.31 98.0057 131.256 98.3097 131.216C98.7074 131.165 99.0298 131.126 99.277 131.101C99.527 131.072 99.7088 131.026 99.8224 130.96C99.9389 130.895 99.9972 130.781 99.9972 130.619V130.585C99.9972 130.165 99.8821 129.838 99.652 129.605C99.4247 129.372 99.0795 129.256 98.6165 129.256C98.1364 129.256 97.7599 129.361 97.4872 129.571C97.2145 129.781 97.0227 130.006 96.9119 130.244L95.9574 129.903C96.1278 129.506 96.3551 129.196 96.6392 128.974C96.9261 128.75 97.2386 128.594 97.5767 128.506C97.9176 128.415 98.2528 128.369 98.5824 128.369C98.7926 128.369 99.0341 128.395 99.3068 128.446C99.5824 128.494 99.848 128.595 100.104 128.749C100.362 128.902 100.577 129.134 100.747 129.443C100.918 129.753 101.003 130.168 101.003 130.688V135H99.9972V134.114H99.946C99.8778 134.256 99.7642 134.408 99.6051 134.57C99.446 134.732 99.2344 134.869 98.9702 134.983C98.706 135.097 98.3835 135.153 98.0028 135.153ZM98.1562 134.25C98.554 134.25 98.8892 134.172 99.1619 134.016C99.4375 133.859 99.6449 133.658 99.7841 133.411C99.9261 133.163 99.9972 132.903 99.9972 132.631V131.71C99.9545 131.761 99.8608 131.808 99.7159 131.851C99.5739 131.891 99.4091 131.926 99.2216 131.957C99.0369 131.986 98.8565 132.011 98.6804 132.034C98.5071 132.054 98.3665 132.071 98.2585 132.085C97.9972 132.119 97.7528 132.175 97.5256 132.251C97.3011 132.325 97.1193 132.437 96.9801 132.588C96.8438 132.736 96.7756 132.937 96.7756 133.193C96.7756 133.543 96.9048 133.807 97.1634 133.986C97.4247 134.162 97.7557 134.25 98.1562 134.25ZM102.838 135V128.455H103.81V129.443H103.878C103.998 129.119 104.213 128.857 104.526 128.655C104.838 128.453 105.191 128.352 105.583 128.352C105.657 128.352 105.749 128.354 105.86 128.357C105.971 128.359 106.054 128.364 106.111 128.369V129.392C106.077 129.384 105.999 129.371 105.877 129.354C105.757 129.334 105.631 129.324 105.498 129.324C105.179 129.324 104.895 129.391 104.645 129.524C104.398 129.655 104.202 129.837 104.057 130.07C103.915 130.3 103.844 130.562 103.844 130.858V135H102.838ZM109.746 137.591C109.26 137.591 108.843 137.528 108.493 137.403C108.144 137.281 107.853 137.119 107.62 136.918C107.39 136.719 107.206 136.506 107.07 136.278L107.871 135.716C107.962 135.835 108.077 135.972 108.216 136.125C108.355 136.281 108.546 136.416 108.787 136.53C109.032 136.646 109.351 136.705 109.746 136.705C110.275 136.705 110.711 136.577 111.054 136.321C111.398 136.065 111.57 135.665 111.57 135.119V133.79H111.485C111.411 133.909 111.306 134.057 111.169 134.233C111.036 134.406 110.843 134.561 110.59 134.697C110.34 134.831 110.002 134.898 109.576 134.898C109.047 134.898 108.573 134.773 108.152 134.523C107.735 134.273 107.404 133.909 107.159 133.432C106.918 132.955 106.797 132.375 106.797 131.693C106.797 131.023 106.915 130.439 107.151 129.942C107.387 129.442 107.715 129.055 108.135 128.783C108.556 128.507 109.042 128.369 109.593 128.369C110.019 128.369 110.357 128.44 110.607 128.582C110.86 128.722 111.053 128.881 111.186 129.06C111.323 129.236 111.428 129.381 111.502 129.494H111.604V128.455H112.576V135.188C112.576 135.75 112.448 136.207 112.192 136.56C111.939 136.915 111.598 137.175 111.169 137.339C110.743 137.507 110.269 137.591 109.746 137.591ZM109.712 133.994C110.115 133.994 110.456 133.902 110.735 133.717C111.013 133.533 111.225 133.267 111.37 132.92C111.515 132.574 111.587 132.159 111.587 131.676C111.587 131.205 111.516 130.788 111.374 130.428C111.232 130.067 111.022 129.784 110.743 129.58C110.465 129.375 110.121 129.273 109.712 129.273C109.286 129.273 108.931 129.381 108.647 129.597C108.365 129.812 108.154 130.102 108.012 130.466C107.873 130.83 107.803 131.233 107.803 131.676C107.803 132.131 107.874 132.533 108.016 132.882C108.161 133.229 108.374 133.501 108.655 133.7C108.939 133.896 109.292 133.994 109.712 133.994ZM117.161 135.136C116.53 135.136 115.986 134.997 115.529 134.719C115.074 134.438 114.723 134.045 114.476 133.543C114.232 133.037 114.11 132.449 114.11 131.778C114.11 131.108 114.232 130.517 114.476 130.006C114.723 129.491 115.067 129.091 115.507 128.804C115.951 128.514 116.468 128.369 117.059 128.369C117.4 128.369 117.736 128.426 118.069 128.54C118.401 128.653 118.703 128.838 118.976 129.094C119.249 129.347 119.466 129.682 119.628 130.099C119.79 130.517 119.871 131.031 119.871 131.642V132.068H114.826V131.199H118.848C118.848 130.83 118.775 130.5 118.627 130.21C118.482 129.92 118.275 129.692 118.005 129.524C117.738 129.357 117.422 129.273 117.059 129.273C116.658 129.273 116.311 129.372 116.019 129.571C115.729 129.767 115.506 130.023 115.35 130.338C115.194 130.653 115.115 130.991 115.115 131.352V131.932C115.115 132.426 115.201 132.845 115.371 133.189C115.544 133.53 115.784 133.79 116.091 133.969C116.398 134.145 116.755 134.233 117.161 134.233C117.425 134.233 117.664 134.196 117.877 134.122C118.093 134.045 118.279 133.932 118.435 133.781C118.591 133.628 118.712 133.437 118.797 133.21L119.769 133.483C119.667 133.812 119.495 134.102 119.253 134.352C119.012 134.599 118.713 134.793 118.358 134.932C118.003 135.068 117.604 135.136 117.161 135.136ZM124.248 128.455V129.307H120.855V128.455H124.248ZM121.844 126.886H122.85V133.125C122.85 133.409 122.891 133.622 122.973 133.764C123.059 133.903 123.167 133.997 123.297 134.045C123.431 134.091 123.571 134.114 123.719 134.114C123.83 134.114 123.921 134.108 123.992 134.097C124.063 134.082 124.12 134.071 124.162 134.062L124.367 134.966C124.299 134.991 124.203 135.017 124.081 135.043C123.959 135.071 123.804 135.085 123.617 135.085C123.333 135.085 123.054 135.024 122.782 134.902C122.512 134.78 122.287 134.594 122.108 134.344C121.932 134.094 121.844 133.778 121.844 133.398V126.886Z" fill="#92929D"/>
<path fill-rule="evenodd" clip-rule="evenodd" d="M80.7022 50.6586C80.7022 48.5275 82.4026 46.7998 84.5001 46.7998C86.5977 46.7998 88.2981 48.5275 88.2981 50.6586C88.2981 51.9968 87.6277 53.1759 86.6095 53.8681C88.8945 54.7365 90.5213 56.9751 90.5213 59.5998V61.1998H78.479V59.5998C78.479 56.9751 80.1058 54.7365 82.3908 53.8681C81.3726 53.1759 80.7022 51.9968 80.7022 50.6586ZM84.5001 52.8233C85.6768 52.8233 86.6307 51.8542 86.6307 50.6586C86.6307 49.4631 85.6768 48.4939 84.5001 48.4939C83.3235 48.4939 82.3696 49.4631 82.3696 50.6586C82.3696 51.8542 83.3235 52.8233 84.5001 52.8233ZM84.5001 55.1763C82.1266 55.1763 80.1967 57.1061 80.1474 59.5057H88.8529C88.8036 57.1061 86.8737 55.1763 84.5001 55.1763Z" fill="#92929D"/>
<path d="M64.0283 73.5606C69.1307 78.7675 76.2533 82 84.1335 82C99.6519 82 112.232 69.464 112.232 54C112.232 38.536 99.6519 26 84.1335 26" stroke="#0062FF" stroke-width="4" stroke-linecap="round" stroke-linejoin="round"/>
<path opacity="0.1" fill-rule="evenodd" clip-rule="evenodd" d="M235 82C250.464 82 263 69.464 263 54C263 38.536 250.464 26 235 26C219.536 26 207 38.536 207 54C207 69.464 219.536 82 235 82Z" stroke="#50B5FF" stroke-width="2.4"/>
<path fill-rule="evenodd" clip-rule="evenodd" d="M233.4 46H236.6C237.484 46 238.2 46.7163 238.2 47.6V53.2H241.4C242.284 53.2 243 53.9163 243 54.8V61.2C243 61.6418 242.642 62 242.2 62H227.8C227.358 62 227 61.6418 227 61.2V51.2C227 50.3163 227.716 49.6 228.6 49.6H231.8V47.6C231.8 46.7163 232.516 46 233.4 46ZM233.4 60.4H236.6V47.6H233.4V60.4ZM231.8 51.2H228.6V60.4H231.8V51.2ZM238.2 60.4H241.4V54.8H238.2V60.4Z" fill="#50B5FF"/>
<path d="M207 54C207 69.464 219.536 82 235 82V82C250.464 82 263 69.464 263 54C263 38.536 250.464 26 235 26" stroke="#50B5FF" stroke-width="4" stroke-linecap="round" stroke-linejoin="round"/>
<path d="M218.643 110L224.21 98.9801V98.8906H217.748V96.9091H226.665V98.9354L221.104 110H218.643ZM233.103 110.179C232.251 110.179 231.488 110.019 230.815 109.7C230.142 109.376 229.607 108.933 229.21 108.37C228.818 107.808 228.61 107.164 228.584 106.44H230.885C230.928 106.977 231.16 107.415 231.582 107.756C232.004 108.093 232.511 108.261 233.103 108.261C233.568 108.261 233.981 108.155 234.343 107.942C234.705 107.729 234.991 107.433 235.2 107.053C235.409 106.674 235.511 106.241 235.507 105.756C235.511 105.261 235.406 104.822 235.193 104.439C234.98 104.055 234.688 103.755 234.318 103.538C233.947 103.316 233.521 103.205 233.039 103.205C232.647 103.201 232.262 103.273 231.882 103.423C231.503 103.572 231.203 103.768 230.981 104.011L228.84 103.659L229.524 96.9091H237.117V98.8906H231.486L231.109 102.362H231.186C231.428 102.076 231.771 101.839 232.215 101.652C232.658 101.46 233.144 101.364 233.672 101.364C234.465 101.364 235.172 101.552 235.794 101.927C236.416 102.298 236.906 102.809 237.264 103.461C237.622 104.113 237.801 104.859 237.801 105.698C237.801 106.563 237.601 107.335 237.2 108.012C236.804 108.685 236.252 109.216 235.545 109.604C234.842 109.987 234.028 110.179 233.103 110.179ZM246.942 107.545V106.855C246.942 106.348 247.048 105.881 247.262 105.455C247.479 105.029 247.794 104.686 248.208 104.426C248.621 104.166 249.122 104.036 249.71 104.036C250.315 104.036 250.822 104.166 251.231 104.426C251.64 104.682 251.949 105.023 252.158 105.449C252.371 105.875 252.477 106.344 252.477 106.855V107.545C252.477 108.053 252.371 108.519 252.158 108.945C251.945 109.371 251.632 109.714 251.218 109.974C250.809 110.234 250.306 110.364 249.71 110.364C249.113 110.364 248.608 110.234 248.195 109.974C247.781 109.714 247.468 109.371 247.255 108.945C247.046 108.519 246.942 108.053 246.942 107.545ZM248.61 106.855V107.545C248.61 107.882 248.691 108.191 248.853 108.472C249.015 108.754 249.301 108.894 249.71 108.894C250.123 108.894 250.406 108.756 250.56 108.479C250.718 108.197 250.796 107.886 250.796 107.545V106.855C250.796 106.514 250.722 106.203 250.573 105.922C250.423 105.636 250.136 105.494 249.71 105.494C249.309 105.494 249.026 105.636 248.86 105.922C248.693 106.203 248.61 106.514 248.61 106.855ZM240.288 100.054V99.3636C240.288 98.8523 240.396 98.3835 240.614 97.9574C240.831 97.5312 241.146 97.1903 241.56 96.9347C241.973 96.6747 242.474 96.5447 243.062 96.5447C243.663 96.5447 244.168 96.6747 244.577 96.9347C244.99 97.1903 245.301 97.5312 245.51 97.9574C245.719 98.3835 245.823 98.8523 245.823 99.3636V100.054C245.823 100.565 245.717 101.034 245.504 101.46C245.295 101.882 244.984 102.221 244.57 102.477C244.157 102.732 243.654 102.86 243.062 102.86C242.461 102.86 241.954 102.732 241.541 102.477C241.132 102.221 240.82 101.88 240.607 101.454C240.394 101.028 240.288 100.561 240.288 100.054ZM241.969 99.3636V100.054C241.969 100.395 242.048 100.706 242.205 100.987C242.367 101.264 242.653 101.403 243.062 101.403C243.471 101.403 243.752 101.264 243.906 100.987C244.063 100.706 244.142 100.395 244.142 100.054V99.3636C244.142 99.0227 244.068 98.7116 243.919 98.4304C243.769 98.1449 243.484 98.0021 243.062 98.0021C242.657 98.0021 242.374 98.1449 242.212 98.4304C242.05 98.7159 241.969 99.027 241.969 99.3636ZM241.017 110L250.017 96.9091H251.615L242.615 110H241.017Z" fill="#171725"/>
<path d="M203.415 126.273L206.006 133.619H206.108L208.699 126.273H209.807L206.602 135H205.511L202.307 126.273H203.415ZM213.165 135.136C212.534 135.136 211.99 134.997 211.533 134.719C211.078 134.438 210.727 134.045 210.48 133.543C210.236 133.037 210.114 132.449 210.114 131.778C210.114 131.108 210.236 130.517 210.48 130.006C210.727 129.491 211.071 129.091 211.511 128.804C211.955 128.514 212.472 128.369 213.062 128.369C213.403 128.369 213.74 128.426 214.072 128.54C214.405 128.653 214.707 128.838 214.98 129.094C215.253 129.347 215.47 129.682 215.632 130.099C215.794 130.517 215.875 131.031 215.875 131.642V132.068H210.83V131.199H214.852C214.852 130.83 214.778 130.5 214.631 130.21C214.486 129.92 214.278 129.692 214.009 129.524C213.741 129.357 213.426 129.273 213.062 129.273C212.662 129.273 212.315 129.372 212.023 129.571C211.733 129.767 211.51 130.023 211.354 130.338C211.197 130.653 211.119 130.991 211.119 131.352V131.932C211.119 132.426 211.205 132.845 211.375 133.189C211.548 133.53 211.788 133.79 212.095 133.969C212.402 134.145 212.759 134.233 213.165 134.233C213.429 134.233 213.668 134.196 213.881 134.122C214.097 134.045 214.283 133.932 214.439 133.781C214.595 133.628 214.716 133.437 214.801 133.21L215.773 133.483C215.67 133.812 215.499 134.102 215.257 134.352C215.016 134.599 214.717 134.793 214.362 134.932C214.007 135.068 213.608 135.136 213.165 135.136ZM218.411 131.062V135H217.405V128.455H218.376V129.477H218.462C218.615 129.145 218.848 128.878 219.161 128.676C219.473 128.472 219.876 128.369 220.371 128.369C220.814 128.369 221.202 128.46 221.534 128.642C221.866 128.821 222.125 129.094 222.31 129.46C222.494 129.824 222.587 130.284 222.587 130.841V135H221.581V130.909C221.581 130.395 221.447 129.994 221.18 129.707C220.913 129.418 220.547 129.273 220.081 129.273C219.76 129.273 219.473 129.342 219.22 129.482C218.97 129.621 218.773 129.824 218.628 130.091C218.483 130.358 218.411 130.682 218.411 131.062ZM226.896 135.136C226.35 135.136 225.869 134.999 225.451 134.723C225.034 134.445 224.707 134.053 224.471 133.547C224.235 133.038 224.118 132.438 224.118 131.744C224.118 131.057 224.235 130.46 224.471 129.955C224.707 129.449 225.035 129.058 225.456 128.783C225.876 128.507 226.362 128.369 226.913 128.369C227.339 128.369 227.676 128.44 227.923 128.582C228.173 128.722 228.363 128.881 228.494 129.06C228.627 129.236 228.731 129.381 228.805 129.494H228.89V126.273H229.896V135H228.924V133.994H228.805C228.731 134.114 228.626 134.264 228.49 134.446C228.353 134.625 228.159 134.786 227.906 134.928C227.653 135.067 227.316 135.136 226.896 135.136ZM227.032 134.233C227.436 134.233 227.777 134.128 228.055 133.918C228.333 133.705 228.545 133.411 228.69 133.036C228.835 132.658 228.907 132.222 228.907 131.727C228.907 131.239 228.836 130.811 228.694 130.445C228.552 130.075 228.342 129.788 228.064 129.584C227.785 129.376 227.441 129.273 227.032 129.273C226.606 129.273 226.251 129.382 225.967 129.601C225.686 129.817 225.474 130.111 225.332 130.483C225.193 130.852 225.123 131.267 225.123 131.727C225.123 132.193 225.194 132.616 225.336 132.997C225.481 133.375 225.694 133.676 225.975 133.901C226.26 134.122 226.612 134.233 227.032 134.233ZM233.804 135.153C233.389 135.153 233.012 135.075 232.674 134.919C232.336 134.76 232.068 134.531 231.869 134.233C231.67 133.932 231.571 133.568 231.571 133.142C231.571 132.767 231.645 132.463 231.792 132.23C231.94 131.994 232.137 131.81 232.385 131.676C232.632 131.543 232.904 131.443 233.203 131.378C233.504 131.31 233.806 131.256 234.11 131.216C234.508 131.165 234.831 131.126 235.078 131.101C235.328 131.072 235.51 131.026 235.623 130.96C235.74 130.895 235.798 130.781 235.798 130.619V130.585C235.798 130.165 235.683 129.838 235.453 129.605C235.225 129.372 234.88 129.256 234.417 129.256C233.937 129.256 233.561 129.361 233.288 129.571C233.015 129.781 232.824 130.006 232.713 130.244L231.758 129.903C231.929 129.506 232.156 129.196 232.44 128.974C232.727 128.75 233.039 128.594 233.377 128.506C233.718 128.415 234.054 128.369 234.383 128.369C234.593 128.369 234.835 128.395 235.108 128.446C235.383 128.494 235.649 128.595 235.904 128.749C236.163 128.902 236.377 129.134 236.548 129.443C236.718 129.753 236.804 130.168 236.804 130.688V135H235.798V134.114H235.747C235.679 134.256 235.565 134.408 235.406 134.57C235.247 134.732 235.035 134.869 234.771 134.983C234.507 135.097 234.184 135.153 233.804 135.153ZM233.957 134.25C234.355 134.25 234.69 134.172 234.963 134.016C235.238 133.859 235.446 133.658 235.585 133.411C235.727 133.163 235.798 132.903 235.798 132.631V131.71C235.755 131.761 235.662 131.808 235.517 131.851C235.375 131.891 235.21 131.926 235.022 131.957C234.838 131.986 234.657 132.011 234.481 132.034C234.308 132.054 234.167 132.071 234.059 132.085C233.798 132.119 233.554 132.175 233.326 132.251C233.102 132.325 232.92 132.437 232.781 132.588C232.645 132.736 232.576 132.937 232.576 133.193C232.576 133.543 232.706 133.807 232.964 133.986C233.225 134.162 233.556 134.25 233.957 134.25ZM243.276 129.92L242.372 130.176C242.315 130.026 242.232 129.879 242.121 129.737C242.013 129.592 241.865 129.473 241.678 129.379C241.49 129.286 241.25 129.239 240.957 129.239C240.557 129.239 240.223 129.331 239.956 129.516C239.692 129.697 239.56 129.929 239.56 130.21C239.56 130.46 239.651 130.658 239.832 130.803C240.014 130.947 240.298 131.068 240.685 131.165L241.656 131.403C242.241 131.545 242.678 131.763 242.964 132.055C243.251 132.345 243.395 132.719 243.395 133.176C243.395 133.551 243.287 133.886 243.071 134.182C242.858 134.477 242.56 134.71 242.176 134.881C241.793 135.051 241.347 135.136 240.838 135.136C240.17 135.136 239.618 134.991 239.18 134.702C238.743 134.412 238.466 133.989 238.349 133.432L239.304 133.193C239.395 133.545 239.567 133.81 239.82 133.986C240.075 134.162 240.409 134.25 240.821 134.25C241.29 134.25 241.662 134.151 241.938 133.952C242.216 133.75 242.355 133.509 242.355 133.227C242.355 133 242.276 132.81 242.116 132.656C241.957 132.5 241.713 132.384 241.384 132.307L240.293 132.051C239.693 131.909 239.253 131.689 238.972 131.391C238.693 131.089 238.554 130.713 238.554 130.261C238.554 129.892 238.658 129.565 238.865 129.281C239.075 128.997 239.361 128.774 239.722 128.612C240.085 128.45 240.497 128.369 240.957 128.369C241.605 128.369 242.114 128.511 242.483 128.795C242.855 129.08 243.119 129.455 243.276 129.92ZM247.943 127.21V126.273H254.488V127.21H251.744V135H250.687V127.21H247.943ZM257.018 135.153C256.604 135.153 256.227 135.075 255.889 134.919C255.551 134.76 255.283 134.531 255.084 134.233C254.885 133.932 254.786 133.568 254.786 133.142C254.786 132.767 254.859 132.463 255.007 132.23C255.155 131.994 255.352 131.81 255.599 131.676C255.847 131.543 256.119 131.443 256.418 131.378C256.719 131.31 257.021 131.256 257.325 131.216C257.723 131.165 258.045 131.126 258.293 131.101C258.543 131.072 258.724 131.026 258.838 130.96C258.955 130.895 259.013 130.781 259.013 130.619V130.585C259.013 130.165 258.898 129.838 258.668 129.605C258.44 129.372 258.095 129.256 257.632 129.256C257.152 129.256 256.776 129.361 256.503 129.571C256.23 129.781 256.038 130.006 255.928 130.244L254.973 129.903C255.143 129.506 255.371 129.196 255.655 128.974C255.942 128.75 256.254 128.594 256.592 128.506C256.933 128.415 257.268 128.369 257.598 128.369C257.808 128.369 258.05 128.395 258.322 128.446C258.598 128.494 258.864 128.595 259.119 128.749C259.378 128.902 259.592 129.134 259.763 129.443C259.933 129.753 260.018 130.168 260.018 130.688V135H259.013V134.114H258.962C258.893 134.256 258.78 134.408 258.621 134.57C258.462 134.732 258.25 134.869 257.986 134.983C257.722 135.097 257.399 135.153 257.018 135.153ZM257.172 134.25C257.57 134.25 257.905 134.172 258.178 134.016C258.453 133.859 258.661 133.658 258.8 133.411C258.942 133.163 259.013 132.903 259.013 132.631V131.71C258.97 131.761 258.876 131.808 258.732 131.851C258.589 131.891 258.425 131.926 258.237 131.957C258.053 131.986 257.872 132.011 257.696 132.034C257.523 132.054 257.382 132.071 257.274 132.085C257.013 132.119 256.768 132.175 256.541 132.251C256.317 132.325 256.135 132.437 255.996 132.588C255.859 132.736 255.791 132.937 255.791 133.193C255.791 133.543 255.92 133.807 256.179 133.986C256.44 134.162 256.771 134.25 257.172 134.25ZM261.854 135V128.455H262.826V129.443H262.894C263.013 129.119 263.229 128.857 263.542 128.655C263.854 128.453 264.206 128.352 264.598 128.352C264.672 128.352 264.765 128.354 264.875 128.357C264.986 128.359 265.07 128.364 265.127 128.369V129.392C265.093 129.384 265.015 129.371 264.892 129.354C264.773 129.334 264.647 129.324 264.513 129.324C264.195 129.324 263.911 129.391 263.661 129.524C263.414 129.655 263.218 129.837 263.073 130.07C262.931 130.3 262.86 130.562 262.86 130.858V135H261.854ZM268.762 137.591C268.276 137.591 267.858 137.528 267.509 137.403C267.159 137.281 266.868 137.119 266.635 136.918C266.405 136.719 266.222 136.506 266.086 136.278L266.887 135.716C266.978 135.835 267.093 135.972 267.232 136.125C267.371 136.281 267.561 136.416 267.803 136.53C268.047 136.646 268.367 136.705 268.762 136.705C269.29 136.705 269.726 136.577 270.07 136.321C270.414 136.065 270.586 135.665 270.586 135.119V133.79H270.5C270.426 133.909 270.321 134.057 270.185 134.233C270.051 134.406 269.858 134.561 269.605 134.697C269.355 134.831 269.017 134.898 268.591 134.898C268.063 134.898 267.588 134.773 267.168 134.523C266.75 134.273 266.419 133.909 266.175 133.432C265.934 132.955 265.813 132.375 265.813 131.693C265.813 131.023 265.931 130.439 266.167 129.942C266.402 129.442 266.73 129.055 267.151 128.783C267.571 128.507 268.057 128.369 268.608 128.369C269.034 128.369 269.373 128.44 269.623 128.582C269.875 128.722 270.069 128.881 270.202 129.06C270.338 129.236 270.444 129.381 270.517 129.494H270.62V128.455H271.591V135.188C271.591 135.75 271.463 136.207 271.208 136.56C270.955 136.915 270.614 137.175 270.185 137.339C269.759 137.507 269.284 137.591 268.762 137.591ZM268.728 133.994C269.131 133.994 269.472 133.902 269.75 133.717C270.029 133.533 270.24 133.267 270.385 132.92C270.53 132.574 270.603 132.159 270.603 131.676C270.603 131.205 270.532 130.788 270.39 130.428C270.248 130.067 270.037 129.784 269.759 129.58C269.48 129.375 269.137 129.273 268.728 129.273C268.301 129.273 267.946 129.381 267.662 129.597C267.381 129.812 267.169 130.102 267.027 130.466C266.888 130.83 266.819 131.233 266.819 131.676C266.819 132.131 266.89 132.533 267.032 132.882C267.176 133.229 267.39 133.501 267.671 133.7C267.955 133.896 268.307 133.994 268.728 133.994ZM276.176 135.136C275.546 135.136 275.002 134.997 274.544 134.719C274.09 134.438 273.739 134.045 273.492 133.543C273.248 133.037 273.125 132.449 273.125 131.778C273.125 131.108 273.248 130.517 273.492 130.006C273.739 129.491 274.083 129.091 274.523 128.804C274.966 128.514 275.483 128.369 276.074 128.369C276.415 128.369 276.752 128.426 277.084 128.54C277.417 128.653 277.719 128.838 277.992 129.094C278.265 129.347 278.482 129.682 278.644 130.099C278.806 130.517 278.887 131.031 278.887 131.642V132.068H273.841V131.199H277.864C277.864 130.83 277.79 130.5 277.642 130.21C277.498 129.92 277.29 129.692 277.02 129.524C276.753 129.357 276.438 129.273 276.074 129.273C275.674 129.273 275.327 129.372 275.034 129.571C274.745 129.767 274.522 130.023 274.365 130.338C274.209 130.653 274.131 130.991 274.131 131.352V131.932C274.131 132.426 274.216 132.845 274.387 133.189C274.56 133.53 274.8 133.79 275.107 133.969C275.414 134.145 275.77 134.233 276.176 134.233C276.441 134.233 276.679 134.196 276.892 134.122C277.108 134.045 277.294 133.932 277.451 133.781C277.607 133.628 277.728 133.437 277.813 133.21L278.784 133.483C278.682 133.812 278.51 134.102 278.269 134.352C278.027 134.599 277.729 134.793 277.374 134.932C277.019 135.068 276.62 135.136 276.176 135.136ZM283.263 128.455V129.307H279.871V128.455H283.263ZM280.86 126.886H281.865V133.125C281.865 133.409 281.907 133.622 281.989 133.764C282.074 133.903 282.182 133.997 282.313 134.045C282.446 134.091 282.587 134.114 282.735 134.114C282.846 134.114 282.936 134.108 283.007 134.097C283.078 134.082 283.135 134.071 283.178 134.062L283.382 134.966C283.314 134.991 283.219 135.017 283.097 135.043C282.975 135.071 282.82 135.085 282.632 135.085C282.348 135.085 282.07 135.024 281.797 134.902C281.527 134.78 281.303 134.594 281.124 134.344C280.948 134.094 280.86 133.778 280.86 133.398V126.886Z" fill="#92929D"/>
<defs>
<filter id="filter0_d_7_8891" x="0" y="0" width="320" height="171" filterUnits="userSpaceOnUse" color-interpolation-filters="sRGB">
<feFlood flood-opacity="0" result="BackgroundImageFix"/>
<feColorMatrix in="SourceAlpha" type="matrix" values="0 0 0 0 0 0 0 0 0 0 0 0 0 0 0 0 0 0 127 0" result="hardAlpha"/>
<feOffset dy="4"/>
<feGaussianBlur stdDeviation="5"/>
<feComposite in2="hardAlpha" operator="out"/>
<feColorMatrix type="matrix" values="0 0 0 0 0 0 0 0 0 0 0 0 0 0 0 0 0 0 0.4 0"/>
<feBlend mode="normal" in2="BackgroundImageFix" result="effect1_dropShadow_7_8891"/>
<feBlend mode="normal" in="SourceGraphic" in2="effect1_dropShadow_7_8891" result="shape"/>
</filter>
</defs>
</svg>
