<svg width="320" height="98" viewBox="0 0 320 98" fill="none" xmlns="http://www.w3.org/2000/svg">
<g filter="url(#filter0_d_202_683)">
<g filter="url(#filter1_d_202_683)">
<rect x="10" y="6" width="300" height="78" rx="20" fill="#FFFDFD"/>
<rect x="10" y="6" width="300" height="78" rx="20" stroke="#E2E2EA"/>
</g>
<g clip-path="url(#clip0_202_683)">
<path d="M37.1401 37.6705V27.8409H39.3702V37.6705H37.1401ZM33.3404 33.8707V31.6406H43.1699V33.8707H33.3404ZM52.1951 25.4545V40H49.5602V28.0185H49.475L46.073 30.1918V27.777L49.688 25.4545H52.1951ZM61.2647 40.277C60.0952 40.277 59.0914 39.9811 58.2534 39.3892C57.42 38.7926 56.7785 37.9332 56.3287 36.8111C55.8836 35.6842 55.661 34.3277 55.661 32.7415C55.6658 31.1553 55.8907 29.8059 56.3358 28.6932C56.7856 27.5758 57.4271 26.7235 58.2605 26.1364C59.0985 25.5492 60.1 25.2557 61.2647 25.2557C62.4295 25.2557 63.4309 25.5492 64.269 26.1364C65.1071 26.7235 65.7486 27.5758 66.1937 28.6932C66.6435 29.8106 66.8684 31.16 66.8684 32.7415C66.8684 34.3324 66.6435 35.6913 66.1937 36.8182C65.7486 37.9403 65.1071 38.7973 64.269 39.3892C63.4357 39.9811 62.4342 40.277 61.2647 40.277ZM61.2647 38.054C62.1738 38.054 62.8912 37.6065 63.4167 36.7116C63.947 35.812 64.2122 34.4886 64.2122 32.7415C64.2122 31.5862 64.0914 30.6155 63.85 29.8295C63.6085 29.0436 63.2676 28.4517 62.8272 28.054C62.3869 27.6515 61.8661 27.4503 61.2647 27.4503C60.3604 27.4503 59.6454 27.9001 59.1199 28.7997C58.5943 29.6946 58.3291 31.0085 58.3244 32.7415C58.3197 33.9015 58.4357 34.8769 58.6724 35.6676C58.9139 36.4583 59.2548 37.0549 59.6951 37.4574C60.1355 37.8551 60.6587 38.054 61.2647 38.054ZM69.3702 40V25.4545H72.0051V32.1378H72.1827L77.8574 25.4545H81.0748L75.4498 31.9815L81.1245 40H77.9569L73.6174 33.7642L72.0051 35.6676V40H69.3702Z" fill="#171725"/>
<path d="M104.046 29.8182V40H102.202V31.6129H102.142L99.7607 33.1342V31.4439L102.291 29.8182H104.046ZM107.287 40.1094C106.985 40.1094 106.727 40.0033 106.511 39.7912C106.296 39.5791 106.19 39.3205 106.193 39.0156C106.19 38.7173 106.296 38.4621 106.511 38.25C106.727 38.0379 106.985 37.9318 107.287 37.9318C107.579 37.9318 107.832 38.0379 108.048 38.25C108.266 38.4621 108.377 38.7173 108.381 39.0156C108.377 39.2178 108.324 39.4018 108.222 39.5675C108.122 39.7332 107.99 39.8658 107.824 39.9652C107.661 40.0613 107.482 40.1094 107.287 40.1094ZM113.723 40.1392C113.06 40.1392 112.467 40.0149 111.943 39.7663C111.42 39.5144 111.004 39.1697 110.695 38.7322C110.39 38.2947 110.228 37.7943 110.208 37.2308H111.998C112.031 37.6484 112.212 37.9898 112.54 38.255C112.868 38.5168 113.262 38.6477 113.723 38.6477C114.084 38.6477 114.406 38.5649 114.688 38.3991C114.969 38.2334 115.191 38.0031 115.354 37.7081C115.516 37.4131 115.596 37.0767 115.592 36.6989C115.596 36.3144 115.515 35.973 115.349 35.6747C115.183 35.3764 114.956 35.1428 114.668 34.9737C114.379 34.8014 114.048 34.7152 113.673 34.7152C113.368 34.7119 113.069 34.7682 112.774 34.8842C112.479 35.0002 112.245 35.1527 112.073 35.3416L110.407 35.0682L110.939 29.8182H116.845V31.3594H112.465L112.172 34.0589H112.232C112.421 33.8369 112.687 33.6529 113.032 33.5071C113.377 33.358 113.755 33.2834 114.166 33.2834C114.782 33.2834 115.332 33.4292 115.816 33.7209C116.3 34.0092 116.681 34.407 116.96 34.9141C117.238 35.4212 117.377 36.0012 117.377 36.6541C117.377 37.3269 117.221 37.9268 116.91 38.4538C116.602 38.9775 116.172 39.3902 115.622 39.6918C115.075 39.9901 114.442 40.1392 113.723 40.1392ZM124.574 38.0909V37.554C124.574 37.1596 124.657 36.7966 124.823 36.4652C124.992 36.1338 125.237 35.867 125.558 35.6648C125.88 35.4626 126.269 35.3615 126.727 35.3615C127.197 35.3615 127.592 35.4626 127.91 35.6648C128.228 35.8636 128.469 36.1288 128.631 36.4602C128.797 36.7917 128.88 37.1562 128.88 37.554V38.0909C128.88 38.4853 128.797 38.8482 128.631 39.1797C128.465 39.5111 128.222 39.7779 127.9 39.9801C127.582 40.1823 127.191 40.2834 126.727 40.2834C126.263 40.2834 125.87 40.1823 125.549 39.9801C125.227 39.7779 124.983 39.5111 124.818 39.1797C124.655 38.8482 124.574 38.4853 124.574 38.0909ZM125.872 37.554V38.0909C125.872 38.3527 125.935 38.593 126.061 38.8118C126.187 39.0305 126.409 39.1399 126.727 39.1399C127.048 39.1399 127.269 39.0322 127.388 38.8168C127.511 38.598 127.572 38.3561 127.572 38.0909V37.554C127.572 37.2888 127.514 37.0469 127.398 36.8281C127.282 36.6061 127.058 36.495 126.727 36.495C126.415 36.495 126.195 36.6061 126.066 36.8281C125.936 37.0469 125.872 37.2888 125.872 37.554ZM119.399 32.2642V31.7273C119.399 31.3295 119.483 30.965 119.652 30.6335C119.821 30.3021 120.067 30.0369 120.388 29.8381C120.71 29.6359 121.099 29.5348 121.556 29.5348C122.024 29.5348 122.416 29.6359 122.735 29.8381C123.056 30.0369 123.298 30.3021 123.46 30.6335C123.623 30.965 123.704 31.3295 123.704 31.7273V32.2642C123.704 32.6619 123.621 33.0265 123.456 33.358C123.293 33.6861 123.051 33.9496 122.73 34.1484C122.408 34.3473 122.017 34.4467 121.556 34.4467C121.089 34.4467 120.695 34.3473 120.373 34.1484C120.055 33.9496 119.813 33.6844 119.647 33.353C119.482 33.0215 119.399 32.6586 119.399 32.2642ZM120.706 31.7273V32.2642C120.706 32.5294 120.768 32.7713 120.89 32.9901C121.016 33.2055 121.238 33.3132 121.556 33.3132C121.875 33.3132 122.093 33.2055 122.213 32.9901C122.335 32.7713 122.397 32.5294 122.397 32.2642V31.7273C122.397 31.4621 122.339 31.2202 122.223 31.0014C122.107 30.7794 121.884 30.6683 121.556 30.6683C121.241 30.6683 121.021 30.7794 120.895 31.0014C120.769 31.2235 120.706 31.4654 120.706 31.7273ZM119.965 40L126.965 29.8182H128.208L121.208 40H119.965Z" fill="#36920C"/>
<path d="M137.986 31.5C138.125 31.4988 138.265 31.5553 138.365 31.6696L141.875 35.6564C142.058 35.8636 142.038 36.1796 141.83 36.3621C141.623 36.5445 141.307 36.5244 141.125 36.3172L138.49 33.3246L138.515 39.9981C138.516 40.2742 138.293 40.4989 138.017 40.5C137.741 40.501 137.516 40.278 137.515 40.0019L137.49 33.3369L134.877 36.3413C134.696 36.5497 134.38 36.5717 134.172 36.3905C133.964 36.2093 133.942 35.8935 134.123 35.6851L137.57 31.7208C137.66 31.5882 137.811 31.5007 137.983 31.5L137.986 31.5Z" fill="#36920C"/>
<path d="M26.0568 67V58.2727H29.0057C29.6875 58.2727 30.2472 58.3892 30.6847 58.6222C31.1222 58.8523 31.446 59.169 31.6562 59.5724C31.8665 59.9759 31.9716 60.4347 31.9716 60.9489C31.9716 61.4631 31.8665 61.919 31.6562 62.3168C31.446 62.7145 31.1236 63.027 30.6889 63.2543C30.2543 63.4787 29.6989 63.5909 29.0227 63.5909H26.6364V62.6364H28.9886C29.4545 62.6364 29.8295 62.5682 30.1136 62.4318C30.4006 62.2955 30.608 62.1023 30.7358 61.8523C30.8665 61.5994 30.9318 61.2983 30.9318 60.9489C30.9318 60.5994 30.8665 60.294 30.7358 60.0327C30.6051 59.7713 30.3963 59.5696 30.1094 59.4276C29.8224 59.2827 29.4432 59.2102 28.9716 59.2102H27.1136V67H26.0568ZM30.1648 63.0795L32.3125 67H31.0852L28.9716 63.0795H30.1648ZM36.356 67.1364C35.7253 67.1364 35.1812 66.9972 34.7239 66.7188C34.2693 66.4375 33.9185 66.0455 33.6713 65.5426C33.427 65.0369 33.3048 64.4489 33.3048 63.7784C33.3048 63.108 33.427 62.517 33.6713 62.0057C33.9185 61.4915 34.2622 61.0909 34.7025 60.804C35.1457 60.5142 35.6628 60.3693 36.2537 60.3693C36.5946 60.3693 36.9312 60.4261 37.2636 60.5398C37.596 60.6534 37.8986 60.8381 38.1713 61.0938C38.444 61.3466 38.6614 61.6818 38.8233 62.0994C38.9852 62.517 39.0662 63.0312 39.0662 63.642V64.0682H34.0207V63.1989H38.0435C38.0435 62.8295 37.9696 62.5 37.8219 62.2102C37.677 61.9205 37.4696 61.6918 37.1997 61.5241C36.9327 61.3565 36.6173 61.2727 36.2537 61.2727C35.8531 61.2727 35.5065 61.3722 35.2139 61.571C34.9241 61.767 34.7011 62.0227 34.5449 62.3381C34.3886 62.6534 34.3105 62.9915 34.3105 63.3523V63.9318C34.3105 64.4261 34.3957 64.8452 34.5662 65.1889C34.7395 65.5298 34.9795 65.7898 35.2864 65.9688C35.5932 66.1449 35.9497 66.233 36.356 66.233C36.6202 66.233 36.8588 66.196 37.0719 66.1222C37.2878 66.0455 37.4739 65.9318 37.6301 65.7812C37.7864 65.6278 37.9071 65.4375 37.9923 65.2102L38.9639 65.483C38.8616 65.8125 38.6898 66.1023 38.4483 66.3523C38.2068 66.5994 37.9085 66.7926 37.5534 66.9318C37.1983 67.0682 36.7991 67.1364 36.356 67.1364ZM45.3181 61.9205L44.4147 62.1761C44.3579 62.0256 44.2741 61.8793 44.1633 61.7372C44.0553 61.5923 43.9076 61.473 43.7201 61.3793C43.5326 61.2855 43.2925 61.2386 42.9999 61.2386C42.5993 61.2386 42.2655 61.331 41.9985 61.5156C41.7343 61.6974 41.6022 61.929 41.6022 62.2102C41.6022 62.4602 41.6931 62.6577 41.8749 62.8026C42.0567 62.9474 42.3408 63.0682 42.7272 63.1648L43.6988 63.4034C44.284 63.5455 44.7201 63.7628 45.007 64.0554C45.2939 64.3452 45.4374 64.7187 45.4374 65.1761C45.4374 65.5511 45.3295 65.8864 45.1135 66.1818C44.9005 66.4773 44.6022 66.7102 44.2187 66.8807C43.8351 67.0511 43.3891 67.1364 42.8806 67.1364C42.213 67.1364 41.6604 66.9915 41.2229 66.7017C40.7854 66.4119 40.5084 65.9886 40.392 65.4318L41.3465 65.1932C41.4374 65.5455 41.6093 65.8097 41.8621 65.9858C42.1178 66.1619 42.4516 66.25 42.8635 66.25C43.3323 66.25 43.7045 66.1506 43.98 65.9517C44.2584 65.75 44.3976 65.5085 44.3976 65.2273C44.3976 65 44.3181 64.8097 44.159 64.6562C43.9999 64.5 43.7556 64.3835 43.426 64.3068L42.3351 64.0511C41.7357 63.9091 41.2954 63.6889 41.0141 63.3906C40.7357 63.0895 40.5965 62.7131 40.5965 62.2614C40.5965 61.892 40.7002 61.5653 40.9076 61.2812C41.1178 60.9972 41.4033 60.7741 41.7641 60.6122C42.1277 60.4503 42.5397 60.3693 42.9999 60.3693C43.6476 60.3693 44.1562 60.5114 44.5255 60.7955C44.8976 61.0795 45.1618 61.4545 45.3181 61.9205ZM47.037 69.4545V60.4545H48.0086V61.4943H48.1279C48.2017 61.3807 48.304 61.2358 48.4347 61.0597C48.5682 60.8807 48.7586 60.7216 49.0057 60.5824C49.2557 60.4403 49.5938 60.3693 50.0199 60.3693C50.5711 60.3693 51.0569 60.5071 51.4773 60.7827C51.8978 61.0582 52.2259 61.4489 52.4617 61.9545C52.6975 62.4602 52.8154 63.0568 52.8154 63.7443C52.8154 64.4375 52.6975 65.0384 52.4617 65.5469C52.2259 66.0526 51.8992 66.4446 51.4816 66.723C51.064 66.9986 50.5824 67.1364 50.037 67.1364C49.6165 67.1364 49.2799 67.0668 49.027 66.9276C48.7742 66.7855 48.5796 66.625 48.4432 66.446C48.3069 66.2642 48.2017 66.1136 48.1279 65.9943H48.0427V69.4545H47.037ZM48.0256 63.7273C48.0256 64.2216 48.0981 64.6577 48.2429 65.0355C48.3878 65.4105 48.5995 65.7045 48.8779 65.9176C49.1563 66.1278 49.4972 66.233 49.9006 66.233C50.3211 66.233 50.6719 66.1222 50.9532 65.9006C51.2373 65.6761 51.4503 65.375 51.5924 64.9972C51.7373 64.6165 51.8097 64.1932 51.8097 63.7273C51.8097 63.267 51.7387 62.8523 51.5966 62.483C51.4574 62.1108 51.2458 61.8168 50.9617 61.6009C50.6804 61.3821 50.3267 61.2727 49.9006 61.2727C49.4915 61.2727 49.1478 61.3764 48.8694 61.5838C48.5909 61.7884 48.3807 62.0753 48.2387 62.4446C48.0966 62.8111 48.0256 63.2386 48.0256 63.7273ZM57.0943 67.1364C56.5034 67.1364 55.9849 66.9957 55.5389 66.7145C55.0957 66.4332 54.7491 66.0398 54.4991 65.5341C54.2519 65.0284 54.1284 64.4375 54.1284 63.7614C54.1284 63.0795 54.2519 62.4844 54.4991 61.9759C54.7491 61.4673 55.0957 61.0724 55.5389 60.7912C55.9849 60.5099 56.5034 60.3693 57.0943 60.3693C57.6852 60.3693 58.2022 60.5099 58.6454 60.7912C59.0914 61.0724 59.438 61.4673 59.6852 61.9759C59.9352 62.4844 60.0602 63.0795 60.0602 63.7614C60.0602 64.4375 59.9352 65.0284 59.6852 65.5341C59.438 66.0398 59.0914 66.4332 58.6454 66.7145C58.2022 66.9957 57.6852 67.1364 57.0943 67.1364ZM57.0943 66.233C57.5431 66.233 57.9125 66.1179 58.2022 65.8878C58.492 65.6577 58.7065 65.3551 58.8457 64.9801C58.9849 64.6051 59.0545 64.1989 59.0545 63.7614C59.0545 63.3239 58.9849 62.9162 58.8457 62.5384C58.7065 62.1605 58.492 61.8551 58.2022 61.6222C57.9125 61.3892 57.5431 61.2727 57.0943 61.2727C56.6454 61.2727 56.2761 61.3892 55.9863 61.6222C55.6966 61.8551 55.4821 62.1605 55.3429 62.5384C55.2037 62.9162 55.1341 63.3239 55.1341 63.7614C55.1341 64.1989 55.2037 64.6051 55.3429 64.9801C55.4821 65.3551 55.6966 65.6577 55.9863 65.8878C56.2761 66.1179 56.6454 66.233 57.0943 66.233ZM66.3174 61.9205L65.414 62.1761C65.3572 62.0256 65.2734 61.8793 65.1626 61.7372C65.0546 61.5923 64.9069 61.473 64.7194 61.3793C64.5319 61.2855 64.2919 61.2386 63.9992 61.2386C63.5987 61.2386 63.2649 61.331 62.9978 61.5156C62.7336 61.6974 62.6015 61.929 62.6015 62.2102C62.6015 62.4602 62.6924 62.6577 62.8742 62.8026C63.0561 62.9474 63.3401 63.0682 63.7265 63.1648L64.6981 63.4034C65.2833 63.5455 65.7194 63.7628 66.0063 64.0554C66.2933 64.3452 66.4367 64.7187 66.4367 65.1761C66.4367 65.5511 66.3288 65.8864 66.1129 66.1818C65.8998 66.4773 65.6015 66.7102 65.218 66.8807C64.8345 67.0511 64.3884 67.1364 63.8799 67.1364C63.2123 67.1364 62.6597 66.9915 62.2222 66.7017C61.7847 66.4119 61.5078 65.9886 61.3913 65.4318L62.3458 65.1932C62.4367 65.5455 62.6086 65.8097 62.8615 65.9858C63.1171 66.1619 63.4509 66.25 63.8629 66.25C64.3316 66.25 64.7038 66.1506 64.9794 65.9517C65.2578 65.75 65.397 65.5085 65.397 65.2273C65.397 65 65.3174 64.8097 65.1583 64.6562C64.9992 64.5 64.7549 64.3835 64.4254 64.3068L63.3345 64.0511C62.735 63.9091 62.2947 63.6889 62.0134 63.3906C61.735 63.0895 61.5958 62.7131 61.5958 62.2614C61.5958 61.892 61.6995 61.5653 61.9069 61.2812C62.1171 60.9972 62.4026 60.7741 62.7634 60.6122C63.1271 60.4503 63.539 60.3693 63.9992 60.3693C64.647 60.3693 65.1555 60.5114 65.5248 60.7955C65.897 61.0795 66.1612 61.4545 66.3174 61.9205ZM70.8829 60.4545V61.3068H67.4908V60.4545H70.8829ZM68.4795 58.8864H69.4852V65.125C69.4852 65.4091 69.5264 65.6222 69.6087 65.7642C69.694 65.9034 69.8019 65.9972 69.9326 66.0455C70.0661 66.0909 70.2068 66.1136 70.3545 66.1136C70.4653 66.1136 70.5562 66.108 70.6272 66.0966C70.6982 66.0824 70.7551 66.071 70.7977 66.0625L71.0022 66.9659C70.934 66.9915 70.8389 67.017 70.7167 67.0426C70.5945 67.071 70.4397 67.0852 70.2522 67.0852C69.9681 67.0852 69.6897 67.0241 69.417 66.902C69.1471 66.7798 68.9227 66.5938 68.7437 66.3438C68.5676 66.0938 68.4795 65.7784 68.4795 65.3977V58.8864ZM74.4075 67.1534C73.9928 67.1534 73.6163 67.0753 73.2783 66.919C72.9402 66.7599 72.6717 66.5312 72.4729 66.233C72.274 65.9318 72.1746 65.5682 72.1746 65.142C72.1746 64.767 72.2484 64.4631 72.3962 64.2301C72.5439 63.9943 72.7413 63.8097 72.9885 63.6761C73.2357 63.5426 73.5084 63.4432 73.8067 63.3778C74.1078 63.3097 74.4104 63.2557 74.7143 63.2159C75.1121 63.1648 75.4345 63.1264 75.6817 63.1009C75.9317 63.0724 76.1135 63.0256 76.2271 62.9602C76.3436 62.8949 76.4018 62.7812 76.4018 62.6193V62.5852C76.4018 62.1648 76.2868 61.8381 76.0567 61.6051C75.8294 61.3722 75.4842 61.2557 75.0212 61.2557C74.541 61.2557 74.1646 61.3608 73.8919 61.571C73.6192 61.7812 73.4274 62.0057 73.3166 62.2443L72.3621 61.9034C72.5325 61.5057 72.7598 61.196 73.0439 60.9744C73.3308 60.75 73.6433 60.5937 73.9814 60.5057C74.3223 60.4148 74.6575 60.3693 74.9871 60.3693C75.1973 60.3693 75.4388 60.3949 75.7115 60.446C75.9871 60.4943 76.2527 60.5952 76.5084 60.7486C76.7669 60.902 76.9814 61.1335 77.1518 61.4432C77.3223 61.7528 77.4075 62.1676 77.4075 62.6875V67H76.4018V66.1136H76.3507C76.2825 66.2557 76.1689 66.4077 76.0098 66.5696C75.8507 66.7315 75.6391 66.8693 75.3749 66.983C75.1107 67.0966 74.7882 67.1534 74.4075 67.1534ZM74.5609 66.25C74.9587 66.25 75.2939 66.1719 75.5666 66.0156C75.8422 65.8594 76.0496 65.6577 76.1888 65.4105C76.3308 65.1634 76.4018 64.9034 76.4018 64.6307V63.7102C76.3592 63.7614 76.2655 63.8082 76.1206 63.8509C75.9785 63.8906 75.8138 63.9261 75.6263 63.9574C75.4416 63.9858 75.2612 64.0114 75.0851 64.0341C74.9118 64.054 74.7712 64.071 74.6632 64.0852C74.4018 64.1193 74.1575 64.1747 73.9303 64.2514C73.7058 64.3253 73.524 64.4375 73.3848 64.5881C73.2484 64.7358 73.1803 64.9375 73.1803 65.1932C73.1803 65.5426 73.3095 65.8068 73.568 65.9858C73.8294 66.1619 74.1604 66.25 74.5609 66.25ZM83.9652 61.9205L83.0618 62.1761C83.005 62.0256 82.9212 61.8793 82.8104 61.7372C82.7024 61.5923 82.5547 61.473 82.3672 61.3793C82.1797 61.2855 81.9396 61.2386 81.647 61.2386C81.2464 61.2386 80.9126 61.331 80.6456 61.5156C80.3814 61.6974 80.2493 61.929 80.2493 62.2102C80.2493 62.4602 80.3402 62.6577 80.522 62.8026C80.7038 62.9474 80.9879 63.0682 81.3743 63.1648L82.3459 63.4034C82.9311 63.5455 83.3672 63.7628 83.6541 64.0554C83.941 64.3452 84.0845 64.7187 84.0845 65.1761C84.0845 65.5511 83.9766 65.8864 83.7606 66.1818C83.5476 66.4773 83.2493 66.7102 82.8658 66.8807C82.4822 67.0511 82.0362 67.1364 81.5277 67.1364C80.8601 67.1364 80.3075 66.9915 79.87 66.7017C79.4325 66.4119 79.1555 65.9886 79.0391 65.4318L79.9936 65.1932C80.0845 65.5455 80.2564 65.8097 80.5092 65.9858C80.7649 66.1619 81.0987 66.25 81.5106 66.25C81.9794 66.25 82.3516 66.1506 82.6271 65.9517C82.9055 65.75 83.0447 65.5085 83.0447 65.2273C83.0447 65 82.9652 64.8097 82.8061 64.6562C82.647 64.5 82.4027 64.3835 82.0731 64.3068L80.9822 64.0511C80.3828 63.9091 79.9425 63.6889 79.6612 63.3906C79.3828 63.0895 79.2436 62.7131 79.2436 62.2614C79.2436 61.892 79.3473 61.5653 79.5547 61.2812C79.7649 60.9972 80.0504 60.7741 80.4112 60.6122C80.7748 60.4503 81.1868 60.3693 81.647 60.3693C82.2947 60.3693 82.8033 60.5114 83.1726 60.7955C83.5447 61.0795 83.8089 61.4545 83.9652 61.9205ZM94.4971 60.4545L92.0766 67H91.0539L88.6334 60.4545H89.7243L91.5311 65.6705H91.5993L93.4061 60.4545H94.4971ZM97.6371 67.1534C97.2223 67.1534 96.8459 67.0753 96.5078 66.919C96.1698 66.7599 95.9013 66.5312 95.7024 66.233C95.5036 65.9318 95.4041 65.5682 95.4041 65.142C95.4041 64.767 95.478 64.4631 95.6257 64.2301C95.7735 63.9943 95.9709 63.8097 96.2181 63.6761C96.4652 63.5426 96.738 63.4432 97.0363 63.3778C97.3374 63.3097 97.6399 63.2557 97.9439 63.2159C98.3416 63.1648 98.6641 63.1264 98.9113 63.1009C99.1613 63.0724 99.3431 63.0256 99.4567 62.9602C99.5732 62.8949 99.6314 62.7812 99.6314 62.6193V62.5852C99.6314 62.1648 99.5164 61.8381 99.2863 61.6051C99.059 61.3722 98.7138 61.2557 98.2507 61.2557C97.7706 61.2557 97.3942 61.3608 97.1215 61.571C96.8488 61.7812 96.657 62.0057 96.5462 62.2443L95.5916 61.9034C95.7621 61.5057 95.9894 61.196 96.2735 60.9744C96.5604 60.75 96.8729 60.5937 97.211 60.5057C97.5519 60.4148 97.8871 60.3693 98.2166 60.3693C98.4269 60.3693 98.6684 60.3949 98.9411 60.446C99.2166 60.4943 99.4823 60.5952 99.738 60.7486C99.9965 60.902 100.211 61.1335 100.381 61.4432C100.552 61.7528 100.637 62.1676 100.637 62.6875V67H99.6314V66.1136H99.5803C99.5121 66.2557 99.3985 66.4077 99.2394 66.5696C99.0803 66.7315 98.8686 66.8693 98.6044 66.983C98.3402 67.0966 98.0178 67.1534 97.6371 67.1534ZM97.7905 66.25C98.1882 66.25 98.5235 66.1719 98.7962 66.0156C99.0718 65.8594 99.2791 65.6577 99.4184 65.4105C99.5604 65.1634 99.6314 64.9034 99.6314 64.6307V63.7102C99.5888 63.7614 99.4951 63.8082 99.3502 63.8509C99.2081 63.8906 99.0434 63.9261 98.8559 63.9574C98.6712 63.9858 98.4908 64.0114 98.3147 64.0341C98.1414 64.054 98.0007 64.071 97.8928 64.0852C97.6314 64.1193 97.3871 64.1747 97.1598 64.2514C96.9354 64.3253 96.7536 64.4375 96.6144 64.5881C96.478 64.7358 96.4098 64.9375 96.4098 65.1932C96.4098 65.5426 96.5391 65.8068 96.7976 65.9858C97.059 66.1619 97.3899 66.25 97.7905 66.25ZM97.8246 59.5682L98.8644 57.5909H100.041L98.711 59.5682H97.8246ZM103.564 58.2727V67H102.558V58.2727H103.564ZM105.492 67V60.4545H106.497V67H105.492ZM106.003 59.3636C105.807 59.3636 105.638 59.2969 105.496 59.1634C105.357 59.0298 105.287 58.8693 105.287 58.6818C105.287 58.4943 105.357 58.3338 105.496 58.2003C105.638 58.0668 105.807 58 106.003 58C106.199 58 106.367 58.0668 106.506 58.2003C106.648 58.3338 106.719 58.4943 106.719 58.6818C106.719 58.8693 106.648 59.0298 106.506 59.1634C106.367 59.2969 106.199 59.3636 106.003 59.3636ZM110.897 67.1364C110.351 67.1364 109.87 66.9986 109.452 66.723C109.035 66.4446 108.708 66.0526 108.472 65.5469C108.236 65.0384 108.118 64.4375 108.118 63.7443C108.118 63.0568 108.236 62.4602 108.472 61.9545C108.708 61.4489 109.036 61.0582 109.456 60.7827C109.877 60.5071 110.363 60.3693 110.914 60.3693C111.34 60.3693 111.677 60.4403 111.924 60.5824C112.174 60.7216 112.364 60.8807 112.495 61.0597C112.628 61.2358 112.732 61.3807 112.806 61.4943H112.891V58.2727H113.897V67H112.925V65.9943H112.806C112.732 66.1136 112.627 66.2642 112.49 66.446C112.354 66.625 112.16 66.7855 111.907 66.9276C111.654 67.0668 111.317 67.1364 110.897 67.1364ZM111.033 66.233C111.437 66.233 111.777 66.1278 112.056 65.9176C112.334 65.7045 112.546 65.4105 112.691 65.0355C112.836 64.6577 112.908 64.2216 112.908 63.7273C112.908 63.2386 112.837 62.8111 112.695 62.4446C112.553 62.0753 112.343 61.7884 112.064 61.5838C111.786 61.3764 111.442 61.2727 111.033 61.2727C110.607 61.2727 110.252 61.3821 109.968 61.6009C109.687 61.8168 109.475 62.1108 109.333 62.483C109.194 62.8523 109.124 63.267 109.124 63.7273C109.124 64.1932 109.195 64.6165 109.337 64.9972C109.482 65.375 109.695 65.6761 109.976 65.9006C110.26 66.1222 110.613 66.233 111.033 66.233ZM117.89 67.1534C117.475 67.1534 117.099 67.0753 116.761 66.919C116.423 66.7599 116.154 66.5312 115.955 66.233C115.757 65.9318 115.657 65.5682 115.657 65.142C115.657 64.767 115.731 64.4631 115.879 64.2301C116.026 63.9943 116.224 63.8097 116.471 63.6761C116.718 63.5426 116.991 63.4432 117.289 63.3778C117.59 63.3097 117.893 63.2557 118.197 63.2159C118.595 63.1648 118.917 63.1264 119.164 63.1009C119.414 63.0724 119.596 63.0256 119.71 62.9602C119.826 62.8949 119.884 62.7812 119.884 62.6193V62.5852C119.884 62.1648 119.769 61.8381 119.539 61.6051C119.312 61.3722 118.967 61.2557 118.504 61.2557C118.024 61.2557 117.647 61.3608 117.374 61.571C117.102 61.7812 116.91 62.0057 116.799 62.2443L115.845 61.9034C116.015 61.5057 116.242 61.196 116.526 60.9744C116.813 60.75 117.126 60.5937 117.464 60.5057C117.805 60.4148 118.14 60.3693 118.47 60.3693C118.68 60.3693 118.921 60.3949 119.194 60.446C119.47 60.4943 119.735 60.5952 119.991 60.7486C120.249 60.902 120.464 61.1335 120.634 61.4432C120.805 61.7528 120.89 62.1676 120.89 62.6875V67H119.884V66.1136H119.833C119.765 66.2557 119.651 66.4077 119.492 66.5696C119.333 66.7315 119.122 66.8693 118.857 66.983C118.593 67.0966 118.271 67.1534 117.89 67.1534ZM118.044 66.25C118.441 66.25 118.776 66.1719 119.049 66.0156C119.325 65.8594 119.532 65.6577 119.671 65.4105C119.813 65.1634 119.884 64.9034 119.884 64.6307V63.7102C119.842 63.7614 119.748 63.8082 119.603 63.8509C119.461 63.8906 119.296 63.9261 119.109 63.9574C118.924 63.9858 118.744 64.0114 118.568 64.0341C118.394 64.054 118.254 64.071 118.146 64.0852C117.884 64.1193 117.64 64.1747 117.413 64.2514C117.188 64.3253 117.007 64.4375 116.867 64.5881C116.731 64.7358 116.663 64.9375 116.663 65.1932C116.663 65.5426 116.792 65.8068 117.051 65.9858C117.312 66.1619 117.643 66.25 118.044 66.25ZM127.448 61.9205L126.544 62.1761C126.488 62.0256 126.404 61.8793 126.293 61.7372C126.185 61.5923 126.037 61.473 125.85 61.3793C125.662 61.2855 125.422 61.2386 125.13 61.2386C124.729 61.2386 124.395 61.331 124.128 61.5156C123.864 61.6974 123.732 61.929 123.732 62.2102C123.732 62.4602 123.823 62.6577 124.005 62.8026C124.186 62.9474 124.471 63.0682 124.857 63.1648L125.828 63.4034C126.414 63.5455 126.85 63.7628 127.137 64.0554C127.424 64.3452 127.567 64.7187 127.567 65.1761C127.567 65.5511 127.459 65.8864 127.243 66.1818C127.03 66.4773 126.732 66.7102 126.348 66.8807C125.965 67.0511 125.519 67.1364 125.01 67.1364C124.343 67.1364 123.79 66.9915 123.353 66.7017C122.915 66.4119 122.638 65.9886 122.522 65.4318L123.476 65.1932C123.567 65.5455 123.739 65.8097 123.992 65.9858C124.247 66.1619 124.581 66.25 124.993 66.25C125.462 66.25 125.834 66.1506 126.11 65.9517C126.388 65.75 126.527 65.5085 126.527 65.2273C126.527 65 126.448 64.8097 126.289 64.6562C126.13 64.5 125.885 64.3835 125.556 64.3068L124.465 64.0511C123.865 63.9091 123.425 63.6889 123.144 63.3906C122.865 63.0895 122.726 62.7131 122.726 62.2614C122.726 61.892 122.83 61.5653 123.037 61.2812C123.247 60.9972 123.533 60.7741 123.894 60.6122C124.257 60.4503 124.669 60.3693 125.13 60.3693C125.777 60.3693 126.286 60.5114 126.655 60.7955C127.027 61.0795 127.292 61.4545 127.448 61.9205Z" fill="#696974"/>
</g>
<path d="M188 44.9742C188 44.9742 191.824 44.1283 196.171 46.1604C204.439 50.0252 204.911 42.9477 207.977 39.5351C210.782 36.4129 213.105 38.3179 216.228 42.1361C218.532 44.9521 221.889 49.6792 225.365 48.9182C228.543 48.2226 230.796 42.6784 235.201 41.2684C238.692 40.1509 241.529 43.221 245.55 42.1361C251.003 40.6643 251.816 35.0267 255.713 35.0267C260.524 35.0267 263.537 45.0866 267.913 45.0866C272.264 45.0866 274.502 35.1417 279.261 38.1607C282.899 40.4687 285 32 285 32" stroke="#0062FF" stroke-width="3" stroke-linecap="round" stroke-linejoin="round"/>
<g filter="url(#filter2_d_202_683)">
<rect x="251" y="32" width="10" height="10" rx="5" fill="#0062FF"/>
<rect x="251.75" y="32.75" width="8.5" height="8.5" rx="4.25" stroke="white" stroke-width="1.5"/>
</g>
</g>
<defs>
<filter id="filter0_d_202_683" x="6" y="6" width="308" height="86" filterUnits="userSpaceOnUse" color-interpolation-filters="sRGB">
<feFlood flood-opacity="0" result="BackgroundImageFix"/>
<feColorMatrix in="SourceAlpha" type="matrix" values="0 0 0 0 0 0 0 0 0 0 0 0 0 0 0 0 0 0 127 0" result="hardAlpha"/>
<feOffset dy="4"/>
<feGaussianBlur stdDeviation="2"/>
<feComposite in2="hardAlpha" operator="out"/>
<feColorMatrix type="matrix" values="0 0 0 0 0 0 0 0 0 0 0 0 0 0 0 0 0 0 0.25 0"/>
<feBlend mode="normal" in2="BackgroundImageFix" result="effect1_dropShadow_202_683"/>
<feBlend mode="normal" in="SourceGraphic" in2="effect1_dropShadow_202_683" result="shape"/>
</filter>
<filter id="filter1_d_202_683" x="0.2" y="0.2" width="319.6" height="97.6" filterUnits="userSpaceOnUse" color-interpolation-filters="sRGB">
<feFlood flood-opacity="0" result="BackgroundImageFix"/>
<feColorMatrix in="SourceAlpha" type="matrix" values="0 0 0 0 0 0 0 0 0 0 0 0 0 0 0 0 0 0 127 0" result="hardAlpha"/>
<feOffset dy="4"/>
<feGaussianBlur stdDeviation="4.9"/>
<feComposite in2="hardAlpha" operator="out"/>
<feColorMatrix type="matrix" values="0 0 0 0 0 0 0 0 0 0 0 0 0 0 0 0 0 0 0.3 0"/>
<feBlend mode="normal" in2="BackgroundImageFix" result="effect1_dropShadow_202_683"/>
<feBlend mode="normal" in="SourceGraphic" in2="effect1_dropShadow_202_683" result="shape"/>
</filter>
<filter id="filter2_d_202_683" x="249" y="31" width="14" height="14" filterUnits="userSpaceOnUse" color-interpolation-filters="sRGB">
<feFlood flood-opacity="0" result="BackgroundImageFix"/>
<feColorMatrix in="SourceAlpha" type="matrix" values="0 0 0 0 0 0 0 0 0 0 0 0 0 0 0 0 0 0 127 0" result="hardAlpha"/>
<feOffset dy="1"/>
<feGaussianBlur stdDeviation="1"/>
<feColorMatrix type="matrix" values="0 0 0 0 0.268354 0 0 0 0 0.268354 0 0 0 0 0.31049 0 0 0 0.15 0"/>
<feBlend mode="normal" in2="BackgroundImageFix" result="effect1_dropShadow_202_683"/>
<feBlend mode="normal" in="SourceGraphic" in2="effect1_dropShadow_202_683" result="shape"/>
</filter>
<clipPath id="clip0_202_683">
<rect width="119" height="48" fill="white" transform="translate(25 21)"/>
</clipPath>
</defs>
</svg>
