<svg width="320" height="310" viewBox="0 0 320 310" fill="none" xmlns="http://www.w3.org/2000/svg">
<g filter="url(#filter0_d_207_684)">
<path d="M10 24C10 12.9543 18.9543 4 30 4H290C301.046 4 310 12.9543 310 24V274C310 285.046 301.046 294 290 294H30C18.9543 294 10 285.046 10 274V24Z" fill="#FFFDFD"/>
</g>
<rect x="34" y="230" width="10" height="10" rx="5" fill="#0062FF"/>
<path d="M55.233 241V230.818H56.4659V235.352H61.8949V230.818H63.1278V241H61.8949V236.446H56.4659V241H55.233ZM68.6394 241.159C67.95 241.159 67.3451 240.995 66.8248 240.667C66.3077 240.339 65.9034 239.88 65.6117 239.29C65.3234 238.7 65.1792 238.01 65.1792 237.222C65.1792 236.426 65.3234 235.732 65.6117 235.138C65.9034 234.545 66.3077 234.085 66.8248 233.756C67.3451 233.428 67.95 233.264 68.6394 233.264C69.3288 233.264 69.932 233.428 70.4491 233.756C70.9694 234.085 71.3738 234.545 71.6621 235.138C71.9538 235.732 72.0996 236.426 72.0996 237.222C72.0996 238.01 71.9538 238.7 71.6621 239.29C71.3738 239.88 70.9694 240.339 70.4491 240.667C69.932 240.995 69.3288 241.159 68.6394 241.159ZM68.6394 240.105C69.1631 240.105 69.594 239.971 69.932 239.702C70.2701 239.434 70.5203 239.081 70.6827 238.643C70.8451 238.206 70.9264 237.732 70.9264 237.222C70.9264 236.711 70.8451 236.236 70.6827 235.795C70.5203 235.354 70.2701 234.998 69.932 234.726C69.594 234.454 69.1631 234.318 68.6394 234.318C68.1157 234.318 67.6849 234.454 67.3468 234.726C67.0087 234.998 66.7585 235.354 66.5961 235.795C66.4337 236.236 66.3525 236.711 66.3525 237.222C66.3525 237.732 66.4337 238.206 66.5961 238.643C66.7585 239.081 67.0087 239.434 67.3468 239.702C67.6849 239.971 68.1157 240.105 68.6394 240.105ZM73.9907 241V233.364H75.1242V234.557H75.2236C75.3827 234.149 75.6396 233.833 75.9942 233.607C76.3489 233.379 76.7748 233.264 77.2719 233.264C77.7757 233.264 78.195 233.379 78.5297 233.607C78.8678 233.833 79.1313 234.149 79.3202 234.557H79.3998C79.5953 234.162 79.8886 233.849 80.2797 233.617C80.6708 233.382 81.1398 233.264 81.6867 233.264C82.3694 233.264 82.9279 233.478 83.3621 233.906C83.7963 234.33 84.0134 234.991 84.0134 235.889V241H82.8401V235.889C82.8401 235.326 82.686 234.923 82.3777 234.681C82.0695 234.439 81.7066 234.318 81.289 234.318C80.752 234.318 80.3361 234.481 80.0411 234.805C79.7461 235.127 79.5986 235.535 79.5986 236.028V241H78.4054V235.77C78.4054 235.336 78.2646 234.986 77.9828 234.721C77.7011 234.452 77.3382 234.318 76.8941 234.318C76.5891 234.318 76.3041 234.399 76.039 234.562C75.7771 234.724 75.565 234.95 75.4026 235.238C75.2435 235.523 75.164 235.853 75.164 236.227V241H73.9907ZM89.4603 241.159C88.7245 241.159 88.0898 240.997 87.5562 240.672C87.0259 240.344 86.6166 239.886 86.3282 239.3C86.0432 238.71 85.9007 238.024 85.9007 237.241C85.9007 236.459 86.0432 235.77 86.3282 235.173C86.6166 234.573 87.0176 234.106 87.5314 233.771C88.0484 233.433 88.6516 233.264 89.341 233.264C89.7387 233.264 90.1315 233.33 90.5193 233.463C90.9071 233.596 91.26 233.811 91.5782 234.109C91.8964 234.404 92.15 234.795 92.3389 235.283C92.5278 235.77 92.6223 236.37 92.6223 237.082V237.58H86.7359V236.565H91.4291C91.4291 236.134 91.3429 235.75 91.1706 235.412C91.0015 235.074 90.7596 234.807 90.4447 234.612C90.1332 234.416 89.7653 234.318 89.341 234.318C88.8737 234.318 88.4693 234.434 88.1279 234.666C87.7899 234.895 87.5297 235.193 87.3474 235.561C87.1651 235.929 87.074 236.323 87.074 236.744V237.42C87.074 237.997 87.1734 238.486 87.3723 238.887C87.5744 239.285 87.8545 239.588 88.2125 239.797C88.5704 240.002 88.9864 240.105 89.4603 240.105C89.7686 240.105 90.047 240.062 90.2956 239.976C90.5475 239.886 90.7645 239.754 90.9468 239.578C91.1291 239.399 91.27 239.177 91.3694 238.912L92.5029 239.23C92.3836 239.615 92.1831 239.953 91.9014 240.244C91.6197 240.533 91.2716 240.758 90.8574 240.92C90.4431 241.08 89.9774 241.159 89.4603 241.159ZM95.6804 236.406V241H94.5071V233.364H95.6406V234.557H95.74C95.919 234.169 96.1908 233.857 96.5554 233.622C96.9199 233.384 97.3906 233.264 97.9673 233.264C98.4843 233.264 98.9368 233.37 99.3245 233.582C99.7123 233.791 100.014 234.109 100.229 234.537C100.445 234.961 100.553 235.498 100.553 236.148V241H99.3792V236.227C99.3792 235.627 99.2235 235.16 98.9119 234.825C98.6003 234.487 98.1728 234.318 97.6292 234.318C97.2547 234.318 96.9199 234.399 96.625 234.562C96.3333 234.724 96.1029 234.961 95.9339 235.273C95.7649 235.584 95.6804 235.962 95.6804 236.406ZM108.206 235.074L107.152 235.372C107.085 235.196 106.988 235.026 106.858 234.86C106.732 234.691 106.56 234.552 106.341 234.442C106.123 234.333 105.842 234.278 105.501 234.278C105.034 234.278 104.644 234.386 104.333 234.602C104.025 234.814 103.87 235.084 103.87 235.412C103.87 235.704 103.976 235.934 104.189 236.103C104.401 236.272 104.732 236.413 105.183 236.526L106.316 236.804C106.999 236.97 107.508 237.223 107.843 237.565C108.177 237.903 108.345 238.339 108.345 238.872C108.345 239.31 108.219 239.701 107.967 240.045C107.718 240.39 107.37 240.662 106.923 240.861C106.475 241.06 105.955 241.159 105.362 241.159C104.583 241.159 103.938 240.99 103.428 240.652C102.917 240.314 102.594 239.82 102.458 239.17L103.572 238.892C103.678 239.303 103.879 239.611 104.174 239.817C104.472 240.022 104.861 240.125 105.342 240.125C105.889 240.125 106.323 240.009 106.645 239.777C106.969 239.542 107.132 239.26 107.132 238.932C107.132 238.667 107.039 238.445 106.853 238.266C106.668 238.083 106.383 237.947 105.998 237.858L104.725 237.56C104.026 237.394 103.512 237.137 103.184 236.789C102.859 236.438 102.697 235.999 102.697 235.472C102.697 235.041 102.818 234.66 103.06 234.328C103.305 233.997 103.638 233.737 104.059 233.548C104.484 233.359 104.964 233.264 105.501 233.264C106.257 233.264 106.85 233.43 107.281 233.761C107.715 234.093 108.023 234.53 108.206 235.074Z" fill="black"/>
<path d="M112.825 241V239.449L116.45 236.093C116.758 235.795 117.016 235.526 117.225 235.288C117.437 235.049 117.598 234.815 117.707 234.587C117.817 234.355 117.871 234.104 117.871 233.836C117.871 233.538 117.804 233.281 117.668 233.065C117.532 232.847 117.346 232.679 117.111 232.563C116.875 232.444 116.609 232.384 116.31 232.384C115.999 232.384 115.727 232.447 115.495 232.573C115.263 232.699 115.084 232.88 114.958 233.115C114.832 233.35 114.769 233.63 114.769 233.955H112.726C112.726 233.289 112.877 232.711 113.178 232.22C113.48 231.73 113.902 231.35 114.446 231.082C114.99 230.813 115.616 230.679 116.325 230.679C117.054 230.679 117.689 230.808 118.229 231.067C118.773 231.322 119.196 231.677 119.497 232.131C119.799 232.585 119.95 233.105 119.95 233.692C119.95 234.076 119.873 234.456 119.721 234.83C119.572 235.205 119.305 235.621 118.92 236.078C118.536 236.532 117.994 237.077 117.295 237.714L115.808 239.17V239.24H120.084V241H112.825ZM123.001 241.129C122.673 241.129 122.392 241.013 122.156 240.781C121.924 240.546 121.808 240.264 121.808 239.936C121.808 239.611 121.924 239.333 122.156 239.101C122.392 238.869 122.673 238.753 123.001 238.753C123.32 238.753 123.598 238.869 123.837 239.101C124.075 239.333 124.195 239.611 124.195 239.936C124.195 240.155 124.138 240.355 124.026 240.538C123.916 240.717 123.772 240.861 123.593 240.97C123.414 241.076 123.217 241.129 123.001 241.129ZM129.172 230.818V241H127.019V232.862H126.959L124.628 234.323V232.414L127.148 230.818H129.172ZM133.631 238.803L133.636 236.262H133.944L136.39 233.364H138.821L135.535 237.202H135.033L133.631 238.803ZM131.712 241V230.818H133.829V241H131.712ZM136.484 241L134.237 237.674L135.649 236.178L138.965 241H136.484Z" fill="black"/>
<rect x="172" y="230" width="10" height="10" rx="5" fill="#FF974A"/>
<path d="M193.233 230.818H194.705L198.165 239.27H198.284L201.744 230.818H203.216V241H202.062V233.264H201.963L198.781 241H197.668L194.486 233.264H194.386V241H193.233V230.818ZM210.441 237.878V233.364H211.615V241H210.441V239.707H210.362C210.183 240.095 209.905 240.425 209.527 240.697C209.149 240.965 208.672 241.099 208.095 241.099C207.618 241.099 207.193 240.995 206.822 240.786C206.451 240.574 206.159 240.256 205.947 239.832C205.735 239.404 205.629 238.866 205.629 238.216V233.364H206.802V238.136C206.802 238.693 206.958 239.137 207.27 239.469C207.584 239.8 207.985 239.966 208.473 239.966C208.764 239.966 209.061 239.891 209.363 239.742C209.668 239.593 209.923 239.364 210.128 239.056C210.337 238.748 210.441 238.355 210.441 237.878ZM215.037 230.818V241H213.864V230.818H215.037ZM218.459 236.406V241H217.286V230.818H218.459V234.557H218.559C218.738 234.162 219.006 233.849 219.364 233.617C219.725 233.382 220.206 233.264 220.806 233.264C221.326 233.264 221.782 233.369 222.173 233.577C222.564 233.783 222.867 234.099 223.083 234.527C223.302 234.951 223.411 235.491 223.411 236.148V241H222.238V236.227C222.238 235.621 222.08 235.152 221.765 234.82C221.454 234.486 221.021 234.318 220.468 234.318C220.083 234.318 219.739 234.399 219.434 234.562C219.132 234.724 218.893 234.961 218.718 235.273C218.545 235.584 218.459 235.962 218.459 236.406ZM228.859 241.159C228.123 241.159 227.489 240.997 226.955 240.672C226.425 240.344 226.015 239.886 225.727 239.3C225.442 238.71 225.3 238.024 225.3 237.241C225.3 236.459 225.442 235.77 225.727 235.173C226.015 234.573 226.416 234.106 226.93 233.771C227.447 233.433 228.05 233.264 228.74 233.264C229.138 233.264 229.53 233.33 229.918 233.463C230.306 233.596 230.659 233.811 230.977 234.109C231.295 234.404 231.549 234.795 231.738 235.283C231.927 235.77 232.021 236.37 232.021 237.082V237.58H226.135V236.565H230.828C230.828 236.134 230.742 235.75 230.569 235.412C230.4 235.074 230.158 234.807 229.844 234.612C229.532 234.416 229.164 234.318 228.74 234.318C228.273 234.318 227.868 234.434 227.527 234.666C227.189 234.895 226.929 235.193 226.746 235.561C226.564 235.929 226.473 236.323 226.473 236.744V237.42C226.473 237.997 226.572 238.486 226.771 238.887C226.973 239.285 227.253 239.588 227.611 239.797C227.969 240.002 228.385 240.105 228.859 240.105C229.167 240.105 229.446 240.062 229.694 239.976C229.946 239.886 230.163 239.754 230.346 239.578C230.528 239.399 230.669 239.177 230.768 238.912L231.902 239.23C231.782 239.615 231.582 239.953 231.3 240.244C231.018 240.533 230.67 240.758 230.256 240.92C229.842 241.08 229.376 241.159 228.859 241.159ZM233.906 241V233.364H235.039V234.517H235.119C235.258 234.139 235.51 233.833 235.875 233.597C236.239 233.362 236.65 233.244 237.108 233.244C237.194 233.244 237.301 233.246 237.431 233.249C237.56 233.253 237.658 233.258 237.724 233.264V234.457C237.684 234.447 237.593 234.433 237.451 234.413C237.311 234.389 237.164 234.378 237.008 234.378C236.637 234.378 236.306 234.456 236.014 234.612C235.725 234.764 235.497 234.976 235.328 235.248C235.162 235.516 235.079 235.823 235.079 236.168V241H233.906ZM242.184 241.159C241.448 241.159 240.814 240.997 240.28 240.672C239.75 240.344 239.34 239.886 239.052 239.3C238.767 238.71 238.625 238.024 238.625 237.241C238.625 236.459 238.767 235.77 239.052 235.173C239.34 234.573 239.741 234.106 240.255 233.771C240.772 233.433 241.375 233.264 242.065 233.264C242.463 233.264 242.855 233.33 243.243 233.463C243.631 233.596 243.984 233.811 244.302 234.109C244.62 234.404 244.874 234.795 245.063 235.283C245.252 235.77 245.346 236.37 245.346 237.082V237.58H239.46V236.565H244.153C244.153 236.134 244.067 235.75 243.894 235.412C243.725 235.074 243.483 234.807 243.169 234.612C242.857 234.416 242.489 234.318 242.065 234.318C241.598 234.318 241.193 234.434 240.852 234.666C240.514 234.895 240.254 235.193 240.071 235.561C239.889 235.929 239.798 236.323 239.798 236.744V237.42C239.798 237.997 239.897 238.486 240.096 238.887C240.298 239.285 240.578 239.588 240.936 239.797C241.294 240.002 241.71 240.105 242.184 240.105C242.492 240.105 242.771 240.062 243.019 239.976C243.271 239.886 243.488 239.754 243.671 239.578C243.853 239.399 243.994 239.177 244.093 238.912L245.227 239.23C245.107 239.615 244.907 239.953 244.625 240.244C244.343 240.533 243.995 240.758 243.581 240.92C243.167 241.08 242.701 241.159 242.184 241.159ZM252.64 235.074L251.586 235.372C251.52 235.196 251.422 235.026 251.293 234.86C251.167 234.691 250.994 234.552 250.776 234.442C250.557 234.333 250.277 234.278 249.935 234.278C249.468 234.278 249.079 234.386 248.767 234.602C248.459 234.814 248.305 235.084 248.305 235.412C248.305 235.704 248.411 235.934 248.623 236.103C248.835 236.272 249.167 236.413 249.617 236.526L250.751 236.804C251.434 236.97 251.942 237.223 252.277 237.565C252.612 237.903 252.779 238.339 252.779 238.872C252.779 239.31 252.653 239.701 252.401 240.045C252.153 240.39 251.805 240.662 251.357 240.861C250.91 241.06 250.39 241.159 249.796 241.159C249.017 241.159 248.373 240.99 247.862 240.652C247.352 240.314 247.029 239.82 246.893 239.17L248.006 238.892C248.113 239.303 248.313 239.611 248.608 239.817C248.906 240.022 249.296 240.125 249.776 240.125C250.323 240.125 250.757 240.009 251.079 239.777C251.404 239.542 251.566 239.26 251.566 238.932C251.566 238.667 251.473 238.445 251.288 238.266C251.102 238.083 250.817 237.947 250.433 237.858L249.16 237.56C248.461 237.394 247.947 237.137 247.619 236.789C247.294 236.438 247.131 235.999 247.131 235.472C247.131 235.041 247.252 234.66 247.494 234.328C247.74 233.997 248.073 233.737 248.494 233.548C248.918 233.359 249.399 233.264 249.935 233.264C250.691 233.264 251.284 233.43 251.715 233.761C252.149 234.093 252.458 234.53 252.64 235.074Z" fill="black"/>
<path d="M263.255 230.818V241H261.102V232.862H261.043L258.711 234.323V232.414L261.232 230.818H263.255ZM267.714 238.803L267.719 236.262H268.027L270.473 233.364H272.904L269.618 237.202H269.116L267.714 238.803ZM265.795 241V230.818H267.913V241H265.795ZM270.568 241L268.32 237.674L269.732 236.178L273.048 241H270.568Z" fill="black"/>
<rect x="34" y="264" width="10" height="10" rx="5" fill="#3DD598"/>
<path d="M56.4659 264.818V275H55.233V264.818H56.4659ZM61.7625 275.159C61.1261 275.159 60.5643 274.998 60.0771 274.677C59.5899 274.352 59.2087 273.895 58.9336 273.305C58.6585 272.711 58.521 272.01 58.521 271.202C58.521 270.4 58.6585 269.704 58.9336 269.114C59.2087 268.524 59.5915 268.068 60.0821 267.746C60.5726 267.425 61.1394 267.264 61.7824 267.264C62.2795 267.264 62.6723 267.347 62.9606 267.513C63.2523 267.675 63.4743 267.861 63.6268 268.07C63.7826 268.275 63.9036 268.444 63.9897 268.577H64.0892V264.818H65.2625V275H64.1289V273.827H63.9897C63.9036 273.966 63.7809 274.142 63.6218 274.354C63.4627 274.562 63.2357 274.75 62.9407 274.915C62.6458 275.078 62.253 275.159 61.7625 275.159ZM61.9216 274.105C62.3922 274.105 62.7899 273.982 63.1147 273.737C63.4395 273.489 63.6865 273.146 63.8555 272.708C64.0245 272.267 64.1091 271.759 64.1091 271.182C64.1091 270.612 64.0262 270.113 63.8605 269.685C63.6948 269.254 63.4495 268.92 63.1247 268.681C62.7999 268.439 62.3988 268.318 61.9216 268.318C61.4244 268.318 61.0101 268.446 60.6787 268.701C60.3505 268.953 60.1036 269.296 59.9379 269.73C59.7755 270.161 59.6943 270.645 59.6943 271.182C59.6943 271.725 59.7771 272.219 59.9429 272.663C60.1119 273.104 60.3605 273.455 60.6886 273.717C61.02 273.976 61.431 274.105 61.9216 274.105ZM70.7765 275.159C70.0871 275.159 69.4823 274.995 68.9619 274.667C68.4449 274.339 68.0405 273.88 67.7488 273.29C67.4605 272.7 67.3163 272.01 67.3163 271.222C67.3163 270.426 67.4605 269.732 67.7488 269.138C68.0405 268.545 68.4449 268.085 68.9619 267.756C69.4823 267.428 70.0871 267.264 70.7765 267.264C71.4659 267.264 72.0691 267.428 72.5862 267.756C73.1065 268.085 73.5109 268.545 73.7993 269.138C74.0909 269.732 74.2368 270.426 74.2368 271.222C74.2368 272.01 74.0909 272.7 73.7993 273.29C73.5109 273.88 73.1065 274.339 72.5862 274.667C72.0691 274.995 71.4659 275.159 70.7765 275.159ZM70.7765 274.105C71.3002 274.105 71.7311 273.971 72.0691 273.702C72.4072 273.434 72.6574 273.081 72.8199 272.643C72.9823 272.206 73.0635 271.732 73.0635 271.222C73.0635 270.711 72.9823 270.236 72.8199 269.795C72.6574 269.354 72.4072 268.998 72.0691 268.726C71.7311 268.454 71.3002 268.318 70.7765 268.318C70.2529 268.318 69.822 268.454 69.4839 268.726C69.1458 268.998 68.8956 269.354 68.7332 269.795C68.5708 270.236 68.4896 270.711 68.4896 271.222C68.4896 271.732 68.5708 272.206 68.7332 272.643C68.8956 273.081 69.1458 273.434 69.4839 273.702C69.822 273.971 70.2529 274.105 70.7765 274.105ZM81.5369 269.074L80.4829 269.372C80.4166 269.196 80.3188 269.026 80.1896 268.86C80.0636 268.691 79.8913 268.552 79.6725 268.442C79.4538 268.333 79.1737 268.278 78.8323 268.278C78.365 268.278 77.9755 268.386 77.664 268.602C77.3558 268.814 77.2016 269.084 77.2016 269.412C77.2016 269.704 77.3077 269.934 77.5198 270.103C77.7319 270.272 78.0634 270.413 78.5141 270.526L79.6477 270.804C80.3304 270.97 80.8392 271.223 81.1739 271.565C81.5087 271.903 81.6761 272.339 81.6761 272.872C81.6761 273.31 81.5501 273.701 81.2982 274.045C81.0496 274.39 80.7016 274.662 80.2542 274.861C79.8067 275.06 79.2864 275.159 78.6931 275.159C77.9142 275.159 77.2696 274.99 76.7592 274.652C76.2487 274.314 75.9256 273.82 75.7897 273.17L76.9033 272.892C77.0094 273.303 77.2099 273.611 77.5049 273.817C77.8032 274.022 78.1926 274.125 78.6732 274.125C79.2201 274.125 79.6543 274.009 79.9758 273.777C80.3006 273.542 80.463 273.26 80.463 272.932C80.463 272.667 80.3702 272.445 80.1846 272.266C79.999 272.083 79.7139 271.947 79.3295 271.858L78.0567 271.56C77.3574 271.394 76.8437 271.137 76.5156 270.789C76.1907 270.438 76.0283 269.999 76.0283 269.472C76.0283 269.041 76.1493 268.66 76.3913 268.328C76.6365 267.997 76.9696 267.737 77.3906 267.548C77.8148 267.359 78.2954 267.264 78.8323 267.264C79.588 267.264 80.1813 267.43 80.6121 267.761C81.0463 268.093 81.3546 268.53 81.5369 269.074ZM86.6445 275.159C85.9551 275.159 85.3502 274.995 84.8299 274.667C84.3128 274.339 83.9085 273.88 83.6168 273.29C83.3284 272.7 83.1843 272.01 83.1843 271.222C83.1843 270.426 83.3284 269.732 83.6168 269.138C83.9085 268.545 84.3128 268.085 84.8299 267.756C85.3502 267.428 85.9551 267.264 86.6445 267.264C87.3339 267.264 87.9371 267.428 88.4542 267.756C88.9745 268.085 89.3789 268.545 89.6672 269.138C89.9589 269.732 90.1047 270.426 90.1047 271.222C90.1047 272.01 89.9589 272.7 89.6672 273.29C89.3789 273.88 88.9745 274.339 88.4542 274.667C87.9371 274.995 87.3339 275.159 86.6445 275.159ZM86.6445 274.105C87.1682 274.105 87.599 273.971 87.9371 273.702C88.2752 273.434 88.5254 273.081 88.6878 272.643C88.8502 272.206 88.9314 271.732 88.9314 271.222C88.9314 270.711 88.8502 270.236 88.6878 269.795C88.5254 269.354 88.2752 268.998 87.9371 268.726C87.599 268.454 87.1682 268.318 86.6445 268.318C86.1208 268.318 85.6899 268.454 85.3519 268.726C85.0138 268.998 84.7636 269.354 84.6012 269.795C84.4388 270.236 84.3576 270.711 84.3576 271.222C84.3576 271.732 84.4388 272.206 84.6012 272.643C84.7636 273.081 85.0138 273.434 85.3519 273.702C85.6899 273.971 86.1208 274.105 86.6445 274.105ZM97.4048 269.074L96.3509 269.372C96.2846 269.196 96.1868 269.026 96.0575 268.86C95.9316 268.691 95.7592 268.552 95.5405 268.442C95.3217 268.333 95.0417 268.278 94.7003 268.278C94.233 268.278 93.8435 268.386 93.532 268.602C93.2237 268.814 93.0696 269.084 93.0696 269.412C93.0696 269.704 93.1757 269.934 93.3878 270.103C93.5999 270.272 93.9313 270.413 94.3821 270.526L95.5156 270.804C96.1984 270.97 96.7071 271.223 97.0419 271.565C97.3767 271.903 97.544 272.339 97.544 272.872C97.544 273.31 97.4181 273.701 97.1662 274.045C96.9176 274.39 96.5696 274.662 96.1222 274.861C95.6747 275.06 95.1544 275.159 94.5611 275.159C93.7822 275.159 93.1375 274.99 92.6271 274.652C92.1167 274.314 91.7936 273.82 91.6577 273.17L92.7713 272.892C92.8774 273.303 93.0779 273.611 93.3729 273.817C93.6712 274.022 94.0606 274.125 94.5412 274.125C95.0881 274.125 95.5223 274.009 95.8438 273.777C96.1686 273.542 96.331 273.26 96.331 272.932C96.331 272.667 96.2382 272.445 96.0526 272.266C95.867 272.083 95.5819 271.947 95.1974 271.858L93.9247 271.56C93.2254 271.394 92.7116 271.137 92.3835 270.789C92.0587 270.438 91.8963 269.999 91.8963 269.472C91.8963 269.041 92.0173 268.66 92.2592 268.328C92.5045 267.997 92.8376 267.737 93.2585 267.548C93.6828 267.359 94.1634 267.264 94.7003 267.264C95.456 267.264 96.0492 267.43 96.4801 267.761C96.9143 268.093 97.2225 268.53 97.4048 269.074Z" fill="black"/>
<path d="M108.255 264.818V275H106.102V266.862H106.043L103.711 268.323V266.414L106.232 264.818H108.255ZM111.486 275.129C111.158 275.129 110.876 275.013 110.641 274.781C110.409 274.546 110.293 274.264 110.293 273.936C110.293 273.611 110.409 273.333 110.641 273.101C110.876 272.869 111.158 272.753 111.486 272.753C111.804 272.753 112.082 272.869 112.321 273.101C112.56 273.333 112.679 273.611 112.679 273.936C112.679 274.155 112.623 274.355 112.51 274.538C112.401 274.717 112.256 274.861 112.077 274.97C111.898 275.076 111.701 275.129 111.486 275.129ZM117.99 264.679C118.514 264.679 119.018 264.767 119.502 264.942C119.989 265.118 120.423 265.398 120.804 265.783C121.189 266.167 121.492 266.678 121.714 267.314C121.94 267.947 122.054 268.724 122.057 269.646C122.057 270.511 121.959 271.283 121.764 271.962C121.572 272.638 121.295 273.214 120.934 273.688C120.572 274.161 120.137 274.523 119.626 274.771C119.116 275.017 118.546 275.139 117.916 275.139C117.236 275.139 116.637 275.008 116.116 274.746C115.596 274.481 115.177 274.122 114.858 273.668C114.544 273.21 114.353 272.696 114.287 272.126H116.41C116.492 272.498 116.666 272.786 116.932 272.991C117.197 273.194 117.525 273.295 117.916 273.295C118.579 273.295 119.083 273.006 119.427 272.43C119.772 271.85 119.946 271.056 119.949 270.048H119.88C119.727 270.347 119.522 270.603 119.263 270.819C119.005 271.031 118.708 271.195 118.373 271.311C118.042 271.427 117.689 271.485 117.314 271.485C116.714 271.485 116.179 271.344 115.709 271.062C115.238 270.781 114.867 270.393 114.595 269.899C114.323 269.405 114.187 268.842 114.187 268.209C114.184 267.526 114.341 266.918 114.66 266.384C114.978 265.851 115.422 265.433 115.992 265.131C116.565 264.826 117.231 264.676 117.99 264.679ZM118.005 266.369C117.671 266.369 117.372 266.449 117.111 266.608C116.852 266.767 116.646 266.981 116.494 267.249C116.345 267.518 116.272 267.818 116.275 268.149C116.275 268.484 116.348 268.786 116.494 269.054C116.643 269.319 116.845 269.531 117.101 269.69C117.359 269.846 117.654 269.924 117.986 269.924C118.234 269.924 118.464 269.878 118.677 269.785C118.889 269.692 119.073 269.564 119.228 269.402C119.388 269.236 119.512 269.046 119.601 268.83C119.691 268.615 119.736 268.386 119.736 268.144C119.732 267.823 119.656 267.528 119.507 267.259C119.358 266.991 119.152 266.775 118.89 266.613C118.629 266.451 118.334 266.369 118.005 266.369ZM125.588 272.803L125.593 270.262H125.901L128.347 267.364H130.778L127.492 271.202H126.99L125.588 272.803ZM123.669 275V264.818H125.787V275H123.669ZM128.441 275L126.194 271.674L127.606 270.178L130.922 275H128.441Z" fill="black"/>
<g clip-path="url(#clip0_207_684)">
<rect x="172" y="264" width="10" height="10" rx="5" fill="#FFC542"/>
<path d="M197.131 264.818H198.364V272.097C198.364 272.746 198.244 273.298 198.006 273.752C197.767 274.206 197.431 274.551 196.996 274.786C196.562 275.022 196.05 275.139 195.46 275.139C194.903 275.139 194.408 275.038 193.974 274.836C193.54 274.63 193.198 274.339 192.95 273.961C192.701 273.583 192.577 273.134 192.577 272.614H193.79C193.79 272.902 193.861 273.154 194.004 273.369C194.149 273.581 194.348 273.747 194.6 273.866C194.852 273.986 195.139 274.045 195.46 274.045C195.815 274.045 196.116 273.971 196.365 273.822C196.614 273.673 196.803 273.454 196.932 273.165C197.064 272.874 197.131 272.518 197.131 272.097V264.818ZM203.878 275.159C203.188 275.159 202.583 274.995 202.063 274.667C201.546 274.339 201.142 273.88 200.85 273.29C200.562 272.7 200.417 272.01 200.417 271.222C200.417 270.426 200.562 269.732 200.85 269.138C201.142 268.545 201.546 268.085 202.063 267.756C202.583 267.428 203.188 267.264 203.878 267.264C204.567 267.264 205.17 267.428 205.687 267.756C206.208 268.085 206.612 268.545 206.9 269.138C207.192 269.732 207.338 270.426 207.338 271.222C207.338 272.01 207.192 272.7 206.9 273.29C206.612 273.88 206.208 274.339 205.687 274.667C205.17 274.995 204.567 275.159 203.878 275.159ZM203.878 274.105C204.401 274.105 204.832 273.971 205.17 273.702C205.508 273.434 205.759 273.081 205.921 272.643C206.083 272.206 206.165 271.732 206.165 271.222C206.165 270.711 206.083 270.236 205.921 269.795C205.759 269.354 205.508 268.998 205.17 268.726C204.832 268.454 204.401 268.318 203.878 268.318C203.354 268.318 202.923 268.454 202.585 268.726C202.247 268.998 201.997 269.354 201.834 269.795C201.672 270.236 201.591 270.711 201.591 271.222C201.591 271.732 201.672 272.206 201.834 272.643C201.997 273.081 202.247 273.434 202.585 273.702C202.923 273.971 203.354 274.105 203.878 274.105ZM215.2 267.364L212.376 275H211.183L208.359 267.364H209.632L211.74 273.449H211.819L213.927 267.364H215.2ZM219.777 275.159C219.041 275.159 218.406 274.997 217.873 274.672C217.342 274.344 216.933 273.886 216.645 273.3C216.36 272.71 216.217 272.024 216.217 271.241C216.217 270.459 216.36 269.77 216.645 269.173C216.933 268.573 217.334 268.106 217.848 267.771C218.365 267.433 218.968 267.264 219.657 267.264C220.055 267.264 220.448 267.33 220.836 267.463C221.223 267.596 221.576 267.811 221.895 268.109C222.213 268.404 222.466 268.795 222.655 269.283C222.844 269.77 222.939 270.37 222.939 271.082V271.58H217.052V270.565H221.745C221.745 270.134 221.659 269.75 221.487 269.412C221.318 269.074 221.076 268.807 220.761 268.612C220.45 268.416 220.082 268.318 219.657 268.318C219.19 268.318 218.786 268.434 218.444 268.666C218.106 268.895 217.846 269.193 217.664 269.561C217.482 269.929 217.39 270.323 217.39 270.744V271.42C217.39 271.997 217.49 272.486 217.689 272.887C217.891 273.285 218.171 273.588 218.529 273.797C218.887 274.002 219.303 274.105 219.777 274.105C220.085 274.105 220.363 274.062 220.612 273.976C220.864 273.886 221.081 273.754 221.263 273.578C221.446 273.399 221.586 273.177 221.686 272.912L222.819 273.23C222.7 273.615 222.5 273.953 222.218 274.244C221.936 274.533 221.588 274.758 221.174 274.92C220.759 275.08 220.294 275.159 219.777 275.159ZM225.997 270.406V275H224.823V267.364H225.957V268.557H226.056C226.235 268.169 226.507 267.857 226.872 267.622C227.236 267.384 227.707 267.264 228.284 267.264C228.801 267.264 229.253 267.37 229.641 267.582C230.029 267.791 230.33 268.109 230.546 268.537C230.761 268.961 230.869 269.498 230.869 270.148V275H229.696V270.227C229.696 269.627 229.54 269.16 229.228 268.825C228.917 268.487 228.489 268.318 227.946 268.318C227.571 268.318 227.236 268.399 226.941 268.562C226.65 268.724 226.419 268.961 226.25 269.273C226.081 269.584 225.997 269.962 225.997 270.406ZM238.522 269.074L237.468 269.372C237.402 269.196 237.304 269.026 237.175 268.86C237.049 268.691 236.876 268.552 236.658 268.442C236.439 268.333 236.159 268.278 235.817 268.278C235.35 268.278 234.961 268.386 234.649 268.602C234.341 268.814 234.187 269.084 234.187 269.412C234.187 269.704 234.293 269.934 234.505 270.103C234.717 270.272 235.049 270.413 235.499 270.526L236.633 270.804C237.316 270.97 237.824 271.223 238.159 271.565C238.494 271.903 238.661 272.339 238.661 272.872C238.661 273.31 238.535 273.701 238.283 274.045C238.035 274.39 237.687 274.662 237.239 274.861C236.792 275.06 236.272 275.159 235.678 275.159C234.899 275.159 234.255 274.99 233.744 274.652C233.234 274.314 232.911 273.82 232.775 273.17L233.888 272.892C233.995 273.303 234.195 273.611 234.49 273.817C234.788 274.022 235.178 274.125 235.658 274.125C236.205 274.125 236.639 274.009 236.961 273.777C237.286 273.542 237.448 273.26 237.448 272.932C237.448 272.667 237.355 272.445 237.17 272.266C236.984 272.083 236.699 271.947 236.315 271.858L235.042 271.56C234.343 271.394 233.829 271.137 233.501 270.789C233.176 270.438 233.013 269.999 233.013 269.472C233.013 269.041 233.134 268.66 233.376 268.328C233.622 267.997 233.955 267.737 234.376 267.548C234.8 267.359 235.281 267.264 235.817 267.264C236.573 267.264 237.166 267.43 237.597 267.761C238.031 268.093 238.34 268.53 238.522 269.074Z" fill="black"/>
<path d="M250.255 264.818V275H248.102V266.862H248.043L245.711 268.323V266.414L248.232 264.818H250.255ZM256.494 275.139C255.791 275.139 255.165 275.01 254.614 274.751C254.068 274.493 253.633 274.137 253.312 273.683C252.99 273.228 252.823 272.708 252.81 272.121H254.898C254.921 272.516 255.087 272.836 255.395 273.081C255.703 273.326 256.069 273.449 256.494 273.449C256.832 273.449 257.13 273.374 257.389 273.225C257.65 273.073 257.854 272.862 258 272.594C258.149 272.322 258.224 272.01 258.224 271.659C258.224 271.301 258.148 270.986 257.995 270.714C257.846 270.443 257.639 270.231 257.374 270.078C257.108 269.926 256.805 269.848 256.464 269.844C256.166 269.844 255.876 269.906 255.594 270.028C255.315 270.151 255.098 270.318 254.943 270.531L253.028 270.188L253.511 264.818H259.735V266.578H255.286L255.022 269.129H255.082C255.261 268.877 255.531 268.668 255.892 268.502C256.253 268.336 256.658 268.254 257.105 268.254C257.718 268.254 258.265 268.398 258.746 268.686C259.226 268.974 259.606 269.371 259.884 269.874C260.163 270.375 260.3 270.951 260.297 271.604C260.3 272.29 260.141 272.9 259.82 273.434C259.501 273.964 259.056 274.382 258.482 274.687C257.912 274.988 257.249 275.139 256.494 275.139ZM262.828 275.129C262.5 275.129 262.218 275.013 261.983 274.781C261.751 274.546 261.635 274.264 261.635 273.936C261.635 273.611 261.751 273.333 261.983 273.101C262.218 272.869 262.5 272.753 262.828 272.753C263.146 272.753 263.425 272.869 263.663 273.101C263.902 273.333 264.021 273.611 264.021 273.936C264.021 274.155 263.965 274.355 263.852 274.538C263.743 274.717 263.599 274.861 263.42 274.97C263.241 275.076 263.043 275.129 262.828 275.129ZM265.86 275L270.081 266.648V266.578H265.164V264.818H272.308V266.603L268.082 275H265.86ZM275.822 272.803L275.827 270.262H276.136L278.582 267.364H281.013L277.727 271.202H277.224L275.822 272.803ZM273.903 275V264.818H276.021V275H273.903ZM278.676 275L276.429 271.674L277.841 270.178L281.157 275H278.676Z" fill="black"/>
</g>
<path fill-rule="evenodd" clip-rule="evenodd" d="M284.586 34L280.293 29.7071C279.902 29.3166 279.902 28.6834 280.293 28.2929C280.683 27.9024 281.317 27.9024 281.707 28.2929L286.707 33.2929C287.098 33.6834 287.098 34.3166 286.707 34.7071L281.707 39.7071C281.317 40.0976 280.683 40.0976 280.293 39.7071C279.902 39.3166 279.902 38.6834 280.293 38.2929L284.586 34Z" fill="black"/>
<path fill-rule="evenodd" clip-rule="evenodd" d="M35.4142 34L39.7071 38.2929C40.0976 38.6834 40.0976 39.3166 39.7071 39.7071C39.3166 40.0976 38.6834 40.0976 38.2929 39.7071L33.2929 34.7071C32.9024 34.3166 32.9024 33.6834 33.2929 33.2929L38.2929 28.2929C38.6834 27.9024 39.3166 27.9024 39.7071 28.2929C40.0976 28.6834 40.0976 29.3166 39.7071 29.7071L35.4142 34Z" fill="black"/>
<path d="M145.034 38V36.4773L149.074 32.517C149.46 32.1269 149.782 31.7803 150.04 31.4773C150.297 31.1742 150.491 30.8807 150.619 30.5966C150.748 30.3125 150.812 30.0095 150.812 29.6875C150.812 29.3201 150.729 29.0057 150.562 28.7443C150.396 28.4792 150.167 28.2746 149.875 28.1307C149.583 27.9867 149.252 27.9148 148.881 27.9148C148.498 27.9148 148.163 27.9943 147.875 28.1534C147.587 28.3087 147.364 28.5303 147.205 28.8182C147.049 29.1061 146.972 29.4489 146.972 29.8466H144.966C144.966 29.108 145.134 28.4659 145.472 27.9205C145.809 27.375 146.273 26.9527 146.864 26.6534C147.458 26.3542 148.14 26.2045 148.909 26.2045C149.689 26.2045 150.375 26.3504 150.966 26.642C151.557 26.9337 152.015 27.3333 152.341 27.8409C152.67 28.3485 152.835 28.928 152.835 29.5795C152.835 30.0152 152.752 30.4432 152.585 30.8636C152.419 31.2841 152.125 31.75 151.705 32.2614C151.288 32.7727 150.703 33.392 149.949 34.1193L147.943 36.1591V36.2386H153.011V38H145.034ZM159.373 38.2216C158.437 38.2216 157.634 37.9848 156.964 37.5114C156.297 37.0341 155.784 36.3466 155.424 35.4489C155.068 34.5473 154.89 33.4621 154.89 32.1932C154.894 30.9242 155.073 29.8447 155.43 28.9545C155.789 28.0606 156.303 27.3788 156.969 26.9091C157.64 26.4394 158.441 26.2045 159.373 26.2045C160.305 26.2045 161.106 26.4394 161.776 26.9091C162.447 27.3788 162.96 28.0606 163.316 28.9545C163.676 29.8485 163.856 30.928 163.856 32.1932C163.856 33.4659 163.676 34.553 163.316 35.4545C162.96 36.3523 162.447 37.0379 161.776 37.5114C161.109 37.9848 160.308 38.2216 159.373 38.2216ZM159.373 36.4432C160.1 36.4432 160.674 36.0852 161.094 35.3693C161.519 34.6496 161.731 33.5909 161.731 32.1932C161.731 31.2689 161.634 30.4924 161.441 29.8636C161.248 29.2348 160.975 28.7614 160.623 28.4432C160.27 28.1212 159.854 27.9602 159.373 27.9602C158.649 27.9602 158.077 28.3201 157.657 29.0398C157.236 29.7557 157.024 30.8068 157.02 32.1932C157.017 33.1212 157.109 33.9015 157.299 34.5341C157.492 35.1667 157.765 35.6439 158.117 35.9659C158.469 36.2841 158.888 36.4432 159.373 36.4432ZM165.843 38V36.4773L169.883 32.517C170.27 32.1269 170.592 31.7803 170.849 31.4773C171.107 31.1742 171.3 30.8807 171.429 30.5966C171.557 30.3125 171.622 30.0095 171.622 29.6875C171.622 29.3201 171.539 29.0057 171.372 28.7443C171.205 28.4792 170.976 28.2746 170.684 28.1307C170.393 27.9867 170.061 27.9148 169.69 27.9148C169.307 27.9148 168.972 27.9943 168.684 28.1534C168.396 28.3087 168.173 28.5303 168.014 28.8182C167.859 29.1061 167.781 29.4489 167.781 29.8466H165.775C165.775 29.108 165.944 28.4659 166.281 27.9205C166.618 27.375 167.082 26.9527 167.673 26.6534C168.268 26.3542 168.95 26.2045 169.718 26.2045C170.499 26.2045 171.184 26.3504 171.775 26.642C172.366 26.9337 172.825 27.3333 173.15 27.8409C173.48 28.3485 173.645 28.928 173.645 29.5795C173.645 30.0152 173.561 30.4432 173.395 30.8636C173.228 31.2841 172.934 31.75 172.514 32.2614C172.097 32.7727 171.512 33.392 170.758 34.1193L168.753 36.1591V36.2386H173.821V38H165.843ZM175.421 35.8409V34.1648L180.358 26.3636H181.756V28.75H180.904L177.58 34.017V34.108H184.472V35.8409H175.421ZM180.972 38V35.3295L180.995 34.5795V26.3636H182.983V38H180.972Z" fill="black"/>
<path fill-rule="evenodd" clip-rule="evenodd" d="M160 199C195.346 199 224 170.346 224 135C224 99.6538 195.346 71 160 71C124.654 71 96 99.6538 96 135C96 170.346 124.654 199 160 199Z" stroke="#0062FF" stroke-width="5.12"/>
<path d="M97.8252 119.762C96.6324 124.645 96 129.749 96 135C96 159.037 109.251 179.979 128.847 190.919" stroke="#3DD598" stroke-width="5.12" stroke-linecap="round" stroke-linejoin="round"/>
<path d="M128.934 190.968C138.134 196.085 148.726 199 160 199V199" stroke="#FF974A" stroke-width="5.12" stroke-linecap="round" stroke-linejoin="round"/>
<path d="M160 199C195.346 199 224 170.346 224 135C224 99.6538 195.346 71 160 71" stroke="#FFC542" stroke-width="5.12" stroke-linecap="round" stroke-linejoin="round"/>
<path d="M132.065 133.8V131.254L136.927 127.233C137.25 126.965 137.525 126.715 137.754 126.482C137.988 126.244 138.166 126 138.289 125.75C138.416 125.5 138.48 125.222 138.48 124.916C138.48 124.581 138.408 124.295 138.264 124.057C138.124 123.82 137.928 123.637 137.678 123.51C137.428 123.378 137.139 123.313 136.813 123.313C136.486 123.313 136.198 123.378 135.947 123.51C135.701 123.641 135.51 123.834 135.374 124.089C135.239 124.343 135.171 124.653 135.171 125.018H131.811C131.811 124.102 132.017 123.313 132.428 122.651C132.84 121.989 133.421 121.48 134.172 121.123C134.923 120.767 135.803 120.589 136.813 120.589C137.856 120.589 138.76 120.756 139.524 121.092C140.291 121.423 140.883 121.889 141.299 122.492C141.719 123.094 141.929 123.8 141.929 124.611C141.929 125.111 141.825 125.61 141.617 126.106C141.409 126.598 141.036 127.143 140.497 127.742C139.958 128.34 139.193 129.053 138.2 129.88L136.978 130.898V130.974H142.069V133.8H132.065ZM143.725 133.8V131.254L148.587 127.233C148.909 126.965 149.185 126.715 149.414 126.482C149.647 126.244 149.826 126 149.949 125.75C150.076 125.5 150.14 125.222 150.14 124.916C150.14 124.581 150.067 124.295 149.923 124.057C149.783 123.82 149.588 123.637 149.338 123.51C149.087 123.378 148.799 123.313 148.472 123.313C148.146 123.313 147.857 123.378 147.607 123.51C147.361 123.641 147.17 123.834 147.034 124.089C146.898 124.343 146.831 124.653 146.831 125.018H143.471C143.471 124.102 143.676 123.313 144.088 122.651C144.499 121.989 145.081 121.48 145.831 121.123C146.582 120.767 147.463 120.589 148.472 120.589C149.516 120.589 150.42 120.756 151.183 121.092C151.951 121.423 152.543 121.889 152.959 122.492C153.379 123.094 153.589 123.8 153.589 124.611C153.589 125.111 153.485 125.61 153.277 126.106C153.069 126.598 152.696 127.143 152.157 127.742C151.618 128.34 150.852 129.053 149.86 129.88L148.638 130.898V130.974H153.729V133.8H143.725ZM157.319 134.003C156.827 134.003 156.405 133.832 156.053 133.488C155.705 133.14 155.533 132.718 155.537 132.222C155.533 131.738 155.705 131.324 156.053 130.981C156.405 130.637 156.827 130.465 157.319 130.465C157.786 130.465 158.197 130.637 158.554 130.981C158.914 131.324 159.097 131.738 159.101 132.222C159.097 132.553 159.01 132.854 158.84 133.125C158.675 133.393 158.458 133.607 158.191 133.768C157.924 133.925 157.633 134.003 157.319 134.003ZM165.767 133.978C164.715 133.978 163.775 133.815 162.948 133.488C162.125 133.161 161.476 132.718 161.001 132.158C160.53 131.598 160.294 130.966 160.294 130.262C160.294 129.723 160.428 129.231 160.695 128.785C160.967 128.34 161.331 127.971 161.79 127.678C162.248 127.381 162.759 127.19 163.323 127.105V127.003C162.581 126.876 161.97 126.547 161.491 126.017C161.015 125.483 160.778 124.853 160.778 124.127C160.778 123.444 160.994 122.837 161.427 122.307C161.86 121.773 162.451 121.353 163.202 121.047C163.953 120.742 164.808 120.589 165.767 120.589C166.726 120.589 167.581 120.744 168.331 121.053C169.082 121.359 169.674 121.779 170.107 122.313C170.54 122.844 170.756 123.448 170.756 124.127C170.756 124.857 170.514 125.487 170.031 126.017C169.547 126.547 168.94 126.876 168.211 127.003V127.105C168.771 127.19 169.28 127.381 169.738 127.678C170.196 127.971 170.561 128.34 170.832 128.785C171.104 129.231 171.24 129.723 171.24 130.262C171.24 130.966 171.002 131.598 170.527 132.158C170.056 132.718 169.407 133.161 168.58 133.488C167.757 133.815 166.819 133.978 165.767 133.978ZM165.767 131.534C166.102 131.534 166.399 131.466 166.658 131.331C166.917 131.195 167.12 131.008 167.269 130.771C167.421 130.529 167.498 130.257 167.498 129.956C167.498 129.655 167.421 129.388 167.269 129.154C167.12 128.921 166.917 128.739 166.658 128.607C166.399 128.471 166.102 128.403 165.767 128.403C165.436 128.403 165.139 128.471 164.876 128.607C164.617 128.739 164.411 128.921 164.259 129.154C164.11 129.388 164.036 129.655 164.036 129.956C164.036 130.257 164.11 130.527 164.259 130.764C164.411 131.002 164.617 131.191 164.876 131.331C165.139 131.466 165.436 131.534 165.767 131.534ZM165.767 125.96C166.064 125.96 166.327 125.898 166.556 125.775C166.785 125.652 166.965 125.483 167.097 125.266C167.228 125.05 167.294 124.806 167.294 124.534C167.294 124.263 167.228 124.023 167.097 123.815C166.965 123.603 166.785 123.438 166.556 123.319C166.327 123.196 166.064 123.134 165.767 123.134C165.474 123.134 165.211 123.196 164.978 123.319C164.749 123.438 164.568 123.603 164.437 123.815C164.305 124.023 164.24 124.263 164.24 124.534C164.24 124.806 164.305 125.05 164.437 125.266C164.568 125.478 164.749 125.648 164.978 125.775C165.211 125.898 165.474 125.96 165.767 125.96ZM173.48 133.8L178.596 123.669V123.593H172.589V120.767H182.261V123.593L177.12 133.8H173.48ZM189.303 134.156C188.119 134.152 187.097 133.878 186.235 133.335C185.374 132.792 184.71 132.01 184.244 130.987C183.777 129.965 183.546 128.739 183.55 127.309C183.554 125.875 183.787 124.657 184.25 123.656C184.717 122.655 185.378 121.893 186.235 121.372C187.097 120.85 188.119 120.589 189.303 120.589C190.486 120.589 191.509 120.852 192.37 121.378C193.231 121.9 193.895 122.661 194.362 123.663C194.828 124.664 195.06 125.879 195.055 127.309C195.055 128.747 194.822 129.977 194.355 131C193.889 132.022 193.225 132.805 192.364 133.348C191.507 133.887 190.486 134.156 189.303 134.156ZM189.303 131.28C189.914 131.28 190.414 130.962 190.804 130.325C191.199 129.685 191.394 128.679 191.39 127.309C191.39 126.414 191.301 125.682 191.123 125.113C190.944 124.545 190.698 124.125 190.384 123.853C190.07 123.578 189.71 123.44 189.303 123.44C188.692 123.44 188.193 123.75 187.807 124.369C187.421 124.988 187.224 125.968 187.215 127.309C187.211 128.221 187.298 128.972 187.476 129.562C187.654 130.147 187.9 130.58 188.214 130.86C188.533 131.14 188.895 131.28 189.303 131.28Z" fill="black"/>
<path d="M119.789 152V145.484H121.991C122.502 145.484 122.92 145.576 123.245 145.76C123.571 145.943 123.813 146.19 123.97 146.502C124.127 146.814 124.205 147.162 124.205 147.545C124.205 147.929 124.127 148.278 123.97 148.592C123.815 148.906 123.575 149.157 123.251 149.343C122.926 149.528 122.511 149.62 122.004 149.62H120.425V148.92H121.978C122.328 148.92 122.609 148.86 122.821 148.739C123.033 148.618 123.187 148.454 123.283 148.249C123.38 148.041 123.429 147.806 123.429 147.545C123.429 147.285 123.38 147.051 123.283 146.845C123.187 146.64 123.032 146.478 122.818 146.362C122.604 146.243 122.32 146.184 121.965 146.184H120.578V152H119.789ZM127.435 152.102C126.964 152.102 126.558 151.998 126.217 151.79C125.877 151.58 125.615 151.287 125.431 150.912C125.248 150.534 125.157 150.095 125.157 149.595C125.157 149.094 125.248 148.653 125.431 148.271C125.615 147.887 125.872 147.588 126.201 147.374C126.532 147.157 126.918 147.049 127.359 147.049C127.614 147.049 127.865 147.092 128.113 147.176C128.361 147.261 128.587 147.399 128.791 147.59C128.994 147.779 129.157 148.029 129.278 148.341C129.399 148.653 129.459 149.037 129.459 149.493V149.811H125.692V149.162H128.695C128.695 148.886 128.64 148.64 128.53 148.424C128.422 148.207 128.267 148.037 128.065 147.911C127.866 147.786 127.631 147.724 127.359 147.724C127.06 147.724 126.801 147.798 126.583 147.946C126.366 148.093 126.2 148.284 126.083 148.519C125.966 148.755 125.908 149.007 125.908 149.276V149.709C125.908 150.078 125.972 150.391 126.099 150.648C126.228 150.902 126.408 151.096 126.637 151.23C126.866 151.362 127.132 151.427 127.435 151.427C127.633 151.427 127.811 151.4 127.97 151.345C128.131 151.287 128.27 151.202 128.387 151.09C128.503 150.975 128.594 150.833 128.657 150.664L129.383 150.867C129.306 151.113 129.178 151.33 128.998 151.516C128.817 151.701 128.595 151.845 128.329 151.949C128.064 152.051 127.766 152.102 127.435 152.102ZM134.127 148.207L133.453 148.398C133.41 148.286 133.348 148.177 133.265 148.07C133.184 147.962 133.074 147.873 132.934 147.803C132.794 147.733 132.615 147.698 132.396 147.698C132.097 147.698 131.848 147.767 131.648 147.905C131.451 148.041 131.353 148.214 131.353 148.424C131.353 148.61 131.42 148.758 131.556 148.866C131.692 148.974 131.904 149.064 132.193 149.136L132.918 149.315C133.355 149.421 133.681 149.583 133.895 149.801C134.109 150.018 134.216 150.297 134.216 150.638C134.216 150.918 134.136 151.168 133.974 151.389C133.815 151.61 133.593 151.784 133.306 151.911C133.02 152.038 132.687 152.102 132.307 152.102C131.809 152.102 131.396 151.994 131.069 151.777C130.743 151.561 130.536 151.245 130.449 150.829L131.162 150.651C131.23 150.914 131.358 151.111 131.547 151.243C131.738 151.374 131.987 151.44 132.294 151.44C132.644 151.44 132.922 151.366 133.128 151.217C133.336 151.067 133.44 150.886 133.44 150.676C133.44 150.507 133.38 150.365 133.262 150.25C133.143 150.133 132.96 150.046 132.714 149.989L131.9 149.798C131.452 149.692 131.123 149.528 130.913 149.305C130.706 149.08 130.602 148.799 130.602 148.462C130.602 148.186 130.679 147.942 130.834 147.73C130.991 147.518 131.204 147.351 131.473 147.23C131.745 147.11 132.053 147.049 132.396 147.049C132.88 147.049 133.26 147.155 133.535 147.367C133.813 147.579 134.01 147.859 134.127 148.207ZM138.872 148.207L138.198 148.398C138.155 148.286 138.093 148.177 138.01 148.07C137.929 147.962 137.819 147.873 137.679 147.803C137.539 147.733 137.36 147.698 137.141 147.698C136.842 147.698 136.593 147.767 136.394 147.905C136.196 148.041 136.098 148.214 136.098 148.424C136.098 148.61 136.166 148.758 136.301 148.866C136.437 148.974 136.649 149.064 136.938 149.136L137.663 149.315C138.1 149.421 138.426 149.583 138.64 149.801C138.854 150.018 138.961 150.297 138.961 150.638C138.961 150.918 138.881 151.168 138.72 151.389C138.561 151.61 138.338 151.784 138.051 151.911C137.765 152.038 137.432 152.102 137.052 152.102C136.554 152.102 136.141 151.994 135.815 151.777C135.488 151.561 135.281 151.245 135.194 150.829L135.907 150.651C135.975 150.914 136.103 151.111 136.292 151.243C136.483 151.374 136.732 151.44 137.04 151.44C137.39 151.44 137.667 151.366 137.873 151.217C138.081 151.067 138.185 150.886 138.185 150.676C138.185 150.507 138.126 150.365 138.007 150.25C137.888 150.133 137.706 150.046 137.46 149.989L136.645 149.798C136.197 149.692 135.869 149.528 135.659 149.305C135.451 149.08 135.347 148.799 135.347 148.462C135.347 148.186 135.424 147.942 135.579 147.73C135.736 147.518 135.949 147.351 136.219 147.23C136.49 147.11 136.798 147.049 137.141 147.049C137.625 147.049 138.005 147.155 138.281 147.367C138.558 147.579 138.756 147.859 138.872 148.207ZM142.141 152.102C141.7 152.102 141.313 151.997 140.98 151.787C140.649 151.577 140.39 151.283 140.204 150.905C140.019 150.528 139.927 150.087 139.927 149.582C139.927 149.073 140.019 148.628 140.204 148.249C140.39 147.869 140.649 147.574 140.98 147.364C141.313 147.154 141.7 147.049 142.141 147.049C142.582 147.049 142.969 147.154 143.299 147.364C143.632 147.574 143.891 147.869 144.076 148.249C144.262 148.628 144.356 149.073 144.356 149.582C144.356 150.087 144.262 150.528 144.076 150.905C143.891 151.283 143.632 151.577 143.299 151.787C142.969 151.997 142.582 152.102 142.141 152.102ZM142.141 151.427C142.476 151.427 142.752 151.341 142.969 151.17C143.185 150.998 143.345 150.772 143.449 150.492C143.553 150.212 143.605 149.908 143.605 149.582C143.605 149.255 143.553 148.951 143.449 148.669C143.345 148.387 143.185 148.158 142.969 147.985C142.752 147.811 142.476 147.724 142.141 147.724C141.806 147.724 141.53 147.811 141.314 147.985C141.098 148.158 140.937 148.387 140.834 148.669C140.73 148.951 140.678 149.255 140.678 149.582C140.678 149.908 140.73 150.212 140.834 150.492C140.937 150.772 141.098 150.998 141.314 151.17C141.53 151.341 141.806 151.427 142.141 151.427ZM147.004 152.115C146.695 152.115 146.413 152.056 146.161 151.94C145.909 151.821 145.708 151.65 145.56 151.427C145.411 151.202 145.337 150.931 145.337 150.613C145.337 150.333 145.392 150.106 145.502 149.932C145.613 149.756 145.76 149.618 145.945 149.518C146.129 149.418 146.333 149.344 146.556 149.295C146.78 149.245 147.006 149.204 147.233 149.175C147.53 149.136 147.771 149.108 147.956 149.089C148.142 149.067 148.278 149.032 148.363 148.984C148.45 148.935 148.493 148.85 148.493 148.729V148.704C148.493 148.39 148.407 148.146 148.236 147.972C148.066 147.798 147.808 147.711 147.462 147.711C147.104 147.711 146.823 147.789 146.619 147.946C146.416 148.103 146.272 148.271 146.19 148.449L145.477 148.195C145.604 147.898 145.774 147.666 145.986 147.501C146.2 147.333 146.434 147.217 146.686 147.151C146.941 147.083 147.191 147.049 147.437 147.049C147.594 147.049 147.774 147.068 147.978 147.106C148.184 147.142 148.382 147.218 148.573 147.332C148.766 147.447 148.926 147.62 149.053 147.851C149.181 148.082 149.244 148.392 149.244 148.78V152H148.493V151.338H148.455C148.404 151.444 148.319 151.558 148.201 151.679C148.082 151.8 147.924 151.902 147.726 151.987C147.529 152.072 147.288 152.115 147.004 152.115ZM147.119 151.44C147.416 151.44 147.666 151.382 147.87 151.265C148.075 151.148 148.23 150.998 148.334 150.813C148.44 150.629 148.493 150.435 148.493 150.231V149.544C148.461 149.582 148.391 149.617 148.283 149.649C148.177 149.678 148.054 149.705 147.914 149.728C147.776 149.749 147.642 149.768 147.51 149.785C147.381 149.8 147.276 149.813 147.195 149.824C147 149.849 146.818 149.89 146.648 149.948C146.48 150.003 146.345 150.087 146.241 150.199C146.139 150.309 146.088 150.46 146.088 150.651C146.088 150.912 146.184 151.109 146.377 151.243C146.573 151.374 146.82 151.44 147.119 151.44ZM154.141 148.207L153.466 148.398C153.424 148.286 153.361 148.177 153.278 148.07C153.198 147.962 153.087 147.873 152.947 147.803C152.807 147.733 152.628 147.698 152.41 147.698C152.111 147.698 151.861 147.767 151.662 147.905C151.465 148.041 151.366 148.214 151.366 148.424C151.366 148.61 151.434 148.758 151.57 148.866C151.705 148.974 151.918 149.064 152.206 149.136L152.932 149.315C153.368 149.421 153.694 149.583 153.908 149.801C154.123 150.018 154.23 150.297 154.23 150.638C154.23 150.918 154.149 151.168 153.988 151.389C153.829 151.61 153.606 151.784 153.32 151.911C153.033 152.038 152.7 152.102 152.321 152.102C151.822 152.102 151.41 151.994 151.083 151.777C150.756 151.561 150.549 151.245 150.462 150.829L151.175 150.651C151.243 150.914 151.371 151.111 151.56 151.243C151.751 151.374 152 151.44 152.308 151.44C152.658 151.44 152.936 151.366 153.142 151.217C153.349 151.067 153.453 150.886 153.453 150.676C153.453 150.507 153.394 150.365 153.275 150.25C153.156 150.133 152.974 150.046 152.728 149.989L151.913 149.798C151.466 149.692 151.137 149.528 150.927 149.305C150.719 149.08 150.615 148.799 150.615 148.462C150.615 148.186 150.693 147.942 150.847 147.73C151.004 147.518 151.218 147.351 151.487 147.23C151.758 147.11 152.066 147.049 152.41 147.049C152.893 147.049 153.273 147.155 153.549 147.367C153.827 147.579 154.024 147.859 154.141 148.207ZM159.446 152.115C159.137 152.115 158.855 152.056 158.603 151.94C158.351 151.821 158.15 151.65 158.002 151.427C157.853 151.202 157.779 150.931 157.779 150.613C157.779 150.333 157.834 150.106 157.944 149.932C158.055 149.756 158.202 149.618 158.387 149.518C158.571 149.418 158.775 149.344 158.998 149.295C159.222 149.245 159.448 149.204 159.675 149.175C159.972 149.136 160.213 149.108 160.398 149.089C160.584 149.067 160.72 149.032 160.805 148.984C160.892 148.935 160.935 148.85 160.935 148.729V148.704C160.935 148.39 160.849 148.146 160.678 147.972C160.508 147.798 160.25 147.711 159.904 147.711C159.546 147.711 159.265 147.789 159.061 147.946C158.858 148.103 158.714 148.271 158.632 148.449L157.919 148.195C158.046 147.898 158.216 147.666 158.428 147.501C158.642 147.333 158.876 147.217 159.128 147.151C159.383 147.083 159.633 147.049 159.879 147.049C160.036 147.049 160.216 147.068 160.42 147.106C160.626 147.142 160.824 147.218 161.015 147.332C161.208 147.447 161.368 147.62 161.495 147.851C161.623 148.082 161.686 148.392 161.686 148.78V152H160.935V151.338H160.897C160.846 151.444 160.761 151.558 160.643 151.679C160.524 151.8 160.366 151.902 160.168 151.987C159.971 152.072 159.73 152.115 159.446 152.115ZM159.561 151.44C159.858 151.44 160.108 151.382 160.312 151.265C160.517 151.148 160.672 150.998 160.776 150.813C160.882 150.629 160.935 150.435 160.935 150.231V149.544C160.903 149.582 160.833 149.617 160.725 149.649C160.619 149.678 160.496 149.705 160.356 149.728C160.218 149.749 160.084 149.768 159.952 149.785C159.823 149.8 159.718 149.813 159.637 149.824C159.442 149.849 159.26 149.89 159.09 149.948C158.922 150.003 158.787 150.087 158.683 150.199C158.581 150.309 158.53 150.46 158.53 150.651C158.53 150.912 158.626 151.109 158.819 151.243C159.015 151.374 159.262 151.44 159.561 151.44ZM163.872 145.484V152H163.121V145.484H163.872ZM167.296 152.102C166.838 152.102 166.444 151.994 166.113 151.777C165.782 151.561 165.527 151.263 165.349 150.883C165.171 150.503 165.082 150.07 165.082 149.582C165.082 149.085 165.173 148.647 165.356 148.268C165.54 147.886 165.797 147.588 166.126 147.374C166.456 147.157 166.843 147.049 167.284 147.049C167.627 147.049 167.937 147.113 168.213 147.24C168.489 147.367 168.715 147.545 168.891 147.775C169.067 148.004 169.176 148.271 169.218 148.576H168.467C168.41 148.354 168.283 148.156 168.086 147.985C167.89 147.811 167.627 147.724 167.296 147.724C167.004 147.724 166.747 147.8 166.526 147.953C166.308 148.103 166.137 148.317 166.014 148.592C165.893 148.866 165.833 149.187 165.833 149.556C165.833 149.934 165.892 150.263 166.011 150.543C166.132 150.823 166.302 151.04 166.52 151.195C166.741 151.35 167 151.427 167.296 151.427C167.492 151.427 167.669 151.393 167.828 151.325C167.987 151.258 168.122 151.16 168.232 151.033C168.342 150.905 168.421 150.753 168.467 150.575H169.218C169.176 150.863 169.071 151.123 168.903 151.354C168.738 151.583 168.518 151.766 168.245 151.901C167.973 152.035 167.657 152.102 167.296 152.102ZM171.818 152.115C171.509 152.115 171.227 152.056 170.975 151.94C170.723 151.821 170.522 151.65 170.374 151.427C170.225 151.202 170.151 150.931 170.151 150.613C170.151 150.333 170.206 150.106 170.316 149.932C170.427 149.756 170.574 149.618 170.759 149.518C170.943 149.418 171.147 149.344 171.37 149.295C171.594 149.245 171.82 149.204 172.047 149.175C172.344 149.136 172.585 149.108 172.77 149.089C172.956 149.067 173.092 149.032 173.177 148.984C173.264 148.935 173.307 148.85 173.307 148.729V148.704C173.307 148.39 173.221 148.146 173.05 147.972C172.88 147.798 172.622 147.711 172.276 147.711C171.918 147.711 171.637 147.789 171.433 147.946C171.23 148.103 171.086 148.271 171.004 148.449L170.291 148.195C170.418 147.898 170.588 147.666 170.8 147.501C171.014 147.333 171.248 147.217 171.5 147.151C171.755 147.083 172.005 147.049 172.251 147.049C172.408 147.049 172.588 147.068 172.792 147.106C172.998 147.142 173.196 147.218 173.387 147.332C173.58 147.447 173.74 147.62 173.867 147.851C173.995 148.082 174.058 148.392 174.058 148.78V152H173.307V151.338H173.269C173.218 151.444 173.133 151.558 173.015 151.679C172.896 151.8 172.738 151.902 172.54 151.987C172.343 152.072 172.102 152.115 171.818 152.115ZM171.933 151.44C172.23 151.44 172.48 151.382 172.684 151.265C172.889 151.148 173.044 150.998 173.148 150.813C173.254 150.629 173.307 150.435 173.307 150.231V149.544C173.275 149.582 173.205 149.617 173.097 149.649C172.991 149.678 172.868 149.705 172.728 149.728C172.59 149.749 172.456 149.768 172.324 149.785C172.195 149.8 172.09 149.813 172.009 149.824C171.814 149.849 171.632 149.89 171.462 149.948C171.294 150.003 171.159 150.087 171.055 150.199C170.953 150.309 170.902 150.46 170.902 150.651C170.902 150.912 170.998 151.109 171.191 151.243C171.387 151.374 171.634 151.44 171.933 151.44ZM176.244 149.06V152H175.493V147.113H176.218V147.876H176.282C176.396 147.628 176.57 147.429 176.804 147.278C177.037 147.125 177.338 147.049 177.707 147.049C178.038 147.049 178.328 147.117 178.576 147.253C178.824 147.386 179.017 147.59 179.155 147.864C179.293 148.135 179.362 148.479 179.362 148.895V152H178.611V148.945C178.611 148.562 178.511 148.262 178.312 148.048C178.112 147.832 177.839 147.724 177.491 147.724C177.251 147.724 177.037 147.776 176.848 147.88C176.662 147.983 176.514 148.135 176.406 148.335C176.298 148.534 176.244 148.776 176.244 149.06ZM182.783 152.102C182.325 152.102 181.931 151.994 181.6 151.777C181.269 151.561 181.014 151.263 180.836 150.883C180.658 150.503 180.569 150.07 180.569 149.582C180.569 149.085 180.66 148.647 180.843 148.268C181.027 147.886 181.284 147.588 181.613 147.374C181.943 147.157 182.33 147.049 182.771 147.049C183.114 147.049 183.424 147.113 183.7 147.24C183.976 147.367 184.202 147.545 184.378 147.775C184.554 148.004 184.663 148.271 184.705 148.576H183.954C183.897 148.354 183.77 148.156 183.573 147.985C183.377 147.811 183.114 147.724 182.783 147.724C182.491 147.724 182.234 147.8 182.013 147.953C181.795 148.103 181.624 148.317 181.501 148.592C181.38 148.866 181.32 149.187 181.32 149.556C181.32 149.934 181.379 150.263 181.498 150.543C181.619 150.823 181.789 151.04 182.007 151.195C182.228 151.35 182.487 151.427 182.783 151.427C182.979 151.427 183.156 151.393 183.315 151.325C183.474 151.258 183.609 151.16 183.719 151.033C183.829 150.905 183.908 150.753 183.954 150.575H184.705C184.663 150.863 184.558 151.123 184.39 151.354C184.225 151.583 184.005 151.766 183.732 151.901C183.46 152.035 183.144 152.102 182.783 152.102ZM182.427 151.975H183.051L183 152.229C183.165 152.255 183.317 152.323 183.455 152.436C183.593 152.55 183.662 152.732 183.662 152.98C183.662 153.254 183.548 153.476 183.321 153.648C183.096 153.822 182.764 153.909 182.325 153.909L182.3 153.413C182.497 153.413 182.66 153.381 182.79 153.317C182.921 153.256 182.987 153.152 182.987 153.005C182.987 152.859 182.933 152.759 182.825 152.706C182.717 152.653 182.542 152.617 182.3 152.598L182.427 151.975ZM187.305 152.115C186.996 152.115 186.714 152.056 186.462 151.94C186.21 151.821 186.009 151.65 185.861 151.427C185.712 151.202 185.638 150.931 185.638 150.613C185.638 150.333 185.693 150.106 185.803 149.932C185.914 149.756 186.061 149.618 186.246 149.518C186.43 149.418 186.634 149.344 186.857 149.295C187.081 149.245 187.307 149.204 187.534 149.175C187.831 149.136 188.072 149.108 188.257 149.089C188.443 149.067 188.579 149.032 188.664 148.984C188.751 148.935 188.794 148.85 188.794 148.729V148.704C188.794 148.39 188.708 148.146 188.537 147.972C188.367 147.798 188.109 147.711 187.763 147.711C187.405 147.711 187.124 147.789 186.92 147.946C186.717 148.103 186.573 148.271 186.491 148.449L185.778 148.195C185.905 147.898 186.075 147.666 186.287 147.501C186.501 147.333 186.735 147.217 186.987 147.151C187.242 147.083 187.492 147.049 187.738 147.049C187.895 147.049 188.075 147.068 188.279 147.106C188.485 147.142 188.683 147.218 188.874 147.332C189.067 147.447 189.227 147.62 189.354 147.851C189.482 148.082 189.545 148.392 189.545 148.78V152H188.794V151.338H188.756C188.705 151.444 188.62 151.558 188.502 151.679C188.383 151.8 188.225 151.902 188.027 151.987C187.83 152.072 187.589 152.115 187.305 152.115ZM187.42 151.44C187.717 151.44 187.967 151.382 188.171 151.265C188.376 151.148 188.531 150.998 188.635 150.813C188.741 150.629 188.794 150.435 188.794 150.231V149.544C188.762 149.582 188.692 149.617 188.584 149.649C188.478 149.678 188.355 149.705 188.215 149.728C188.077 149.749 187.943 149.768 187.811 149.785C187.682 149.8 187.577 149.813 187.496 149.824C187.301 149.849 187.119 149.89 186.949 149.948C186.781 150.003 186.646 150.087 186.542 150.199C186.44 150.309 186.389 150.46 186.389 150.651C186.389 150.912 186.485 151.109 186.678 151.243C186.874 151.374 187.121 151.44 187.42 151.44ZM192.825 152.102C192.418 152.102 192.058 151.999 191.747 151.793C191.435 151.585 191.191 151.293 191.015 150.915C190.839 150.535 190.751 150.087 190.751 149.569C190.751 149.056 190.839 148.61 191.015 148.233C191.191 147.855 191.436 147.563 191.75 147.358C192.064 147.152 192.426 147.049 192.838 147.049C193.156 147.049 193.408 147.102 193.592 147.208C193.779 147.312 193.921 147.431 194.018 147.565C194.118 147.696 194.196 147.804 194.251 147.889H194.314V145.484H195.065V152H194.34V151.249H194.251C194.196 151.338 194.117 151.451 194.015 151.586C193.913 151.72 193.768 151.84 193.579 151.946C193.391 152.05 193.139 152.102 192.825 152.102ZM192.927 151.427C193.228 151.427 193.483 151.349 193.691 151.192C193.899 151.033 194.057 150.813 194.165 150.533C194.273 150.251 194.327 149.925 194.327 149.556C194.327 149.192 194.274 148.872 194.168 148.599C194.062 148.323 193.905 148.109 193.697 147.956C193.489 147.801 193.233 147.724 192.927 147.724C192.609 147.724 192.344 147.805 192.132 147.969C191.922 148.13 191.764 148.349 191.658 148.627C191.554 148.903 191.502 149.213 191.502 149.556C191.502 149.904 191.555 150.22 191.661 150.505C191.769 150.787 191.928 151.012 192.138 151.179C192.35 151.345 192.613 151.427 192.927 151.427ZM198.047 152.115C197.737 152.115 197.456 152.056 197.204 151.94C196.951 151.821 196.751 151.65 196.602 151.427C196.454 151.202 196.38 150.931 196.38 150.613C196.38 150.333 196.435 150.106 196.545 149.932C196.655 149.756 196.803 149.618 196.987 149.518C197.172 149.418 197.376 149.344 197.598 149.295C197.823 149.245 198.049 149.204 198.276 149.175C198.573 149.136 198.814 149.108 198.998 149.089C199.185 149.067 199.321 149.032 199.406 148.984C199.493 148.935 199.536 148.85 199.536 148.729V148.704C199.536 148.39 199.45 148.146 199.278 147.972C199.109 147.798 198.851 147.711 198.505 147.711C198.147 147.711 197.866 147.789 197.662 147.946C197.458 148.103 197.315 148.271 197.232 148.449L196.52 148.195C196.647 147.898 196.817 147.666 197.029 147.501C197.243 147.333 197.476 147.217 197.729 147.151C197.983 147.083 198.234 147.049 198.48 147.049C198.637 147.049 198.817 147.068 199.021 147.106C199.226 147.142 199.425 147.218 199.616 147.332C199.809 147.447 199.969 147.62 200.096 147.851C200.223 148.082 200.287 148.392 200.287 148.78V152H199.536V151.338H199.498C199.447 151.444 199.362 151.558 199.243 151.679C199.125 151.8 198.967 151.902 198.769 151.987C198.572 152.072 198.331 152.115 198.047 152.115ZM198.162 151.44C198.458 151.44 198.709 151.382 198.912 151.265C199.118 151.148 199.273 150.998 199.377 150.813C199.483 150.629 199.536 150.435 199.536 150.231V149.544C199.504 149.582 199.434 149.617 199.326 149.649C199.22 149.678 199.097 149.705 198.957 149.728C198.819 149.749 198.684 149.768 198.553 149.785C198.423 149.8 198.318 149.813 198.238 149.824C198.043 149.849 197.86 149.89 197.691 149.948C197.523 150.003 197.387 150.087 197.283 150.199C197.182 150.309 197.131 150.46 197.131 150.651C197.131 150.912 197.227 151.109 197.42 151.243C197.615 151.374 197.862 151.44 198.162 151.44ZM205.183 148.207L204.509 148.398C204.466 148.286 204.404 148.177 204.321 148.07C204.24 147.962 204.13 147.873 203.99 147.803C203.85 147.733 203.671 147.698 203.452 147.698C203.153 147.698 202.904 147.767 202.705 147.905C202.507 148.041 202.409 148.214 202.409 148.424C202.409 148.61 202.477 148.758 202.612 148.866C202.748 148.974 202.96 149.064 203.249 149.136L203.974 149.315C204.411 149.421 204.737 149.583 204.951 149.801C205.165 150.018 205.272 150.297 205.272 150.638C205.272 150.918 205.192 151.168 205.031 151.389C204.872 151.61 204.649 151.784 204.362 151.911C204.076 152.038 203.743 152.102 203.363 152.102C202.865 152.102 202.452 151.994 202.126 151.777C201.799 151.561 201.592 151.245 201.505 150.829L202.218 150.651C202.286 150.914 202.414 151.111 202.603 151.243C202.794 151.374 203.043 151.44 203.351 151.44C203.701 151.44 203.978 151.366 204.184 151.217C204.392 151.067 204.496 150.886 204.496 150.676C204.496 150.507 204.437 150.365 204.318 150.25C204.199 150.133 204.017 150.046 203.771 149.989L202.956 149.798C202.508 149.692 202.18 149.528 201.97 149.305C201.762 149.08 201.658 148.799 201.658 148.462C201.658 148.186 201.735 147.942 201.89 147.73C202.047 147.518 202.26 147.351 202.53 147.23C202.801 147.11 203.109 147.049 203.452 147.049C203.936 147.049 204.316 147.155 204.592 147.367C204.869 147.579 205.067 147.859 205.183 148.207Z" fill="black"/>
<defs>
<filter id="filter0_d_207_684" x="0" y="0" width="320" height="310" filterUnits="userSpaceOnUse" color-interpolation-filters="sRGB">
<feFlood flood-opacity="0" result="BackgroundImageFix"/>
<feColorMatrix in="SourceAlpha" type="matrix" values="0 0 0 0 0 0 0 0 0 0 0 0 0 0 0 0 0 0 127 0" result="hardAlpha"/>
<feOffset dy="6"/>
<feGaussianBlur stdDeviation="5"/>
<feComposite in2="hardAlpha" operator="out"/>
<feColorMatrix type="matrix" values="0 0 0 0 0 0 0 0 0 0 0 0 0 0 0 0 0 0 0.3 0"/>
<feBlend mode="normal" in2="BackgroundImageFix" result="effect1_dropShadow_207_684"/>
<feBlend mode="normal" in="SourceGraphic" in2="effect1_dropShadow_207_684" result="shape"/>
</filter>
<clipPath id="clip0_207_684">
<rect width="110" height="24" fill="white" transform="translate(172 258)"/>
</clipPath>
</defs>
</svg>
