<svg width="320" height="326" viewBox="0 0 320 326" fill="none" xmlns="http://www.w3.org/2000/svg">
<g filter="url(#filter0_d_208_686)">
<rect x="10" y="6" width="300" height="306" rx="20" fill="white"/>
</g>
<g clip-path="url(#clip0_208_686)">
<g clip-path="url(#clip1_208_686)">
<path d="M42.25 261.119C41.608 261.119 41.0611 260.945 40.6094 260.595C40.1577 260.243 39.8125 259.733 39.5739 259.065C39.3352 258.395 39.2159 257.585 39.2159 256.636C39.2159 255.693 39.3352 254.888 39.5739 254.22C39.8153 253.55 40.1619 253.038 40.6136 252.686C41.0682 252.331 41.6136 252.153 42.25 252.153C42.8864 252.153 43.4304 252.331 43.8821 252.686C44.3366 253.038 44.6832 253.55 44.9219 254.22C45.1634 254.888 45.2841 255.693 45.2841 256.636C45.2841 257.585 45.1648 258.395 44.9261 259.065C44.6875 259.733 44.3423 260.243 43.8906 260.595C43.4389 260.945 42.892 261.119 42.25 261.119ZM42.25 260.182C42.8864 260.182 43.3807 259.875 43.733 259.261C44.0852 258.648 44.2614 257.773 44.2614 256.636C44.2614 255.881 44.1804 255.237 44.0185 254.706C43.8594 254.175 43.6293 253.77 43.3281 253.491C43.0298 253.213 42.6705 253.074 42.25 253.074C41.6193 253.074 41.1264 253.385 40.7713 254.007C40.4162 254.626 40.2386 255.503 40.2386 256.636C40.2386 257.392 40.3182 258.034 40.4773 258.562C40.6364 259.091 40.8651 259.493 41.1634 259.768C41.4645 260.044 41.8267 260.182 42.25 260.182Z" fill="#92929D"/>
<path d="M56 256H318" stroke="#F1F1F5" stroke-linecap="square" stroke-dasharray="5 5"/>
</g>
<g clip-path="url(#clip2_208_686)">
<path d="M26.4664 224V223.233L29.347 220.08C29.6851 219.71 29.9635 219.389 30.1823 219.116C30.401 218.841 30.5629 218.582 30.6681 218.341C30.776 218.097 30.83 217.841 30.83 217.574C30.83 217.267 30.7561 217.001 30.6084 216.777C30.4635 216.553 30.2647 216.379 30.0118 216.257C29.759 216.135 29.4749 216.074 29.1595 216.074C28.8243 216.074 28.5317 216.143 28.2817 216.283C28.0345 216.419 27.8428 216.611 27.7064 216.858C27.5729 217.105 27.5061 217.395 27.5061 217.727H26.5004C26.5004 217.216 26.6183 216.767 26.8541 216.381C27.0899 215.994 27.411 215.693 27.8172 215.477C28.2263 215.261 28.6851 215.153 29.1936 215.153C29.705 215.153 30.1581 215.261 30.553 215.477C30.9479 215.693 31.2575 215.984 31.482 216.351C31.7064 216.717 31.8186 217.125 31.8186 217.574C31.8186 217.895 31.7604 218.209 31.6439 218.516C31.5303 218.82 31.3314 219.159 31.0473 219.534C30.7661 219.906 30.3754 220.361 29.8754 220.898L27.9152 222.994V223.062H31.972V224H26.4664ZM36.6643 224.119C36.0222 224.119 35.4754 223.945 35.0237 223.595C34.572 223.243 34.2268 222.733 33.9881 222.065C33.7495 221.395 33.6302 220.585 33.6302 219.636C33.6302 218.693 33.7495 217.888 33.9881 217.22C34.2296 216.55 34.5762 216.038 35.0279 215.686C35.4825 215.331 36.0279 215.153 36.6643 215.153C37.3006 215.153 37.8447 215.331 38.2964 215.686C38.7509 216.038 39.0975 216.55 39.3362 217.22C39.5776 217.888 39.6984 218.693 39.6984 219.636C39.6984 220.585 39.5791 221.395 39.3404 222.065C39.1018 222.733 38.7566 223.243 38.3049 223.595C37.8532 223.945 37.3063 224.119 36.6643 224.119ZM36.6643 223.182C37.3006 223.182 37.795 222.875 38.1472 222.261C38.4995 221.648 38.6756 220.773 38.6756 219.636C38.6756 218.881 38.5947 218.237 38.4328 217.706C38.2737 217.175 38.0435 216.77 37.7424 216.491C37.4441 216.213 37.0847 216.074 36.6643 216.074C36.0336 216.074 35.5407 216.385 35.1856 217.007C34.8305 217.626 34.6529 218.503 34.6529 219.636C34.6529 220.392 34.7325 221.034 34.8916 221.562C35.0506 222.091 35.2793 222.493 35.5776 222.768C35.8788 223.044 36.241 223.182 36.6643 223.182ZM44.25 224.119C43.608 224.119 43.0611 223.945 42.6094 223.595C42.1577 223.243 41.8125 222.733 41.5739 222.065C41.3352 221.395 41.2159 220.585 41.2159 219.636C41.2159 218.693 41.3352 217.888 41.5739 217.22C41.8153 216.55 42.1619 216.038 42.6136 215.686C43.0682 215.331 43.6136 215.153 44.25 215.153C44.8864 215.153 45.4304 215.331 45.8821 215.686C46.3366 216.038 46.6832 216.55 46.9219 217.22C47.1634 217.888 47.2841 218.693 47.2841 219.636C47.2841 220.585 47.1648 221.395 46.9261 222.065C46.6875 222.733 46.3423 223.243 45.8906 223.595C45.4389 223.945 44.892 224.119 44.25 224.119ZM44.25 223.182C44.8864 223.182 45.3807 222.875 45.733 222.261C46.0852 221.648 46.2614 220.773 46.2614 219.636C46.2614 218.881 46.1804 218.237 46.0185 217.706C45.8594 217.175 45.6293 216.77 45.3281 216.491C45.0298 216.213 44.6705 216.074 44.25 216.074C43.6193 216.074 43.1264 216.385 42.7713 217.007C42.4162 217.626 42.2386 218.503 42.2386 219.636C42.2386 220.392 42.3182 221.034 42.4773 221.562C42.6364 222.091 42.8651 222.493 43.1634 222.768C43.4645 223.044 43.8267 223.182 44.25 223.182Z" fill="#92929D"/>
<path d="M56 219H318" stroke="#F1F1F5" stroke-linecap="square" stroke-dasharray="5 5"/>
</g>
<g clip-path="url(#clip3_208_686)">
<path d="M25.8282 185.21V184.341L29.6634 178.273H30.2941V179.619H29.868L26.9703 184.205V184.273H32.135V185.21H25.8282ZM29.9362 187V184.946V184.541V178.273H30.9419V187H29.9362ZM36.6643 187.119C36.0222 187.119 35.4754 186.945 35.0237 186.595C34.572 186.243 34.2268 185.733 33.9881 185.065C33.7495 184.395 33.6302 183.585 33.6302 182.636C33.6302 181.693 33.7495 180.888 33.9881 180.22C34.2296 179.55 34.5762 179.038 35.0279 178.686C35.4825 178.331 36.0279 178.153 36.6643 178.153C37.3006 178.153 37.8447 178.331 38.2964 178.686C38.7509 179.038 39.0975 179.55 39.3362 180.22C39.5776 180.888 39.6984 181.693 39.6984 182.636C39.6984 183.585 39.5791 184.395 39.3404 185.065C39.1018 185.733 38.7566 186.243 38.3049 186.595C37.8532 186.945 37.3063 187.119 36.6643 187.119ZM36.6643 186.182C37.3006 186.182 37.795 185.875 38.1472 185.261C38.4995 184.648 38.6756 183.773 38.6756 182.636C38.6756 181.881 38.5947 181.237 38.4328 180.706C38.2737 180.175 38.0435 179.77 37.7424 179.491C37.4441 179.213 37.0847 179.074 36.6643 179.074C36.0336 179.074 35.5407 179.385 35.1856 180.007C34.8305 180.626 34.6529 181.503 34.6529 182.636C34.6529 183.392 34.7325 184.034 34.8916 184.562C35.0506 185.091 35.2793 185.493 35.5776 185.768C35.8788 186.044 36.241 186.182 36.6643 186.182ZM44.25 187.119C43.608 187.119 43.0611 186.945 42.6094 186.595C42.1577 186.243 41.8125 185.733 41.5739 185.065C41.3352 184.395 41.2159 183.585 41.2159 182.636C41.2159 181.693 41.3352 180.888 41.5739 180.22C41.8153 179.55 42.1619 179.038 42.6136 178.686C43.0682 178.331 43.6136 178.153 44.25 178.153C44.8864 178.153 45.4304 178.331 45.8821 178.686C46.3366 179.038 46.6832 179.55 46.9219 180.22C47.1634 180.888 47.2841 181.693 47.2841 182.636C47.2841 183.585 47.1648 184.395 46.9261 185.065C46.6875 185.733 46.3423 186.243 45.8906 186.595C45.4389 186.945 44.892 187.119 44.25 187.119ZM44.25 186.182C44.8864 186.182 45.3807 185.875 45.733 185.261C46.0852 184.648 46.2614 183.773 46.2614 182.636C46.2614 181.881 46.1804 181.237 46.0185 180.706C45.8594 180.175 45.6293 179.77 45.3281 179.491C45.0298 179.213 44.6705 179.074 44.25 179.074C43.6193 179.074 43.1264 179.385 42.7713 180.007C42.4162 180.626 42.2386 181.503 42.2386 182.636C42.2386 183.392 42.3182 184.034 42.4773 184.562C42.6364 185.091 42.8651 185.493 43.1634 185.768C43.4645 186.044 43.8267 186.182 44.25 186.182Z" fill="#92929D"/>
<path d="M56 182H318" stroke="#F1F1F5" stroke-linecap="square" stroke-dasharray="5 5"/>
</g>
<g clip-path="url(#clip4_208_686)">
<path d="M29.1414 150.119C28.7835 150.114 28.4255 150.045 28.0676 149.915C27.7096 149.784 27.3829 149.564 27.0874 149.254C26.792 148.942 26.5548 148.52 26.3758 147.989C26.1968 147.455 26.1073 146.784 26.1073 145.977C26.1073 145.205 26.1798 144.52 26.3247 143.923C26.4696 143.324 26.6798 142.82 26.9553 142.411C27.2309 141.999 27.5633 141.686 27.9525 141.473C28.3446 141.26 28.7863 141.153 29.2778 141.153C29.7664 141.153 30.2011 141.251 30.5818 141.447C30.9653 141.641 31.2778 141.911 31.5193 142.257C31.7607 142.604 31.917 143.003 31.988 143.455H30.9482C30.8517 143.062 30.6642 142.737 30.3857 142.479C30.1073 142.22 29.738 142.091 29.2778 142.091C28.6017 142.091 28.069 142.385 27.6798 142.973C27.2934 143.561 27.0988 144.386 27.096 145.449H27.1642C27.3232 145.207 27.5122 145.001 27.7309 144.831C27.9525 144.658 28.1968 144.524 28.4639 144.43C28.7309 144.337 29.0136 144.29 29.3119 144.29C29.8119 144.29 30.2693 144.415 30.684 144.665C31.0988 144.912 31.4312 145.254 31.6812 145.692C31.9312 146.126 32.0562 146.625 32.0562 147.188C32.0562 147.727 31.9355 148.222 31.694 148.67C31.4525 149.116 31.113 149.472 30.6755 149.736C30.2409 149.997 29.7295 150.125 29.1414 150.119ZM29.1414 149.182C29.4994 149.182 29.8204 149.092 30.1045 148.913C30.3914 148.734 30.6173 148.494 30.7821 148.193C30.9497 147.892 31.0335 147.557 31.0335 147.188C31.0335 146.827 30.9525 146.499 30.7906 146.203C30.6315 145.905 30.4113 145.668 30.1301 145.491C29.8517 145.315 29.5335 145.227 29.1755 145.227C28.9056 145.227 28.6542 145.281 28.4213 145.389C28.1883 145.494 27.9838 145.639 27.8076 145.824C27.6343 146.009 27.498 146.22 27.3985 146.459C27.2991 146.695 27.2494 146.943 27.2494 147.205C27.2494 147.551 27.3303 147.875 27.4923 148.176C27.6571 148.477 27.8815 148.72 28.1656 148.905C28.4525 149.089 28.7778 149.182 29.1414 149.182ZM36.6643 150.119C36.0222 150.119 35.4754 149.945 35.0237 149.595C34.572 149.243 34.2268 148.733 33.9881 148.065C33.7495 147.395 33.6302 146.585 33.6302 145.636C33.6302 144.693 33.7495 143.888 33.9881 143.22C34.2296 142.55 34.5762 142.038 35.0279 141.686C35.4825 141.331 36.0279 141.153 36.6643 141.153C37.3006 141.153 37.8447 141.331 38.2964 141.686C38.7509 142.038 39.0975 142.55 39.3362 143.22C39.5776 143.888 39.6984 144.693 39.6984 145.636C39.6984 146.585 39.5791 147.395 39.3404 148.065C39.1018 148.733 38.7566 149.243 38.3049 149.595C37.8532 149.945 37.3063 150.119 36.6643 150.119ZM36.6643 149.182C37.3006 149.182 37.795 148.875 38.1472 148.261C38.4995 147.648 38.6756 146.773 38.6756 145.636C38.6756 144.881 38.5947 144.237 38.4328 143.706C38.2737 143.175 38.0435 142.77 37.7424 142.491C37.4441 142.213 37.0847 142.074 36.6643 142.074C36.0336 142.074 35.5407 142.385 35.1856 143.007C34.8305 143.626 34.6529 144.503 34.6529 145.636C34.6529 146.392 34.7325 147.034 34.8916 147.562C35.0506 148.091 35.2793 148.493 35.5776 148.768C35.8788 149.044 36.241 149.182 36.6643 149.182ZM44.25 150.119C43.608 150.119 43.0611 149.945 42.6094 149.595C42.1577 149.243 41.8125 148.733 41.5739 148.065C41.3352 147.395 41.2159 146.585 41.2159 145.636C41.2159 144.693 41.3352 143.888 41.5739 143.22C41.8153 142.55 42.1619 142.038 42.6136 141.686C43.0682 141.331 43.6136 141.153 44.25 141.153C44.8864 141.153 45.4304 141.331 45.8821 141.686C46.3366 142.038 46.6832 142.55 46.9219 143.22C47.1634 143.888 47.2841 144.693 47.2841 145.636C47.2841 146.585 47.1648 147.395 46.9261 148.065C46.6875 148.733 46.3423 149.243 45.8906 149.595C45.4389 149.945 44.892 150.119 44.25 150.119ZM44.25 149.182C44.8864 149.182 45.3807 148.875 45.733 148.261C46.0852 147.648 46.2614 146.773 46.2614 145.636C46.2614 144.881 46.1804 144.237 46.0185 143.706C45.8594 143.175 45.6293 142.77 45.3281 142.491C45.0298 142.213 44.6705 142.074 44.25 142.074C43.6193 142.074 43.1264 142.385 42.7713 143.007C42.4162 143.626 42.2386 144.503 42.2386 145.636C42.2386 146.392 42.3182 147.034 42.4773 147.562C42.6364 148.091 42.8651 148.493 43.1634 148.768C43.4645 149.044 43.8267 149.182 44.25 149.182Z" fill="#92929D"/>
<path d="M56 145H318" stroke="#F1F1F5" stroke-linecap="square" stroke-dasharray="5 5"/>
</g>
<g clip-path="url(#clip5_208_686)">
<path d="M28.1329 113.119C27.5477 113.119 27.0306 113.016 26.5818 112.808C26.1357 112.598 25.7877 112.31 25.5377 111.943C25.2877 111.574 25.1642 111.153 25.167 110.682C25.1642 110.312 25.2366 109.972 25.3843 109.659C25.5321 109.344 25.7338 109.081 25.9894 108.871C26.248 108.658 26.5363 108.523 26.8545 108.466V108.415C26.4369 108.307 26.1045 108.072 25.8573 107.712C25.6102 107.348 25.488 106.935 25.4909 106.472C25.488 106.028 25.6002 105.632 25.8275 105.283C26.0548 104.933 26.3673 104.658 26.765 104.456C27.1656 104.254 27.6215 104.153 28.1329 104.153C28.6386 104.153 29.0903 104.254 29.488 104.456C29.8857 104.658 30.1982 104.933 30.4255 105.283C30.6556 105.632 30.7721 106.028 30.7749 106.472C30.7721 106.935 30.6457 107.348 30.3957 107.712C30.1485 108.072 29.8204 108.307 29.4113 108.415V108.466C29.7267 108.523 30.0107 108.658 30.2636 108.871C30.5164 109.081 30.7181 109.344 30.8687 109.659C31.0193 109.972 31.096 110.312 31.0988 110.682C31.096 111.153 30.9681 111.574 30.7153 111.943C30.4653 112.31 30.1173 112.598 29.6713 112.808C29.2281 113.016 28.7153 113.119 28.1329 113.119ZM28.1329 112.182C28.5278 112.182 28.8687 112.118 29.1556 111.99C29.4426 111.862 29.6642 111.682 29.8204 111.449C29.9767 111.216 30.0562 110.943 30.059 110.631C30.0562 110.301 29.971 110.01 29.8034 109.757C29.6357 109.504 29.4071 109.305 29.1173 109.161C28.8303 109.016 28.5022 108.943 28.1329 108.943C27.7607 108.943 27.4284 109.016 27.1357 109.161C26.846 109.305 26.6173 109.504 26.4497 109.757C26.2849 110.01 26.2039 110.301 26.2068 110.631C26.2039 110.943 26.2792 111.216 26.4326 111.449C26.5889 111.682 26.8119 111.862 27.1017 111.99C27.3914 112.118 27.7352 112.182 28.1329 112.182ZM28.1329 108.04C28.4454 108.04 28.7224 107.977 28.9639 107.852C29.2082 107.727 29.3999 107.553 29.5392 107.328C29.6784 107.104 29.7494 106.841 29.7522 106.54C29.7494 106.244 29.6798 105.987 29.5434 105.768C29.4071 105.547 29.2181 105.376 28.9767 105.257C28.7352 105.135 28.4539 105.074 28.1329 105.074C27.8062 105.074 27.5207 105.135 27.2764 105.257C27.0321 105.376 26.8431 105.547 26.7096 105.768C26.5761 105.987 26.5107 106.244 26.5136 106.54C26.5107 106.841 26.5775 107.104 26.7139 107.328C26.8531 107.553 27.0448 107.727 27.2892 107.852C27.5335 107.977 27.8147 108.04 28.1329 108.04ZM35.6643 113.119C35.0222 113.119 34.4754 112.945 34.0237 112.595C33.572 112.243 33.2268 111.733 32.9881 111.065C32.7495 110.395 32.6302 109.585 32.6302 108.636C32.6302 107.693 32.7495 106.888 32.9881 106.22C33.2296 105.55 33.5762 105.038 34.0279 104.686C34.4825 104.331 35.0279 104.153 35.6643 104.153C36.3006 104.153 36.8447 104.331 37.2964 104.686C37.7509 105.038 38.0975 105.55 38.3362 106.22C38.5776 106.888 38.6984 107.693 38.6984 108.636C38.6984 109.585 38.5791 110.395 38.3404 111.065C38.1018 111.733 37.7566 112.243 37.3049 112.595C36.8532 112.945 36.3063 113.119 35.6643 113.119ZM35.6643 112.182C36.3006 112.182 36.795 111.875 37.1472 111.261C37.4995 110.648 37.6756 109.773 37.6756 108.636C37.6756 107.881 37.5947 107.237 37.4328 106.706C37.2737 106.175 37.0435 105.77 36.7424 105.491C36.4441 105.213 36.0847 105.074 35.6643 105.074C35.0336 105.074 34.5407 105.385 34.1856 106.007C33.8305 106.626 33.6529 107.503 33.6529 108.636C33.6529 109.392 33.7325 110.034 33.8916 110.562C34.0506 111.091 34.2793 111.493 34.5776 111.768C34.8788 112.044 35.241 112.182 35.6643 112.182ZM43.25 113.119C42.608 113.119 42.0611 112.945 41.6094 112.595C41.1577 112.243 40.8125 111.733 40.5739 111.065C40.3352 110.395 40.2159 109.585 40.2159 108.636C40.2159 107.693 40.3352 106.888 40.5739 106.22C40.8153 105.55 41.1619 105.038 41.6136 104.686C42.0682 104.331 42.6136 104.153 43.25 104.153C43.8864 104.153 44.4304 104.331 44.8821 104.686C45.3366 105.038 45.6832 105.55 45.9219 106.22C46.1634 106.888 46.2841 107.693 46.2841 108.636C46.2841 109.585 46.1648 110.395 45.9261 111.065C45.6875 111.733 45.3423 112.243 44.8906 112.595C44.4389 112.945 43.892 113.119 43.25 113.119ZM43.25 112.182C43.8864 112.182 44.3807 111.875 44.733 111.261C45.0852 110.648 45.2614 109.773 45.2614 108.636C45.2614 107.881 45.1804 107.237 45.0185 106.706C44.8594 106.175 44.6293 105.77 44.3281 105.491C44.0298 105.213 43.6705 105.074 43.25 105.074C42.6193 105.074 42.1264 105.385 41.7713 106.007C41.4162 106.626 41.2386 107.503 41.2386 108.636C41.2386 109.392 41.3182 110.034 41.4773 110.562C41.6364 111.091 41.8651 111.493 42.1634 111.768C42.4645 112.044 42.8267 112.182 43.25 112.182Z" fill="#92929D"/>
<path d="M56 108H318" stroke="#F1F1F5" stroke-linecap="square" stroke-dasharray="5 5"/>
</g>
<path d="M232.3 279.818H233.772L237.232 288.27H237.351L240.811 279.818H242.283V290H241.129V282.264H241.03L237.848 290H236.735L233.553 282.264H233.453V290H232.3V279.818ZM246.943 290.179C246.459 290.179 246.02 290.088 245.626 289.906C245.231 289.72 244.918 289.453 244.686 289.105C244.454 288.754 244.338 288.33 244.338 287.832C244.338 287.395 244.424 287.04 244.597 286.768C244.769 286.493 244.999 286.278 245.288 286.122C245.576 285.966 245.894 285.85 246.242 285.774C246.593 285.695 246.946 285.632 247.301 285.585C247.765 285.526 248.141 285.481 248.43 285.451C248.721 285.418 248.933 285.363 249.066 285.287C249.202 285.211 249.27 285.078 249.27 284.889V284.849C249.27 284.359 249.136 283.978 248.867 283.706C248.602 283.434 248.199 283.298 247.659 283.298C247.099 283.298 246.66 283.421 246.342 283.666C246.023 283.911 245.8 284.173 245.67 284.452L244.557 284.054C244.756 283.59 245.021 283.229 245.352 282.97C245.687 282.708 246.052 282.526 246.446 282.423C246.844 282.317 247.235 282.264 247.619 282.264C247.864 282.264 248.146 282.294 248.464 282.354C248.786 282.41 249.096 282.528 249.394 282.707C249.696 282.886 249.946 283.156 250.145 283.517C250.344 283.878 250.443 284.362 250.443 284.969V290H249.27V288.966H249.21C249.131 289.132 248.998 289.309 248.812 289.498C248.627 289.687 248.38 289.848 248.072 289.98C247.763 290.113 247.387 290.179 246.943 290.179ZM247.122 289.125C247.586 289.125 247.977 289.034 248.295 288.852C248.617 288.669 248.859 288.434 249.021 288.146C249.187 287.857 249.27 287.554 249.27 287.236V286.162C249.22 286.222 249.111 286.276 248.942 286.326C248.776 286.372 248.584 286.414 248.365 286.45C248.15 286.483 247.939 286.513 247.734 286.54C247.531 286.563 247.367 286.583 247.241 286.599C246.936 286.639 246.651 286.704 246.386 286.793C246.124 286.879 245.912 287.01 245.75 287.186C245.591 287.358 245.511 287.594 245.511 287.892C245.511 288.3 245.662 288.608 245.964 288.817C246.269 289.022 246.655 289.125 247.122 289.125ZM252.685 290V282.364H253.858V290H252.685ZM253.281 281.091C253.053 281.091 252.855 281.013 252.69 280.857C252.527 280.701 252.446 280.514 252.446 280.295C252.446 280.077 252.527 279.889 252.69 279.734C252.855 279.578 253.053 279.5 253.281 279.5C253.51 279.5 253.705 279.578 253.868 279.734C254.034 279.889 254.116 280.077 254.116 280.295C254.116 280.514 254.034 280.701 253.868 280.857C253.705 281.013 253.51 281.091 253.281 281.091Z" fill="#92929D"/>
<g clip-path="url(#clip6_208_686)">
<path d="M189.868 290H188.575L192.314 279.818H193.587L197.325 290H196.033L192.99 281.429H192.911L189.868 290ZM190.345 286.023H195.555V287.116H190.345V286.023ZM199.011 290V279.818H200.185V283.577H200.284C200.37 283.444 200.489 283.275 200.642 283.07C200.798 282.861 201.02 282.675 201.308 282.513C201.6 282.347 201.994 282.264 202.491 282.264C203.134 282.264 203.701 282.425 204.192 282.746C204.682 283.068 205.065 283.524 205.34 284.114C205.615 284.704 205.753 285.4 205.753 286.202C205.753 287.01 205.615 287.711 205.34 288.305C205.065 288.895 204.684 289.352 204.197 289.677C203.709 289.998 203.148 290.159 202.511 290.159C202.021 290.159 201.628 290.078 201.333 289.915C201.038 289.75 200.811 289.562 200.652 289.354C200.493 289.142 200.37 288.966 200.284 288.827H200.145V290H199.011ZM200.165 286.182C200.165 286.759 200.249 287.267 200.418 287.708C200.587 288.146 200.834 288.489 201.159 288.737C201.484 288.982 201.882 289.105 202.352 289.105C202.843 289.105 203.252 288.976 203.58 288.717C203.912 288.455 204.16 288.104 204.326 287.663C204.495 287.219 204.579 286.725 204.579 286.182C204.579 285.645 204.497 285.161 204.331 284.73C204.168 284.296 203.922 283.953 203.59 283.701C203.262 283.446 202.849 283.318 202.352 283.318C201.875 283.318 201.474 283.439 201.149 283.681C200.824 283.92 200.579 284.254 200.413 284.685C200.248 285.113 200.165 285.612 200.165 286.182ZM207.647 290V282.364H208.781V283.517H208.861C209 283.139 209.252 282.833 209.616 282.597C209.981 282.362 210.392 282.244 210.849 282.244C210.935 282.244 211.043 282.246 211.172 282.249C211.302 282.253 211.399 282.258 211.466 282.264V283.457C211.426 283.447 211.335 283.433 211.192 283.413C211.053 283.389 210.906 283.378 210.75 283.378C210.379 283.378 210.047 283.456 209.755 283.612C209.467 283.764 209.238 283.976 209.069 284.248C208.904 284.516 208.821 284.823 208.821 285.168V290H207.647Z" fill="#92929D"/>
</g>
<g clip-path="url(#clip7_208_686)">
<path d="M146.357 279.818H147.828L151.288 288.27H151.408L154.868 279.818H156.34V290H155.186V282.264H155.087L151.905 290H150.791L147.609 282.264H147.51V290H146.357V279.818ZM161 290.179C160.516 290.179 160.077 290.088 159.682 289.906C159.288 289.72 158.975 289.453 158.743 289.105C158.511 288.754 158.395 288.33 158.395 287.832C158.395 287.395 158.481 287.04 158.653 286.768C158.825 286.493 159.056 286.278 159.344 286.122C159.633 285.966 159.951 285.85 160.299 285.774C160.65 285.695 161.003 285.632 161.358 285.585C161.822 285.526 162.198 285.481 162.486 285.451C162.778 285.418 162.99 285.363 163.123 285.287C163.258 285.211 163.326 285.078 163.326 284.889V284.849C163.326 284.359 163.192 283.978 162.924 283.706C162.659 283.434 162.256 283.298 161.716 283.298C161.156 283.298 160.716 283.421 160.398 283.666C160.08 283.911 159.856 284.173 159.727 284.452L158.613 284.054C158.812 283.59 159.077 283.229 159.409 282.97C159.744 282.708 160.108 282.526 160.503 282.423C160.9 282.317 161.291 282.264 161.676 282.264C161.921 282.264 162.203 282.294 162.521 282.354C162.843 282.41 163.152 282.528 163.451 282.707C163.752 282.886 164.003 283.156 164.201 283.517C164.4 283.878 164.5 284.362 164.5 284.969V290H163.326V288.966H163.267C163.187 289.132 163.055 289.309 162.869 289.498C162.683 289.687 162.437 289.848 162.128 289.98C161.82 290.113 161.444 290.179 161 290.179ZM161.179 289.125C161.643 289.125 162.034 289.034 162.352 288.852C162.674 288.669 162.915 288.434 163.078 288.146C163.244 287.857 163.326 287.554 163.326 287.236V286.162C163.277 286.222 163.167 286.276 162.998 286.326C162.833 286.372 162.64 286.414 162.422 286.45C162.206 286.483 161.996 286.513 161.79 286.54C161.588 286.563 161.424 286.583 161.298 286.599C160.993 286.639 160.708 286.704 160.443 286.793C160.181 286.879 159.969 287.01 159.807 287.186C159.647 287.358 159.568 287.594 159.568 287.892C159.568 288.3 159.719 288.608 160.02 288.817C160.325 289.022 160.711 289.125 161.179 289.125ZM166.741 290V282.364H167.875V283.517H167.954C168.094 283.139 168.345 282.833 168.71 282.597C169.075 282.362 169.486 282.244 169.943 282.244C170.029 282.244 170.137 282.246 170.266 282.249C170.395 282.253 170.493 282.258 170.559 282.264V283.457C170.52 283.447 170.429 283.433 170.286 283.413C170.147 283.389 169.999 283.378 169.844 283.378C169.472 283.378 169.141 283.456 168.849 283.612C168.561 283.764 168.332 283.976 168.163 284.248C167.997 284.516 167.915 284.823 167.915 285.168V290H166.741Z" fill="#92929D"/>
</g>
<g clip-path="url(#clip8_208_686)">
<path d="M105.45 290V279.818H111.555V280.912H106.683V284.352H111.098V285.446H106.683V290H105.45ZM116.249 290.159C115.513 290.159 114.879 289.997 114.345 289.672C113.815 289.344 113.405 288.886 113.117 288.3C112.832 287.71 112.69 287.024 112.69 286.241C112.69 285.459 112.832 284.77 113.117 284.173C113.405 283.573 113.806 283.106 114.32 282.771C114.837 282.433 115.44 282.264 116.13 282.264C116.528 282.264 116.92 282.33 117.308 282.463C117.696 282.596 118.049 282.811 118.367 283.109C118.685 283.404 118.939 283.795 119.128 284.283C119.317 284.77 119.411 285.37 119.411 286.082V286.58H113.525V285.565H118.218C118.218 285.134 118.132 284.75 117.959 284.412C117.79 284.074 117.548 283.807 117.234 283.612C116.922 283.416 116.554 283.318 116.13 283.318C115.663 283.318 115.258 283.434 114.917 283.666C114.579 283.895 114.319 284.193 114.136 284.561C113.954 284.929 113.863 285.323 113.863 285.744V286.42C113.863 286.997 113.962 287.486 114.161 287.887C114.363 288.285 114.643 288.588 115.001 288.797C115.359 289.002 115.775 289.105 116.249 289.105C116.557 289.105 116.836 289.062 117.084 288.976C117.336 288.886 117.553 288.754 117.736 288.578C117.918 288.399 118.059 288.177 118.158 287.912L119.292 288.23C119.172 288.615 118.972 288.953 118.69 289.244C118.409 289.533 118.061 289.758 117.646 289.92C117.232 290.08 116.766 290.159 116.249 290.159ZM127.308 282.364L124.484 290H123.291L120.467 282.364H121.74L123.848 288.449H123.927L126.035 282.364H127.308Z" fill="#92929D"/>
</g>
<g clip-path="url(#clip9_208_686)">
<path d="M280.568 279.818H281.801V287.097C281.801 287.746 281.681 288.298 281.443 288.752C281.204 289.206 280.868 289.551 280.434 289.786C279.999 290.022 279.487 290.139 278.897 290.139C278.341 290.139 277.845 290.038 277.411 289.836C276.977 289.63 276.635 289.339 276.387 288.961C276.138 288.583 276.014 288.134 276.014 287.614H277.227C277.227 287.902 277.298 288.154 277.441 288.369C277.586 288.581 277.785 288.747 278.037 288.866C278.289 288.986 278.576 289.045 278.897 289.045C279.252 289.045 279.554 288.971 279.802 288.822C280.051 288.673 280.24 288.454 280.369 288.165C280.502 287.874 280.568 287.518 280.568 287.097V279.818ZM289.025 286.878V282.364H290.198V290H289.025V288.707H288.945C288.767 289.095 288.488 289.425 288.11 289.697C287.732 289.965 287.255 290.099 286.678 290.099C286.201 290.099 285.777 289.995 285.406 289.786C285.035 289.574 284.743 289.256 284.531 288.832C284.319 288.404 284.213 287.866 284.213 287.216V282.364H285.386V287.136C285.386 287.693 285.542 288.137 285.853 288.469C286.168 288.8 286.569 288.966 287.056 288.966C287.348 288.966 287.645 288.891 287.946 288.742C288.251 288.593 288.506 288.364 288.712 288.056C288.921 287.748 289.025 287.355 289.025 286.878ZM293.621 285.406V290H292.447V282.364H293.581V283.557H293.68C293.859 283.169 294.131 282.857 294.496 282.622C294.86 282.384 295.331 282.264 295.908 282.264C296.425 282.264 296.877 282.37 297.265 282.582C297.653 282.791 297.954 283.109 298.17 283.537C298.385 283.961 298.493 284.498 298.493 285.148V290H297.319V285.227C297.319 284.627 297.164 284.16 296.852 283.825C296.541 283.487 296.113 283.318 295.569 283.318C295.195 283.318 294.86 283.399 294.565 283.562C294.274 283.724 294.043 283.961 293.874 284.273C293.705 284.584 293.621 284.962 293.621 285.406Z" fill="#92929D"/>
</g>
<g clip-path="url(#clip10_208_686)">
<path d="M67.1908 279.818H68.4238V287.097C68.4238 287.746 68.3045 288.298 68.0658 288.752C67.8272 289.206 67.4908 289.551 67.0566 289.786C66.6224 290.022 66.1103 290.139 65.5204 290.139C64.9636 290.139 64.4681 290.038 64.0339 289.836C63.5997 289.63 63.2583 289.339 63.0097 288.961C62.7612 288.583 62.6369 288.134 62.6369 287.614H63.8499C63.8499 287.902 63.9212 288.154 64.0637 288.369C64.2095 288.581 64.4084 288.747 64.6603 288.866C64.9122 288.986 65.1989 289.045 65.5204 289.045C65.875 289.045 66.1766 288.971 66.4252 288.822C66.6738 288.673 66.8627 288.454 66.992 288.165C67.1245 287.874 67.1908 287.518 67.1908 287.097V279.818ZM73.0827 290.179C72.5988 290.179 72.1597 290.088 71.7653 289.906C71.3709 289.72 71.0576 289.453 70.8256 289.105C70.5936 288.754 70.4776 288.33 70.4776 287.832C70.4776 287.395 70.5638 287.04 70.7362 286.768C70.9085 286.493 71.1388 286.278 71.4272 286.122C71.7156 285.966 72.0337 285.85 72.3817 285.774C72.7331 285.695 73.0861 285.632 73.4407 285.585C73.9047 285.526 74.2809 285.481 74.5692 285.451C74.8609 285.418 75.073 285.363 75.2056 285.287C75.3415 285.211 75.4094 285.078 75.4094 284.889V284.849C75.4094 284.359 75.2752 283.978 75.0067 283.706C74.7416 283.434 74.3389 283.298 73.7987 283.298C73.2385 283.298 72.7994 283.421 72.4812 283.666C72.163 283.911 71.9393 284.173 71.81 284.452L70.6964 284.054C70.8952 283.59 71.1604 283.229 71.4918 282.97C71.8266 282.708 72.1912 282.526 72.5856 282.423C72.9833 282.317 73.3744 282.264 73.7589 282.264C74.0041 282.264 74.2859 282.294 74.604 282.354C74.9255 282.41 75.2354 282.528 75.5337 282.707C75.8353 282.886 76.0856 283.156 76.2844 283.517C76.4833 283.878 76.5827 284.362 76.5827 284.969V290H75.4094V288.966H75.3498C75.2702 289.132 75.1377 289.309 74.9521 289.498C74.7665 289.687 74.5195 289.848 74.2113 289.98C73.9031 290.113 73.5269 290.179 73.0827 290.179ZM73.2617 289.125C73.7257 289.125 74.1168 289.034 74.435 288.852C74.7565 288.669 74.9985 288.434 75.1609 288.146C75.3266 287.857 75.4094 287.554 75.4094 287.236V286.162C75.3597 286.222 75.2504 286.276 75.0813 286.326C74.9156 286.372 74.7234 286.414 74.5046 286.45C74.2892 286.483 74.0787 286.513 73.8732 286.54C73.671 286.563 73.507 286.583 73.381 286.599C73.0761 286.639 72.7911 286.704 72.5259 286.793C72.2641 286.879 72.052 287.01 71.8896 287.186C71.7305 287.358 71.6509 287.594 71.6509 287.892C71.6509 288.3 71.8017 288.608 72.1033 288.817C72.4083 289.022 72.7944 289.125 73.2617 289.125ZM79.9975 285.406V290H78.8243V282.364H79.9578V283.557H80.0572C80.2362 283.169 80.508 282.857 80.8725 282.622C81.2371 282.384 81.7078 282.264 82.2845 282.264C82.8015 282.264 83.2539 282.37 83.6417 282.582C84.0295 282.791 84.3311 283.109 84.5466 283.537C84.762 283.961 84.8697 284.498 84.8697 285.148V290H83.6964V285.227C83.6964 284.627 83.5406 284.16 83.2291 283.825C82.9175 283.487 82.49 283.318 81.9464 283.318C81.5719 283.318 81.2371 283.399 80.9422 283.562C80.6505 283.724 80.4201 283.961 80.2511 284.273C80.0821 284.584 79.9975 284.962 79.9975 285.406Z" fill="#92929D"/>
</g>
<path fill-rule="evenodd" clip-rule="evenodd" d="M71 184V156.5C71 154.567 72.567 153 74.5 153C76.433 153 78 154.567 78 156.5V184C78 184 77.3651 180.989 74.5019 180.989C71.6387 180.989 71 184 71 184Z" fill="#50B5FF"/>
<path fill-rule="evenodd" clip-rule="evenodd" d="M71 152V134.5C71 132.567 72.567 131 74.5 131C76.433 131 78 132.567 78 134.5V152C78 152 77.3651 148.989 74.5019 148.989C71.6387 148.989 71 152 71 152Z" fill="#E2E2EA"/>
<path fill-rule="evenodd" clip-rule="evenodd" d="M74.5 255C72.567 255 71 253.433 71 251.5L71 188.5C71 186.567 72.567 185 74.5 185C76.433 185 78 186.567 78 188.5V251.5C78 253.433 76.433 255 74.5 255Z" fill="#0062FF"/>
<path fill-rule="evenodd" clip-rule="evenodd" d="M240 184V156.5C240 154.567 241.567 153 243.5 153C245.433 153 247 154.567 247 156.5V184C247 184 246.365 180.989 243.502 180.989C240.639 180.989 240 184 240 184Z" fill="#50B5FF"/>
<path fill-rule="evenodd" clip-rule="evenodd" d="M240 152V134.5C240 132.567 241.567 131 243.5 131C245.433 131 247 132.567 247 134.5V152C247 152 246.365 148.989 243.502 148.989C240.639 148.989 240 152 240 152Z" fill="#E2E2EA"/>
<path fill-rule="evenodd" clip-rule="evenodd" d="M243.5 255C241.567 255 240 253.433 240 251.5L240 188.5C240 186.567 241.567 185 243.5 185C245.433 185 247 186.567 247 188.5V251.5C247 253.433 245.433 255 243.5 255Z" fill="#0062FF"/>
<path fill-rule="evenodd" clip-rule="evenodd" d="M155 181V148.5C155 146.567 156.567 145 158.5 145C160.433 145 162 146.567 162 148.5V181C162 181 161.365 177.989 158.502 177.989C155.639 177.989 155 181 155 181Z" fill="#50B5FF"/>
<path fill-rule="evenodd" clip-rule="evenodd" d="M155 144V121.5C155 119.567 156.567 118 158.5 118C160.433 118 162 119.567 162 121.5V144C162 144 161.365 140.989 158.502 140.989C155.639 140.989 155 144 155 144Z" fill="#E2E2EA"/>
<path fill-rule="evenodd" clip-rule="evenodd" d="M158.5 255C156.567 255 155 253.433 155 251.5V185.5C155 183.567 156.567 182 158.5 182C160.433 182 162 183.567 162 185.5V251.5C162 253.433 160.433 255 158.5 255Z" fill="#0062FF"/>
<path fill-rule="evenodd" clip-rule="evenodd" d="M113 199V184.5C113 182.567 114.567 181 116.5 181C118.433 181 120 182.567 120 184.5V199C120 199 119.365 195.989 116.502 195.989C113.639 195.989 113 199 113 199Z" fill="#50B5FF"/>
<path fill-rule="evenodd" clip-rule="evenodd" d="M113 180V167.5C113 165.567 114.567 164 116.5 164C118.433 164 120 165.567 120 167.5V180C120 180 119.365 176.984 116.502 176.984C113.639 176.984 113 180 113 180Z" fill="#E2E2EA"/>
<path fill-rule="evenodd" clip-rule="evenodd" d="M116.5 255C114.567 255 113 253.433 113 251.5L113 203.5C113 201.567 114.567 200 116.5 200C118.433 200 120 201.567 120 203.5V251.5C120 253.433 118.433 255 116.5 255Z" fill="#0062FF"/>
<path fill-rule="evenodd" clip-rule="evenodd" d="M284 199V184.5C284 182.567 285.567 181 287.5 181C289.433 181 291 182.567 291 184.5V199C291 199 290.365 195.989 287.502 195.989C284.639 195.989 284 199 284 199Z" fill="#50B5FF"/>
<path fill-rule="evenodd" clip-rule="evenodd" d="M284 180V167.5C284 165.567 285.567 164 287.5 164C289.433 164 291 165.567 291 167.5V180C291 180 290.365 176.984 287.502 176.984C284.639 176.984 284 180 284 180Z" fill="#E2E2EA"/>
<path fill-rule="evenodd" clip-rule="evenodd" d="M287.5 255C285.567 255 284 253.433 284 251.5L284 203.5C284 201.567 285.567 200 287.5 200C289.433 200 291 201.567 291 203.5V251.5C291 253.433 289.433 255 287.5 255Z" fill="#0062FF"/>
<path fill-rule="evenodd" clip-rule="evenodd" d="M197 192V173.5C197 171.567 198.567 170 200.5 170C202.433 170 204 171.567 204 173.5V192C204 192 203.365 188.989 200.502 188.989C197.639 188.989 197 192 197 192Z" fill="#50B5FF"/>
<path fill-rule="evenodd" clip-rule="evenodd" d="M197 169V155.5C197 153.567 198.567 152 200.5 152C202.433 152 204 153.567 204 155.5V169C204 169 203.365 165.984 200.502 165.984C197.639 165.984 197 169 197 169Z" fill="#E2E2EA"/>
<path fill-rule="evenodd" clip-rule="evenodd" d="M200.5 255C198.567 255 197 253.433 197 251.5V196.5C197 194.567 198.567 193 200.5 193C202.433 193 204 194.567 204 196.5V251.5C204 253.433 202.433 255 200.5 255Z" fill="#0062FF"/>
<g clip-path="url(#clip11_208_686)">
<rect x="101" y="64" width="10.0645" height="10" rx="5" fill="#50B5FF"/>
<path d="M115.297 63.8182H116.769L120.229 72.2699H120.349L123.809 63.8182H125.28V74H124.127V66.2642H124.028L120.846 74H119.732L116.55 66.2642H116.451V74H115.297V63.8182ZM132.506 70.8778V66.3636H133.679V74H132.506V72.7074H132.426C132.247 73.0952 131.969 73.425 131.591 73.6967C131.213 73.9652 130.736 74.0994 130.159 74.0994C129.682 74.0994 129.258 73.995 128.887 73.7862C128.515 73.5741 128.224 73.2559 128.012 72.8317C127.799 72.4041 127.693 71.8655 127.693 71.2159V66.3636H128.867V71.1364C128.867 71.6932 129.022 72.1373 129.334 72.4688C129.649 72.8002 130.05 72.9659 130.537 72.9659C130.829 72.9659 131.125 72.8913 131.427 72.7422C131.732 72.593 131.987 72.3643 132.193 72.0561C132.401 71.7479 132.506 71.3551 132.506 70.8778ZM137.101 63.8182V74H135.928V63.8182H137.101ZM140.524 69.4062V74H139.35V63.8182H140.524V67.5568H140.623C140.802 67.1624 141.071 66.8492 141.429 66.6172C141.79 66.3819 142.27 66.2642 142.87 66.2642C143.391 66.2642 143.846 66.3686 144.237 66.5774C144.629 66.7829 144.932 67.0994 145.147 67.527C145.366 67.9512 145.475 68.4915 145.475 69.1477V74H144.302V69.2273C144.302 68.6207 144.145 68.1518 143.83 67.8203C143.518 67.4856 143.086 67.3182 142.532 67.3182C142.148 67.3182 141.803 67.3994 141.498 67.5618C141.197 67.7242 140.958 67.9612 140.782 68.2727C140.61 68.5843 140.524 68.9621 140.524 69.4062ZM150.924 74.1591C150.188 74.1591 149.553 73.9967 149.019 73.6719C148.489 73.3438 148.08 72.8864 147.792 72.2997C147.506 71.7098 147.364 71.0237 147.364 70.2415C147.364 69.4593 147.506 68.7699 147.792 68.1733C148.08 67.5734 148.481 67.1061 148.995 66.7713C149.512 66.4332 150.115 66.2642 150.804 66.2642C151.202 66.2642 151.595 66.3305 151.983 66.4631C152.37 66.5956 152.723 66.8111 153.042 67.1094C153.36 67.4044 153.613 67.7955 153.802 68.2827C153.991 68.7699 154.086 69.3698 154.086 70.0824V70.5795H148.199V69.5653H152.892C152.892 69.1345 152.806 68.75 152.634 68.4119C152.465 68.0739 152.223 67.8071 151.908 67.6115C151.596 67.416 151.229 67.3182 150.804 67.3182C150.337 67.3182 149.933 67.4342 149.591 67.6662C149.253 67.8949 148.993 68.1932 148.811 68.5611C148.628 68.929 148.537 69.3234 148.537 69.7443V70.4205C148.537 70.9972 148.637 71.486 148.836 71.8871C149.038 72.2848 149.318 72.5881 149.676 72.7969C150.034 73.0024 150.45 73.1051 150.924 73.1051C151.232 73.1051 151.51 73.062 151.759 72.9759C152.011 72.8864 152.228 72.7538 152.41 72.5781C152.592 72.3991 152.733 72.1771 152.833 71.9119L153.966 72.2301C153.847 72.6146 153.646 72.9527 153.365 73.2443C153.083 73.5327 152.735 73.758 152.321 73.9205C151.906 74.0795 151.441 74.1591 150.924 74.1591ZM155.97 74V66.3636H157.104V67.517H157.183C157.323 67.1392 157.575 66.8326 157.939 66.5973C158.304 66.362 158.715 66.2443 159.172 66.2443C159.258 66.2443 159.366 66.246 159.495 66.2493C159.624 66.2526 159.722 66.2576 159.789 66.2642V67.4574C159.749 67.4474 159.658 67.4325 159.515 67.4126C159.376 67.3894 159.228 67.3778 159.073 67.3778C158.701 67.3778 158.37 67.4557 158.078 67.6115C157.79 67.764 157.561 67.9761 157.392 68.2479C157.227 68.5163 157.144 68.8229 157.144 69.1676V74H155.97ZM164.249 74.1591C163.513 74.1591 162.878 73.9967 162.344 73.6719C161.814 73.3438 161.405 72.8864 161.117 72.2997C160.831 71.7098 160.689 71.0237 160.689 70.2415C160.689 69.4593 160.831 68.7699 161.117 68.1733C161.405 67.5734 161.806 67.1061 162.32 66.7713C162.837 66.4332 163.44 66.2642 164.129 66.2642C164.527 66.2642 164.92 66.3305 165.308 66.4631C165.695 66.5956 166.048 66.8111 166.367 67.1094C166.685 67.4044 166.938 67.7955 167.127 68.2827C167.316 68.7699 167.411 69.3698 167.411 70.0824V70.5795H161.524V69.5653H166.217C166.217 69.1345 166.131 68.75 165.959 68.4119C165.79 68.0739 165.548 67.8071 165.233 67.6115C164.921 67.416 164.554 67.3182 164.129 67.3182C163.662 67.3182 163.258 67.4342 162.916 67.6662C162.578 67.8949 162.318 68.1932 162.136 68.5611C161.953 68.929 161.862 69.3234 161.862 69.7443V70.4205C161.862 70.9972 161.962 71.486 162.161 71.8871C162.363 72.2848 162.643 72.5881 163.001 72.7969C163.359 73.0024 163.775 73.1051 164.249 73.1051C164.557 73.1051 164.835 73.062 165.084 72.9759C165.336 72.8864 165.553 72.7538 165.735 72.5781C165.917 72.3991 166.058 72.1771 166.158 71.9119L167.291 72.2301C167.172 72.6146 166.971 72.9527 166.69 73.2443C166.408 73.5327 166.06 73.758 165.646 73.9205C165.231 74.0795 164.766 74.1591 164.249 74.1591ZM174.704 68.0739L173.65 68.3722C173.584 68.1965 173.486 68.0258 173.357 67.8601C173.231 67.6911 173.059 67.5518 172.84 67.4425C172.621 67.3331 172.341 67.2784 172 67.2784C171.533 67.2784 171.143 67.3861 170.832 67.6016C170.523 67.8137 170.369 68.0838 170.369 68.4119C170.369 68.7036 170.475 68.9339 170.687 69.103C170.9 69.272 171.231 69.4129 171.682 69.5256L172.815 69.804C173.498 69.9697 174.007 70.2232 174.342 70.5646C174.676 70.9027 174.844 71.3385 174.844 71.8722C174.844 72.3097 174.718 72.7008 174.466 73.0455C174.217 73.3902 173.869 73.6619 173.422 73.8608C172.974 74.0597 172.454 74.1591 171.861 74.1591C171.082 74.1591 170.437 73.9901 169.927 73.652C169.416 73.3139 169.093 72.8201 168.957 72.1705L170.071 71.892C170.177 72.303 170.377 72.6113 170.672 72.8168C170.971 73.0223 171.36 73.125 171.841 73.125C172.388 73.125 172.822 73.009 173.143 72.777C173.468 72.5417 173.631 72.2599 173.631 71.9318C173.631 71.6667 173.538 71.4446 173.352 71.2656C173.167 71.0833 172.882 70.9474 172.497 70.858L171.224 70.5597C170.525 70.3939 170.011 70.1371 169.683 69.7891C169.358 69.4377 169.196 68.9986 169.196 68.4716C169.196 68.0407 169.317 67.6596 169.559 67.3281C169.804 66.9967 170.137 66.7365 170.558 66.5476C170.982 66.3587 171.463 66.2642 172 66.2642C172.756 66.2642 173.349 66.4299 173.78 66.7614C174.214 67.0928 174.522 67.5303 174.704 68.0739Z" fill="#44444F"/>
</g>
<g clip-path="url(#clip12_208_686)">
<rect x="186" y="64" width="10.4673" height="10" rx="5" fill="#E2E2EA"/>
<path d="M208.914 63.8182V74H207.721L202.173 66.0057H202.073V74H200.84V63.8182H202.034L207.602 71.8324H207.701V63.8182H208.914ZM214.425 74.1591C213.735 74.1591 213.13 73.995 212.61 73.6669C212.093 73.3388 211.689 72.8797 211.397 72.2898C211.109 71.6998 210.964 71.0104 210.964 70.2216C210.964 69.4261 211.109 68.7318 211.397 68.1385C211.689 67.5452 212.093 67.0845 212.61 66.7564C213.13 66.4283 213.735 66.2642 214.425 66.2642C215.114 66.2642 215.717 66.4283 216.234 66.7564C216.755 67.0845 217.159 67.5452 217.447 68.1385C217.739 68.7318 217.885 69.4261 217.885 70.2216C217.885 71.0104 217.739 71.6998 217.447 72.2898C217.159 72.8797 216.755 73.3388 216.234 73.6669C215.717 73.995 215.114 74.1591 214.425 74.1591ZM214.425 73.1051C214.948 73.1051 215.379 72.9709 215.717 72.7024C216.055 72.4339 216.305 72.081 216.468 71.6435C216.63 71.206 216.712 70.732 216.712 70.2216C216.712 69.7112 216.63 69.2356 216.468 68.7947C216.305 68.3539 216.055 67.9976 215.717 67.7259C215.379 67.4541 214.948 67.3182 214.425 67.3182C213.901 67.3182 213.47 67.4541 213.132 67.7259C212.794 67.9976 212.544 68.3539 212.381 68.7947C212.219 69.2356 212.138 69.7112 212.138 70.2216C212.138 70.732 212.219 71.206 212.381 71.6435C212.544 72.081 212.794 72.4339 213.132 72.7024C213.47 72.9709 213.901 73.1051 214.425 73.1051ZM225.747 66.3636L222.923 74H221.73L218.906 66.3636H220.179L222.286 72.4489H222.366L224.474 66.3636H225.747ZM230.224 74.1591C229.535 74.1591 228.93 73.995 228.41 73.6669C227.893 73.3388 227.488 72.8797 227.196 72.2898C226.908 71.6998 226.764 71.0104 226.764 70.2216C226.764 69.4261 226.908 68.7318 227.196 68.1385C227.488 67.5452 227.893 67.0845 228.41 66.7564C228.93 66.4283 229.535 66.2642 230.224 66.2642C230.914 66.2642 231.517 66.4283 232.034 66.7564C232.554 67.0845 232.959 67.5452 233.247 68.1385C233.539 68.7318 233.684 69.4261 233.684 70.2216C233.684 71.0104 233.539 71.6998 233.247 72.2898C232.959 72.8797 232.554 73.3388 232.034 73.6669C231.517 73.995 230.914 74.1591 230.224 74.1591ZM230.224 73.1051C230.748 73.1051 231.179 72.9709 231.517 72.7024C231.855 72.4339 232.105 72.081 232.268 71.6435C232.43 71.206 232.511 70.732 232.511 70.2216C232.511 69.7112 232.43 69.2356 232.268 68.7947C232.105 68.3539 231.855 67.9976 231.517 67.7259C231.179 67.4541 230.748 67.3182 230.224 67.3182C229.701 67.3182 229.27 67.4541 228.932 67.7259C228.594 67.9976 228.343 68.3539 228.181 68.7947C228.018 69.2356 227.937 69.7112 227.937 70.2216C227.937 70.732 228.018 71.206 228.181 71.6435C228.343 72.081 228.594 72.4339 228.932 72.7024C229.27 72.9709 229.701 73.1051 230.224 73.1051ZM240.985 68.0739L239.931 68.3722C239.864 68.1965 239.766 68.0258 239.637 67.8601C239.511 67.6911 239.339 67.5518 239.12 67.4425C238.901 67.3331 238.621 67.2784 238.28 67.2784C237.813 67.2784 237.423 67.3861 237.112 67.6016C236.803 67.8137 236.649 68.0838 236.649 68.4119C236.649 68.7036 236.755 68.9339 236.967 69.103C237.18 69.272 237.511 69.4129 237.962 69.5256L239.095 69.804C239.778 69.9697 240.287 70.2232 240.622 70.5646C240.956 70.9027 241.124 71.3385 241.124 71.8722C241.124 72.3097 240.998 72.7008 240.746 73.0455C240.497 73.3902 240.149 73.6619 239.702 73.8608C239.254 74.0597 238.734 74.1591 238.141 74.1591C237.362 74.1591 236.717 73.9901 236.207 73.652C235.696 73.3139 235.373 72.8201 235.237 72.1705L236.351 71.892C236.457 72.303 236.658 72.6113 236.953 72.8168C237.251 73.0223 237.64 73.125 238.121 73.125C238.668 73.125 239.102 73.009 239.423 72.777C239.748 72.5417 239.911 72.2599 239.911 71.9318C239.911 71.6667 239.818 71.4446 239.632 71.2656C239.447 71.0833 239.162 70.9474 238.777 70.858L237.504 70.5597C236.805 70.3939 236.291 70.1371 235.963 69.7891C235.638 69.4377 235.476 68.9986 235.476 68.4716C235.476 68.0407 235.597 67.6596 235.839 67.3281C236.084 66.9967 236.417 66.7365 236.838 66.5476C237.262 66.3587 237.743 66.2642 238.28 66.2642C239.036 66.2642 239.629 66.4299 240.06 66.7614C240.494 67.0928 240.802 67.5303 240.985 68.0739ZM250.13 74.1591C249.414 74.1591 248.797 73.9901 248.28 73.652C247.763 73.3139 247.365 72.8482 247.087 72.255C246.809 71.6617 246.669 70.9839 246.669 70.2216C246.669 69.446 246.812 68.7616 247.097 68.1683C247.385 67.5717 247.786 67.1061 248.3 66.7713C248.817 66.4332 249.42 66.2642 250.11 66.2642C250.647 66.2642 251.131 66.3636 251.561 66.5625C251.992 66.7614 252.345 67.0398 252.62 67.3977C252.896 67.7557 253.066 68.1733 253.132 68.6506H251.959C251.87 68.3026 251.671 67.9943 251.363 67.7259C251.058 67.4541 250.647 67.3182 250.13 67.3182C249.672 67.3182 249.271 67.4375 248.927 67.6761C248.585 67.9115 248.318 68.2446 248.126 68.6754C247.937 69.103 247.843 69.6051 247.843 70.1818C247.843 70.7718 247.936 71.2855 248.121 71.723C248.31 72.1605 248.575 72.5002 248.917 72.7422C249.261 72.9841 249.666 73.1051 250.13 73.1051C250.435 73.1051 250.711 73.0521 250.96 72.946C251.208 72.84 251.419 72.6875 251.591 72.4886C251.764 72.2898 251.886 72.0511 251.959 71.7727H253.132C253.066 72.2235 252.902 72.6295 252.64 72.9908C252.382 73.3487 252.039 73.6338 251.611 73.8459C251.187 74.0547 250.693 74.1591 250.13 74.1591ZM256.121 63.8182V74H254.948V63.8182H256.121ZM258.37 74V66.3636H259.543V74H258.37ZM258.967 65.0909C258.738 65.0909 258.541 65.013 258.375 64.8572C258.213 64.7015 258.131 64.5142 258.131 64.2955C258.131 64.0767 258.213 63.8894 258.375 63.7337C258.541 63.5779 258.738 63.5 258.967 63.5C259.195 63.5 259.391 63.5779 259.553 63.7337C259.719 63.8894 259.802 64.0767 259.802 64.2955C259.802 64.5142 259.719 64.7015 259.553 64.8572C259.391 65.013 259.195 65.0909 258.967 65.0909ZM264.994 74.1591C264.258 74.1591 263.623 73.9967 263.09 73.6719C262.56 73.3438 262.15 72.8864 261.862 72.2997C261.577 71.7098 261.434 71.0237 261.434 70.2415C261.434 69.4593 261.577 68.7699 261.862 68.1733C262.15 67.5734 262.551 67.1061 263.065 66.7713C263.582 66.4332 264.185 66.2642 264.875 66.2642C265.272 66.2642 265.665 66.3305 266.053 66.4631C266.441 66.5956 266.794 66.8111 267.112 67.1094C267.43 67.4044 267.684 67.7955 267.872 68.2827C268.061 68.7699 268.156 69.3698 268.156 70.0824V70.5795H262.269V69.5653H266.963C266.963 69.1345 266.877 68.75 266.704 68.4119C266.535 68.0739 266.293 67.8071 265.978 67.6115C265.667 67.416 265.299 67.3182 264.875 67.3182C264.407 67.3182 264.003 67.4342 263.662 67.6662C263.323 67.8949 263.063 68.1932 262.881 68.5611C262.699 68.929 262.608 69.3234 262.608 69.7443V70.4205C262.608 70.9972 262.707 71.486 262.906 71.8871C263.108 72.2848 263.388 72.5881 263.746 72.7969C264.104 73.0024 264.52 73.1051 264.994 73.1051C265.302 73.1051 265.581 73.062 265.829 72.9759C266.081 72.8864 266.298 72.7538 266.48 72.5781C266.663 72.3991 266.804 72.1771 266.903 71.9119L268.037 72.2301C267.917 72.6146 267.717 72.9527 267.435 73.2443C267.153 73.5327 266.805 73.758 266.391 73.9205C265.977 74.0795 265.511 74.1591 264.994 74.1591ZM271.214 69.4062V74H270.041V66.3636H271.174V67.5568H271.274C271.453 67.169 271.724 66.8575 272.089 66.6222C272.454 66.3835 272.924 66.2642 273.501 66.2642C274.018 66.2642 274.47 66.3703 274.858 66.5824C275.246 66.7912 275.548 67.1094 275.763 67.5369C275.978 67.9612 276.086 68.4981 276.086 69.1477V74H274.913V69.2273C274.913 68.6274 274.757 68.16 274.445 67.8253C274.134 67.4872 273.706 67.3182 273.163 67.3182C272.788 67.3182 272.454 67.3994 272.159 67.5618C271.867 67.7242 271.637 67.9612 271.468 68.2727C271.298 68.5843 271.214 68.9621 271.214 69.4062ZM281.651 66.3636V67.358H277.694V66.3636H281.651ZM278.847 64.5341H280.02V71.8125C280.02 72.1439 280.069 72.3925 280.165 72.5582C280.264 72.7206 280.39 72.83 280.542 72.8864C280.698 72.9394 280.862 72.9659 281.035 72.9659C281.164 72.9659 281.27 72.9593 281.353 72.946C281.436 72.9295 281.502 72.9162 281.552 72.9062L281.79 73.9602C281.711 73.9901 281.6 74.0199 281.457 74.0497C281.315 74.0829 281.134 74.0994 280.915 74.0994C280.584 74.0994 280.259 74.0282 279.941 73.8857C279.626 73.7431 279.364 73.526 279.155 73.2344C278.95 72.9427 278.847 72.5748 278.847 72.1307V64.5341ZM286.636 74.1591C285.9 74.1591 285.265 73.9967 284.732 73.6719C284.201 73.3438 283.792 72.8864 283.504 72.2997C283.219 71.7098 283.076 71.0237 283.076 70.2415C283.076 69.4593 283.219 68.7699 283.504 68.1733C283.792 67.5734 284.193 67.1061 284.707 66.7713C285.224 66.4332 285.827 66.2642 286.516 66.2642C286.914 66.2642 287.307 66.3305 287.695 66.4631C288.082 66.5956 288.435 66.8111 288.754 67.1094C289.072 67.4044 289.325 67.7955 289.514 68.2827C289.703 68.7699 289.798 69.3698 289.798 70.0824V70.5795H283.911V69.5653H288.604C288.604 69.1345 288.518 68.75 288.346 68.4119C288.177 68.0739 287.935 67.8071 287.62 67.6115C287.309 67.416 286.941 67.3182 286.516 67.3182C286.049 67.3182 285.645 67.4342 285.303 67.6662C284.965 67.8949 284.705 68.1932 284.523 68.5611C284.341 68.929 284.249 69.3234 284.249 69.7443V70.4205C284.249 70.9972 284.349 71.486 284.548 71.8871C284.75 72.2848 285.03 72.5881 285.388 72.7969C285.746 73.0024 286.162 73.1051 286.636 73.1051C286.944 73.1051 287.222 73.062 287.471 72.9759C287.723 72.8864 287.94 72.7538 288.122 72.5781C288.305 72.3991 288.445 72.1771 288.545 71.9119L289.678 72.2301C289.559 72.6146 289.358 72.9527 289.077 73.2443C288.795 73.5327 288.447 73.758 288.033 73.9205C287.618 74.0795 287.153 74.1591 286.636 74.1591ZM297.092 68.0739L296.038 68.3722C295.971 68.1965 295.874 68.0258 295.744 67.8601C295.618 67.6911 295.446 67.5518 295.227 67.4425C295.008 67.3331 294.728 67.2784 294.387 67.2784C293.92 67.2784 293.53 67.3861 293.219 67.6016C292.91 67.8137 292.756 68.0838 292.756 68.4119C292.756 68.7036 292.862 68.9339 293.075 69.103C293.287 69.272 293.618 69.4129 294.069 69.5256L295.202 69.804C295.885 69.9697 296.394 70.2232 296.729 70.5646C297.063 70.9027 297.231 71.3385 297.231 71.8722C297.231 72.3097 297.105 72.7008 296.853 73.0455C296.604 73.3902 296.256 73.6619 295.809 73.8608C295.361 74.0597 294.841 74.1591 294.248 74.1591C293.469 74.1591 292.824 73.9901 292.314 73.652C291.803 73.3139 291.48 72.8201 291.344 72.1705L292.458 71.892C292.564 72.303 292.765 72.6113 293.06 72.8168C293.358 73.0223 293.747 73.125 294.228 73.125C294.775 73.125 295.209 73.009 295.53 72.777C295.855 72.5417 296.018 72.2599 296.018 71.9318C296.018 71.6667 295.925 71.4446 295.739 71.2656C295.554 71.0833 295.269 70.9474 294.884 70.858L293.611 70.5597C292.912 70.3939 292.398 70.1371 292.07 69.7891C291.745 69.4377 291.583 68.9986 291.583 68.4716C291.583 68.0407 291.704 67.6596 291.946 67.3281C292.191 66.9967 292.524 66.7365 292.945 66.5476C293.369 66.3587 293.85 66.2642 294.387 66.2642C295.143 66.2642 295.736 66.4299 296.167 66.7614C296.601 67.0928 296.909 67.5303 297.092 68.0739Z" fill="#44444F"/>
</g>
<g clip-path="url(#clip13_208_686)">
<rect x="25" y="64" width="10" height="10" rx="5" fill="#0062FF"/>
<path d="M39.6963 74V63.8182H40.9293V68.3523H46.3583V63.8182H47.5912V74H46.3583V69.446H40.9293V74H39.6963ZM53.1028 74.1591C52.4134 74.1591 51.8085 73.995 51.2882 73.6669C50.7711 73.3388 50.3668 72.8797 50.0751 72.2898C49.7867 71.6998 49.6426 71.0104 49.6426 70.2216C49.6426 69.4261 49.7867 68.7318 50.0751 68.1385C50.3668 67.5452 50.7711 67.0845 51.2882 66.7564C51.8085 66.4283 52.4134 66.2642 53.1028 66.2642C53.7922 66.2642 54.3954 66.4283 54.9125 66.7564C55.4328 67.0845 55.8372 67.5452 56.1255 68.1385C56.4172 68.7318 56.563 69.4261 56.563 70.2216C56.563 71.0104 56.4172 71.6998 56.1255 72.2898C55.8372 72.8797 55.4328 73.3388 54.9125 73.6669C54.3954 73.995 53.7922 74.1591 53.1028 74.1591ZM53.1028 73.1051C53.6265 73.1051 54.0573 72.9709 54.3954 72.7024C54.7335 72.4339 54.9837 72.081 55.1461 71.6435C55.3085 71.206 55.3897 70.732 55.3897 70.2216C55.3897 69.7112 55.3085 69.2356 55.1461 68.7947C54.9837 68.3539 54.7335 67.9976 54.3954 67.7259C54.0573 67.4541 53.6265 67.3182 53.1028 67.3182C52.5791 67.3182 52.1483 67.4541 51.8102 67.7259C51.4721 67.9976 51.2219 68.3539 51.0595 68.7947C50.8971 69.2356 50.8159 69.7112 50.8159 70.2216C50.8159 70.732 50.8971 71.206 51.0595 71.6435C51.2219 72.081 51.4721 72.4339 51.8102 72.7024C52.1483 72.9709 52.5791 73.1051 53.1028 73.1051ZM58.454 74V66.3636H59.5876V67.5568H59.687C59.8461 67.1491 60.103 66.8326 60.4576 66.6072C60.8122 66.3786 61.2381 66.2642 61.7353 66.2642C62.2391 66.2642 62.6583 66.3786 62.9931 66.6072C63.3312 66.8326 63.5947 67.1491 63.7836 67.5568H63.8631C64.0587 67.1624 64.352 66.8492 64.7431 66.6172C65.1342 66.3819 65.6032 66.2642 66.1501 66.2642C66.8328 66.2642 67.3913 66.478 67.8255 66.9055C68.2597 67.3298 68.4768 67.991 68.4768 68.8892V74H67.3035V68.8892C67.3035 68.3258 67.1494 67.9231 66.8411 67.6811C66.5329 67.4392 66.1699 67.3182 65.7523 67.3182C65.2154 67.3182 64.7994 67.4806 64.5045 67.8054C64.2095 68.1269 64.062 68.5346 64.062 69.0284V74H62.8688V68.7699C62.8688 68.3357 62.728 67.986 62.4462 67.7209C62.1645 67.4524 61.8016 67.3182 61.3574 67.3182C61.0525 67.3182 60.7675 67.3994 60.5023 67.5618C60.2405 67.7242 60.0284 67.9496 59.866 68.2379C59.7069 68.523 59.6273 68.8527 59.6273 69.2273V74H58.454ZM73.9237 74.1591C73.1879 74.1591 72.5532 73.9967 72.0196 73.6719C71.4893 73.3438 71.08 72.8864 70.7916 72.2997C70.5066 71.7098 70.3641 71.0237 70.3641 70.2415C70.3641 69.4593 70.5066 68.7699 70.7916 68.1733C71.08 67.5734 71.481 67.1061 71.9947 66.7713C72.5118 66.4332 73.115 66.2642 73.8044 66.2642C74.2021 66.2642 74.5949 66.3305 74.9827 66.4631C75.3704 66.5956 75.7234 66.8111 76.0416 67.1094C76.3598 67.4044 76.6133 67.7955 76.8023 68.2827C76.9912 68.7699 77.0856 69.3698 77.0856 70.0824V70.5795H71.1993V69.5653H75.8925C75.8925 69.1345 75.8063 68.75 75.6339 68.4119C75.4649 68.0739 75.223 67.8071 74.9081 67.6115C74.5965 67.416 74.2286 67.3182 73.8044 67.3182C73.3371 67.3182 72.9327 67.4342 72.5913 67.6662C72.2533 67.8949 71.9931 68.1932 71.8108 68.5611C71.6285 68.929 71.5373 69.3234 71.5373 69.7443V70.4205C71.5373 70.9972 71.6368 71.486 71.8356 71.8871C72.0378 72.2848 72.3179 72.5881 72.6758 72.7969C73.0338 73.0024 73.4498 73.1051 73.9237 73.1051C74.232 73.1051 74.5104 73.062 74.7589 72.9759C75.0108 72.8864 75.2279 72.7538 75.4102 72.5781C75.5925 72.3991 75.7334 72.1771 75.8328 71.9119L76.9663 72.2301C76.847 72.6146 76.6465 72.9527 76.3648 73.2443C76.083 73.5327 75.735 73.758 75.3207 73.9205C74.9064 74.0795 74.4408 74.1591 73.9237 74.1591ZM80.1437 69.4062V74H78.9704V66.3636H80.104V67.5568H80.2034C80.3824 67.169 80.6542 66.8575 81.0187 66.6222C81.3833 66.3835 81.854 66.2642 82.4307 66.2642C82.9477 66.2642 83.4001 66.3703 83.7879 66.5824C84.1757 66.7912 84.4773 67.1094 84.6927 67.5369C84.9082 67.9612 85.0159 68.4981 85.0159 69.1477V74H83.8426V69.2273C83.8426 68.6274 83.6868 68.16 83.3753 67.8253C83.0637 67.4872 82.6362 67.3182 82.0926 67.3182C81.7181 67.3182 81.3833 67.3994 81.0883 67.5618C80.7967 67.7242 80.5663 67.9612 80.3973 68.2727C80.2283 68.5843 80.1437 68.9621 80.1437 69.4062ZM92.669 68.0739L91.615 68.3722C91.5487 68.1965 91.451 68.0258 91.3217 67.8601C91.1957 67.6911 91.0234 67.5518 90.8046 67.4425C90.5859 67.3331 90.3058 67.2784 89.9644 67.2784C89.4971 67.2784 89.1077 67.3861 88.7961 67.6016C88.4879 67.8137 88.3338 68.0838 88.3338 68.4119C88.3338 68.7036 88.4398 68.9339 88.6519 69.103C88.8641 69.272 89.1955 69.4129 89.6463 69.5256L90.7798 69.804C91.4626 69.9697 91.9713 70.2232 92.3061 70.5646C92.6408 70.9027 92.8082 71.3385 92.8082 71.8722C92.8082 72.3097 92.6822 72.7008 92.4304 73.0455C92.1818 73.3902 91.8338 73.6619 91.3863 73.8608C90.9389 74.0597 90.4185 74.1591 89.8252 74.1591C89.0464 74.1591 88.4017 73.9901 87.8913 73.652C87.3809 73.3139 87.0577 72.8201 86.9218 72.1705L88.0355 71.892C88.1415 72.303 88.342 72.6113 88.637 72.8168C88.9353 73.0223 89.3248 73.125 89.8054 73.125C90.3522 73.125 90.7864 73.009 91.1079 72.777C91.4327 72.5417 91.5951 72.2599 91.5951 71.9318C91.5951 71.6667 91.5023 71.4446 91.3167 71.2656C91.1311 71.0833 90.8461 70.9474 90.4616 70.858L89.1889 70.5597C88.4895 70.3939 87.9758 70.1371 87.6477 69.7891C87.3229 69.4377 87.1605 68.9986 87.1605 68.4716C87.1605 68.0407 87.2814 67.6596 87.5234 67.3281C87.7687 66.9967 88.1018 66.7365 88.5227 66.5476C88.9469 66.3587 89.4275 66.2642 89.9644 66.2642C90.7201 66.2642 91.3134 66.4299 91.7443 66.7614C92.1785 67.0928 92.4867 67.5303 92.669 68.0739Z" fill="#44444F"/>
</g>
<path d="M25.49 33.1C25.49 32.1387 25.7047 31.28 26.134 30.524C26.5727 29.7587 27.1653 29.166 27.912 28.746C28.668 28.3167 29.5127 28.102 30.446 28.102C31.538 28.102 32.4947 28.382 33.316 28.942C34.1373 29.502 34.7113 30.2767 35.038 31.266H32.784C32.56 30.7993 32.2427 30.4493 31.832 30.216C31.4307 29.9827 30.964 29.866 30.432 29.866C29.8627 29.866 29.354 30.0013 28.906 30.272C28.4673 30.5333 28.122 30.9067 27.87 31.392C27.6273 31.8773 27.506 32.4467 27.506 33.1C27.506 33.744 27.6273 34.3133 27.87 34.808C28.122 35.2933 28.4673 35.6713 28.906 35.942C29.354 36.2033 29.8627 36.334 30.432 36.334C30.964 36.334 31.4307 36.2173 31.832 35.984C32.2427 35.7413 32.56 35.3867 32.784 34.92H35.038C34.7113 35.9187 34.1373 36.698 33.316 37.258C32.504 37.8087 31.5473 38.084 30.446 38.084C29.5127 38.084 28.668 37.874 27.912 37.454C27.1653 37.0247 26.5727 36.432 26.134 35.676C25.7047 34.92 25.49 34.0613 25.49 33.1ZM41.8521 38L39.6961 34.192H38.7721V38H36.8121V28.228H40.4801C41.2361 28.228 41.8801 28.3633 42.4121 28.634C42.9441 28.8953 43.3408 29.2547 43.6021 29.712C43.8728 30.16 44.0081 30.664 44.0081 31.224C44.0081 31.868 43.8214 32.4513 43.4481 32.974C43.0748 33.4873 42.5194 33.842 41.7821 34.038L44.1201 38H41.8521ZM38.7721 32.722H40.4101C40.9421 32.722 41.3388 32.596 41.6001 32.344C41.8614 32.0827 41.9921 31.7233 41.9921 31.266C41.9921 30.818 41.8614 30.4727 41.6001 30.23C41.3388 29.978 40.9421 29.852 40.4101 29.852H38.7721V32.722ZM47.8408 29.81V32.26H51.1308V33.814H47.8408V36.404H51.5508V38H45.8808V28.214H51.5508V29.81H47.8408ZM56.806 38.098C56.1247 38.098 55.5087 37.9813 54.958 37.748C54.4167 37.5147 53.9873 37.1787 53.67 36.74C53.3527 36.3013 53.1893 35.7833 53.18 35.186H55.28C55.308 35.5873 55.448 35.9047 55.7 36.138C55.9613 36.3713 56.316 36.488 56.764 36.488C57.2213 36.488 57.5807 36.3807 57.842 36.166C58.1033 35.942 58.234 35.6527 58.234 35.298C58.234 35.0087 58.1453 34.7707 57.968 34.584C57.7907 34.3973 57.5667 34.2527 57.296 34.15C57.0347 34.038 56.6707 33.9167 56.204 33.786C55.5693 33.5993 55.0513 33.4173 54.65 33.24C54.258 33.0533 53.9173 32.778 53.628 32.414C53.348 32.0407 53.208 31.546 53.208 30.93C53.208 30.3513 53.3527 29.8473 53.642 29.418C53.9313 28.9887 54.3373 28.662 54.86 28.438C55.3827 28.2047 55.98 28.088 56.652 28.088C57.66 28.088 58.4767 28.3353 59.102 28.83C59.7367 29.3153 60.0867 29.9967 60.152 30.874H57.996C57.9773 30.538 57.8327 30.2627 57.562 30.048C57.3007 29.824 56.9507 29.712 56.512 29.712C56.1293 29.712 55.8213 29.81 55.588 30.006C55.364 30.202 55.252 30.4867 55.252 30.86C55.252 31.1213 55.336 31.3407 55.504 31.518C55.6813 31.686 55.896 31.826 56.148 31.938C56.4093 32.0407 56.7733 32.162 57.24 32.302C57.8747 32.4887 58.3927 32.6753 58.794 32.862C59.1953 33.0487 59.5407 33.3287 59.83 33.702C60.1193 34.0753 60.264 34.5653 60.264 35.172C60.264 35.6947 60.1287 36.18 59.858 36.628C59.5873 37.076 59.1907 37.4353 58.668 37.706C58.1453 37.9673 57.5247 38.098 56.806 38.098ZM61.5873 33.1C61.5873 32.1387 61.8019 31.28 62.2313 30.524C62.6699 29.7587 63.2626 29.166 64.0093 28.746C64.7653 28.3167 65.6099 28.102 66.5433 28.102C67.6353 28.102 68.5919 28.382 69.4133 28.942C70.2346 29.502 70.8086 30.2767 71.1353 31.266H68.8813C68.6573 30.7993 68.3399 30.4493 67.9293 30.216C67.5279 29.9827 67.0613 29.866 66.5293 29.866C65.9599 29.866 65.4513 30.0013 65.0033 30.272C64.5646 30.5333 64.2193 30.9067 63.9673 31.392C63.7246 31.8773 63.6033 32.4467 63.6033 33.1C63.6033 33.744 63.7246 34.3133 63.9673 34.808C64.2193 35.2933 64.5646 35.6713 65.0033 35.942C65.4513 36.2033 65.9599 36.334 66.5293 36.334C67.0613 36.334 67.5279 36.2173 67.9293 35.984C68.3399 35.7413 68.6573 35.3867 68.8813 34.92H71.1353C70.8086 35.9187 70.2346 36.698 69.4133 37.258C68.6013 37.8087 67.6446 38.084 66.5433 38.084C65.6099 38.084 64.7653 37.874 64.0093 37.454C63.2626 37.0247 62.6699 36.432 62.2313 35.676C61.8019 34.92 61.5873 34.0613 61.5873 33.1ZM74.8694 28.228V38H72.9094V28.228H74.8694ZM87.5598 28.228V38H85.5998V31.644L82.9818 38H81.4978L78.8658 31.644V38H76.9058V28.228H79.1318L82.2398 35.494L85.3478 28.228H87.5598ZM91.5576 29.81V32.26H94.8476V33.814H91.5576V36.404H95.2676V38H89.5976V28.214H95.2676V29.81H91.5576ZM105.507 38H103.547L99.1088 31.294V38H97.1488V28.214H99.1088L103.547 34.934V28.214H105.507V38ZM114.194 28.228V29.81H111.59V38H109.63V29.81H107.026V28.228H114.194ZM120.26 38.098C119.345 38.098 118.505 37.8833 117.74 37.454C116.974 37.0247 116.368 36.432 115.92 35.676C115.472 34.9107 115.248 34.0473 115.248 33.086C115.248 32.134 115.472 31.28 115.92 30.524C116.368 29.7587 116.974 29.1613 117.74 28.732C118.505 28.3027 119.345 28.088 120.26 28.088C121.184 28.088 122.024 28.3027 122.78 28.732C123.545 29.1613 124.147 29.7587 124.586 30.524C125.034 31.28 125.258 32.134 125.258 33.086C125.258 34.0473 125.034 34.9107 124.586 35.676C124.147 36.432 123.545 37.0247 122.78 37.454C122.014 37.8833 121.174 38.098 120.26 38.098ZM120.26 36.348C120.848 36.348 121.366 36.2173 121.814 35.956C122.262 35.6853 122.612 35.3027 122.864 34.808C123.116 34.3133 123.242 33.7393 123.242 33.086C123.242 32.4327 123.116 31.8633 122.864 31.378C122.612 30.8833 122.262 30.5053 121.814 30.244C121.366 29.9827 120.848 29.852 120.26 29.852C119.672 29.852 119.149 29.9827 118.692 30.244C118.244 30.5053 117.894 30.8833 117.642 31.378C117.39 31.8633 117.264 32.4327 117.264 33.086C117.264 33.7393 117.39 34.3133 117.642 34.808C117.894 35.3027 118.244 35.6853 118.692 35.956C119.149 36.2173 119.672 36.348 120.26 36.348ZM129.776 33.1C129.776 32.1387 129.991 31.28 130.42 30.524C130.859 29.7587 131.451 29.166 132.198 28.746C132.954 28.3167 133.799 28.102 134.732 28.102C135.824 28.102 136.781 28.382 137.602 28.942C138.423 29.502 138.997 30.2767 139.324 31.266H137.07C136.846 30.7993 136.529 30.4493 136.118 30.216C135.717 29.9827 135.25 29.866 134.718 29.866C134.149 29.866 133.64 30.0013 133.192 30.272C132.753 30.5333 132.408 30.9067 132.156 31.392C131.913 31.8773 131.792 32.4467 131.792 33.1C131.792 33.744 131.913 34.3133 132.156 34.808C132.408 35.2933 132.753 35.6713 133.192 35.942C133.64 36.2033 134.149 36.334 134.718 36.334C135.25 36.334 135.717 36.2173 136.118 35.984C136.529 35.7413 136.846 35.3867 137.07 34.92H139.324C138.997 35.9187 138.423 36.698 137.602 37.258C136.79 37.8087 135.833 38.084 134.732 38.084C133.799 38.084 132.954 37.874 132.198 37.454C131.451 37.0247 130.859 36.432 130.42 35.676C129.991 34.92 129.776 34.0613 129.776 33.1ZM143.058 36.446H146.278V38H141.098V28.228H143.058V36.446ZM149.584 28.228V38H147.624V28.228H149.584ZM153.58 29.81V32.26H156.87V33.814H153.58V36.404H157.29V38H151.62V28.214H157.29V29.81H153.58ZM167.529 38H165.569L161.131 31.294V38H159.171V28.214H161.131L165.569 34.934V28.214H167.529V38ZM176.216 28.228V29.81H173.612V38H171.652V29.81H169.048V28.228H176.216ZM179.706 29.81V32.26H182.996V33.814H179.706V36.404H183.416V38H177.746V28.214H183.416V29.81H179.706ZM188.672 38.098C187.99 38.098 187.374 37.9813 186.824 37.748C186.282 37.5147 185.853 37.1787 185.536 36.74C185.218 36.3013 185.055 35.7833 185.046 35.186H187.146C187.174 35.5873 187.314 35.9047 187.566 36.138C187.827 36.3713 188.182 36.488 188.63 36.488C189.087 36.488 189.446 36.3807 189.708 36.166C189.969 35.942 190.1 35.6527 190.1 35.298C190.1 35.0087 190.011 34.7707 189.834 34.584C189.656 34.3973 189.432 34.2527 189.162 34.15C188.9 34.038 188.536 33.9167 188.07 33.786C187.435 33.5993 186.917 33.4173 186.516 33.24C186.124 33.0533 185.783 32.778 185.494 32.414C185.214 32.0407 185.074 31.546 185.074 30.93C185.074 30.3513 185.218 29.8473 185.508 29.418C185.797 28.9887 186.203 28.662 186.726 28.438C187.248 28.2047 187.846 28.088 188.518 28.088C189.526 28.088 190.342 28.3353 190.968 28.83C191.602 29.3153 191.952 29.9967 192.018 30.874H189.862C189.843 30.538 189.698 30.2627 189.428 30.048C189.166 29.824 188.816 29.712 188.378 29.712C187.995 29.712 187.687 29.81 187.454 30.006C187.23 30.202 187.118 30.4867 187.118 30.86C187.118 31.1213 187.202 31.3407 187.37 31.518C187.547 31.686 187.762 31.826 188.014 31.938C188.275 32.0407 188.639 32.162 189.106 32.302C189.74 32.4887 190.258 32.6753 190.66 32.862C191.061 33.0487 191.406 33.3287 191.696 33.702C191.985 34.0753 192.13 34.5653 192.13 35.172C192.13 35.6947 191.994 36.18 191.724 36.628C191.453 37.076 191.056 37.4353 190.534 37.706C190.011 37.9673 189.39 38.098 188.672 38.098Z" fill="#171725"/>
<g clip-path="url(#clip14_208_686)">
<path d="M218.977 31.2727V40H217.955L213.199 33.1477H213.114V40H212.057V31.2727H213.08L217.852 38.142H217.938V31.2727H218.977ZM223.7 40.1364C223.069 40.1364 222.525 39.9972 222.068 39.7188C221.613 39.4375 221.262 39.0455 221.015 38.5426C220.771 38.0369 220.649 37.4489 220.649 36.7784C220.649 36.108 220.771 35.517 221.015 35.0057C221.262 34.4915 221.606 34.0909 222.047 33.804C222.49 33.5142 223.007 33.3693 223.598 33.3693C223.939 33.3693 224.275 33.4261 224.608 33.5398C224.94 33.6534 225.243 33.8381 225.515 34.0938C225.788 34.3466 226.005 34.6818 226.167 35.0994C226.329 35.517 226.41 36.0312 226.41 36.642V37.0682H221.365V36.1989H225.387C225.387 35.8295 225.314 35.5 225.166 35.2102C225.021 34.9205 224.814 34.6918 224.544 34.5241C224.277 34.3565 223.961 34.2727 223.598 34.2727C223.197 34.2727 222.85 34.3722 222.558 34.571C222.268 34.767 222.045 35.0227 221.889 35.3381C221.733 35.6534 221.654 35.9915 221.654 36.3523V36.9318C221.654 37.4261 221.74 37.8452 221.91 38.1889C222.083 38.5298 222.324 38.7898 222.63 38.9688C222.937 39.1449 223.294 39.233 223.7 39.233C223.964 39.233 224.203 39.196 224.416 39.1222C224.632 39.0455 224.818 38.9318 224.974 38.7812C225.13 38.6278 225.251 38.4375 225.336 38.2102L226.308 38.483C226.206 38.8125 226.034 39.1023 225.792 39.3523C225.551 39.5994 225.252 39.7926 224.897 39.9318C224.542 40.0682 224.143 40.1364 223.7 40.1364ZM232.576 34.9205L231.673 35.1761C231.616 35.0256 231.532 34.8793 231.422 34.7372C231.314 34.5923 231.166 34.473 230.978 34.3793C230.791 34.2855 230.551 34.2386 230.258 34.2386C229.858 34.2386 229.524 34.331 229.257 34.5156C228.993 34.6974 228.86 34.929 228.86 35.2102C228.86 35.4602 228.951 35.6577 229.133 35.8026C229.315 35.9474 229.599 36.0682 229.985 36.1648L230.957 36.4034C231.542 36.5455 231.978 36.7628 232.265 37.0554C232.552 37.3452 232.696 37.7187 232.696 38.1761C232.696 38.5511 232.588 38.8864 232.372 39.1818C232.159 39.4773 231.86 39.7102 231.477 39.8807C231.093 40.0511 230.647 40.1364 230.139 40.1364C229.471 40.1364 228.919 39.9915 228.481 39.7017C228.044 39.4119 227.767 38.9886 227.65 38.4318L228.605 38.1932C228.696 38.5455 228.868 38.8097 229.12 38.9858C229.376 39.1619 229.71 39.25 230.122 39.25C230.591 39.25 230.963 39.1506 231.238 38.9517C231.517 38.75 231.656 38.5085 231.656 38.2273C231.656 38 231.576 37.8097 231.417 37.6562C231.258 37.5 231.014 37.3835 230.684 37.3068L229.593 37.0511C228.994 36.9091 228.554 36.6889 228.272 36.3906C227.994 36.0895 227.855 35.7131 227.855 35.2614C227.855 34.892 227.958 34.5653 228.166 34.2812C228.376 33.9972 228.662 33.7741 229.022 33.6122C229.386 33.4503 229.798 33.3693 230.258 33.3693C230.906 33.3693 231.414 33.5114 231.784 33.7955C232.156 34.0795 232.42 34.4545 232.576 34.9205ZM238.846 34.9205L237.942 35.1761C237.886 35.0256 237.802 34.8793 237.691 34.7372C237.583 34.5923 237.435 34.473 237.248 34.3793C237.06 34.2855 236.82 34.2386 236.528 34.2386C236.127 34.2386 235.793 34.331 235.526 34.5156C235.262 34.6974 235.13 34.929 235.13 35.2102C235.13 35.4602 235.221 35.6577 235.403 35.8026C235.585 35.9474 235.869 36.0682 236.255 36.1648L237.227 36.4034C237.812 36.5455 238.248 36.7628 238.535 37.0554C238.822 37.3452 238.965 37.7187 238.965 38.1761C238.965 38.5511 238.857 38.8864 238.641 39.1818C238.428 39.4773 238.13 39.7102 237.746 39.8807C237.363 40.0511 236.917 40.1364 236.408 40.1364C235.741 40.1364 235.188 39.9915 234.751 39.7017C234.313 39.4119 234.036 38.9886 233.92 38.4318L234.874 38.1932C234.965 38.5455 235.137 38.8097 235.39 38.9858C235.646 39.1619 235.979 39.25 236.391 39.25C236.86 39.25 237.232 39.1506 237.508 38.9517C237.786 38.75 237.925 38.5085 237.925 38.2273C237.925 38 237.846 37.8097 237.687 37.6562C237.528 37.5 237.283 37.3835 236.954 37.3068L235.863 37.0511C235.263 36.9091 234.823 36.6889 234.542 36.3906C234.263 36.0895 234.124 35.7131 234.124 35.2614C234.124 34.892 234.228 34.5653 234.435 34.2812C234.646 33.9972 234.931 33.7741 235.292 33.6122C235.656 33.4503 236.067 33.3693 236.528 33.3693C237.175 33.3693 237.684 33.5114 238.053 33.7955C238.425 34.0795 238.69 34.4545 238.846 34.9205ZM243.223 40.1364C242.593 40.1364 242.049 39.9972 241.591 39.7188C241.137 39.4375 240.786 39.0455 240.539 38.5426C240.294 38.0369 240.172 37.4489 240.172 36.7784C240.172 36.108 240.294 35.517 240.539 35.0057C240.786 34.4915 241.13 34.0909 241.57 33.804C242.013 33.5142 242.53 33.3693 243.121 33.3693C243.462 33.3693 243.799 33.4261 244.131 33.5398C244.463 33.6534 244.766 33.8381 245.039 34.0938C245.311 34.3466 245.529 34.6818 245.691 35.0994C245.853 35.517 245.934 36.0312 245.934 36.642V37.0682H240.888V36.1989H244.911C244.911 35.8295 244.837 35.5 244.689 35.2102C244.544 34.9205 244.337 34.6918 244.067 34.5241C243.8 34.3565 243.485 34.2727 243.121 34.2727C242.721 34.2727 242.374 34.3722 242.081 34.571C241.792 34.767 241.569 35.0227 241.412 35.3381C241.256 35.6534 241.178 35.9915 241.178 36.3523V36.9318C241.178 37.4261 241.263 37.8452 241.434 38.1889C241.607 38.5298 241.847 38.7898 242.154 38.9688C242.461 39.1449 242.817 39.233 243.223 39.233C243.488 39.233 243.726 39.196 243.939 39.1222C244.155 39.0455 244.341 38.9318 244.498 38.7812C244.654 38.6278 244.775 38.4375 244.86 38.2102L245.831 38.483C245.729 38.8125 245.557 39.1023 245.316 39.3523C245.074 39.5994 244.776 39.7926 244.421 39.9318C244.066 40.0682 243.667 40.1364 243.223 40.1364ZM252.765 40.1534C252.35 40.1534 251.973 40.0753 251.635 39.919C251.297 39.7599 251.029 39.5312 250.83 39.233C250.631 38.9318 250.532 38.5682 250.532 38.142C250.532 37.767 250.605 37.4631 250.753 37.2301C250.901 36.9943 251.098 36.8097 251.346 36.6761C251.593 36.5426 251.865 36.4432 252.164 36.3778C252.465 36.3097 252.767 36.2557 253.071 36.2159C253.469 36.1648 253.792 36.1264 254.039 36.1009C254.289 36.0724 254.471 36.0256 254.584 35.9602C254.701 35.8949 254.759 35.7812 254.759 35.6193V35.5852C254.759 35.1648 254.644 34.8381 254.414 34.6051C254.186 34.3722 253.841 34.2557 253.378 34.2557C252.898 34.2557 252.522 34.3608 252.249 34.571C251.976 34.7812 251.784 35.0057 251.674 35.2443L250.719 34.9034C250.89 34.5057 251.117 34.196 251.401 33.9744C251.688 33.75 252 33.5937 252.338 33.5057C252.679 33.4148 253.015 33.3693 253.344 33.3693C253.554 33.3693 253.796 33.3949 254.069 33.446C254.344 33.4943 254.61 33.5952 254.865 33.7486C255.124 33.902 255.338 34.1335 255.509 34.4432C255.679 34.7528 255.765 35.1676 255.765 35.6875V40H254.759V39.1136H254.708C254.64 39.2557 254.526 39.4077 254.367 39.5696C254.208 39.7315 253.996 39.8693 253.732 39.983C253.468 40.0966 253.145 40.1534 252.765 40.1534ZM252.918 39.25C253.316 39.25 253.651 39.1719 253.924 39.0156C254.199 38.8594 254.407 38.6577 254.546 38.4105C254.688 38.1634 254.759 37.9034 254.759 37.6307V36.7102C254.716 36.7614 254.623 36.8082 254.478 36.8509C254.336 36.8906 254.171 36.9261 253.983 36.9574C253.799 36.9858 253.618 37.0114 253.442 37.0341C253.269 37.054 253.128 37.071 253.02 37.0852C252.759 37.1193 252.515 37.1747 252.287 37.2514C252.063 37.3253 251.881 37.4375 251.742 37.5881C251.605 37.7358 251.537 37.9375 251.537 38.1932C251.537 38.5426 251.667 38.8068 251.925 38.9858C252.186 39.1619 252.517 39.25 252.918 39.25ZM258.606 36.0625V40H257.6V33.4545H258.572V34.4773H258.657C258.81 34.1449 259.043 33.8778 259.356 33.6761C259.668 33.4716 260.072 33.3693 260.566 33.3693C261.009 33.3693 261.397 33.4602 261.729 33.642C262.062 33.821 262.32 34.0938 262.505 34.4602C262.69 34.8239 262.782 35.2841 262.782 35.8409V40H261.776V35.9091C261.776 35.3949 261.643 34.9943 261.376 34.7074C261.109 34.4176 260.742 34.2727 260.276 34.2727C259.955 34.2727 259.668 34.3423 259.415 34.4815C259.165 34.6207 258.968 34.8239 258.823 35.0909C258.678 35.358 258.606 35.6818 258.606 36.0625ZM267.279 40.1364C266.688 40.1364 266.169 39.9957 265.723 39.7145C265.28 39.4332 264.934 39.0398 264.684 38.5341C264.436 38.0284 264.313 37.4375 264.313 36.7614C264.313 36.0795 264.436 35.4844 264.684 34.9759C264.934 34.4673 265.28 34.0724 265.723 33.7912C266.169 33.5099 266.688 33.3693 267.279 33.3693C267.87 33.3693 268.387 33.5099 268.83 33.7912C269.276 34.0724 269.623 34.4673 269.87 34.9759C270.12 35.4844 270.245 36.0795 270.245 36.7614C270.245 37.4375 270.12 38.0284 269.87 38.5341C269.623 39.0398 269.276 39.4332 268.83 39.7145C268.387 39.9957 267.87 40.1364 267.279 40.1364ZM267.279 39.233C267.728 39.233 268.097 39.1179 268.387 38.8878C268.676 38.6577 268.891 38.3551 269.03 37.9801C269.169 37.6051 269.239 37.1989 269.239 36.7614C269.239 36.3239 269.169 35.9162 269.03 35.5384C268.891 35.1605 268.676 34.8551 268.387 34.6222C268.097 34.3892 267.728 34.2727 267.279 34.2727C266.83 34.2727 266.461 34.3892 266.171 34.6222C265.881 34.8551 265.667 35.1605 265.527 35.5384C265.388 35.9162 265.319 36.3239 265.319 36.7614C265.319 37.1989 265.388 37.6051 265.527 37.9801C265.667 38.3551 265.881 38.6577 266.171 38.8878C266.461 39.1179 266.83 39.233 267.279 39.233Z" fill="#92929D"/>
<path fill-rule="evenodd" clip-rule="evenodd" d="M291.293 32.3335C291.712 32.3335 291.946 32.8185 291.684 33.1458L287.391 38.5121C287.19 38.7623 286.81 38.7623 286.61 38.5121L282.317 33.1458C282.055 32.8185 282.288 32.3335 282.707 32.3335H291.293Z" fill="#92929D"/>
</g>
</g>
<defs>
<filter id="filter0_d_208_686" x="0" y="0" width="320" height="326" filterUnits="userSpaceOnUse" color-interpolation-filters="sRGB">
<feFlood flood-opacity="0" result="BackgroundImageFix"/>
<feColorMatrix in="SourceAlpha" type="matrix" values="0 0 0 0 0 0 0 0 0 0 0 0 0 0 0 0 0 0 127 0" result="hardAlpha"/>
<feOffset dy="4"/>
<feGaussianBlur stdDeviation="5"/>
<feComposite in2="hardAlpha" operator="out"/>
<feColorMatrix type="matrix" values="0 0 0 0 0 0 0 0 0 0 0 0 0 0 0 0 0 0 0.4 0"/>
<feBlend mode="normal" in2="BackgroundImageFix" result="effect1_dropShadow_208_686"/>
<feBlend mode="normal" in="SourceGraphic" in2="effect1_dropShadow_208_686" result="shape"/>
</filter>
<clipPath id="clip0_208_686">
<rect width="300" height="306" fill="white" transform="translate(10 6)"/>
</clipPath>
<clipPath id="clip1_208_686">
<rect width="279" height="14" fill="white" transform="translate(39 249)"/>
</clipPath>
<clipPath id="clip2_208_686">
<rect width="293" height="14" fill="white" transform="translate(25 212)"/>
</clipPath>
<clipPath id="clip3_208_686">
<rect width="293" height="14" fill="white" transform="translate(25 175)"/>
</clipPath>
<clipPath id="clip4_208_686">
<rect width="293" height="14" fill="white" transform="translate(25 138)"/>
</clipPath>
<clipPath id="clip5_208_686">
<rect width="293" height="14" fill="white" transform="translate(25 101)"/>
</clipPath>
<clipPath id="clip6_208_686">
<rect width="23" height="24" fill="white" transform="translate(189 273)"/>
</clipPath>
<clipPath id="clip7_208_686">
<rect width="25" height="24" fill="white" transform="translate(146 273)"/>
</clipPath>
<clipPath id="clip8_208_686">
<rect width="24" height="24" fill="white" transform="translate(104 273)"/>
</clipPath>
<clipPath id="clip9_208_686">
<rect width="24" height="24" fill="white" transform="translate(275 273)"/>
</clipPath>
<clipPath id="clip10_208_686">
<rect width="24" height="24" fill="white" transform="translate(62 273)"/>
</clipPath>
<clipPath id="clip11_208_686">
<rect width="78" height="24" fill="white" transform="translate(101 57)"/>
</clipPath>
<clipPath id="clip12_208_686">
<rect width="112" height="24" fill="white" transform="translate(186 57)"/>
</clipPath>
<clipPath id="clip13_208_686">
<rect width="69" height="24" fill="white" transform="translate(25 57)"/>
</clipPath>
<clipPath id="clip14_208_686">
<rect width="84" height="16" fill="white" transform="translate(211 27)"/>
</clipPath>
</defs>
</svg>
