<svg width="238" height="74" viewBox="0 0 238 74" fill="none" xmlns="http://www.w3.org/2000/svg">
<g filter="url(#filter0_d_117_282)">
<rect x="6" y="3" width="226.171" height="62.3427" rx="9.48565" fill="#FFFDFD"/>
</g>
<path d="M54.5098 21.7269H42.2021V19.3566C42.2021 19.0422 42.0724 18.7408 41.8416 18.5185C41.6108 18.2963 41.2977 18.1714 40.9713 18.1714C40.6449 18.1714 40.3318 18.2963 40.101 18.5185C39.8702 18.7408 39.7405 19.0422 39.7405 19.3566V21.7269H27.4329C26.78 21.7269 26.1539 21.9766 25.6923 22.4211C25.2307 22.8657 24.9713 23.4686 24.9713 24.0972V41.8747C24.9713 42.5033 25.2307 43.1062 25.6923 43.5507C26.1539 43.9953 26.78 44.245 27.4329 44.245H33.4882L30.1636 48.2449C29.9596 48.4905 29.8653 48.804 29.9013 49.1166C29.9374 49.4291 30.1009 49.7151 30.3559 49.9116C30.6109 50.108 30.9366 50.1989 31.2611 50.1641C31.5857 50.1294 31.8827 49.9719 32.0867 49.7264L36.639 44.245H45.3036L49.8559 49.7264C49.9569 49.848 50.0818 49.9492 50.2235 50.0243C50.3651 50.0994 50.5208 50.1469 50.6815 50.1641C50.8422 50.1813 51.0049 50.1679 51.1602 50.1245C51.3155 50.0812 51.4604 50.0088 51.5867 49.9116C51.713 49.8143 51.8181 49.694 51.8961 49.5576C51.9741 49.4212 52.0235 49.2713 52.0413 49.1166C52.0592 48.9618 52.0452 48.8052 52.0002 48.6556C51.9552 48.5061 51.88 48.3665 51.779 48.2449L48.4544 44.245H54.5098C55.1626 44.245 55.7887 43.9953 56.2503 43.5507C56.712 43.1062 56.9713 42.5033 56.9713 41.8747V24.0972C56.9713 23.4686 56.712 22.8657 56.2503 22.4211C55.7887 21.9766 55.1626 21.7269 54.5098 21.7269ZM37.279 37.134C37.279 37.4483 37.1493 37.7498 36.9185 37.972C36.6877 38.1943 36.3747 38.3192 36.0482 38.3192C35.7218 38.3192 35.4088 38.1943 35.178 37.972C34.9471 37.7498 34.8175 37.4483 34.8175 37.134V33.5785C34.8175 33.2642 34.9471 32.9627 35.178 32.7405C35.4088 32.5182 35.7218 32.3934 36.0482 32.3934C36.3747 32.3934 36.6877 32.5182 36.9185 32.7405C37.1493 32.9627 37.279 33.2642 37.279 33.5785V37.134ZM42.2021 37.134C42.2021 37.4483 42.0724 37.7498 41.8416 37.972C41.6108 38.1943 41.2977 38.3192 40.9713 38.3192C40.6449 38.3192 40.3318 38.1943 40.101 37.972C39.8702 37.7498 39.7405 37.4483 39.7405 37.134V31.2082C39.7405 30.8939 39.8702 30.5924 40.101 30.3701C40.3318 30.1479 40.6449 30.023 40.9713 30.023C41.2977 30.023 41.6108 30.1479 41.8416 30.3701C42.0724 30.5924 42.2021 30.8939 42.2021 31.2082V37.134ZM47.1252 37.134C47.1252 37.4483 46.9955 37.7498 46.7647 37.972C46.5339 38.1943 46.2208 38.3192 45.8944 38.3192C45.568 38.3192 45.2549 38.1943 45.0241 37.972C44.7933 37.7498 44.6636 37.4483 44.6636 37.134V28.8379C44.6636 28.5235 44.7933 28.2221 45.0241 27.9998C45.2549 27.7776 45.568 27.6527 45.8944 27.6527C46.2208 27.6527 46.5339 27.7776 46.7647 27.9998C46.9955 28.2221 47.1252 28.5235 47.1252 28.8379V37.134Z" fill="#F2994A"/>
<path d="M78.2784 19.8416C78.2784 20.3238 78.1677 20.7665 77.9464 21.1696C77.725 21.5649 77.3851 21.885 76.9267 22.13C76.4682 22.3751 75.8991 22.4976 75.2193 22.4976H73.9624V25.4856H71.9348V17.1619H75.2193C75.8832 17.1619 76.4445 17.2766 76.903 17.5058C77.3614 17.735 77.7053 18.0512 77.9345 18.4544C78.1638 18.8575 78.2784 19.3199 78.2784 19.8416ZM75.0651 20.8851C75.4524 20.8851 75.741 20.7942 75.9307 20.6123C76.1204 20.4305 76.2152 20.1736 76.2152 19.8416C76.2152 19.5096 76.1204 19.2527 75.9307 19.0709C75.741 18.8891 75.4524 18.7982 75.0651 18.7982H73.9624V20.8851H75.0651ZM78.9308 22.1656C78.9308 21.4858 79.0573 20.889 79.3102 20.3752C79.5711 19.8614 79.9228 19.4662 80.3655 19.1895C80.8082 18.9128 81.3022 18.7745 81.8476 18.7745C82.314 18.7745 82.7211 18.8694 83.0689 19.0591C83.4246 19.2488 83.6973 19.4978 83.887 19.8061V18.8694H85.9146V25.4856H83.887V24.5489C83.6894 24.8572 83.4128 25.1062 83.057 25.2959C82.7092 25.4856 82.3021 25.5805 81.8358 25.5805C81.2982 25.5805 80.8082 25.4421 80.3655 25.1655C79.9228 24.8809 79.5711 24.4817 79.3102 23.9679C79.0573 23.4462 78.9308 22.8454 78.9308 22.1656ZM83.887 22.1775C83.887 21.6716 83.7448 21.2724 83.4602 20.9799C83.1835 20.6874 82.8436 20.5412 82.4405 20.5412C82.0373 20.5412 81.6935 20.6874 81.4089 20.9799C81.1323 21.2645 80.9939 21.6597 80.9939 22.1656C80.9939 22.6715 81.1323 23.0747 81.4089 23.375C81.6935 23.6675 82.0373 23.8138 82.4405 23.8138C82.8436 23.8138 83.1835 23.6675 83.4602 23.375C83.7448 23.0826 83.887 22.6834 83.887 22.1775ZM88.4012 18.1816C88.0454 18.1816 87.753 18.0789 87.5237 17.8734C87.3024 17.6599 87.1917 17.3991 87.1917 17.0908C87.1917 16.7746 87.3024 16.5138 87.5237 16.3082C87.753 16.0948 88.0454 15.9881 88.4012 15.9881C88.749 15.9881 89.0335 16.0948 89.2549 16.3082C89.4841 16.5138 89.5987 16.7746 89.5987 17.0908C89.5987 17.3991 89.4841 17.6599 89.2549 17.8734C89.0335 18.0789 88.749 18.1816 88.4012 18.1816ZM89.409 18.8694V25.4856H87.3814V18.8694H89.409ZM94.9098 18.7982C95.6844 18.7982 96.301 19.0512 96.7595 19.5571C97.2258 20.0551 97.459 20.7428 97.459 21.6202V25.4856H95.4433V21.8929C95.4433 21.4502 95.3287 21.1064 95.0995 20.8613C94.8702 20.6163 94.5619 20.4938 94.1746 20.4938C93.7873 20.4938 93.479 20.6163 93.2498 20.8613C93.0205 21.1064 92.9059 21.4502 92.9059 21.8929V25.4856H90.8784V18.8694H92.9059V19.7468C93.1114 19.4543 93.3881 19.2251 93.7359 19.0591C94.0837 18.8852 94.475 18.7982 94.9098 18.7982ZM105.105 22.0708C105.105 22.2605 105.093 22.4581 105.069 22.6636H100.481C100.512 23.0747 100.643 23.3908 100.872 23.6122C101.109 23.8256 101.397 23.9323 101.737 23.9323C102.243 23.9323 102.595 23.7189 102.793 23.292H104.951C104.84 23.7268 104.638 24.1181 104.346 24.4659C104.061 24.8137 103.702 25.0864 103.267 25.284C102.832 25.4816 102.346 25.5805 101.809 25.5805C101.16 25.5805 100.583 25.4421 100.077 25.1655C99.5715 24.8888 99.1763 24.4936 98.8917 23.9797C98.6071 23.4659 98.4648 22.8652 98.4648 22.1775C98.4648 21.4898 98.6032 20.889 98.8798 20.3752C99.1644 19.8614 99.5596 19.4662 100.066 19.1895C100.571 18.9128 101.152 18.7745 101.809 18.7745C102.449 18.7745 103.018 18.9089 103.516 19.1776C104.014 19.4464 104.401 19.8298 104.678 20.3278C104.963 20.8258 105.105 21.4068 105.105 22.0708ZM103.03 21.5372C103.03 21.1894 102.911 20.9127 102.674 20.7072C102.437 20.5017 102.141 20.3989 101.785 20.3989C101.445 20.3989 101.156 20.4977 100.919 20.6953C100.69 20.893 100.548 21.1736 100.492 21.5372H103.03ZM108.202 16.7114V25.4856H106.174V16.7114H108.202ZM117.366 24.0153H114.259L113.761 25.4856H111.639L114.65 17.1619H116.998L120.01 25.4856H117.864L117.366 24.0153ZM116.844 22.4502L115.812 19.4029L114.793 22.4502H116.844ZM124.958 18.7982C125.732 18.7982 126.349 19.0512 126.807 19.5571C127.274 20.0551 127.507 20.7428 127.507 21.6202V25.4856H125.491V21.8929C125.491 21.4502 125.377 21.1064 125.147 20.8613C124.918 20.6163 124.61 20.4938 124.223 20.4938C123.835 20.4938 123.527 20.6163 123.298 20.8613C123.068 21.1064 122.954 21.4502 122.954 21.8929V25.4856H120.926V18.8694H122.954V19.7468C123.159 19.4543 123.436 19.2251 123.784 19.0591C124.132 18.8852 124.523 18.7982 124.958 18.7982ZM128.513 22.1656C128.513 21.4858 128.639 20.889 128.892 20.3752C129.153 19.8614 129.505 19.4662 129.947 19.1895C130.39 18.9128 130.884 18.7745 131.43 18.7745C131.896 18.7745 132.303 18.8694 132.651 19.0591C133.007 19.2488 133.279 19.4978 133.469 19.8061V18.8694H135.497V25.4856H133.469V24.5489C133.271 24.8572 132.995 25.1062 132.639 25.2959C132.291 25.4856 131.884 25.5805 131.418 25.5805C130.88 25.5805 130.39 25.4421 129.947 25.1655C129.505 24.8809 129.153 24.4817 128.892 23.9679C128.639 23.4462 128.513 22.8454 128.513 22.1656ZM133.469 22.1775C133.469 21.6716 133.327 21.2724 133.042 20.9799C132.765 20.6874 132.426 20.5412 132.022 20.5412C131.619 20.5412 131.275 20.6874 130.991 20.9799C130.714 21.2645 130.576 21.6597 130.576 22.1656C130.576 22.6715 130.714 23.0747 130.991 23.375C131.275 23.6675 131.619 23.8138 132.022 23.8138C132.426 23.8138 132.765 23.6675 133.042 23.375C133.327 23.0826 133.469 22.6834 133.469 22.1775ZM138.991 16.7114V25.4856H136.963V16.7114H138.991ZM142.642 18.8694V25.4856H140.614V18.8694H142.642ZM143.01 17.2212L140.152 18.4188V17.0197L143.01 15.6442V17.2212ZM147.957 23.7663V25.4856H146.926C146.191 25.4856 145.618 25.3077 145.207 24.952C144.796 24.5884 144.59 23.9995 144.59 23.1853V20.5531H143.784V18.8694H144.59V17.2568H146.618V18.8694H147.946V20.5531H146.618V23.209C146.618 23.4067 146.665 23.5489 146.76 23.6359C146.855 23.7228 147.013 23.7663 147.234 23.7663H147.957ZM150.107 18.1816C149.751 18.1816 149.458 18.0789 149.229 17.8734C149.008 17.6599 148.897 17.3991 148.897 17.0908C148.897 16.7746 149.008 16.5138 149.229 16.3082C149.458 16.0948 149.751 15.9881 150.107 15.9881C150.454 15.9881 150.739 16.0948 150.96 16.3082C151.189 16.5138 151.304 16.7746 151.304 17.0908C151.304 17.3991 151.189 17.6599 150.96 17.8734C150.739 18.0789 150.454 18.1816 150.107 18.1816ZM151.114 18.8694V25.4856H149.087V18.8694H151.114ZM152.181 22.1775C152.181 21.4898 152.319 20.889 152.596 20.3752C152.88 19.8614 153.271 19.4662 153.769 19.1895C154.275 18.9128 154.852 18.7745 155.501 18.7745C156.331 18.7745 157.022 18.9919 157.576 19.4266C158.137 19.8614 158.504 20.474 158.678 21.2645H156.52C156.338 20.7586 155.987 20.5056 155.465 20.5056C155.093 20.5056 154.797 20.6519 154.576 20.9443C154.354 21.2289 154.244 21.64 154.244 22.1775C154.244 22.715 154.354 23.13 154.576 23.4225C154.797 23.707 155.093 23.8493 155.465 23.8493C155.987 23.8493 156.338 23.5964 156.52 23.0905H158.678C158.504 23.8651 158.137 24.4738 157.576 24.9165C157.014 25.3591 156.323 25.5805 155.501 25.5805C154.852 25.5805 154.275 25.4421 153.769 25.1655C153.271 24.8888 152.88 24.4936 152.596 23.9797C152.319 23.4659 152.181 22.8652 152.181 22.1775ZM162.774 25.5805C162.126 25.5805 161.541 25.4421 161.02 25.1655C160.506 24.8888 160.099 24.4936 159.798 23.9797C159.506 23.4659 159.36 22.8652 159.36 22.1775C159.36 21.4977 159.51 20.9009 159.81 20.3871C160.111 19.8653 160.522 19.4662 161.043 19.1895C161.565 18.9128 162.15 18.7745 162.798 18.7745C163.446 18.7745 164.031 18.9128 164.553 19.1895C165.075 19.4662 165.486 19.8653 165.786 20.3871C166.087 20.9009 166.237 21.4977 166.237 22.1775C166.237 22.8573 166.083 23.458 165.774 23.9797C165.474 24.4936 165.059 24.8888 164.529 25.1655C164.008 25.4421 163.423 25.5805 162.774 25.5805ZM162.774 23.8256C163.162 23.8256 163.49 23.6833 163.759 23.3988C164.035 23.1142 164.174 22.7071 164.174 22.1775C164.174 21.6479 164.039 21.2408 163.77 20.9562C163.51 20.6716 163.186 20.5293 162.798 20.5293C162.403 20.5293 162.075 20.6716 161.814 20.9562C161.553 21.2329 161.423 21.64 161.423 22.1775C161.423 22.7071 161.549 23.1142 161.802 23.3988C162.063 23.6833 162.387 23.8256 162.774 23.8256Z" fill="#333333"/>
<path d="M76.7939 35.0886L74.6276 40.8571H73.532L71.3574 35.0886H72.37L74.0798 39.886L75.7979 35.0886H76.7939ZM81.7766 38.4584C81.7766 38.6299 81.7656 38.7848 81.7434 38.9232H78.2491C78.2768 39.2884 78.4124 39.5816 78.6558 39.803C78.8993 40.0243 79.1981 40.135 79.5522 40.135C80.0613 40.135 80.421 39.9219 80.6312 39.4959H81.6521C81.5138 39.9164 81.262 40.2622 80.8968 40.5334C80.5372 40.799 80.089 40.9318 79.5522 40.9318C79.1151 40.9318 78.7222 40.8349 78.3736 40.6413C78.0306 40.4421 77.7595 40.1654 77.5603 39.8113C77.3666 39.4516 77.2698 39.0366 77.2698 38.5663C77.2698 38.0959 77.3638 37.6837 77.552 37.3296C77.7456 36.9699 78.014 36.6933 78.357 36.4996C78.7056 36.3059 79.104 36.2091 79.5522 36.2091C79.9838 36.2091 80.3684 36.3032 80.7059 36.4913C81.0435 36.6794 81.3063 36.945 81.4944 37.2881C81.6826 37.6256 81.7766 38.0157 81.7766 38.4584ZM80.7889 38.1596C80.7834 37.811 80.6589 37.5315 80.4154 37.3213C80.172 37.111 79.8704 37.0059 79.5107 37.0059C79.1843 37.0059 78.9048 37.111 78.6724 37.3213C78.44 37.526 78.3017 37.8054 78.2574 38.1596H80.7889ZM83.1892 35.6779C83.0176 35.6779 82.8738 35.6198 82.7576 35.5036C82.6414 35.3874 82.5833 35.2435 82.5833 35.072C82.5833 34.9005 82.6414 34.7566 82.7576 34.6404C82.8738 34.5242 83.0176 34.4661 83.1892 34.4661C83.3552 34.4661 83.4963 34.5242 83.6125 34.6404C83.7287 34.7566 83.7868 34.9005 83.7868 35.072C83.7868 35.2435 83.7287 35.3874 83.6125 35.5036C83.4963 35.6198 83.3552 35.6779 83.1892 35.6779ZM83.654 41.7534C83.654 42.2016 83.5405 42.5253 83.3137 42.7245C83.0923 42.9293 82.7686 43.0316 82.3426 43.0316H81.8529V42.2348H82.1766C82.3702 42.2348 82.5058 42.1961 82.5833 42.1186C82.6663 42.0467 82.7078 41.925 82.7078 41.7534V36.2838H83.654V41.7534ZM84.5808 38.5497C84.5808 38.0904 84.6749 37.6837 84.863 37.3296C85.0567 36.9754 85.3168 36.7016 85.6432 36.5079C85.9752 36.3087 86.3404 36.2091 86.7388 36.2091C87.0985 36.2091 87.4111 36.281 87.6767 36.4249C87.9478 36.5632 88.1636 36.7375 88.3241 36.9478V36.2838H89.2786V40.8571H88.3241V40.1765C88.1636 40.3923 87.9451 40.5721 87.6684 40.716C87.3917 40.8598 87.0764 40.9318 86.7222 40.9318C86.3294 40.9318 85.9697 40.8322 85.6432 40.633C85.3168 40.4282 85.0567 40.146 84.863 39.7864C84.6749 39.4212 84.5808 39.0089 84.5808 38.5497ZM88.3241 38.5663C88.3241 38.2509 88.2577 37.977 88.1249 37.7446C87.9976 37.5122 87.8289 37.3351 87.6186 37.2134C87.4083 37.0916 87.1815 37.0308 86.938 37.0308C86.6946 37.0308 86.4677 37.0916 86.2574 37.2134C86.0472 37.3296 85.8756 37.5039 85.7428 37.7363C85.6156 37.9631 85.5519 38.2343 85.5519 38.5497C85.5519 38.8651 85.6156 39.1417 85.7428 39.3797C85.8756 39.6176 86.0472 39.8002 86.2574 39.9275C86.4732 40.0492 86.7001 40.1101 86.938 40.1101C87.1815 40.1101 87.4083 40.0492 87.6186 39.9275C87.8289 39.8057 87.9976 39.6287 88.1249 39.3963C88.2577 39.1583 88.3241 38.8817 88.3241 38.5663ZM92.362 38.5497C92.362 38.0904 92.4561 37.6837 92.6442 37.3296C92.8379 36.9754 93.098 36.7016 93.4244 36.5079C93.7564 36.3087 94.1244 36.2091 94.5283 36.2091C94.8271 36.2091 95.1204 36.2755 95.4081 36.4083C95.7014 36.5356 95.9338 36.7071 96.1053 36.9229V34.7151H97.0598V40.8571H96.1053V40.1682C95.9504 40.3895 95.7346 40.5721 95.4579 40.716C95.1868 40.8598 94.8741 40.9318 94.52 40.9318C94.1216 40.9318 93.7564 40.8322 93.4244 40.633C93.098 40.4282 92.8379 40.146 92.6442 39.7864C92.4561 39.4212 92.362 39.0089 92.362 38.5497ZM96.1053 38.5663C96.1053 38.2509 96.0389 37.977 95.9061 37.7446C95.7788 37.5122 95.6101 37.3351 95.3998 37.2134C95.1895 37.0916 94.9627 37.0308 94.7192 37.0308C94.4758 37.0308 94.2489 37.0916 94.0386 37.2134C93.8284 37.3296 93.6568 37.5039 93.524 37.7363C93.3968 37.9631 93.3331 38.2343 93.3331 38.5497C93.3331 38.8651 93.3968 39.1417 93.524 39.3797C93.6568 39.6176 93.8284 39.8002 94.0386 39.9275C94.2544 40.0492 94.4813 40.1101 94.7192 40.1101C94.9627 40.1101 95.1895 40.0492 95.3998 39.9275C95.6101 39.8057 95.7788 39.6287 95.9061 39.3963C96.0389 39.1583 96.1053 38.8817 96.1053 38.5663ZM102.494 38.4584C102.494 38.6299 102.483 38.7848 102.461 38.9232H98.9666C98.9942 39.2884 99.1298 39.5816 99.3733 39.803C99.6167 40.0243 99.9155 40.135 100.27 40.135C100.779 40.135 101.138 39.9219 101.349 39.4959H102.37C102.231 39.9164 101.979 40.2622 101.614 40.5334C101.255 40.799 100.806 40.9318 100.27 40.9318C99.8325 40.9318 99.4397 40.8349 99.0911 40.6413C98.748 40.4421 98.4769 40.1654 98.2777 39.8113C98.084 39.4516 97.9872 39.0366 97.9872 38.5663C97.9872 38.0959 98.0813 37.6837 98.2694 37.3296C98.4631 36.9699 98.7314 36.6933 99.0745 36.4996C99.4231 36.3059 99.8215 36.2091 100.27 36.2091C100.701 36.2091 101.086 36.3032 101.423 36.4913C101.761 36.6794 102.024 36.945 102.212 37.2881C102.4 37.6256 102.494 38.0157 102.494 38.4584ZM101.506 38.1596C101.501 37.811 101.376 37.5315 101.133 37.3213C100.889 37.111 100.588 37.0059 100.228 37.0059C99.9017 37.0059 99.6223 37.111 99.3899 37.3213C99.1575 37.526 99.0191 37.8054 98.9749 38.1596H101.506ZM104.529 37.0557V39.5872C104.529 39.7587 104.568 39.8832 104.645 39.9607C104.728 40.0326 104.867 40.0686 105.06 40.0686H105.641V40.8571H104.894C104.468 40.8571 104.142 40.7575 103.915 40.5583C103.688 40.3591 103.575 40.0354 103.575 39.5872V37.0557H103.035V36.2838H103.575V35.1467H104.529V36.2838H105.641V37.0557H104.529ZM106.198 38.5497C106.198 38.0904 106.292 37.6837 106.48 37.3296C106.674 36.9754 106.934 36.7016 107.26 36.5079C107.592 36.3087 107.958 36.2091 108.356 36.2091C108.716 36.2091 109.028 36.281 109.294 36.4249C109.565 36.5632 109.781 36.7375 109.941 36.9478V36.2838H110.896V40.8571H109.941V40.1765C109.781 40.3923 109.562 40.5721 109.286 40.716C109.009 40.8598 108.693 40.9318 108.339 40.9318C107.946 40.9318 107.587 40.8322 107.26 40.633C106.934 40.4282 106.674 40.146 106.48 39.7864C106.292 39.4212 106.198 39.0089 106.198 38.5497ZM109.941 38.5663C109.941 38.2509 109.875 37.977 109.742 37.7446C109.615 37.5122 109.446 37.3351 109.236 37.2134C109.025 37.0916 108.799 37.0308 108.555 37.0308C108.312 37.0308 108.085 37.0916 107.875 37.2134C107.664 37.3296 107.493 37.5039 107.36 37.7363C107.233 37.9631 107.169 38.2343 107.169 38.5497C107.169 38.8651 107.233 39.1417 107.36 39.3797C107.493 39.6176 107.664 39.8002 107.875 39.9275C108.09 40.0492 108.317 40.1101 108.555 40.1101C108.799 40.1101 109.025 40.0492 109.236 39.9275C109.446 39.8057 109.615 39.6287 109.742 39.3963C109.875 39.1583 109.941 38.8817 109.941 38.5663ZM113.085 34.7151V40.8571H112.139V34.7151H113.085ZM116.692 36.2091C117.041 36.2091 117.351 36.2838 117.622 36.4332C117.899 36.5826 118.115 36.8039 118.269 37.0972C118.43 37.3904 118.51 37.7446 118.51 38.1596V40.8571H117.572V38.3007C117.572 37.8912 117.47 37.5786 117.265 37.3628C117.06 37.1414 116.781 37.0308 116.427 37.0308C116.073 37.0308 115.791 37.1414 115.58 37.3628C115.376 37.5786 115.273 37.8912 115.273 38.3007V40.8571H114.327V34.7151H115.273V36.815C115.434 36.6213 115.636 36.4719 115.879 36.3668C116.128 36.2617 116.399 36.2091 116.692 36.2091ZM119.402 38.5497C119.402 38.0904 119.496 37.6837 119.684 37.3296C119.878 36.9754 120.138 36.7016 120.464 36.5079C120.796 36.3087 121.161 36.2091 121.56 36.2091C121.919 36.2091 122.232 36.281 122.498 36.4249C122.769 36.5632 122.984 36.7375 123.145 36.9478V36.2838H124.099V40.8571H123.145V40.1765C122.984 40.3923 122.766 40.5721 122.489 40.716C122.213 40.8598 121.897 40.9318 121.543 40.9318C121.15 40.9318 120.791 40.8322 120.464 40.633C120.138 40.4282 119.878 40.146 119.684 39.7864C119.496 39.4212 119.402 39.0089 119.402 38.5497ZM123.145 38.5663C123.145 38.2509 123.079 37.977 122.946 37.7446C122.819 37.5122 122.65 37.3351 122.439 37.2134C122.229 37.0916 122.002 37.0308 121.759 37.0308C121.515 37.0308 121.289 37.0916 121.078 37.2134C120.868 37.3296 120.696 37.5039 120.564 37.7363C120.436 37.9631 120.373 38.2343 120.373 38.5497C120.373 38.8651 120.436 39.1417 120.564 39.3797C120.696 39.6176 120.868 39.8002 121.078 39.9275C121.294 40.0492 121.521 40.1101 121.759 40.1101C122.002 40.1101 122.229 40.0492 122.439 39.9275C122.65 39.8057 122.819 39.6287 122.946 39.3963C123.079 39.1583 123.145 38.8817 123.145 38.5663ZM125.027 38.5497C125.027 38.0904 125.121 37.6837 125.309 37.3296C125.503 36.9754 125.763 36.7016 126.089 36.5079C126.421 36.3087 126.789 36.2091 127.193 36.2091C127.492 36.2091 127.785 36.2755 128.073 36.4083C128.366 36.5356 128.599 36.7071 128.77 36.9229V34.7151H129.725V40.8571H128.77V40.1682C128.615 40.3895 128.399 40.5721 128.123 40.716C127.852 40.8598 127.539 40.9318 127.185 40.9318C126.786 40.9318 126.421 40.8322 126.089 40.633C125.763 40.4282 125.503 40.146 125.309 39.7864C125.121 39.4212 125.027 39.0089 125.027 38.5497ZM128.77 38.5663C128.77 38.2509 128.704 37.977 128.571 37.7446C128.444 37.5122 128.275 37.3351 128.065 37.2134C127.854 37.0916 127.627 37.0308 127.384 37.0308C127.141 37.0308 126.914 37.0916 126.703 37.2134C126.493 37.3296 126.322 37.5039 126.189 37.7363C126.062 37.9631 125.998 38.2343 125.998 38.5497C125.998 38.8651 126.062 39.1417 126.189 39.3797C126.322 39.6176 126.493 39.8002 126.703 39.9275C126.919 40.0492 127.146 40.1101 127.384 40.1101C127.627 40.1101 127.854 40.0492 128.065 39.9275C128.275 39.8057 128.444 39.6287 128.571 39.3963C128.704 39.1583 128.77 38.8817 128.77 38.5663ZM130.652 38.5497C130.652 38.0904 130.746 37.6837 130.934 37.3296C131.128 36.9754 131.388 36.7016 131.714 36.5079C132.046 36.3087 132.412 36.2091 132.81 36.2091C133.17 36.2091 133.482 36.281 133.748 36.4249C134.019 36.5632 134.235 36.7375 134.395 36.9478V36.2838H135.35V40.8571H134.395V40.1765C134.235 40.3923 134.016 40.5721 133.74 40.716C133.463 40.8598 133.148 40.9318 132.793 40.9318C132.401 40.9318 132.041 40.8322 131.714 40.633C131.388 40.4282 131.128 40.146 130.934 39.7864C130.746 39.4212 130.652 39.0089 130.652 38.5497ZM134.395 38.5663C134.395 38.2509 134.329 37.977 134.196 37.7446C134.069 37.5122 133.9 37.3351 133.69 37.2134C133.48 37.0916 133.253 37.0308 133.009 37.0308C132.766 37.0308 132.539 37.0916 132.329 37.2134C132.118 37.3296 131.947 37.5039 131.814 37.7363C131.687 37.9631 131.623 38.2343 131.623 38.5497C131.623 38.8651 131.687 39.1417 131.814 39.3797C131.947 39.6176 132.118 39.8002 132.329 39.9275C132.544 40.0492 132.771 40.1101 133.009 40.1101C133.253 40.1101 133.48 40.0492 133.69 39.9275C133.9 39.8057 134.069 39.6287 134.196 39.3963C134.329 39.1583 134.395 38.8817 134.395 38.5663ZM142.129 36.2091C142.488 36.2091 142.809 36.2838 143.091 36.4332C143.379 36.5826 143.603 36.8039 143.764 37.0972C143.93 37.3904 144.013 37.7446 144.013 38.1596V40.8571H143.075V38.3007C143.075 37.8912 142.972 37.5786 142.768 37.3628C142.563 37.1414 142.284 37.0308 141.929 37.0308C141.575 37.0308 141.293 37.1414 141.083 37.3628C140.878 37.5786 140.776 37.8912 140.776 38.3007V40.8571H139.838V38.3007C139.838 37.8912 139.735 37.5786 139.531 37.3628C139.326 37.1414 139.047 37.0308 138.692 37.0308C138.338 37.0308 138.056 37.1414 137.846 37.3628C137.641 37.5786 137.539 37.8912 137.539 38.3007V40.8571H136.593V36.2838H137.539V36.8067C137.694 36.6186 137.89 36.4719 138.128 36.3668C138.366 36.2617 138.621 36.2091 138.892 36.2091C139.257 36.2091 139.583 36.2866 139.871 36.4415C140.159 36.5964 140.38 36.8205 140.535 37.1138C140.673 36.8371 140.889 36.6186 141.182 36.4581C141.476 36.2921 141.791 36.2091 142.129 36.2091ZM149.408 38.4584C149.408 38.6299 149.397 38.7848 149.375 38.9232H145.881C145.908 39.2884 146.044 39.5816 146.287 39.803C146.531 40.0243 146.83 40.135 147.184 40.135C147.693 40.135 148.053 39.9219 148.263 39.4959H149.284C149.145 39.9164 148.894 40.2622 148.528 40.5334C148.169 40.799 147.721 40.9318 147.184 40.9318C146.747 40.9318 146.354 40.8349 146.005 40.6413C145.662 40.4421 145.391 40.1654 145.192 39.8113C144.998 39.4516 144.901 39.0366 144.901 38.5663C144.901 38.0959 144.995 37.6837 145.184 37.3296C145.377 36.9699 145.646 36.6933 145.989 36.4996C146.337 36.3059 146.736 36.2091 147.184 36.2091C147.615 36.2091 148 36.3032 148.337 36.4913C148.675 36.6794 148.938 36.945 149.126 37.2881C149.314 37.6256 149.408 38.0157 149.408 38.4584ZM148.42 38.1596C148.415 37.811 148.29 37.5315 148.047 37.3213C147.804 37.111 147.502 37.0059 147.142 37.0059C146.816 37.0059 146.536 37.111 146.304 37.3213C146.072 37.526 145.933 37.8054 145.889 38.1596H148.42ZM152.647 36.2091C153.006 36.2091 153.327 36.2838 153.61 36.4332C153.897 36.5826 154.121 36.8039 154.282 37.0972C154.442 37.3904 154.523 37.7446 154.523 38.1596V40.8571H153.585V38.3007C153.585 37.8912 153.482 37.5786 153.278 37.3628C153.073 37.1414 152.793 37.0308 152.439 37.0308C152.085 37.0308 151.803 37.1414 151.593 37.3628C151.388 37.5786 151.286 37.8912 151.286 38.3007V40.8571H150.339V36.2838H151.286V36.8067C151.44 36.6186 151.637 36.4719 151.875 36.3668C152.118 36.2617 152.376 36.2091 152.647 36.2091ZM156.833 37.0557V39.5872C156.833 39.7587 156.872 39.8832 156.95 39.9607C157.033 40.0326 157.171 40.0686 157.365 40.0686H157.946V40.8571H157.199C156.772 40.8571 156.446 40.7575 156.219 40.5583C155.992 40.3591 155.879 40.0354 155.879 39.5872V37.0557H155.339V36.2838H155.879V35.1467H156.833V36.2838H157.946V37.0557H156.833ZM163.009 38.4584C163.009 38.6299 162.998 38.7848 162.976 38.9232H159.482C159.509 39.2884 159.645 39.5816 159.888 39.803C160.132 40.0243 160.431 40.135 160.785 40.135C161.294 40.135 161.653 39.9219 161.864 39.4959H162.885C162.746 39.9164 162.494 40.2622 162.129 40.5334C161.77 40.799 161.321 40.9318 160.785 40.9318C160.348 40.9318 159.955 40.8349 159.606 40.6413C159.263 40.4421 158.992 40.1654 158.793 39.8113C158.599 39.4516 158.502 39.0366 158.502 38.5663C158.502 38.0959 158.596 37.6837 158.784 37.3296C158.978 36.9699 159.246 36.6933 159.589 36.4996C159.938 36.3059 160.336 36.2091 160.785 36.2091C161.216 36.2091 161.601 36.3032 161.938 36.4913C162.276 36.6794 162.539 36.945 162.727 37.2881C162.915 37.6256 163.009 38.0157 163.009 38.4584ZM162.021 38.1596C162.016 37.811 161.891 37.5315 161.648 37.3213C161.404 37.111 161.103 37.0059 160.743 37.0059C160.417 37.0059 160.137 37.111 159.905 37.3213C159.672 37.526 159.534 37.8054 159.49 38.1596H162.021ZM165.781 38.5497C165.781 38.0904 165.875 37.6837 166.063 37.3296C166.257 36.9754 166.517 36.7016 166.843 36.5079C167.175 36.3087 167.54 36.2091 167.939 36.2091C168.299 36.2091 168.611 36.281 168.877 36.4249C169.148 36.5632 169.364 36.7375 169.524 36.9478V36.2838H170.479V40.8571H169.524V40.1765C169.364 40.3923 169.145 40.5721 168.868 40.716C168.592 40.8598 168.276 40.9318 167.922 40.9318C167.529 40.9318 167.17 40.8322 166.843 40.633C166.517 40.4282 166.257 40.146 166.063 39.7864C165.875 39.4212 165.781 39.0089 165.781 38.5497ZM169.524 38.5663C169.524 38.2509 169.458 37.977 169.325 37.7446C169.198 37.5122 169.029 37.3351 168.819 37.2134C168.608 37.0916 168.382 37.0308 168.138 37.0308C167.895 37.0308 167.668 37.0916 167.457 37.2134C167.247 37.3296 167.076 37.5039 166.943 37.7363C166.816 37.9631 166.752 38.2343 166.752 38.5497C166.752 38.8651 166.816 39.1417 166.943 39.3797C167.076 39.6176 167.247 39.8002 167.457 39.9275C167.673 40.0492 167.9 40.1101 168.138 40.1101C168.382 40.1101 168.608 40.0492 168.819 39.9275C169.029 39.8057 169.198 39.6287 169.325 39.3963C169.458 39.1583 169.524 38.8817 169.524 38.5663ZM174.824 36.9561C174.984 36.7458 175.203 36.5688 175.479 36.4249C175.756 36.281 176.069 36.2091 176.417 36.2091C176.816 36.2091 177.178 36.3087 177.505 36.5079C177.837 36.7016 178.097 36.9754 178.285 37.3296C178.473 37.6837 178.567 38.0904 178.567 38.5497C178.567 39.0089 178.473 39.4212 178.285 39.7864C178.097 40.146 177.837 40.4282 177.505 40.633C177.178 40.8322 176.816 40.9318 176.417 40.9318C176.069 40.9318 175.759 40.8626 175.488 40.7243C175.217 40.5804 174.995 40.4033 174.824 40.1931V43.0316H173.877V36.2838H174.824V36.9561ZM177.604 38.5497C177.604 38.2343 177.538 37.9631 177.405 37.7363C177.278 37.5039 177.106 37.3296 176.89 37.2134C176.68 37.0916 176.453 37.0308 176.21 37.0308C175.972 37.0308 175.745 37.0916 175.529 37.2134C175.319 37.3351 175.147 37.5122 175.015 37.7446C174.887 37.977 174.824 38.2509 174.824 38.5663C174.824 38.8817 174.887 39.1583 175.015 39.3963C175.147 39.6287 175.319 39.8057 175.529 39.9275C175.745 40.0492 175.972 40.1101 176.21 40.1101C176.453 40.1101 176.68 40.0492 176.89 39.9275C177.106 39.8002 177.278 39.6176 177.405 39.3797C177.538 39.1417 177.604 38.8651 177.604 38.5497ZM180.449 36.9478C180.587 36.7154 180.77 36.5356 180.997 36.4083C181.229 36.2755 181.503 36.2091 181.818 36.2091V37.1885H181.578C181.207 37.1885 180.925 37.2825 180.731 37.4707C180.543 37.6588 180.449 37.9853 180.449 38.4501V40.8571H179.503V36.2838H180.449V36.9478ZM183.169 35.6779C182.998 35.6779 182.854 35.6198 182.738 35.5036C182.622 35.3874 182.564 35.2435 182.564 35.072C182.564 34.9005 182.622 34.7566 182.738 34.6404C182.854 34.5242 182.998 34.4661 183.169 34.4661C183.335 34.4661 183.477 34.5242 183.593 34.6404C183.709 34.7566 183.767 34.9005 183.767 35.072C183.767 35.2435 183.709 35.3874 183.593 35.5036C183.477 35.6198 183.335 35.6779 183.169 35.6779ZM183.634 36.2838V40.8571H182.688V36.2838H183.634ZM187.184 36.2091C187.544 36.2091 187.864 36.2838 188.147 36.4332C188.434 36.5826 188.659 36.8039 188.819 37.0972C188.979 37.3904 189.06 37.7446 189.06 38.1596V40.8571H188.122V38.3007C188.122 37.8912 188.019 37.5786 187.815 37.3628C187.61 37.1414 187.331 37.0308 186.976 37.0308C186.622 37.0308 186.34 37.1414 186.13 37.3628C185.925 37.5786 185.823 37.8912 185.823 38.3007V40.8571H184.877V36.2838H185.823V36.8067C185.978 36.6186 186.174 36.4719 186.412 36.3668C186.655 36.2617 186.913 36.2091 187.184 36.2091ZM189.951 38.5663C189.951 38.0959 190.045 37.6837 190.233 37.3296C190.427 36.9699 190.693 36.6933 191.03 36.4996C191.368 36.3059 191.755 36.2091 192.192 36.2091C192.746 36.2091 193.202 36.3419 193.562 36.6075C193.927 36.8675 194.173 37.241 194.3 37.728H193.279C193.196 37.5011 193.064 37.324 192.881 37.1968C192.698 37.0695 192.469 37.0059 192.192 37.0059C191.805 37.0059 191.495 37.1442 191.263 37.4209C191.036 37.692 190.922 38.0738 190.922 38.5663C190.922 39.0587 191.036 39.4433 191.263 39.72C191.495 39.9966 191.805 40.135 192.192 40.135C192.74 40.135 193.102 39.8943 193.279 39.4129H194.3C194.168 39.8777 193.919 40.2484 193.553 40.5251C193.188 40.7962 192.734 40.9318 192.192 40.9318C191.755 40.9318 191.368 40.8349 191.03 40.6413C190.693 40.4421 190.427 40.1654 190.233 39.8113C190.045 39.4516 189.951 39.0366 189.951 38.5663ZM195.725 35.6779C195.553 35.6779 195.409 35.6198 195.293 35.5036C195.177 35.3874 195.119 35.2435 195.119 35.072C195.119 34.9005 195.177 34.7566 195.293 34.6404C195.409 34.5242 195.553 34.4661 195.725 34.4661C195.891 34.4661 196.032 34.5242 196.148 34.6404C196.264 34.7566 196.322 34.9005 196.322 35.072C196.322 35.2435 196.264 35.3874 196.148 35.5036C196.032 35.6198 195.891 35.6779 195.725 35.6779ZM196.19 36.2838V40.8571H195.243V36.2838H196.19ZM198.378 36.9561C198.538 36.7458 198.757 36.5688 199.034 36.4249C199.31 36.281 199.623 36.2091 199.972 36.2091C200.37 36.2091 200.732 36.3087 201.059 36.5079C201.391 36.7016 201.651 36.9754 201.839 37.3296C202.027 37.6837 202.121 38.0904 202.121 38.5497C202.121 39.0089 202.027 39.4212 201.839 39.7864C201.651 40.146 201.391 40.4282 201.059 40.633C200.732 40.8322 200.37 40.9318 199.972 40.9318C199.623 40.9318 199.313 40.8626 199.042 40.7243C198.771 40.5804 198.55 40.4033 198.378 40.1931V43.0316H197.432V36.2838H198.378V36.9561ZM201.158 38.5497C201.158 38.2343 201.092 37.9631 200.959 37.7363C200.832 37.5039 200.66 37.3296 200.445 37.2134C200.234 37.0916 200.008 37.0308 199.764 37.0308C199.526 37.0308 199.299 37.0916 199.083 37.2134C198.873 37.3351 198.702 37.5122 198.569 37.7446C198.442 37.977 198.378 38.2509 198.378 38.5663C198.378 38.8817 198.442 39.1583 198.569 39.3963C198.702 39.6287 198.873 39.8057 199.083 39.9275C199.299 40.0492 199.526 40.1101 199.764 40.1101C200.008 40.1101 200.234 40.0492 200.445 39.9275C200.66 39.8002 200.832 39.6176 200.959 39.3797C201.092 39.1417 201.158 38.8651 201.158 38.5497ZM202.742 38.5497C202.742 38.0904 202.836 37.6837 203.024 37.3296C203.217 36.9754 203.477 36.7016 203.804 36.5079C204.136 36.3087 204.501 36.2091 204.9 36.2091C205.259 36.2091 205.572 36.281 205.837 36.4249C206.109 36.5632 206.324 36.7375 206.485 36.9478V36.2838H207.439V40.8571H206.485V40.1765C206.324 40.3923 206.106 40.5721 205.829 40.716C205.552 40.8598 205.237 40.9318 204.883 40.9318C204.49 40.9318 204.13 40.8322 203.804 40.633C203.477 40.4282 203.217 40.146 203.024 39.7864C202.836 39.4212 202.742 39.0089 202.742 38.5497ZM206.485 38.5663C206.485 38.2509 206.418 37.977 206.286 37.7446C206.158 37.5122 205.99 37.3351 205.779 37.2134C205.569 37.0916 205.342 37.0308 205.099 37.0308C204.855 37.0308 204.628 37.0916 204.418 37.2134C204.208 37.3296 204.036 37.5039 203.904 37.7363C203.776 37.9631 203.713 38.2343 203.713 38.5497C203.713 38.8651 203.776 39.1417 203.904 39.3797C204.036 39.6176 204.208 39.8002 204.418 39.9275C204.634 40.0492 204.861 40.1101 205.099 40.1101C205.342 40.1101 205.569 40.0492 205.779 39.9275C205.99 39.8057 206.158 39.6287 206.286 39.3963C206.418 39.1583 206.485 38.8817 206.485 38.5663ZM209.628 34.7151V40.8571H208.682V34.7151H209.628ZM74.1296 48.2091C74.4893 48.2091 74.8102 48.2838 75.0924 48.4332C75.3801 48.5826 75.6042 48.8039 75.7647 49.0972C75.9251 49.3904 76.0054 49.7446 76.0054 50.1596V52.8571H75.0675V50.3007C75.0675 49.8912 74.9651 49.5786 74.7604 49.3628C74.5557 49.1414 74.2762 49.0308 73.9221 49.0308C73.568 49.0308 73.2858 49.1414 73.0755 49.3628C72.8708 49.5786 72.7684 49.8912 72.7684 50.3007V52.8571H71.8222V48.2838H72.7684V48.8067C72.9233 48.6186 73.1198 48.4719 73.3577 48.3668C73.6012 48.2617 73.8585 48.2091 74.1296 48.2091ZM81.4038 50.4584C81.4038 50.6299 81.3927 50.7848 81.3706 50.9232H77.8763C77.904 51.2884 78.0395 51.5816 78.283 51.803C78.5265 52.0243 78.8253 52.135 79.1794 52.135C79.6885 52.135 80.0481 51.9219 80.2584 51.4959H81.2793C81.1409 51.9164 80.8892 52.2622 80.524 52.5334C80.1643 52.799 79.7161 52.9318 79.1794 52.9318C78.7423 52.9318 78.3494 52.8349 78.0008 52.6413C77.6577 52.4421 77.3866 52.1654 77.1874 51.8113C76.9937 51.4516 76.8969 51.0366 76.8969 50.5663C76.8969 50.0959 76.991 49.6837 77.1791 49.3296C77.3728 48.9699 77.6411 48.6933 77.9842 48.4996C78.3328 48.3059 78.7312 48.2091 79.1794 48.2091C79.611 48.2091 79.9956 48.3032 80.3331 48.4913C80.6706 48.6794 80.9334 48.945 81.1216 49.2881C81.3097 49.6256 81.4038 50.0157 81.4038 50.4584ZM80.4161 50.1596C80.4105 49.811 80.286 49.5315 80.0426 49.3213C79.7991 49.111 79.4976 49.0059 79.1379 49.0059C78.8114 49.0059 78.532 49.111 78.2996 49.3213C78.0672 49.526 77.9289 49.8054 77.8846 50.1596H80.4161ZM82.0195 50.5663C82.0195 50.0959 82.1136 49.6837 82.3017 49.3296C82.4954 48.9699 82.761 48.6933 83.0985 48.4996C83.436 48.3059 83.8234 48.2091 84.2605 48.2091C84.8138 48.2091 85.2703 48.3419 85.63 48.6075C85.9952 48.8675 86.2414 49.241 86.3687 49.728H85.3478C85.2648 49.5011 85.132 49.324 84.9494 49.1968C84.7668 49.0695 84.5372 49.0059 84.2605 49.0059C83.8732 49.0059 83.5633 49.1442 83.3309 49.4209C83.1041 49.692 82.9906 50.0738 82.9906 50.5663C82.9906 51.0587 83.1041 51.4433 83.3309 51.72C83.5633 51.9966 83.8732 52.135 84.2605 52.135C84.8083 52.135 85.1707 51.8943 85.3478 51.4129H86.3687C86.2359 51.8777 85.9869 52.2484 85.6217 52.5251C85.2565 52.7962 84.8028 52.9318 84.2605 52.9318C83.8234 52.9318 83.436 52.8349 83.0985 52.6413C82.761 52.4421 82.4954 52.1654 82.3017 51.8113C82.1136 51.4516 82.0195 51.0366 82.0195 50.5663ZM91.5031 50.4584C91.5031 50.6299 91.4921 50.7848 91.4699 50.9232H87.9756C88.0033 51.2884 88.1389 51.5816 88.3823 51.803C88.6258 52.0243 88.9246 52.135 89.2787 52.135C89.7878 52.135 90.1475 51.9219 90.3577 51.4959H91.3786C91.2403 51.9164 90.9885 52.2622 90.6233 52.5334C90.2637 52.799 89.8155 52.9318 89.2787 52.9318C88.8416 52.9318 88.4487 52.8349 88.1001 52.6413C87.7571 52.4421 87.4859 52.1654 87.2867 51.8113C87.0931 51.4516 86.9962 51.0366 86.9962 50.5663C86.9962 50.0959 87.0903 49.6837 87.2784 49.3296C87.4721 48.9699 87.7405 48.6933 88.0835 48.4996C88.4321 48.3059 88.8305 48.2091 89.2787 48.2091C89.7103 48.2091 90.0949 48.3032 90.4324 48.4913C90.77 48.6794 91.0328 48.945 91.2209 49.2881C91.4091 49.6256 91.5031 50.0157 91.5031 50.4584ZM90.5154 50.1596C90.5099 49.811 90.3854 49.5315 90.1419 49.3213C89.8985 49.111 89.5969 49.0059 89.2372 49.0059C88.9108 49.0059 88.6313 49.111 88.3989 49.3213C88.1665 49.526 88.0282 49.8054 87.9839 50.1596H90.5154ZM94.0943 52.9318C93.7346 52.9318 93.4109 52.8681 93.1232 52.7409C92.841 52.6081 92.6169 52.431 92.4509 52.2097C92.2849 51.9828 92.1963 51.731 92.1853 51.4544H93.1647C93.1813 51.648 93.2726 51.8113 93.4386 51.9441C93.6101 52.0713 93.8231 52.135 94.0777 52.135C94.3433 52.135 94.548 52.0852 94.6919 51.9856C94.8413 51.8804 94.916 51.7476 94.916 51.5872C94.916 51.4156 94.833 51.2884 94.667 51.2054C94.5065 51.1224 94.2492 51.0311 93.8951 50.9315C93.552 50.8374 93.2726 50.7461 93.0568 50.6576C92.841 50.569 92.6528 50.4335 92.4924 50.2509C92.3374 50.0683 92.26 49.8276 92.26 49.5288C92.26 49.2853 92.3319 49.064 92.4758 48.8648C92.6196 48.6601 92.8244 48.4996 93.09 48.3834C93.3611 48.2672 93.671 48.2091 94.0196 48.2091C94.5397 48.2091 94.9574 48.3419 95.2728 48.6075C95.5938 48.8675 95.7653 49.2244 95.7874 49.6782H94.8413C94.8247 49.4734 94.7417 49.3102 94.5923 49.1885C94.4429 49.0667 94.2409 49.0059 93.9864 49.0059C93.7374 49.0059 93.5465 49.0529 93.4137 49.147C93.2809 49.241 93.2145 49.3655 93.2145 49.5205C93.2145 49.6422 93.2587 49.7446 93.3473 49.8276C93.4358 49.9106 93.5437 49.977 93.671 50.0268C93.7982 50.071 93.9864 50.1291 94.2354 50.2011C94.5674 50.2896 94.8385 50.3809 95.0487 50.475C95.2645 50.5635 95.4499 50.6963 95.6048 50.8734C95.7598 51.0504 95.84 51.2856 95.8455 51.5789C95.8455 51.8389 95.7736 52.0713 95.6297 52.2761C95.4859 52.4808 95.2811 52.6413 95.0155 52.7575C94.7555 52.8737 94.4484 52.9318 94.0943 52.9318ZM98.5279 52.9318C98.1683 52.9318 97.8446 52.8681 97.5568 52.7409C97.2746 52.6081 97.0505 52.431 96.8845 52.2097C96.7185 51.9828 96.63 51.731 96.6189 51.4544H97.5983C97.6149 51.648 97.7062 51.8113 97.8722 51.9441C98.0438 52.0713 98.2568 52.135 98.5113 52.135C98.7769 52.135 98.9816 52.0852 99.1255 51.9856C99.2749 51.8804 99.3496 51.7476 99.3496 51.5872C99.3496 51.4156 99.2666 51.2884 99.1006 51.2054C98.9401 51.1224 98.6829 51.0311 98.3287 50.9315C97.9857 50.8374 97.7062 50.7461 97.4904 50.6576C97.2746 50.569 97.0865 50.4335 96.926 50.2509C96.7711 50.0683 96.6936 49.8276 96.6936 49.5288C96.6936 49.2853 96.7656 49.064 96.9094 48.8648C97.0533 48.6601 97.258 48.4996 97.5236 48.3834C97.7948 48.2672 98.1046 48.2091 98.4532 48.2091C98.9733 48.2091 99.3911 48.3419 99.7065 48.6075C100.027 48.8675 100.199 49.2244 100.221 49.6782H99.2749C99.2583 49.4734 99.1753 49.3102 99.0259 49.1885C98.8765 49.0667 98.6746 49.0059 98.42 49.0059C98.171 49.0059 97.9801 49.0529 97.8473 49.147C97.7145 49.241 97.6481 49.3655 97.6481 49.5205C97.6481 49.6422 97.6924 49.7446 97.7809 49.8276C97.8695 49.9106 97.9774 49.977 98.1046 50.0268C98.2319 50.071 98.42 50.1291 98.669 50.2011C99.001 50.2896 99.2721 50.3809 99.4824 50.475C99.6982 50.5635 99.8836 50.6963 100.039 50.8734C100.193 51.0504 100.274 51.2856 100.279 51.5789C100.279 51.8389 100.207 52.0713 100.063 52.2761C99.9195 52.4808 99.7148 52.6413 99.4492 52.7575C99.1891 52.8737 98.882 52.9318 98.5279 52.9318ZM101.783 47.6779C101.611 47.6779 101.468 47.6198 101.351 47.5036C101.235 47.3874 101.177 47.2435 101.177 47.072C101.177 46.9005 101.235 46.7566 101.351 46.6404C101.468 46.5242 101.611 46.4661 101.783 46.4661C101.949 46.4661 102.09 46.5242 102.206 46.6404C102.322 46.7566 102.381 46.9005 102.381 47.072C102.381 47.2435 102.322 47.3874 102.206 47.5036C102.09 47.6198 101.949 47.6779 101.783 47.6779ZM102.248 48.2838V52.8571H101.302V48.2838H102.248ZM103.175 50.5497C103.175 50.0904 103.269 49.6837 103.457 49.3296C103.651 48.9754 103.911 48.7016 104.237 48.5079C104.569 48.3087 104.937 48.2091 105.341 48.2091C105.64 48.2091 105.933 48.2755 106.221 48.4083C106.514 48.5356 106.746 48.7071 106.918 48.9229V46.7151H107.872V52.8571H106.918V52.1682C106.763 52.3895 106.547 52.5721 106.271 52.716C105.999 52.8598 105.687 52.9318 105.333 52.9318C104.934 52.9318 104.569 52.8322 104.237 52.633C103.911 52.4282 103.651 52.146 103.457 51.7864C103.269 51.4212 103.175 51.0089 103.175 50.5497ZM106.918 50.5663C106.918 50.2509 106.852 49.977 106.719 49.7446C106.591 49.5122 106.423 49.3351 106.212 49.2134C106.002 49.0916 105.775 49.0308 105.532 49.0308C105.288 49.0308 105.062 49.0916 104.851 49.2134C104.641 49.3296 104.469 49.5039 104.337 49.7363C104.209 49.9631 104.146 50.2343 104.146 50.5497C104.146 50.8651 104.209 51.1417 104.337 51.3797C104.469 51.6176 104.641 51.8002 104.851 51.9275C105.067 52.0492 105.294 52.1101 105.532 52.1101C105.775 52.1101 106.002 52.0492 106.212 51.9275C106.423 51.8057 106.591 51.6287 106.719 51.3963C106.852 51.1583 106.918 50.8817 106.918 50.5663ZM108.8 50.5497C108.8 50.0904 108.894 49.6837 109.082 49.3296C109.276 48.9754 109.536 48.7016 109.862 48.5079C110.194 48.3087 110.559 48.2091 110.958 48.2091C111.317 48.2091 111.63 48.281 111.896 48.4249C112.167 48.5632 112.383 48.7375 112.543 48.9478V48.2838H113.498V52.8571H112.543V52.1765C112.383 52.3923 112.164 52.5721 111.887 52.716C111.611 52.8598 111.295 52.9318 110.941 52.9318C110.548 52.9318 110.189 52.8322 109.862 52.633C109.536 52.4282 109.276 52.146 109.082 51.7864C108.894 51.4212 108.8 51.0089 108.8 50.5497ZM112.543 50.5663C112.543 50.2509 112.477 49.977 112.344 49.7446C112.217 49.5122 112.048 49.3351 111.838 49.2134C111.627 49.0916 111.4 49.0308 111.157 49.0308C110.914 49.0308 110.687 49.0916 110.476 49.2134C110.266 49.3296 110.095 49.5039 109.962 49.7363C109.835 49.9631 109.771 50.2343 109.771 50.5497C109.771 50.8651 109.835 51.1417 109.962 51.3797C110.095 51.6176 110.266 51.8002 110.476 51.9275C110.692 52.0492 110.919 52.1101 111.157 52.1101C111.4 52.1101 111.627 52.0492 111.838 51.9275C112.048 51.8057 112.217 51.6287 112.344 51.3963C112.477 51.1583 112.543 50.8817 112.543 50.5663ZM114.425 50.5497C114.425 50.0904 114.519 49.6837 114.707 49.3296C114.901 48.9754 115.161 48.7016 115.487 48.5079C115.819 48.3087 116.187 48.2091 116.591 48.2091C116.89 48.2091 117.183 48.2755 117.471 48.4083C117.764 48.5356 117.997 48.7071 118.168 48.9229V46.7151H119.123V52.8571H118.168V52.1682C118.013 52.3895 117.798 52.5721 117.521 52.716C117.25 52.8598 116.937 52.9318 116.583 52.9318C116.185 52.9318 115.819 52.8322 115.487 52.633C115.161 52.4282 114.901 52.146 114.707 51.7864C114.519 51.4212 114.425 51.0089 114.425 50.5497ZM118.168 50.5663C118.168 50.2509 118.102 49.977 117.969 49.7446C117.842 49.5122 117.673 49.3351 117.463 49.2134C117.252 49.0916 117.026 49.0308 116.782 49.0308C116.539 49.0308 116.312 49.0916 116.102 49.2134C115.891 49.3296 115.72 49.5039 115.587 49.7363C115.46 49.9631 115.396 50.2343 115.396 50.5497C115.396 50.8651 115.46 51.1417 115.587 51.3797C115.72 51.6176 115.891 51.8002 116.102 51.9275C116.317 52.0492 116.544 52.1101 116.782 52.1101C117.026 52.1101 117.252 52.0492 117.463 51.9275C117.673 51.8057 117.842 51.6287 117.969 51.3963C118.102 51.1583 118.168 50.8817 118.168 50.5663ZM124.557 50.4584C124.557 50.6299 124.546 50.7848 124.524 50.9232H121.03C121.057 51.2884 121.193 51.5816 121.436 51.803C121.68 52.0243 121.978 52.135 122.333 52.135C122.842 52.135 123.201 51.9219 123.412 51.4959H124.432C124.294 51.9164 124.042 52.2622 123.677 52.5334C123.318 52.799 122.869 52.9318 122.333 52.9318C121.895 52.9318 121.503 52.8349 121.154 52.6413C120.811 52.4421 120.54 52.1654 120.341 51.8113C120.147 51.4516 120.05 51.0366 120.05 50.5663C120.05 50.0959 120.144 49.6837 120.332 49.3296C120.526 48.9699 120.794 48.6933 121.137 48.4996C121.486 48.3059 121.884 48.2091 122.333 48.2091C122.764 48.2091 123.149 48.3032 123.486 48.4913C123.824 48.6794 124.087 48.945 124.275 49.2881C124.463 49.6256 124.557 50.0157 124.557 50.4584ZM123.569 50.1596C123.564 49.811 123.439 49.5315 123.196 49.3213C122.952 49.111 122.651 49.0059 122.291 49.0059C121.965 49.0059 121.685 49.111 121.453 49.3213C121.22 49.526 121.082 49.8054 121.038 50.1596H123.569ZM127.329 50.5497C127.329 50.0904 127.423 49.6837 127.611 49.3296C127.805 48.9754 128.065 48.7016 128.391 48.5079C128.723 48.3087 129.091 48.2091 129.495 48.2091C129.794 48.2091 130.087 48.2755 130.375 48.4083C130.668 48.5356 130.901 48.7071 131.072 48.9229V46.7151H132.027V52.8571H131.072V52.1682C130.917 52.3895 130.701 52.5721 130.425 52.716C130.154 52.8598 129.841 52.9318 129.487 52.9318C129.088 52.9318 128.723 52.8322 128.391 52.633C128.065 52.4282 127.805 52.146 127.611 51.7864C127.423 51.4212 127.329 51.0089 127.329 50.5497ZM131.072 50.5663C131.072 50.2509 131.006 49.977 130.873 49.7446C130.746 49.5122 130.577 49.3351 130.367 49.2134C130.156 49.0916 129.929 49.0308 129.686 49.0308C129.443 49.0308 129.216 49.0916 129.005 49.2134C128.795 49.3296 128.624 49.5039 128.491 49.7363C128.364 49.9631 128.3 50.2343 128.3 50.5497C128.3 50.8651 128.364 51.1417 128.491 51.3797C128.624 51.6176 128.795 51.8002 129.005 51.9275C129.221 52.0492 129.448 52.1101 129.686 52.1101C129.929 52.1101 130.156 52.0492 130.367 51.9275C130.577 51.8057 130.746 51.6287 130.873 51.3963C131.006 51.1583 131.072 50.8817 131.072 50.5663ZM135.253 52.9318C134.821 52.9318 134.431 52.8349 134.083 52.6413C133.734 52.4421 133.46 52.1654 133.261 51.8113C133.062 51.4516 132.962 51.0366 132.962 50.5663C132.962 50.1015 133.065 49.6892 133.269 49.3296C133.474 48.9699 133.754 48.6933 134.108 48.4996C134.462 48.3059 134.857 48.2091 135.295 48.2091C135.732 48.2091 136.127 48.3059 136.481 48.4996C136.836 48.6933 137.115 48.9699 137.32 49.3296C137.524 49.6892 137.627 50.1015 137.627 50.5663C137.627 51.0311 137.522 51.4433 137.311 51.803C137.101 52.1626 136.813 52.4421 136.448 52.6413C136.089 52.8349 135.69 52.9318 135.253 52.9318ZM135.253 52.1101C135.496 52.1101 135.723 52.052 135.934 51.9358C136.149 51.8196 136.324 51.6453 136.457 51.4129C136.589 51.1805 136.656 50.8983 136.656 50.5663C136.656 50.2343 136.592 49.9548 136.465 49.728C136.338 49.4956 136.169 49.3213 135.959 49.2051C135.748 49.0889 135.521 49.0308 135.278 49.0308C135.034 49.0308 134.808 49.0889 134.597 49.2051C134.393 49.3213 134.229 49.4956 134.108 49.728C133.986 49.9548 133.925 50.2343 133.925 50.5663C133.925 51.0587 134.05 51.4405 134.299 51.7117C134.553 51.9773 134.871 52.1101 135.253 52.1101ZM142.378 52.9318C142.019 52.9318 141.695 52.8681 141.407 52.7409C141.125 52.6081 140.901 52.431 140.735 52.2097C140.569 51.9828 140.48 51.731 140.469 51.4544H141.449C141.465 51.648 141.557 51.8113 141.723 51.9441C141.894 52.0713 142.107 52.135 142.362 52.135C142.627 52.135 142.832 52.0852 142.976 51.9856C143.125 51.8804 143.2 51.7476 143.2 51.5872C143.2 51.4156 143.117 51.2884 142.951 51.2054C142.79 51.1224 142.533 51.0311 142.179 50.9315C141.836 50.8374 141.557 50.7461 141.341 50.6576C141.125 50.569 140.937 50.4335 140.776 50.2509C140.621 50.0683 140.544 49.8276 140.544 49.5288C140.544 49.2853 140.616 49.064 140.76 48.8648C140.904 48.6601 141.108 48.4996 141.374 48.3834C141.645 48.2672 141.955 48.2091 142.304 48.2091C142.824 48.2091 143.241 48.3419 143.557 48.6075C143.878 48.8675 144.049 49.2244 144.071 49.6782H143.125C143.109 49.4734 143.026 49.3102 142.876 49.1885C142.727 49.0667 142.525 49.0059 142.27 49.0059C142.021 49.0059 141.83 49.0529 141.698 49.147C141.565 49.241 141.498 49.3655 141.498 49.5205C141.498 49.6422 141.543 49.7446 141.631 49.8276C141.72 49.9106 141.828 49.977 141.955 50.0268C142.082 50.071 142.27 50.1291 142.519 50.2011C142.851 50.2896 143.122 50.3809 143.333 50.475C143.548 50.5635 143.734 50.6963 143.889 50.8734C144.044 51.0504 144.124 51.2856 144.129 51.5789C144.129 51.8389 144.058 52.0713 143.914 52.2761C143.77 52.4808 143.565 52.6413 143.299 52.7575C143.039 52.8737 142.732 52.9318 142.378 52.9318ZM149.343 50.4584C149.343 50.6299 149.332 50.7848 149.31 50.9232H145.816C145.844 51.2884 145.979 51.5816 146.223 51.803C146.466 52.0243 146.765 52.135 147.119 52.135C147.628 52.135 147.988 51.9219 148.198 51.4959H149.219C149.081 51.9164 148.829 52.2622 148.464 52.5334C148.104 52.799 147.656 52.9318 147.119 52.9318C146.682 52.9318 146.289 52.8349 145.94 52.6413C145.597 52.4421 145.326 52.1654 145.127 51.8113C144.933 51.4516 144.836 51.0366 144.836 50.5663C144.836 50.0959 144.931 49.6837 145.119 49.3296C145.312 48.9699 145.581 48.6933 145.924 48.4996C146.272 48.3059 146.671 48.2091 147.119 48.2091C147.551 48.2091 147.935 48.3032 148.273 48.4913C148.61 48.6794 148.873 48.945 149.061 49.2881C149.249 49.6256 149.343 50.0157 149.343 50.4584ZM148.356 50.1596C148.35 49.811 148.226 49.5315 147.982 49.3213C147.739 49.111 147.437 49.0059 147.077 49.0059C146.751 49.0059 146.472 49.111 146.239 49.3213C146.007 49.526 145.868 49.8054 145.824 50.1596H148.356ZM154.416 48.2838V52.8571H153.47V52.3176C153.321 52.5057 153.124 52.6551 152.881 52.7658C152.643 52.8709 152.388 52.9235 152.117 52.9235C151.757 52.9235 151.434 52.8488 151.146 52.6994C150.864 52.55 150.64 52.3286 150.474 52.0354C150.313 51.7421 150.233 51.388 150.233 50.973V48.2838H151.171V50.8319C151.171 51.2413 151.273 51.5567 151.478 51.7781C151.683 51.9939 151.962 52.1018 152.316 52.1018C152.67 52.1018 152.95 51.9939 153.155 51.7781C153.365 51.5567 153.47 51.2413 153.47 50.8319V48.2838H154.416ZM157.505 50.5663C157.505 50.0959 157.599 49.6837 157.787 49.3296C157.981 48.9699 158.247 48.6933 158.584 48.4996C158.922 48.3059 159.309 48.2091 159.746 48.2091C160.3 48.2091 160.756 48.3419 161.116 48.6075C161.481 48.8675 161.727 49.241 161.854 49.728H160.834C160.751 49.5011 160.618 49.324 160.435 49.1968C160.253 49.0695 160.023 49.0059 159.746 49.0059C159.359 49.0059 159.049 49.1442 158.817 49.4209C158.59 49.692 158.476 50.0738 158.476 50.5663C158.476 51.0587 158.59 51.4433 158.817 51.72C159.049 51.9966 159.359 52.135 159.746 52.135C160.294 52.135 160.656 51.8943 160.834 51.4129H161.854C161.722 51.8777 161.473 52.2484 161.107 52.5251C160.742 52.7962 160.288 52.9318 159.746 52.9318C159.309 52.9318 158.922 52.8349 158.584 52.6413C158.247 52.4421 157.981 52.1654 157.787 51.8113C157.599 51.4516 157.505 51.0366 157.505 50.5663ZM163.744 46.7151V52.8571H162.797V46.7151H163.744ZM165.467 47.6779C165.296 47.6779 165.152 47.6198 165.036 47.5036C164.919 47.3874 164.861 47.2435 164.861 47.072C164.861 46.9005 164.919 46.7566 165.036 46.6404C165.152 46.5242 165.296 46.4661 165.467 46.4661C165.633 46.4661 165.774 46.5242 165.891 46.6404C166.007 46.7566 166.065 46.9005 166.065 47.072C166.065 47.2435 166.007 47.3874 165.891 47.5036C165.774 47.6198 165.633 47.6779 165.467 47.6779ZM165.932 48.2838V52.8571H164.986V48.2838H165.932ZM171.366 50.4584C171.366 50.6299 171.355 50.7848 171.333 50.9232H167.838C167.866 51.2884 168.002 51.5816 168.245 51.803C168.488 52.0243 168.787 52.135 169.141 52.135C169.65 52.135 170.01 51.9219 170.22 51.4959H171.241C171.103 51.9164 170.851 52.2622 170.486 52.5334C170.126 52.799 169.678 52.9318 169.141 52.9318C168.704 52.9318 168.311 52.8349 167.963 52.6413C167.62 52.4421 167.349 52.1654 167.149 51.8113C166.956 51.4516 166.859 51.0366 166.859 50.5663C166.859 50.0959 166.953 49.6837 167.141 49.3296C167.335 48.9699 167.603 48.6933 167.946 48.4996C168.295 48.3059 168.693 48.2091 169.141 48.2091C169.573 48.2091 169.958 48.3032 170.295 48.4913C170.633 48.6794 170.895 48.945 171.084 49.2881C171.272 49.6256 171.366 50.0157 171.366 50.4584ZM170.378 50.1596C170.373 49.811 170.248 49.5315 170.005 49.3213C169.761 49.111 169.46 49.0059 169.1 49.0059C168.773 49.0059 168.494 49.111 168.262 49.3213C168.029 49.526 167.891 49.8054 167.847 50.1596H170.378ZM174.604 48.2091C174.964 48.2091 175.285 48.2838 175.567 48.4332C175.855 48.5826 176.079 48.8039 176.239 49.0972C176.4 49.3904 176.48 49.7446 176.48 50.1596V52.8571H175.542V50.3007C175.542 49.8912 175.44 49.5786 175.235 49.3628C175.03 49.1414 174.751 49.0308 174.397 49.0308C174.043 49.0308 173.76 49.1414 173.55 49.3628C173.345 49.5786 173.243 49.8912 173.243 50.3007V52.8571H172.297V48.2838H173.243V48.8067C173.398 48.6186 173.594 48.4719 173.832 48.3668C174.076 48.2617 174.333 48.2091 174.604 48.2091ZM178.791 49.0557V51.5872C178.791 51.7587 178.83 51.8832 178.907 51.9607C178.99 52.0326 179.128 52.0686 179.322 52.0686H179.903V52.8571H179.156C178.73 52.8571 178.404 52.7575 178.177 52.5583C177.95 52.3591 177.836 52.0354 177.836 51.5872V49.0557H177.297V48.2838H177.836V47.1467H178.791V48.2838H179.903V49.0557H178.791ZM184.967 50.4584C184.967 50.6299 184.956 50.7848 184.933 50.9232H181.439C181.467 51.2884 181.602 51.5816 181.846 51.803C182.089 52.0243 182.388 52.135 182.742 52.135C183.251 52.135 183.611 51.9219 183.821 51.4959H184.842C184.704 51.9164 184.452 52.2622 184.087 52.5334C183.727 52.799 183.279 52.9318 182.742 52.9318C182.305 52.9318 181.912 52.8349 181.564 52.6413C181.221 52.4421 180.949 52.1654 180.75 51.8113C180.557 51.4516 180.46 51.0366 180.46 50.5663C180.46 50.0959 180.554 49.6837 180.742 49.3296C180.936 48.9699 181.204 48.6933 181.547 48.4996C181.896 48.3059 182.294 48.2091 182.742 48.2091C183.174 48.2091 183.558 48.3032 183.896 48.4913C184.233 48.6794 184.496 48.945 184.684 49.2881C184.873 49.6256 184.967 50.0157 184.967 50.4584ZM183.979 50.1596C183.973 49.811 183.849 49.5315 183.605 49.3213C183.362 49.111 183.06 49.0059 182.701 49.0059C182.374 49.0059 182.095 49.111 181.862 49.3213C181.63 49.526 181.492 49.8054 181.447 50.1596H183.979ZM186.28 52.9152C186.108 52.9152 185.964 52.8571 185.848 52.7409C185.732 52.6247 185.674 52.4808 185.674 52.3093C185.674 52.1377 185.732 51.9939 185.848 51.8777C185.964 51.7615 186.108 51.7034 186.28 51.7034C186.446 51.7034 186.587 51.7615 186.703 51.8777C186.819 51.9939 186.877 52.1377 186.877 52.3093C186.877 52.4808 186.819 52.6247 186.703 52.7409C186.587 52.8571 186.446 52.9152 186.28 52.9152Z" fill="#4F4F4F"/>
<defs>
<filter id="filter0_d_117_282" x="0.36165" y="0.180825" width="237.448" height="73.6195" filterUnits="userSpaceOnUse" color-interpolation-filters="sRGB">
<feFlood flood-opacity="0" result="BackgroundImageFix"/>
<feColorMatrix in="SourceAlpha" type="matrix" values="0 0 0 0 0 0 0 0 0 0 0 0 0 0 0 0 0 0 127 0" result="hardAlpha"/>
<feOffset dy="2.81917"/>
<feGaussianBlur stdDeviation="2.81917"/>
<feComposite in2="hardAlpha" operator="out"/>
<feColorMatrix type="matrix" values="0 0 0 0 0.2 0 0 0 0 0.189167 0 0 0 0 0.189167 0 0 0 0.4 0"/>
<feBlend mode="normal" in2="BackgroundImageFix" result="effect1_dropShadow_117_282"/>
<feBlend mode="normal" in="SourceGraphic" in2="effect1_dropShadow_117_282" result="shape"/>
</filter>
</defs>
</svg>
