<svg width="626" height="96" viewBox="0 0 626 96" fill="none" xmlns="http://www.w3.org/2000/svg">
<path d="M37.786 55.4814L52.216 53.7314L57.676 52.5114L72.166 47.4314L75.406 45.9414C80.626 43.3947 85.6127 40.1447 90.366 36.1914C99.066 29.1247 106.506 20.7914 112.686 11.1914C112.853 10.9314 112.783 10.7914 112.476 10.7714L108.126 10.4314C107.333 10.3647 107.246 10.0814 107.866 9.58136L119.266 0.381363C120.079 -0.278637 120.439 -0.0819739 120.346 0.971359L119.036 15.7414C118.976 16.428 118.733 16.5014 118.306 15.9614L115.546 12.4414C115.492 12.374 115.423 12.3209 115.344 12.287C115.265 12.2532 115.179 12.2396 115.094 12.2476C115.009 12.2556 114.928 12.2848 114.859 12.3327C114.789 12.3806 114.733 12.4455 114.696 12.5214C102.536 36.1214 83.396 52.3614 57.306 58.0014C47.2593 60.1814 37.4593 60.8347 27.906 59.9614C18.646 59.1147 9.376 57.238 0.0959967 54.3314C0.0159967 54.3114 -0.0139996 54.2614 0.00600038 54.1814V54.1714C0.0393337 54.0114 0.136009 53.9414 0.296009 53.9614C12.496 55.4614 25.516 56.5614 37.786 55.4814Z" fill="#AE8945"/>
<path d="M72.1661 47.4312L57.6761 52.5112L57.4561 20.6612C57.4533 20.2747 57.56 19.8956 57.7636 19.568C57.9672 19.2405 58.2594 18.978 58.6061 18.8112C62.5195 16.9112 66.3328 15.1412 70.0461 13.5012C70.4794 13.3079 70.9328 13.2345 71.4061 13.2812C71.9461 13.3345 72.2161 13.6312 72.2161 14.1712L72.1661 47.4312Z" fill="#CCD3E3"/>
<path d="M52.2161 53.7316L37.7861 55.4816L37.8261 34.0316C37.8258 33.707 37.919 33.3891 38.0945 33.116C38.2701 32.8429 38.5206 32.6261 38.8161 32.4916L50.6761 27.0216C50.8648 26.9336 51.0726 26.8949 51.2803 26.9091C51.4879 26.9233 51.6886 26.99 51.8634 27.103C52.0383 27.2159 52.1816 27.3713 52.2801 27.5547C52.3785 27.7381 52.4287 27.9435 52.4261 28.1516L52.2161 53.7316Z" fill="#CCD3E3"/>
<path d="M90.3663 36.1904C85.613 40.1437 80.6262 43.3937 75.4062 45.9404L75.6264 40.3004C75.6412 39.9284 75.7672 39.5695 75.9883 39.27C76.2093 38.9704 76.5153 38.7442 76.8663 38.6204C79.9463 37.527 82.9397 36.5204 85.8464 35.6004C88.2264 34.847 89.733 35.0437 90.3663 36.1904Z" fill="#CCD3E3"/>
<path d="M55.8158 79.6697C56.9758 79.9631 57.5558 79.5131 57.5558 78.3197L57.5258 61.4097C57.5229 61.1567 57.6081 60.9106 57.7668 60.7135C57.9256 60.5165 58.1479 60.3808 58.3958 60.3297C62.8224 59.3764 67.0524 58.0964 71.0858 56.4897C71.8391 56.1897 72.2158 56.4431 72.2158 57.2497L72.1558 77.6797C72.1558 78.7731 72.7024 79.2897 73.7957 79.2297L74.3158 79.2097C74.5732 79.197 74.8159 79.0863 74.9944 78.9004C75.1729 78.7145 75.2735 78.4674 75.2758 78.2097C75.3491 70.6231 75.3624 63.4731 75.3158 56.7597C75.3158 55.5797 75.7858 54.6597 76.8958 54.1597C81.0091 52.2931 85.0991 49.9364 89.1657 47.0897C89.2591 47.0231 89.3624 46.9797 89.4758 46.9597C89.5958 46.9331 89.7258 46.9231 89.8658 46.9297C90.0586 46.9349 90.2417 47.0163 90.3762 47.1563C90.5107 47.2964 90.5859 47.4842 90.5858 47.6797C90.5524 54.5731 90.4991 61.3731 90.4258 68.0797C90.4191 68.4664 90.5224 68.8297 90.7357 69.1697C90.828 69.3155 90.9531 69.4374 91.1013 69.5259C91.2494 69.6145 91.4165 69.6671 91.5892 69.6798C91.762 69.6924 91.9356 69.6646 92.0965 69.5986C92.2573 69.5327 92.4008 69.4303 92.5157 69.2997L97.7957 63.1997C98.0973 62.8488 98.5232 62.6282 98.985 62.5835C99.4467 62.5388 99.909 62.6735 100.276 62.9597L110.036 70.5197C110.212 70.6564 110.359 70.8269 110.469 71.0211C110.579 71.2153 110.649 71.4295 110.675 71.651C110.701 71.8726 110.682 72.0971 110.621 72.3115C110.559 72.5259 110.456 72.7258 110.316 72.8997C97.4358 89.0397 79.2157 97.3897 58.8158 95.6197C42.8558 94.2397 27.3858 86.0197 17.7158 72.6197C17.4674 72.2746 17.3639 71.8463 17.4275 71.4273C17.4911 71.0082 17.7167 70.632 18.0558 70.3797L27.7458 63.1497C28.1377 62.8618 28.6232 62.7317 29.1052 62.7855C29.5873 62.8393 30.0303 63.0729 30.3457 63.4397L35.2258 69.1397C35.3824 69.3269 35.5872 69.4678 35.8181 69.5471C36.049 69.6264 36.2971 69.6412 36.5358 69.5897C37.2758 69.4364 37.6691 68.9897 37.7158 68.2497C37.8224 66.7364 37.8824 65.2731 37.8958 63.8597C37.8974 63.4767 38.0447 63.1083 38.3079 62.8283C38.5712 62.5484 38.9312 62.3774 39.3158 62.3497L51.3558 61.5397C51.4851 61.5315 51.6147 61.5497 51.7365 61.5934C51.8583 61.637 51.9696 61.7051 52.0635 61.7934C52.1574 61.8817 52.2319 61.9882 52.2822 62.1063C52.3324 62.2244 52.3575 62.3515 52.3558 62.4797V77.3397C52.3558 78.3064 52.8224 78.9097 53.7558 79.1497L55.8158 79.6697Z" fill="#CCD3E3"/>
<path d="M480.235 67.6204L460.649 68.3557C460.499 68.359 460.353 68.4158 460.228 68.5227C460.104 68.6297 460.005 68.7801 459.945 68.9572L454.424 84.4314C454.339 84.6587 454.189 84.8358 454.006 84.9294C453.822 85.023 453.618 85.023 453.434 84.9327L451.507 84.0304C451.408 83.9802 451.317 83.9067 451.241 83.8131C451.164 83.7195 451.104 83.6059 451.062 83.4823C451.021 83.3586 450.999 83.2215 451 83.0878C451 82.9508 451.022 82.8171 451.064 82.6935L471.744 22.5682C471.808 22.3977 471.908 22.254 472.032 22.1537C472.157 22.0535 472.3 22 472.447 22C472.594 22 472.738 22.0535 472.862 22.1537C472.986 22.254 473.086 22.3977 473.15 22.5682L493.934 83.0277C493.988 83.1815 494.009 83.3553 493.996 83.5257C493.984 83.6962 493.937 83.8566 493.862 83.9969C493.786 84.1406 493.683 84.2543 493.564 84.3278C493.445 84.4047 493.312 84.4381 493.179 84.4314L486.746 84.0972C486.6 84.0872 486.46 84.0237 486.34 83.9201C486.221 83.8131 486.127 83.6661 486.069 83.4956L480.964 68.222C480.902 68.0381 480.8 67.8844 480.67 67.7775C480.541 67.6705 480.389 67.6171 480.235 67.6204ZM461.716 63.0082C461.665 63.1753 461.647 63.3558 461.663 63.5363C461.68 63.7134 461.73 63.8839 461.809 64.0343C461.889 64.1813 461.996 64.3016 462.12 64.3852C462.245 64.4687 462.384 64.5122 462.524 64.5122H478.463C478.604 64.5122 478.742 64.4687 478.867 64.3852C478.992 64.3016 479.098 64.1813 479.178 64.0343C479.258 63.8839 479.308 63.7134 479.324 63.5363C479.34 63.3558 479.322 63.1753 479.271 63.0082L471.301 37.1399C471.241 36.926 471.131 36.7422 470.986 36.6119C470.842 36.4849 470.67 36.4147 470.494 36.4147C470.318 36.4147 470.145 36.4849 470.001 36.6119C469.857 36.7422 469.747 36.926 469.686 37.1399L461.716 63.0082Z" fill="#AE8945"/>
<path d="M555.144 81.3575C552.556 79.4271 550.3 76.7934 548.504 73.6091C546.709 70.4248 545.41 66.7529 544.68 62.8024C543.951 58.8486 543.806 54.6958 544.254 50.5761C544.702 46.4564 545.734 42.4529 547.291 38.7976C548.848 35.139 550.899 31.8949 553.328 29.2546C555.757 26.6143 558.516 24.6275 561.447 23.4035C564.378 22.1829 567.424 21.7517 570.411 22.1364C573.398 22.5212 576.267 23.712 578.855 25.6425C581.444 27.573 583.7 30.2066 585.495 33.3909C587.291 36.5719 588.59 40.2471 589.32 44.1976C590.049 48.1514 590.194 52.3042 589.746 56.4239C589.298 60.5436 588.266 64.5438 586.709 68.2024C585.152 71.861 583.101 75.105 580.672 77.7453C578.243 80.3856 575.484 82.3725 572.553 83.5965C569.622 84.8171 566.576 85.2483 563.589 84.8636C560.602 84.4788 557.733 83.288 555.144 81.3575ZM566.032 82.0939C568.007 82.2166 569.989 81.6195 571.864 80.3326C573.738 79.0456 575.469 77.0986 576.958 74.5976C578.447 72.0966 579.664 69.0947 580.54 65.7612C581.416 62.4276 581.934 58.8287 582.065 55.1701C582.328 47.7799 580.996 40.592 578.361 35.1887C575.727 29.7887 572.006 26.6144 568.017 26.3656C566.043 26.2429 564.061 26.8399 562.187 28.1269C560.312 29.4138 558.581 31.3609 557.092 33.8619C555.603 36.3629 554.386 39.3648 553.51 42.6983C552.634 46.0319 552.116 49.6307 551.985 53.2893C551.722 60.6795 553.054 67.8674 555.688 73.2675C558.323 78.6708 562.044 81.8451 566.032 82.0939Z" fill="#AE8945"/>
<path d="M618.168 74.3549C622.771 64.2449 609.627 55.4028 604.359 51.7992C598.919 48.0288 595.646 38.8197 598.599 31.0787C602.956 19.6674 614.772 20.7351 622.23 24.9726C623.573 25.7267 623.886 26.9612 623.165 28.6763L622.746 29.6773C622.613 30.0009 622.404 30.2545 622.151 30.398C621.895 30.5448 621.612 30.5715 621.343 30.478C617.454 28.9866 613.654 27.7087 609.947 26.6409C605.926 25.5065 603.768 27.5952 603.473 32.9138C602.981 42.3565 614.304 49.5303 619.448 53.8679C627.374 60.5746 628.703 74.7219 620.137 81.3952C614.082 86.0865 606.681 86.2 597.935 81.7289C597.746 81.6321 597.575 81.4819 597.432 81.2884C597.288 81.0982 597.176 80.8647 597.102 80.6111C597.028 80.3575 596.993 80.0839 597.001 79.8137C597.009 79.5401 597.059 79.2698 597.147 79.0262L597.467 78.0919C597.54 77.8817 597.643 77.6982 597.771 77.5481C597.899 77.3946 598.049 77.2811 598.21 77.2144C598.372 77.1443 598.543 77.121 598.711 77.1477C598.88 77.171 599.043 77.2444 599.19 77.3579C607.887 84.0745 614.213 83.0736 618.168 74.3549Z" fill="#AE8945"/>
<path d="M410.144 25.4961C410.144 25.0993 410.26 24.7188 410.467 24.4391C410.674 24.1594 410.954 24 411.247 24L425.607 24.0651C428.559 24.0813 431.48 24.8001 434.203 26.1857C436.926 27.5712 439.398 29.5975 441.478 32.1442C443.557 34.6876 445.203 37.7092 446.323 41.0267C447.442 44.3442 448.012 47.8991 448 51.4834V55.8417C447.976 63.0751 445.589 69.9997 441.363 75.093C437.137 80.1864 431.418 83.029 425.464 82.9998L411.103 82.9347C410.81 82.9347 410.53 82.7786 410.323 82.4956C410.116 82.2159 410 81.8354 410 81.4386L410.144 25.4961ZM417.216 30.9928L417.12 75.9419C417.117 76.4135 417.183 76.8786 417.312 77.3145C417.442 77.7503 417.633 78.1471 417.876 78.4821C418.119 78.8171 418.408 79.0838 418.726 79.2692C419.045 79.4513 419.388 79.5489 419.734 79.5522H423.306C427.928 79.5782 432.369 77.077 435.651 72.6016C438.934 68.123 440.788 62.0376 440.807 55.679V51.5159C440.817 48.3675 440.376 45.2484 439.508 42.3374C438.641 39.4232 437.365 36.7724 435.754 34.538C434.142 32.3035 432.226 30.5277 430.114 29.3113C428.004 28.0949 425.739 27.4606 423.45 27.4476H419.878C419.531 27.4444 419.188 27.5322 418.867 27.7078C418.545 27.8835 418.253 28.1437 418.006 28.4722C417.759 28.8039 417.562 29.1942 417.426 29.6268C417.291 30.0594 417.219 30.5245 417.216 30.9928Z" fill="#AE8945"/>
<path d="M501.148 26.2393C501.148 25.6454 501.328 25.0742 501.647 24.6556C501.967 24.2369 502.4 24 502.852 24L516.437 24.0649C519.543 24.0779 522.616 24.8146 525.481 26.2295C528.346 27.6445 530.947 29.7117 533.135 32.3145C535.324 34.914 537.056 37.997 538.234 41.3884C539.412 44.7797 540.012 48.408 540 52.0719V55.2524C539.975 62.6419 537.464 69.7167 533.018 74.9189C528.572 80.1212 522.555 83.029 516.289 82.9998L502.704 82.9349C502.252 82.9349 501.819 82.698 501.499 82.2793C501.18 81.8574 501 81.2895 501 80.6956L501.148 26.2393ZM507.619 31.5616L507.521 75.568C507.517 76.0808 507.591 76.587 507.737 77.0609C507.883 77.5347 508.098 77.9663 508.371 78.3297C508.644 78.6965 508.969 78.9853 509.327 79.1865C509.686 79.3845 510.07 79.4916 510.46 79.4948H514.609C516.938 79.5078 519.246 78.9269 521.401 77.7845C523.557 76.6454 525.517 74.9644 527.171 72.8452C528.824 70.7227 530.139 68.2011 531.039 65.4199C531.939 62.6419 532.408 59.6595 532.417 56.6478V50.7414C532.437 44.6564 530.587 38.8083 527.275 34.4888C523.963 30.1661 519.461 27.7256 514.757 27.6997H510.608C510.219 27.6964 509.833 27.7905 509.472 27.982C509.111 28.1767 508.782 28.4591 508.505 28.8161C508.227 29.1763 508.006 29.6014 507.854 30.072C507.702 30.5458 507.623 31.0488 507.619 31.5616Z" fill="#AE8945"/>
<path d="M261.071 69.0385L240.936 68.8326C240.777 68.8292 240.621 68.8875 240.488 68.9973C240.354 69.1071 240.249 69.2649 240.185 69.4502L234.609 85.4058C234.527 85.6323 234.384 85.8107 234.206 85.9102C234.029 86.0132 233.829 86.0269 233.643 85.9549L231.579 85.2343C231.469 85.1931 231.367 85.1211 231.28 85.0284C231.193 84.9323 231.123 84.8122 231.075 84.6784C231.026 84.5446 231.001 84.4005 231 84.2529C230.999 84.1088 231.023 83.9613 231.069 83.8274L252.17 21.6176C252.232 21.4358 252.336 21.2779 252.467 21.1681C252.598 21.0583 252.751 21 252.907 21C253.064 21 253.217 21.0583 253.348 21.1681C253.479 21.2779 253.582 21.4358 253.645 21.6176L274.933 84.1706C274.986 84.325 275.008 84.4965 274.997 84.6647C274.987 84.8328 274.944 84.9975 274.872 85.1382C274.801 85.2823 274.703 85.399 274.587 85.4813C274.471 85.5637 274.341 85.6083 274.209 85.6117L267.801 85.5088C267.647 85.5054 267.496 85.447 267.368 85.3372C267.24 85.2274 267.139 85.073 267.077 84.8912L261.795 69.6561C261.734 69.4742 261.633 69.3198 261.504 69.21C261.376 69.1037 261.226 69.0419 261.071 69.0385ZM241.633 63.617C241.576 63.7885 241.552 63.9738 241.565 64.1626C241.577 64.3479 241.626 64.5263 241.705 64.6807C241.785 64.8385 241.893 64.9655 242.021 65.0581C242.149 65.1473 242.292 65.1954 242.437 65.1954L259.168 65.4356C259.316 65.439 259.462 65.3978 259.593 65.3086C259.725 65.2228 259.837 65.0924 259.92 64.938C260.002 64.7802 260.053 64.5983 260.067 64.4096C260.08 64.2209 260.057 64.0322 259.999 63.8572L251.848 37.7791C251.784 37.5698 251.673 37.3914 251.529 37.2644C251.385 37.1375 251.215 37.0654 251.039 37.062C250.864 37.0586 250.692 37.1203 250.545 37.2439C250.398 37.364 250.282 37.5389 250.213 37.7448L241.633 63.617Z" fill="#AE8945"/>
<path d="M176.999 79.3264L176.866 84.0264C176.859 84.2883 176.772 84.5334 176.623 84.718C176.474 84.8993 176.274 85 176.067 85L147.879 84.8993C147.667 84.8993 147.464 84.7919 147.314 84.6039C147.164 84.4159 147.08 84.1574 147.08 83.8921L147 25.0072C147 24.7386 147.084 24.4835 147.234 24.2954C147.384 24.1074 147.587 24 147.799 24L175.747 24.2686C175.862 24.2686 175.975 24.2954 176.08 24.3559C176.184 24.4129 176.278 24.5002 176.354 24.6076C176.43 24.7184 176.486 24.846 176.519 24.9837C176.552 25.1213 176.562 25.2657 176.546 25.41L176.04 29.2708C176.014 29.5259 175.911 29.7576 175.752 29.9221C175.593 30.0832 175.392 30.1638 175.188 30.1437L156.298 28.0622C156.191 28.0521 156.083 28.0723 155.982 28.1159C155.881 28.1596 155.787 28.2301 155.708 28.3207C155.628 28.4113 155.564 28.5221 155.519 28.643C155.474 28.7672 155.449 28.9015 155.446 29.0358L155.259 49.6153C155.256 49.7496 155.274 49.8839 155.312 50.0115C155.351 50.1357 155.409 50.2532 155.484 50.3505C155.558 50.4445 155.648 50.5217 155.746 50.5755C155.845 50.6292 155.951 50.656 156.058 50.656L170.019 51.0925C170.226 51.1025 170.423 51.21 170.567 51.398C170.711 51.586 170.792 51.8378 170.792 52.0996L170.765 54.4832C170.765 54.7484 170.681 55.0069 170.531 55.1949C170.381 55.3829 170.178 55.4904 169.966 55.4904L156.112 55.6247C155.9 55.6247 155.696 55.7321 155.547 55.9201C155.397 56.1081 155.312 56.3632 155.312 56.6318L155.233 79.4942C155.232 79.6352 155.255 79.7762 155.3 79.9038C155.345 80.0347 155.411 80.1489 155.494 80.2429C155.577 80.3402 155.675 80.4107 155.781 80.4544C155.888 80.498 156 80.5148 156.112 80.5014L176.12 78.2856C176.234 78.2722 176.349 78.2856 176.457 78.3326C176.565 78.3796 176.665 78.4535 176.748 78.5542C176.831 78.6516 176.897 78.7724 176.94 78.9067C176.984 79.0377 177.004 79.182 176.999 79.3264Z" fill="#AE8945"/>
<path d="M208.912 52.8412L226.851 83.7549C226.937 83.9031 226.987 84.0748 226.998 84.2567C227.008 84.4385 226.978 84.617 226.911 84.7787C226.844 84.9403 226.742 85.075 226.617 85.1659C226.492 85.2602 226.348 85.3073 226.203 85.304L218.773 85.203C218.645 85.203 218.518 85.1626 218.405 85.0851C218.292 85.0077 218.196 84.8999 218.125 84.7652L205.13 59.8119C205.062 59.6772 204.969 59.5627 204.859 59.4819C204.748 59.4011 204.624 59.3573 204.495 59.3506C204.367 59.3438 204.24 59.3741 204.125 59.4448C204.009 59.5122 203.909 59.6166 203.833 59.7446L188.352 85.6071C188.252 85.7754 188.111 85.8967 187.951 85.9573C187.79 86.0179 187.618 86.0145 187.46 85.9438L185.515 85.0683C185.399 85.0144 185.295 84.9302 185.211 84.8157C185.127 84.7046 185.065 84.5699 185.031 84.4217C184.996 84.2735 184.991 84.1186 185.014 83.9671C185.037 83.8156 185.089 83.6741 185.164 83.5529L202.185 56.175C202.285 56.0133 202.342 55.8147 202.347 55.6092C202.352 55.4038 202.305 55.1984 202.212 55.03L185.947 25.6316C185.86 25.4835 185.809 25.305 185.8 25.1198C185.79 24.9379 185.822 24.7527 185.893 24.5911C185.964 24.4294 186.07 24.2948 186.199 24.2038C186.328 24.1163 186.475 24.0725 186.623 24.0826L194.296 24.4194C194.427 24.4227 194.555 24.4699 194.668 24.5507C194.781 24.6349 194.876 24.7494 194.944 24.8908L205.994 47.7899C206.059 47.928 206.15 48.0424 206.259 48.1266C206.369 48.2108 206.493 48.2613 206.621 48.2714C206.749 48.2815 206.877 48.2513 206.994 48.1839C207.111 48.1199 207.213 48.0189 207.291 47.8909L221.637 24.3857C221.76 24.1836 221.943 24.0489 222.144 24.0119C222.346 23.9715 222.552 24.0354 222.718 24.1836L224.474 25.699C224.562 25.7765 224.637 25.8741 224.693 25.9886C224.749 26.1031 224.786 26.2277 224.801 26.3624C224.817 26.4937 224.81 26.6284 224.781 26.7598C224.753 26.8877 224.703 27.009 224.636 27.1134L208.939 51.6625C208.832 51.8275 208.771 52.0329 208.767 52.2451C208.762 52.4573 208.813 52.666 208.912 52.8412Z" fill="#AE8945"/>
<path d="M288.41 37.9338L286.135 84.1473C286.063 85.3096 285.581 85.9134 284.689 85.9623L283.859 85.9972C283.253 86.0182 282.967 85.6342 283.003 84.8454L285.599 24.7747C285.671 23.2145 286.304 22.3873 287.5 22.2965C289.017 22.2023 290.48 22.4571 291.889 23.0644C292.853 23.4833 293.54 24.2966 293.95 25.5077L308.243 67.2535C308.325 67.4839 308.455 67.6759 308.619 67.812C308.783 67.9516 308.973 68.0214 309.167 68.0214C309.361 68.0214 309.552 67.9516 309.715 67.812C309.879 67.6759 310.009 67.4839 310.09 67.2535C314.623 54.3842 319.111 40.9006 323.554 26.7992C325.079 21.9126 328.586 21.2145 332.012 22.6805C332.975 23.0993 333.466 23.9824 333.484 25.3332C333.609 43.9932 334.439 62.9707 335.973 82.2624C336.17 84.8209 335.286 86.067 333.323 85.9972L331.021 85.8925C329.059 85.8436 328.033 84.5417 327.943 81.9832L326.337 39.3648C326.106 32.9633 325.097 32.7539 323.313 38.7365C318.548 54.6739 313.472 69.8364 308.083 84.2171C307.984 84.4789 307.829 84.7022 307.636 84.8558C307.443 85.0094 307.221 85.0862 306.995 85.0792C306.769 85.0688 306.55 84.978 306.364 84.814C306.177 84.6499 306.03 84.416 305.942 84.1473L290.016 37.5498C289.088 34.8482 288.553 34.9773 288.41 37.9338Z" fill="#AE8945"/>
<path d="M359.869 80.4083C364.256 79.2251 369.919 78.6319 376.865 78.6319C377.742 78.6319 378.372 79.1145 378.756 80.0731C379.211 81.1456 379.03 82.3421 378.208 83.6593C377.978 84.0347 377.679 84.3397 377.336 84.5475C376.994 84.7587 376.615 84.8659 376.234 84.8659L350.056 85C349.511 85 348.988 84.7352 348.602 84.266C348.217 83.7934 348 83.1532 348 82.4863L348.055 26.5137C348.062 25.8468 348.285 25.2066 348.675 24.734C349.064 24.2648 349.59 24 350.138 24L376.207 24.3016C377.906 24.3251 378.553 25.3407 378.153 27.3516L377.824 29.061C377.725 29.5302 377.481 29.9358 377.142 30.1871C376.804 30.4352 376.399 30.5156 376.015 30.4016C371.207 29.0174 366.046 28.213 360.527 27.9884C357.694 27.8778 356.287 29.5537 356.305 33.0159V46.5566C356.305 49.3519 357.447 50.7696 359.732 50.8132L370.862 51.0143C371.739 51.0377 372.158 51.574 372.123 52.6231L372.04 54.0643C372.002 55.0497 371.583 55.5524 370.78 55.5725L359.074 55.8071C357.301 55.8541 356.406 56.9702 356.388 59.1588L356.251 76.8555C356.232 79.8954 357.438 81.0786 359.869 80.4083Z" fill="#AE8945"/>
</svg>
