<svg width="121" height="147" viewBox="0 0 121 147" fill="none" xmlns="http://www.w3.org/2000/svg">
<path d="M37.786 55.4814L52.216 53.7314L57.676 52.5114L72.166 47.4314L75.406 45.9414C80.626 43.3947 85.6127 40.1447 90.366 36.1914C99.066 29.1247 106.506 20.7914 112.686 11.1914C112.853 10.9314 112.783 10.7914 112.476 10.7714L108.126 10.4314C107.333 10.3647 107.246 10.0814 107.866 9.58136L119.266 0.381363C120.079 -0.278637 120.439 -0.0819739 120.346 0.971359L119.036 15.7414C118.976 16.428 118.733 16.5014 118.306 15.9614L115.546 12.4414C115.492 12.374 115.423 12.3209 115.344 12.287C115.265 12.2532 115.179 12.2396 115.094 12.2476C115.009 12.2556 114.928 12.2848 114.859 12.3327C114.789 12.3806 114.733 12.4455 114.696 12.5214C102.536 36.1214 83.396 52.3614 57.306 58.0014C47.2593 60.1814 37.4593 60.8347 27.906 59.9614C18.646 59.1147 9.376 57.238 0.0959967 54.3314C0.0159967 54.3114 -0.0139996 54.2614 0.00600038 54.1814V54.1714C0.0393337 54.0114 0.136009 53.9414 0.296009 53.9614C12.496 55.4614 25.516 56.5614 37.786 55.4814Z" fill="#AE8945"/>
<path d="M72.1661 47.4312L57.6761 52.5112L57.4561 20.6612C57.4533 20.2747 57.56 19.8956 57.7636 19.568C57.9672 19.2405 58.2594 18.978 58.6061 18.8112C62.5195 16.9112 66.3328 15.1412 70.0461 13.5012C70.4794 13.3079 70.9328 13.2345 71.4061 13.2812C71.9461 13.3345 72.2161 13.6312 72.2161 14.1712L72.1661 47.4312Z" fill="#CCD3E3"/>
<path d="M52.2161 53.7316L37.7861 55.4816L37.8261 34.0316C37.8258 33.707 37.919 33.3891 38.0945 33.116C38.2701 32.8429 38.5206 32.6261 38.8161 32.4916L50.6761 27.0216C50.8648 26.9336 51.0726 26.8949 51.2803 26.9091C51.4879 26.9233 51.6886 26.99 51.8634 27.103C52.0383 27.2159 52.1816 27.3713 52.2801 27.5547C52.3785 27.7381 52.4287 27.9435 52.4261 28.1516L52.2161 53.7316Z" fill="#CCD3E3"/>
<path d="M90.3662 36.1904C85.6129 40.1437 80.6262 43.3937 75.4062 45.9404L75.6263 40.3004C75.6411 39.9284 75.7672 39.5695 75.9883 39.27C76.2093 38.9704 76.5152 38.7442 76.8662 38.6204C79.9462 37.527 82.9396 36.5204 85.8463 35.6004C88.2263 34.847 89.7329 35.0437 90.3662 36.1904Z" fill="#CCD3E3"/>
<path d="M55.8158 79.6697C56.9758 79.9631 57.5558 79.5131 57.5558 78.3197L57.5258 61.4097C57.5229 61.1567 57.6081 60.9106 57.7668 60.7135C57.9256 60.5165 58.1479 60.3808 58.3958 60.3297C62.8224 59.3764 67.0524 58.0964 71.0858 56.4897C71.8391 56.1897 72.2158 56.4431 72.2158 57.2497L72.1558 77.6797C72.1558 78.7731 72.7024 79.2897 73.7957 79.2297L74.3158 79.2097C74.5732 79.197 74.8159 79.0863 74.9944 78.9004C75.1729 78.7145 75.2735 78.4674 75.2758 78.2097C75.3491 70.6231 75.3624 63.4731 75.3158 56.7597C75.3158 55.5797 75.7858 54.6597 76.8958 54.1597C81.0091 52.2931 85.0991 49.9364 89.1657 47.0897C89.2591 47.0231 89.3624 46.9797 89.4758 46.9597C89.5958 46.9331 89.7258 46.9231 89.8658 46.9297C90.0586 46.9349 90.2417 47.0163 90.3762 47.1563C90.5107 47.2964 90.5859 47.4842 90.5858 47.6797C90.5524 54.5731 90.4991 61.3731 90.4258 68.0797C90.4191 68.4664 90.5224 68.8297 90.7357 69.1697C90.828 69.3155 90.9531 69.4374 91.1013 69.5259C91.2494 69.6145 91.4165 69.6671 91.5892 69.6798C91.762 69.6924 91.9356 69.6646 92.0965 69.5986C92.2573 69.5327 92.4008 69.4303 92.5157 69.2997L97.7957 63.1997C98.0973 62.8488 98.5232 62.6282 98.985 62.5835C99.4467 62.5388 99.909 62.6735 100.276 62.9597L110.036 70.5197C110.212 70.6564 110.359 70.8269 110.469 71.0211C110.579 71.2153 110.649 71.4295 110.675 71.651C110.701 71.8726 110.682 72.0971 110.621 72.3115C110.559 72.5259 110.456 72.7258 110.316 72.8997C97.4358 89.0397 79.2157 97.3897 58.8158 95.6197C42.8558 94.2397 27.3858 86.0197 17.7158 72.6197C17.4674 72.2746 17.3639 71.8463 17.4275 71.4273C17.4911 71.0082 17.7167 70.632 18.0558 70.3797L27.7458 63.1497C28.1377 62.8618 28.6232 62.7317 29.1052 62.7855C29.5873 62.8393 30.0303 63.0729 30.3457 63.4397L35.2258 69.1397C35.3824 69.3269 35.5872 69.4678 35.8181 69.5471C36.049 69.6264 36.2971 69.6412 36.5358 69.5897C37.2758 69.4364 37.6691 68.9897 37.7158 68.2497C37.8224 66.7364 37.8824 65.2731 37.8958 63.8597C37.8974 63.4767 38.0447 63.1083 38.3079 62.8283C38.5712 62.5484 38.9312 62.3774 39.3158 62.3497L51.3558 61.5397C51.4851 61.5315 51.6147 61.5497 51.7365 61.5934C51.8583 61.637 51.9696 61.7051 52.0635 61.7934C52.1574 61.8817 52.2319 61.9882 52.2822 62.1063C52.3324 62.2244 52.3575 62.3515 52.3558 62.4797V77.3397C52.3558 78.3064 52.8224 78.9097 53.7558 79.1497L55.8158 79.6697Z" fill="#CCD3E3"/>
<path d="M63.2892 118L55.7792 117.94C55.7199 117.939 55.6617 117.956 55.6119 117.988C55.5621 118.02 55.5229 118.066 55.4992 118.12L53.4192 122.77C53.3886 122.836 53.3353 122.888 53.2691 122.917C53.2029 122.947 53.1284 122.951 53.0592 122.93L52.2892 122.72C52.2481 122.708 52.21 122.687 52.1776 122.66C52.1451 122.632 52.119 122.597 52.1011 122.558C52.0831 122.519 52.0736 122.477 52.0733 122.434C52.0729 122.392 52.0818 122.349 52.0992 122.31L59.9692 104.18C59.9925 104.127 60.031 104.081 60.0798 104.049C60.1287 104.017 60.1858 104 60.2442 104C60.3026 104 60.3597 104.017 60.4085 104.049C60.4574 104.081 60.4958 104.127 60.5192 104.18L68.4592 122.41C68.4789 122.455 68.4872 122.505 68.4833 122.554C68.4793 122.603 68.4633 122.651 68.4366 122.692C68.4099 122.734 68.3733 122.768 68.3302 122.792C68.287 122.816 68.2386 122.829 68.1892 122.83L65.7992 122.8C65.7417 122.799 65.6856 122.782 65.6377 122.75C65.5899 122.718 65.5522 122.673 65.5292 122.62L63.5592 118.18C63.5362 118.127 63.4985 118.082 63.4506 118.05C63.4027 118.019 63.3467 118.001 63.2892 118ZM56.0392 116.42C56.0178 116.47 56.009 116.524 56.0137 116.579C56.0184 116.633 56.0364 116.685 56.0661 116.73C56.0958 116.776 56.1362 116.813 56.1838 116.84C56.2315 116.866 56.2849 116.88 56.3392 116.88L62.5792 116.95C62.6344 116.951 62.6889 116.939 62.7379 116.913C62.7869 116.888 62.8287 116.85 62.8596 116.805C62.8904 116.759 62.9092 116.706 62.9144 116.651C62.9196 116.596 62.9109 116.541 62.8892 116.49L59.8492 108.89C59.8252 108.829 59.7838 108.777 59.7301 108.74C59.6764 108.703 59.6129 108.682 59.5475 108.681C59.4822 108.68 59.418 108.698 59.3631 108.734C59.3082 108.769 59.2651 108.82 59.2392 108.88L56.0392 116.42Z" fill="#AE8945"/>
<path d="M32.26 121.15L32.21 122.55C32.2074 122.628 32.1747 122.701 32.1187 122.756C32.0627 122.81 31.9879 122.84 31.91 122.84L21.33 122.81C21.2504 122.81 21.1741 122.778 21.1179 122.722C21.0616 122.666 21.03 122.589 21.03 122.51L21 104.97C21 104.89 21.0316 104.814 21.0879 104.758C21.1441 104.702 21.2204 104.67 21.3 104.67L31.79 104.75C31.833 104.75 31.8756 104.758 31.9149 104.776C31.9541 104.793 31.9892 104.819 32.0176 104.851C32.0461 104.884 32.0673 104.922 32.0798 104.963C32.0922 105.004 32.0957 105.047 32.09 105.09L31.9 106.24C31.89 106.316 31.8513 106.385 31.7917 106.434C31.7322 106.482 31.6565 106.506 31.58 106.5L24.49 105.88C24.4498 105.877 24.4094 105.883 24.3714 105.896C24.3333 105.909 24.2983 105.93 24.2684 105.957C24.2385 105.984 24.2144 106.017 24.1975 106.053C24.1806 106.09 24.1713 106.13 24.17 106.17L24.1 112.3C24.0987 112.34 24.1054 112.38 24.1199 112.418C24.1344 112.455 24.1563 112.49 24.1843 112.519C24.2123 112.547 24.2458 112.57 24.2828 112.586C24.3199 112.602 24.3598 112.61 24.4 112.61L29.64 112.74C29.7178 112.743 29.7916 112.775 29.8457 112.831C29.8998 112.887 29.9301 112.962 29.93 113.04L29.92 113.75C29.92 113.829 29.8884 113.906 29.8321 113.962C29.7759 114.018 29.6996 114.05 29.62 114.05L24.42 114.09C24.3404 114.09 24.2641 114.122 24.2079 114.178C24.1516 114.234 24.12 114.31 24.12 114.39L24.09 121.2C24.0898 121.242 24.0984 121.284 24.1153 121.322C24.1323 121.361 24.1571 121.395 24.1882 121.423C24.2193 121.452 24.256 121.473 24.296 121.486C24.3359 121.499 24.3782 121.504 24.42 121.5L31.93 120.84C31.9727 120.836 32.0158 120.84 32.0565 120.854C32.0971 120.868 32.1344 120.89 32.1656 120.92C32.1969 120.949 32.2215 120.985 32.2378 121.025C32.2541 121.064 32.2617 121.107 32.26 121.15Z" fill="#AE8945"/>
<path d="M44.0294 113.211L50.6694 122.391C50.701 122.435 50.7198 122.486 50.7237 122.54C50.7276 122.594 50.7165 122.647 50.6916 122.695C50.6667 122.743 50.6289 122.783 50.5826 122.81C50.5363 122.838 50.4833 122.852 50.4294 122.851L47.6794 122.821C47.6318 122.821 47.585 122.809 47.5432 122.786C47.5013 122.763 47.4657 122.731 47.4394 122.691L42.6294 115.281C42.6045 115.241 42.5701 115.207 42.5292 115.183C42.4883 115.159 42.4421 115.146 42.3947 115.144C42.3473 115.142 42.3002 115.151 42.2574 115.172C42.2147 115.192 42.1776 115.223 42.1494 115.261L36.4194 122.941C36.3824 122.991 36.3303 123.027 36.2709 123.045C36.2115 123.063 36.1479 123.062 36.0894 123.041L35.3694 122.781C35.3265 122.765 35.2879 122.74 35.2568 122.706C35.2256 122.673 35.2028 122.633 35.1901 122.589C35.1774 122.545 35.1753 122.499 35.1839 122.454C35.1924 122.409 35.2115 122.367 35.2394 122.331L41.5394 114.201C41.5767 114.153 41.5977 114.094 41.5995 114.033C41.6013 113.972 41.5838 113.911 41.5494 113.861L35.5294 105.131C35.4972 105.087 35.4782 105.034 35.4747 104.979C35.4711 104.925 35.4831 104.87 35.5093 104.822C35.5354 104.774 35.5747 104.734 35.6225 104.707C35.6703 104.681 35.7247 104.668 35.7794 104.671L38.6194 104.771C38.6679 104.772 38.7153 104.786 38.7573 104.81C38.7992 104.835 38.8343 104.869 38.8594 104.911L42.9494 111.711C42.9734 111.752 43.0072 111.786 43.0476 111.811C43.0881 111.836 43.134 111.851 43.1814 111.854C43.2288 111.857 43.2762 111.848 43.3195 111.828C43.3627 111.809 43.4005 111.779 43.4294 111.741L48.7394 104.761C48.7851 104.701 48.8525 104.661 48.9272 104.65C49.0019 104.638 49.078 104.657 49.1394 104.701L49.7894 105.151C49.8221 105.174 49.8497 105.203 49.8706 105.237C49.8914 105.271 49.9051 105.308 49.9107 105.348C49.9164 105.387 49.9138 105.427 49.9033 105.466C49.8927 105.504 49.8744 105.54 49.8494 105.571L44.0394 112.861C43.9998 112.91 43.9774 112.971 43.9756 113.034C43.9738 113.097 43.9927 113.159 44.0294 113.211Z" fill="#AE8945"/>
<path d="M73.0699 109.161L72.2199 122.401C72.1933 122.734 72.0132 122.907 71.6799 122.921L71.3699 122.931C71.1432 122.937 71.0366 122.827 71.0499 122.601L72.0199 105.391C72.0466 104.944 72.2833 104.707 72.7299 104.681C73.2966 104.654 73.8432 104.727 74.3699 104.901C74.7299 105.021 74.9866 105.254 75.1399 105.601L80.4799 117.561C80.5104 117.627 80.559 117.682 80.6202 117.721C80.6813 117.761 80.7524 117.781 80.8249 117.781C80.8975 117.781 80.9686 117.761 81.0297 117.721C81.0908 117.682 81.1395 117.627 81.1699 117.561C82.8633 113.874 84.5399 110.011 86.1999 105.971C86.7699 104.571 88.0799 104.371 89.3599 104.791C89.7199 104.911 89.9033 105.164 89.9099 105.551C89.9566 110.897 90.2666 116.334 90.8399 121.861C90.9133 122.594 90.5833 122.951 89.8499 122.931L88.9899 122.901C88.2566 122.887 87.8733 122.514 87.8399 121.781L87.2399 109.571C87.1533 107.737 86.7766 107.677 86.1099 109.391C84.3299 113.957 82.4333 118.301 80.4199 122.421C80.383 122.496 80.325 122.56 80.2529 122.604C80.1809 122.648 80.0978 122.67 80.0135 122.668C79.9292 122.665 79.8473 122.639 79.7776 122.592C79.7078 122.545 79.6531 122.478 79.6199 122.401L73.6699 109.051C73.3233 108.277 73.1233 108.314 73.0699 109.161Z" fill="#AE8945"/>
<path d="M99.6396 121.48C101.24 121.127 103.306 120.95 105.84 120.95C106.16 120.95 106.39 121.094 106.53 121.38C106.696 121.7 106.63 122.057 106.33 122.45C106.246 122.562 106.137 122.653 106.012 122.715C105.887 122.778 105.749 122.81 105.61 122.81L96.0596 122.85C95.8607 122.85 95.6699 122.771 95.5292 122.631C95.3886 122.49 95.3096 122.299 95.3096 122.1L95.3296 105.4C95.3322 105.201 95.4135 105.01 95.5557 104.869C95.6979 104.729 95.8897 104.65 96.0896 104.65L105.6 104.74C106.22 104.747 106.456 105.05 106.31 105.65L106.19 106.16C106.154 106.3 106.065 106.421 105.941 106.496C105.818 106.57 105.67 106.594 105.53 106.56C103.776 106.147 101.893 105.907 99.8796 105.84C98.8462 105.807 98.3329 106.307 98.3396 107.34V111.38C98.3396 112.214 98.7562 112.637 99.5896 112.65L103.65 112.71C103.97 112.717 104.123 112.877 104.11 113.19L104.08 113.62C104.066 113.914 103.913 114.064 103.62 114.07L99.3496 114.14C98.7029 114.154 98.3762 114.487 98.3696 115.14L98.3196 120.42C98.3129 121.327 98.7529 121.68 99.6396 121.48Z" fill="#AE8945"/>
<path d="M49.6299 140.841L42.1099 141.061C42.0524 141.062 41.9964 141.079 41.9485 141.111C41.9006 141.143 41.8629 141.188 41.8399 141.241L39.7199 145.871C39.6872 145.939 39.6299 145.992 39.5594 146.02C39.4889 146.048 39.4105 146.048 39.3399 146.021L38.5999 145.751C38.5619 145.736 38.5271 145.714 38.4978 145.686C38.4684 145.658 38.4451 145.624 38.4292 145.587C38.4133 145.55 38.4051 145.509 38.4053 145.469C38.4054 145.428 38.4138 145.388 38.4299 145.351L46.3699 127.361C46.3945 127.31 46.4329 127.267 46.4806 127.237C46.5284 127.207 46.5836 127.191 46.6399 127.191C46.6963 127.191 46.7515 127.207 46.7993 127.237C46.847 127.267 46.8854 127.31 46.9099 127.361L54.8899 145.451C54.9104 145.497 54.9187 145.549 54.9138 145.6C54.9089 145.651 54.8911 145.699 54.862 145.741C54.833 145.784 54.7936 145.818 54.7478 145.84C54.7019 145.863 54.651 145.873 54.5999 145.871L52.1299 145.771C52.0741 145.768 52.0202 145.749 51.9743 145.718C51.9284 145.686 51.8922 145.642 51.8699 145.591L49.9099 141.021C49.8862 140.966 49.847 140.92 49.7972 140.888C49.7474 140.856 49.6892 140.84 49.6299 140.841ZM42.5199 139.461C42.5003 139.511 42.4933 139.565 42.4995 139.619C42.5057 139.672 42.525 139.723 42.5556 139.768C42.5862 139.812 42.6272 139.848 42.675 139.873C42.7228 139.898 42.776 139.911 42.8299 139.911H48.9499C49.0039 139.911 49.057 139.898 49.1049 139.873C49.1527 139.848 49.1937 139.812 49.2243 139.768C49.2549 139.723 49.2741 139.672 49.2803 139.619C49.2865 139.565 49.2795 139.511 49.2599 139.461L46.1999 131.721C46.1767 131.657 46.1345 131.602 46.0791 131.563C46.0236 131.525 45.9576 131.504 45.8899 131.504C45.8223 131.504 45.7562 131.525 45.7008 131.563C45.6453 131.602 45.6031 131.657 45.5799 131.721L42.5199 139.461Z" fill="#AE8945"/>
<path d="M79.6369 145.11C78.6038 144.528 77.7032 143.734 76.9865 142.774C76.2699 141.814 75.7512 140.707 75.4601 139.516C75.169 138.324 75.1112 137.072 75.29 135.83C75.4688 134.588 75.8807 133.381 76.5021 132.279C77.1236 131.176 77.9425 130.198 78.912 129.402C79.8815 128.606 80.9826 128.007 82.1526 127.638C83.3226 127.27 84.5384 127.14 85.7307 127.256C86.923 127.372 88.0684 127.731 89.1015 128.313C90.1346 128.895 91.0353 129.689 91.7519 130.649C92.4686 131.608 92.9873 132.716 93.2784 133.907C93.5695 135.099 93.6273 136.351 93.4485 137.593C93.2697 138.835 92.8578 140.041 92.2363 141.144C91.6148 142.247 90.796 143.225 89.8265 144.021C88.857 144.817 87.7558 145.416 86.5859 145.785C85.4159 146.153 84.2 146.283 83.0077 146.167C81.8154 146.051 80.67 145.692 79.6369 145.11ZM83.983 145.332C84.7714 145.369 85.5623 145.189 86.3106 144.801C87.0588 144.413 87.7498 143.826 88.3441 143.072C88.9383 142.318 89.4242 141.413 89.7739 140.408C90.1237 139.403 90.3305 138.318 90.3825 137.215C90.4876 134.987 89.9559 132.82 88.9043 131.191C87.8528 129.563 86.3676 128.606 84.7754 128.531C83.9871 128.494 83.1962 128.674 82.4479 129.062C81.6996 129.45 81.0086 130.037 80.4144 130.791C79.8201 131.545 79.3343 132.45 78.9845 133.455C78.6347 134.46 78.4279 135.545 78.3759 136.648C78.2709 138.876 78.8026 141.043 79.8541 142.671C80.9056 144.3 82.3908 145.257 83.983 145.332Z" fill="#AE8945"/>
<path d="M104.65 142.99C106.52 139.96 101.18 137.31 99.0396 136.23C96.8296 135.1 95.4996 132.34 96.6996 130.02C98.4696 126.6 103.27 126.92 106.3 128.19C106.846 128.416 106.973 128.786 106.68 129.3L106.51 129.6C106.456 129.697 106.371 129.773 106.268 129.816C106.164 129.86 106.049 129.868 105.94 129.84C104.36 129.393 102.816 129.01 101.31 128.69C99.6762 128.35 98.7996 128.976 98.6796 130.57C98.4796 133.4 103.08 135.55 105.17 136.85C108.39 138.86 108.93 143.1 105.45 145.1C102.99 146.506 99.9829 146.54 96.4296 145.2C96.353 145.171 96.2834 145.126 96.2251 145.068C96.1668 145.011 96.1212 144.941 96.0911 144.865C96.061 144.789 96.0471 144.707 96.0502 144.626C96.0534 144.544 96.0736 144.463 96.1096 144.39L96.2396 144.11C96.2691 144.047 96.3111 143.992 96.3631 143.947C96.415 143.901 96.4758 143.867 96.5415 143.847C96.6072 143.826 96.6765 143.819 96.745 143.827C96.8135 143.834 96.8797 143.856 96.9396 143.89C100.473 145.903 103.043 145.603 104.65 142.99Z" fill="#AE8945"/>
<path d="M21.1 128.2C21.1 128.078 21.1485 127.961 21.2348 127.875C21.321 127.789 21.438 127.74 21.56 127.74L27.55 127.76C28.7811 127.765 29.9994 127.986 31.1352 128.412C32.271 128.838 33.3021 129.461 34.1695 130.244C35.0369 131.026 35.7236 131.955 36.1904 132.975C36.6572 133.995 36.895 135.088 36.89 136.19V137.53C36.8801 139.754 35.8844 141.883 34.1218 143.449C32.3592 145.015 29.9738 145.889 27.49 145.88L21.5 145.86C21.378 145.86 21.261 145.812 21.1748 145.725C21.0885 145.639 21.04 145.522 21.04 145.4L21.1 128.2ZM24.05 129.89L24.01 143.71C24.0087 143.855 24.0359 143.998 24.0899 144.132C24.144 144.266 24.2239 144.388 24.3251 144.491C24.4264 144.594 24.5469 144.676 24.6798 144.733C24.8128 144.789 24.9556 144.819 25.1 144.82H26.59C28.5181 144.828 30.3704 144.059 31.7394 142.683C33.1084 141.306 33.882 139.435 33.89 137.48V136.2C33.894 135.232 33.7099 134.273 33.3482 133.378C32.9865 132.482 32.4543 131.667 31.782 130.98C31.1097 130.293 30.3105 129.747 29.4299 129.373C28.5494 128.999 27.6048 128.804 26.65 128.8H25.16C25.0156 128.799 24.8723 128.826 24.7383 128.88C24.6043 128.934 24.4823 129.014 24.3793 129.115C24.2762 129.217 24.1941 129.337 24.1376 129.47C24.0811 129.603 24.0513 129.746 24.05 129.89Z" fill="#AE8945"/>
<path d="M57.6401 128.401C57.6401 128.218 57.7128 128.042 57.8422 127.913C57.9716 127.784 58.1471 127.711 58.3301 127.711L63.8301 127.731C65.0875 127.735 66.3317 127.962 67.4918 128.398C68.6518 128.834 69.705 129.471 70.5909 130.273C71.4769 131.074 72.1784 132.024 72.6552 133.069C73.1321 134.114 73.375 135.232 73.3701 136.361V137.341C73.3602 139.618 72.3435 141.798 70.5433 143.401C68.7432 145.004 66.307 145.9 63.7701 145.891L58.2701 145.871C58.0871 145.871 57.9116 145.798 57.7822 145.669C57.6528 145.539 57.5801 145.364 57.5801 145.181L57.6401 128.401ZM60.2601 130.041L60.2201 143.601C60.2188 143.759 60.2485 143.915 60.3076 144.061C60.3667 144.207 60.454 144.34 60.5645 144.452C60.675 144.565 60.8065 144.654 60.9516 144.716C61.0967 144.777 61.2525 144.81 61.4101 144.811H63.0901C64.033 144.815 64.9675 144.636 65.8401 144.284C66.7128 143.933 67.5065 143.415 68.176 142.762C68.8455 142.108 69.3777 141.331 69.7422 140.474C70.1066 139.618 70.2962 138.699 70.3001 137.771V135.951C70.308 134.076 69.5591 132.274 68.2182 130.943C66.8774 129.611 65.0543 128.859 63.1501 128.851H61.4701C61.3125 128.85 61.1562 128.879 61.0101 128.938C60.864 128.998 60.731 129.085 60.6186 129.195C60.5062 129.306 60.4168 129.437 60.3552 129.582C60.2937 129.728 60.2614 129.883 60.2601 130.041Z" fill="#AE8945"/>
</svg>
