<svg width="194" height="194" viewBox="0 0 194 194" fill="none" xmlns="http://www.w3.org/2000/svg">
<path d="M187.605 99.4575L192.46 104.313L193.209 103.565L188.353 98.7093L187.605 99.4575Z" fill="#FF9900"/>
<path d="M188.355 100.176L193.21 95.3209L192.462 94.5727L187.607 99.428L188.355 100.176Z" fill="#FF9900"/>
<g style="mix-blend-mode:screen">
<g style="mix-blend-mode:screen">
<path d="M27.0784 83.4521C27.0485 83.4452 27.0225 83.4272 27.0055 83.4018C26.9885 83.3763 26.9819 83.3453 26.9871 83.3151V83.2466C26.9891 83.231 26.9943 83.2159 27.0024 83.2024C27.0106 83.1889 27.0214 83.1772 27.0343 83.1681C27.0472 83.159 27.0618 83.1526 27.0772 83.1495C27.0926 83.1463 27.1086 83.1463 27.124 83.1496C27.1549 83.1552 27.1824 83.1727 27.2005 83.1983C27.2186 83.2239 27.226 83.2556 27.221 83.2865V83.3607C27.2193 83.3769 27.214 83.3925 27.2054 83.4064C27.1969 83.4202 27.1854 83.4319 27.1717 83.4407C27.158 83.4495 27.1425 83.455 27.1263 83.457C27.1102 83.459 27.0938 83.4573 27.0784 83.4521Z" fill="white"/>
</g>
<g style="mix-blend-mode:screen">
<path d="M26.9933 112.817C26.9668 112.817 26.9413 112.808 26.9207 112.791C26.9 112.775 26.8854 112.752 26.8792 112.726V112.652C26.874 112.622 26.8806 112.591 26.8975 112.565C26.9145 112.54 26.9406 112.522 26.9705 112.515C26.9855 112.512 27.001 112.511 27.0161 112.514C27.0312 112.517 27.0456 112.523 27.0584 112.531C27.0712 112.54 27.0821 112.551 27.0905 112.564C27.0989 112.577 27.1047 112.591 27.1074 112.606V112.68C27.1107 112.695 27.111 112.711 27.1081 112.726C27.1053 112.741 27.0994 112.756 27.0909 112.768C27.0824 112.781 27.0714 112.792 27.0585 112.8C27.0457 112.809 27.0312 112.815 27.0161 112.817H26.9933Z" fill="white"/>
</g>
</g>
<path d="M60.999 89.265H64.0994V108.197H60.999V89.265ZM62.5634 105.256H68.1497C69.0129 105.322 69.8716 105.08 70.5731 104.573C70.8401 104.335 71.0498 104.039 71.1867 103.708C71.3236 103.377 71.3841 103.019 71.3639 102.662V102.628C71.379 102.126 71.2717 101.628 71.051 101.177C70.8405 100.774 70.5024 100.452 70.0896 100.261C69.582 100.034 69.0297 99.9255 68.474 99.9427H62.5634V97.0244H68.474C69.1854 97.0698 69.8878 96.8465 70.4423 96.3986C70.6772 96.1625 70.8591 95.8791 70.9758 95.5671C71.0926 95.2552 71.1415 94.9219 71.1193 94.5896C71.1416 94.258 71.0887 93.9256 70.9646 93.6173C70.8405 93.309 70.6483 93.0327 70.4025 92.809C69.7909 92.3679 69.0443 92.1546 68.2919 92.206H62.5634V89.265H68.5935C69.6619 89.2333 70.7237 89.4434 71.6996 89.8794C72.5034 90.2559 73.1711 90.8719 73.611 91.6429C74.0624 92.4888 74.286 93.4377 74.2595 94.3962C74.2663 95.0509 74.1242 95.6987 73.8442 96.2905C73.5691 96.8608 73.1518 97.3506 72.6324 97.7127C72.0478 98.1189 71.3788 98.3873 70.6756 98.4977C71.4153 98.5892 72.1219 98.8586 72.7349 99.2828C73.2978 99.6899 73.7496 100.232 74.0489 100.859C74.3581 101.531 74.5136 102.263 74.5041 103.003V103.043C74.5273 104.002 74.2915 104.949 73.8214 105.785C73.3586 106.565 72.6731 107.189 71.8531 107.577C70.9009 108.012 69.8619 108.224 68.8153 108.197H62.5577L62.5634 105.256Z" fill="#FF9900"/>
<path d="M82.8499 96.9619L87.3611 89.265H90.7345L84.4769 99.7323L79.5277 108.197H76.1543L82.8499 96.9619ZM82.8897 100.165L82.5143 99.5275L76.3022 89.2878H79.6756L84.0787 96.7343L84.5452 97.5023L91.019 108.22H87.6455L82.8897 100.165Z" fill="#FF9900"/>
<path d="M100.656 87.0237H103.5V112.464H100.656V87.0237ZM102.061 87.0237H105.895V89.8112H102.061V87.0237ZM102.061 109.659H105.895V112.447H102.061V109.659Z" fill="#FF9900"/>
<path d="M81.0059 126H78.5391V121.717H81.0059V122.461H79.4473V123.401H80.8975V124.146H79.4473V125.25H81.0059V126ZM85.79 123.853C85.79 124.356 85.7002 124.779 85.5205 125.121C85.3428 125.461 85.0811 125.71 84.7354 125.868L85.7666 127.02H84.6035L83.8184 126.059H83.751C83.0947 126.059 82.5908 125.868 82.2393 125.487C81.8877 125.106 81.7119 124.56 81.7119 123.847C81.7119 123.134 81.8877 122.59 82.2393 122.215C82.5928 121.838 83.0986 121.649 83.7568 121.649C84.415 121.649 84.918 121.839 85.2656 122.218C85.6152 122.597 85.79 123.142 85.79 123.853ZM82.6641 123.853C82.6641 124.331 82.7549 124.691 82.9365 124.934C83.1182 125.176 83.3896 125.297 83.751 125.297C84.4756 125.297 84.8379 124.815 84.8379 123.853C84.8379 122.888 84.4775 122.405 83.7568 122.405C83.3955 122.405 83.123 122.527 82.9395 122.771C82.7559 123.014 82.6641 123.374 82.6641 123.853ZM90.1641 121.717V124.488C90.1641 124.805 90.0928 125.082 89.9502 125.32C89.8096 125.559 89.6055 125.741 89.3379 125.868C89.0703 125.995 88.7539 126.059 88.3887 126.059C87.8379 126.059 87.4102 125.918 87.1055 125.637C86.8008 125.354 86.6484 124.967 86.6484 124.477V121.717H87.5537V124.339C87.5537 124.669 87.6201 124.911 87.7529 125.065C87.8857 125.22 88.1055 125.297 88.4121 125.297C88.709 125.297 88.9238 125.22 89.0566 125.065C89.1914 124.909 89.2588 124.665 89.2588 124.333V121.717H90.1641ZM91.2129 126V121.717H92.1211V126H91.2129ZM94.1074 123.732H94.4062C94.6855 123.732 94.8945 123.678 95.0332 123.568C95.1719 123.457 95.2412 123.296 95.2412 123.085C95.2412 122.872 95.1826 122.715 95.0654 122.613C94.9502 122.512 94.7686 122.461 94.5205 122.461H94.1074V123.732ZM96.1582 123.053C96.1582 123.514 96.0137 123.866 95.7246 124.11C95.4375 124.354 95.0283 124.477 94.4971 124.477H94.1074V126H93.1992V121.717H94.5674C95.0869 121.717 95.4814 121.829 95.751 122.054C96.0225 122.276 96.1582 122.609 96.1582 123.053ZM98.7803 126L97.749 122.64H97.7227C97.7598 123.323 97.7783 123.779 97.7783 124.008V126H96.9668V121.717H98.2031L99.2168 124.992H99.2344L100.31 121.717H101.546V126H100.699V123.973C100.699 123.877 100.7 123.767 100.702 123.642C100.706 123.517 100.72 123.185 100.743 122.646H100.717L99.6123 126H98.7803ZM105.094 126H102.627V121.717H105.094V122.461H103.535V123.401H104.985V124.146H103.535V125.25H105.094V126ZM109.79 126H108.636L106.772 122.76H106.746C106.783 123.332 106.802 123.74 106.802 123.984V126H105.99V121.717H107.136L108.996 124.925H109.017C108.987 124.368 108.973 123.975 108.973 123.744V121.717H109.79V126ZM112.523 126H111.615V122.473H110.452V121.717H113.687V122.473H112.523V126ZM119.792 123.853C119.792 124.562 119.616 125.106 119.265 125.487C118.913 125.868 118.409 126.059 117.753 126.059C117.097 126.059 116.593 125.868 116.241 125.487C115.89 125.106 115.714 124.56 115.714 123.847C115.714 123.134 115.89 122.59 116.241 122.215C116.595 121.838 117.101 121.649 117.759 121.649C118.417 121.649 118.92 121.839 119.268 122.218C119.617 122.597 119.792 123.142 119.792 123.853ZM116.666 123.853C116.666 124.331 116.757 124.691 116.938 124.934C117.12 125.176 117.392 125.297 117.753 125.297C118.478 125.297 118.84 124.815 118.84 123.853C118.84 122.888 118.479 122.405 117.759 122.405C117.397 122.405 117.125 122.527 116.941 122.771C116.758 123.014 116.666 123.374 116.666 123.853ZM121.588 123.732H121.887C122.166 123.732 122.375 123.678 122.514 123.568C122.652 123.457 122.722 123.296 122.722 123.085C122.722 122.872 122.663 122.715 122.546 122.613C122.431 122.512 122.249 122.461 122.001 122.461H121.588V123.732ZM123.639 123.053C123.639 123.514 123.494 123.866 123.205 124.11C122.918 124.354 122.509 124.477 121.978 124.477H121.588V126H120.68V121.717H122.048C122.567 121.717 122.962 121.829 123.231 122.054C123.503 122.276 123.639 122.609 123.639 123.053ZM126.914 126H124.447V121.717H126.914V122.461H125.355V123.401H126.806V124.146H125.355V125.25H126.914V126ZM128.719 123.618H129.012C129.299 123.618 129.511 123.57 129.647 123.475C129.784 123.379 129.853 123.229 129.853 123.023C129.853 122.82 129.782 122.676 129.642 122.59C129.503 122.504 129.287 122.461 128.994 122.461H128.719V123.618ZM128.719 124.356V126H127.811V121.717H129.059C129.641 121.717 130.071 121.823 130.351 122.036C130.63 122.247 130.77 122.568 130.77 123C130.77 123.252 130.7 123.477 130.562 123.674C130.423 123.869 130.227 124.022 129.973 124.134C130.617 125.097 131.037 125.719 131.232 126H130.225L129.202 124.356H128.719ZM134.394 126L134.083 124.98H132.521L132.211 126H131.232L132.744 121.699H133.854L135.372 126H134.394ZM133.866 124.219C133.579 123.295 133.417 122.772 133.38 122.651C133.345 122.53 133.319 122.435 133.304 122.364C133.239 122.614 133.055 123.232 132.75 124.219H133.866ZM137.566 126H136.658V122.473H135.495V121.717H138.729V122.473H137.566V126ZM139.389 126V121.717H140.297V126H139.389ZM145.263 123.853C145.263 124.562 145.087 125.106 144.735 125.487C144.384 125.868 143.88 126.059 143.224 126.059C142.567 126.059 142.063 125.868 141.712 125.487C141.36 125.106 141.185 124.56 141.185 123.847C141.185 123.134 141.36 122.59 141.712 122.215C142.065 121.838 142.571 121.649 143.229 121.649C143.888 121.649 144.391 121.839 144.738 122.218C145.088 122.597 145.263 123.142 145.263 123.853ZM142.137 123.853C142.137 124.331 142.228 124.691 142.409 124.934C142.591 125.176 142.862 125.297 143.224 125.297C143.948 125.297 144.311 124.815 144.311 123.853C144.311 122.888 143.95 122.405 143.229 122.405C142.868 122.405 142.596 122.527 142.412 122.771C142.229 123.014 142.137 123.374 142.137 123.853ZM149.95 126H148.796L146.933 122.76H146.906C146.943 123.332 146.962 123.74 146.962 123.984V126H146.15V121.717H147.296L149.156 124.925H149.177C149.147 124.368 149.133 123.975 149.133 123.744V121.717H149.95V126Z" fill="white"/>
<g opacity="0.7">
<path d="M78.2598 130.809H78.7397V131.279H78.2598V130.809ZM78.2598 132.069H78.7397V135.439H78.2598V132.069Z" fill="white"/>
<path d="M79.6299 132.069H80.0898V135.439H79.6299V132.069ZM81.5399 133.229C81.5557 133.018 81.4873 132.809 81.3499 132.649C81.2792 132.579 81.1945 132.525 81.1014 132.491C81.0083 132.456 80.909 132.442 80.8099 132.449C80.7125 132.443 80.6148 132.457 80.5234 132.492C80.4321 132.526 80.3491 132.58 80.2799 132.649C80.1465 132.804 80.0783 133.005 80.0898 133.209L80.0299 132.649C80.1059 132.452 80.2425 132.284 80.4199 132.169C80.5959 132.067 80.7965 132.015 80.9999 132.019C81.1404 132.009 81.2812 132.032 81.4114 132.086C81.5415 132.139 81.6574 132.223 81.7499 132.329C81.9388 132.589 82.0308 132.908 82.0099 133.229V135.439H81.5399V133.229Z" fill="white"/>
<path d="M83.6196 135.489L83.3496 135.349C83.1703 135.255 83.0239 135.108 82.9297 134.929C82.8275 134.717 82.7793 134.484 82.7897 134.249V133.249C82.7785 133.014 82.8267 132.78 82.9297 132.569C83.0176 132.383 83.1654 132.231 83.3496 132.139C83.5593 132.042 83.7885 131.994 84.0196 131.999C84.207 131.994 84.3938 132.024 84.5697 132.089C84.7216 132.152 84.8554 132.252 84.9596 132.379C85.0591 132.511 85.1245 132.666 85.1497 132.829L84.6897 132.969C84.6579 132.817 84.5812 132.677 84.4696 132.569C84.3437 132.472 84.1882 132.423 84.0297 132.429C83.9238 132.423 83.8177 132.438 83.718 132.474C83.6183 132.51 83.5269 132.566 83.4496 132.639C83.3103 132.81 83.2423 133.029 83.2596 133.249V134.249C83.2439 134.466 83.3118 134.681 83.4496 134.849C83.6097 134.988 83.8177 135.06 84.0297 135.049C84.1899 135.056 84.348 135.011 84.4796 134.919C84.5971 134.82 84.6809 134.687 84.7196 134.539L85.1497 134.679C85.1229 134.839 85.0577 134.99 84.9596 135.119C84.8601 135.244 84.7289 135.341 84.5796 135.399C84.3998 135.462 84.2102 135.492 84.0196 135.489H83.6196Z" fill="white"/>
<path d="M85.8604 130.809H86.3303V131.279H85.8604V130.809ZM85.8604 132.069H86.3303V135.439H85.8604V132.069Z" fill="white"/>
<path d="M87.6498 135.349C87.4939 135.256 87.3714 135.116 87.2999 134.949C87.2245 134.744 87.1872 134.527 87.1899 134.309V133.229C87.1805 133.004 87.218 132.779 87.2999 132.569C87.3676 132.4 87.4864 132.257 87.6398 132.159C87.7979 132.059 87.983 132.01 88.1699 132.019C88.37 132.016 88.567 132.068 88.7398 132.169C88.9098 132.282 89.0477 132.437 89.1398 132.619L89.0699 133.179C89.0722 133.043 89.0412 132.909 88.9798 132.789C88.9284 132.677 88.8448 132.583 88.7398 132.519C88.6276 132.453 88.4999 132.419 88.3698 132.419C88.2714 132.412 88.1727 132.427 88.081 132.464C87.9893 132.5 87.9068 132.556 87.8398 132.629C87.7094 132.801 87.6424 133.013 87.6498 133.229V134.309C87.6417 134.516 87.7092 134.718 87.8398 134.879C87.9581 134.991 88.1096 135.063 88.2717 135.083C88.4338 135.102 88.5979 135.07 88.7398 134.989C88.8448 134.925 88.9284 134.831 88.9798 134.719C89.0401 134.598 89.071 134.464 89.0699 134.329V134.909C89.0087 135.092 88.8847 135.248 88.7198 135.349C88.5481 135.451 88.3496 135.5 88.1498 135.489C87.9738 135.487 87.8013 135.439 87.6498 135.349ZM89.0699 130.719H89.5299V135.439H89.0699V130.719Z" fill="white"/>
<path d="M90.4795 130.809H90.9495V131.279H90.4795V130.809ZM90.4795 132.069H90.9495V135.439H90.4795V132.069Z" fill="white"/>
<path d="M92.2602 135.349C92.1042 135.256 91.9817 135.116 91.9102 134.949C91.8348 134.744 91.7976 134.527 91.8002 134.309V133.229C91.7909 133.004 91.8283 132.779 91.9102 132.569C91.9779 132.4 92.0968 132.257 92.2502 132.159C92.4083 132.059 92.5934 132.01 92.7802 132.019C92.9803 132.016 93.1773 132.068 93.3502 132.169C93.5202 132.282 93.658 132.437 93.7502 132.619L93.6802 133.179C93.6825 133.043 93.6515 132.909 93.5902 132.789C93.5387 132.677 93.4552 132.583 93.3502 132.519C93.2379 132.453 93.1102 132.419 92.9802 132.419C92.8817 132.412 92.7831 132.427 92.6913 132.464C92.5996 132.5 92.5172 132.556 92.4501 132.629C92.3197 132.801 92.2527 133.013 92.2602 133.229V134.309C92.252 134.516 92.3195 134.718 92.4501 134.879C92.5684 134.991 92.7199 135.063 92.882 135.083C93.0441 135.102 93.2082 135.07 93.3502 134.989C93.4552 134.925 93.5387 134.831 93.5902 134.719C93.6504 134.598 93.6813 134.464 93.6802 134.329V134.909C93.6191 135.092 93.495 135.248 93.3301 135.349C93.1584 135.451 92.9599 135.5 92.7602 135.489C92.5841 135.487 92.4116 135.439 92.2602 135.349ZM93.6802 130.719H94.1502V135.439H93.6802V130.719Z" fill="white"/>
<path d="M95.4803 134.329C95.4753 134.425 95.4896 134.522 95.5222 134.613C95.5548 134.704 95.6052 134.788 95.6704 134.859C95.7385 134.926 95.8201 134.977 95.9098 135.01C95.9995 135.043 96.0952 135.056 96.1904 135.049C96.3791 135.061 96.5651 135 96.7103 134.879C96.7739 134.809 96.8227 134.727 96.8536 134.637C96.8846 134.548 96.897 134.453 96.8904 134.359V134.929C96.8195 135.099 96.6971 135.242 96.5404 135.339C96.3655 135.444 96.164 135.496 95.9603 135.489C95.8229 135.498 95.6852 135.475 95.5585 135.421C95.4317 135.367 95.3193 135.284 95.2303 135.179C95.0399 134.938 94.947 134.635 94.9703 134.329V132.069H95.4304L95.4803 134.329ZM96.8904 132.069H97.3603V135.439H96.8904V132.069Z" fill="white"/>
<path d="M98.2598 132.069H98.7197V135.439H98.2598V132.069ZM100.17 133.229C100.186 133.018 100.117 132.809 99.9797 132.649C99.9091 132.579 99.8244 132.525 99.7313 132.491C99.6382 132.456 99.5389 132.442 99.4398 132.449C99.3424 132.443 99.2447 132.457 99.1533 132.492C99.062 132.526 98.9789 132.58 98.9098 132.649C98.8418 132.724 98.7899 132.813 98.7572 132.909C98.7245 133.006 98.7118 133.108 98.7197 133.209L98.6498 132.649C98.7284 132.45 98.8686 132.282 99.0498 132.169C99.2257 132.067 99.4263 132.015 99.6298 132.019C99.7702 132.009 99.9111 132.032 100.041 132.086C100.171 132.139 100.287 132.223 100.38 132.329C100.569 132.589 100.661 132.908 100.64 133.229V135.439H100.17V133.229Z" fill="white"/>
<path d="M101.2 132.069H102.68V132.489H101.2V132.069ZM101.73 135.229C101.589 135.036 101.521 134.798 101.54 134.559V131.089H102.01V134.569C102.001 134.688 102.036 134.806 102.11 134.899C102.145 134.941 102.19 134.973 102.241 134.994C102.291 135.015 102.346 135.024 102.4 135.019H102.68V135.459H102.33C102.219 135.467 102.108 135.451 102.004 135.411C101.901 135.372 101.807 135.309 101.73 135.229Z" fill="white"/>
<path d="M105.44 134.329C105.433 134.425 105.446 134.521 105.476 134.612C105.507 134.703 105.556 134.787 105.62 134.859C105.69 134.926 105.774 134.977 105.865 135.01C105.956 135.042 106.053 135.056 106.15 135.049C106.338 135.059 106.524 134.998 106.67 134.879C106.734 134.809 106.782 134.727 106.813 134.637C106.844 134.548 106.857 134.453 106.85 134.359V134.929C106.783 135.098 106.664 135.242 106.51 135.339C106.335 135.444 106.134 135.496 105.93 135.489C105.791 135.497 105.652 135.474 105.524 135.42C105.396 135.366 105.282 135.284 105.19 135.179C105.004 134.936 104.912 134.634 104.93 134.329V132.069H105.4L105.44 134.329ZM106.85 132.069H107.31V135.439H106.85V132.069Z" fill="white"/>
<path d="M107.91 132.069H109.4V132.489H107.91V132.069ZM108.45 135.229C108.309 135.036 108.241 134.798 108.26 134.559V131.089H108.73V134.569C108.722 134.686 108.754 134.802 108.82 134.899C108.857 134.939 108.902 134.97 108.952 134.991C109.002 135.012 109.056 135.021 109.11 135.019H109.4V135.459H109.05C108.939 135.467 108.828 135.451 108.724 135.411C108.62 135.372 108.527 135.309 108.45 135.229Z" fill="white"/>
<path d="M78.5999 142.529C78.5963 142.647 78.6314 142.763 78.6999 142.859C78.7345 142.899 78.7777 142.93 78.8262 142.951C78.8747 142.972 78.9272 142.981 78.9799 142.979H79.2499V143.409H78.92C78.8125 143.414 78.705 143.397 78.6049 143.357C78.5048 143.317 78.4144 143.256 78.3399 143.179C78.1935 142.991 78.1191 142.757 78.1299 142.519V138.699H78.5999V142.529Z" fill="white"/>
<path d="M80.0003 143.209C79.9026 143.113 79.827 142.997 79.7786 142.87C79.7302 142.742 79.7103 142.605 79.7203 142.469C79.7041 142.175 79.8048 141.888 80.0003 141.669C80.2246 141.476 80.5154 141.379 80.8103 141.399H81.6703V141.789H80.7603C80.673 141.783 80.5854 141.795 80.503 141.825C80.4205 141.854 80.3448 141.899 80.2803 141.959C80.1644 142.102 80.1072 142.285 80.1203 142.469C80.1154 142.552 80.129 142.636 80.1601 142.714C80.1912 142.792 80.2391 142.862 80.3003 142.919C80.4506 143.028 80.6348 143.081 80.8204 143.069C81.0191 143.083 81.2175 143.038 81.3903 142.939C81.4547 142.902 81.5076 142.847 81.5429 142.782C81.5782 142.717 81.5946 142.643 81.5902 142.569L81.6603 142.929C81.6319 143.039 81.573 143.14 81.4903 143.219C81.3984 143.302 81.2891 143.363 81.1703 143.399C81.0277 143.442 80.8792 143.462 80.7303 143.459C80.4646 143.467 80.205 143.378 80.0003 143.209ZM81.6403 141.109C81.652 140.915 81.5873 140.725 81.4602 140.579C81.3884 140.515 81.3046 140.466 81.2135 140.435C81.1225 140.404 81.0262 140.392 80.9303 140.399C80.783 140.397 80.6379 140.435 80.5103 140.509C80.3848 140.579 80.2889 140.693 80.2403 140.829L79.8402 140.709C79.9041 140.494 80.0379 140.308 80.2203 140.179C80.432 140.044 80.6798 139.978 80.9303 139.989C81.1477 139.981 81.3638 140.026 81.5603 140.119C81.7267 140.205 81.8652 140.337 81.9602 140.499C82.0544 140.684 82.0992 140.891 82.0902 141.099V143.409H81.6403V141.109Z" fill="white"/>
<path d="M82.9502 138.699H83.4203V143.409H82.9502V138.699ZM83.7202 143.319C83.5548 143.219 83.4306 143.062 83.3702 142.879L83.4203 142.279C83.4208 142.416 83.4479 142.552 83.5002 142.679C83.5557 142.794 83.6423 142.891 83.7502 142.959C83.8625 143.024 83.9902 143.059 84.1202 143.059C84.2196 143.066 84.3192 143.05 84.4113 143.011C84.5033 142.973 84.5851 142.914 84.6503 142.839C84.7878 142.666 84.8555 142.449 84.8402 142.229V141.229C84.8555 141.009 84.7878 140.791 84.6503 140.619C84.5851 140.543 84.5033 140.484 84.4113 140.446C84.3192 140.408 84.2196 140.392 84.1202 140.399C83.9902 140.399 83.8625 140.433 83.7502 140.499C83.6423 140.567 83.5557 140.664 83.5002 140.779C83.4477 140.902 83.4205 141.035 83.4203 141.169L83.3502 140.619C83.4324 140.427 83.5723 140.267 83.7502 140.159C83.9226 140.047 84.125 139.991 84.3302 139.999C84.5131 139.997 84.6929 140.045 84.8502 140.139C84.9999 140.245 85.1177 140.39 85.1903 140.559C85.2665 140.774 85.3037 141.001 85.3003 141.229V142.229C85.3056 142.458 85.2648 142.686 85.1803 142.899C85.1077 143.067 84.9899 143.213 84.8402 143.319C84.6771 143.416 84.4899 143.464 84.3003 143.459C84.0981 143.463 83.898 143.415 83.7202 143.319Z" fill="white"/>
<path d="M86.5596 143.319C86.384 143.223 86.2412 143.077 86.1496 142.899C86.0558 142.692 86.0113 142.466 86.0196 142.239V141.239C86.011 141.015 86.0556 140.792 86.1496 140.589C86.2412 140.411 86.384 140.265 86.5596 140.169C86.7554 140.072 86.9714 140.024 87.1896 140.029C87.411 140.025 87.6301 140.073 87.8295 140.169C88.0014 140.266 88.1406 140.412 88.2296 140.589C88.327 140.791 88.375 141.014 88.3696 141.239V142.289C88.3739 142.513 88.3259 142.736 88.2296 142.939C88.1406 143.115 88.0014 143.261 87.8295 143.359C87.6301 143.455 87.411 143.503 87.1896 143.499C86.9681 143.491 86.7518 143.429 86.5596 143.319ZM87.7195 142.819C87.85 142.659 87.9145 142.455 87.8996 142.249V141.199C87.9145 140.993 87.85 140.789 87.7195 140.629C87.6512 140.559 87.5683 140.505 87.4767 140.47C87.3852 140.436 87.2872 140.421 87.1896 140.429C87.0936 140.422 86.997 140.436 86.907 140.47C86.8171 140.505 86.736 140.559 86.6696 140.629C86.5355 140.787 86.4675 140.992 86.4796 141.199V142.249C86.4675 142.456 86.5355 142.66 86.6696 142.819C86.7356 142.89 86.8163 142.946 86.9062 142.982C86.9961 143.018 87.0929 143.034 87.1896 143.029C87.2879 143.034 87.3861 143.018 87.4776 142.982C87.5691 142.946 87.6517 142.89 87.7195 142.819Z" fill="white"/>
<path d="M89.1699 140.019H89.6299V143.389H89.1699V140.019ZM90.7899 140.429C90.727 140.418 90.6628 140.418 90.5999 140.429C90.3458 140.414 90.0955 140.496 89.8999 140.659C89.8131 140.739 89.7443 140.837 89.6978 140.945C89.6512 141.054 89.6281 141.171 89.6299 141.289L89.5599 140.639C89.6816 140.444 89.85 140.282 90.0499 140.169C90.2518 140.057 90.4789 139.998 90.7098 139.999C90.7761 139.988 90.8437 139.988 90.9099 139.999C90.9711 140.024 91.0282 140.058 91.0798 140.099L90.9299 140.509L90.7899 140.429Z" fill="white"/>
<path d="M92.3299 143.459L92.05 143.309C91.8664 143.203 91.717 143.047 91.62 142.859C91.519 142.636 91.4711 142.393 91.48 142.149V141.369C91.4693 141.115 91.5172 140.862 91.62 140.629C91.7031 140.432 91.8467 140.268 92.03 140.159C92.2298 140.042 92.4585 139.983 92.6901 139.989C92.9109 139.982 93.1292 140.038 93.3201 140.149C93.4965 140.254 93.636 140.411 93.72 140.599C93.817 140.823 93.8648 141.065 93.86 141.309V141.929H91.78V141.499H93.41V141.279C93.4196 141.053 93.3526 140.831 93.22 140.649C93.1544 140.573 93.0728 140.514 92.9811 140.474C92.8894 140.434 92.79 140.415 92.6901 140.419C92.583 140.413 92.4759 140.431 92.3771 140.472C92.2782 140.514 92.1903 140.578 92.12 140.659C91.9808 140.857 91.9138 141.097 91.93 141.339V142.159C91.9156 142.391 91.9907 142.62 92.14 142.799C92.216 142.877 92.3081 142.939 92.4099 142.978C92.5117 143.018 92.6209 143.035 92.73 143.029C92.8798 143.028 93.0261 142.983 93.15 142.899C93.2625 142.814 93.3434 142.695 93.38 142.559L93.8201 142.689C93.7705 142.92 93.6346 143.124 93.4401 143.259C93.2311 143.4 92.982 143.47 92.73 143.459H92.3299Z" fill="white"/>
<path d="M96.9696 143.459L96.6996 143.309C96.5159 143.203 96.3666 143.047 96.2696 142.859C96.1652 142.637 96.1138 142.394 96.1196 142.149V141.369C96.1139 141.115 96.1616 140.863 96.2596 140.629C96.3453 140.431 96.4927 140.266 96.6797 140.159C96.8759 140.042 97.1012 139.983 97.3296 139.989C97.5506 139.98 97.7695 140.035 97.9596 140.149C98.1391 140.25 98.2798 140.409 98.3596 140.599C98.4567 140.823 98.5044 141.065 98.4996 141.309V141.929H96.4197V141.499H98.0497V141.279C98.0652 141.053 97.9976 140.829 97.8596 140.649C97.795 140.572 97.7135 140.512 97.6216 140.472C97.5296 140.432 97.4297 140.414 97.3296 140.419C97.224 140.412 97.1184 140.431 97.0212 140.473C96.924 140.514 96.8379 140.578 96.7696 140.659C96.6269 140.856 96.5563 141.096 96.5697 141.339V142.159C96.5552 142.391 96.6304 142.62 96.7796 142.799C96.8564 142.876 96.9486 142.937 97.0503 142.976C97.1519 143.016 97.2606 143.034 97.3696 143.029C97.5199 143.032 97.6672 142.986 97.7896 142.899C97.9021 142.814 97.9831 142.695 98.0196 142.559L98.4596 142.689C98.4145 142.919 98.2819 143.124 98.0896 143.259C97.877 143.4 97.6248 143.47 97.3696 143.459H96.9696Z" fill="white"/>
<path d="M99.0195 140.019H100.51V140.439H99.0195V140.019ZM99.5596 143.179C99.4203 142.988 99.3529 142.754 99.3695 142.519V139.019H99.8395V142.499C99.8315 142.619 99.8632 142.738 99.9296 142.839C99.9662 142.878 100.011 142.909 100.062 142.928C100.112 142.947 100.166 142.954 100.219 142.949H100.51V143.389H100.16C100.052 143.402 99.9422 143.393 99.8386 143.36C99.735 143.327 99.6398 143.272 99.5596 143.199V143.179Z" fill="white"/>
<path d="M103.18 143.329C103.026 143.231 102.907 143.088 102.84 142.919C102.756 142.716 102.715 142.498 102.72 142.279V141.199C102.716 140.977 102.753 140.757 102.83 140.549C102.903 140.38 103.021 140.235 103.17 140.129C103.33 140.034 103.514 139.985 103.7 139.989C103.9 139.986 104.097 140.038 104.27 140.139C104.445 140.25 104.584 140.41 104.67 140.599L104.6 141.149C104.601 141.018 104.574 140.888 104.52 140.769C104.467 140.655 104.38 140.56 104.27 140.499C104.161 140.425 104.032 140.387 103.9 140.389C103.801 140.385 103.703 140.402 103.611 140.44C103.519 140.478 103.437 140.536 103.37 140.609C103.24 140.781 103.177 140.994 103.19 141.209V142.279C103.178 142.488 103.242 142.694 103.37 142.859C103.44 142.927 103.523 142.979 103.614 143.014C103.706 143.048 103.803 143.064 103.9 143.059C104.031 143.064 104.16 143.029 104.27 142.959C104.376 142.892 104.462 142.799 104.52 142.689C104.571 142.568 104.599 142.439 104.6 142.309V142.879C104.542 143.064 104.418 143.221 104.25 143.319C104.08 143.425 103.881 143.477 103.68 143.469C103.504 143.467 103.332 143.419 103.18 143.329ZM104.6 138.699H105.07V143.409H104.6V138.699Z" fill="white"/>
<path d="M106.39 143.319C106.218 143.221 106.079 143.075 105.99 142.899C105.888 142.694 105.84 142.467 105.85 142.239V141.239C105.84 141.014 105.888 140.79 105.99 140.589C106.079 140.412 106.218 140.266 106.39 140.169C106.589 140.071 106.809 140.023 107.03 140.029C107.248 140.025 107.464 140.073 107.66 140.169C107.832 140.266 107.971 140.412 108.06 140.589C108.162 140.79 108.21 141.014 108.2 141.239V142.289C108.209 142.514 108.161 142.737 108.06 142.939C107.971 143.115 107.832 143.261 107.66 143.359C107.464 143.454 107.248 143.502 107.03 143.499C106.805 143.492 106.586 143.43 106.39 143.319ZM107.55 142.819C107.684 142.66 107.752 142.456 107.74 142.249V141.199C107.752 140.991 107.684 140.787 107.55 140.629C107.482 140.559 107.399 140.505 107.307 140.47C107.216 140.435 107.118 140.421 107.02 140.429C106.924 140.421 106.828 140.436 106.738 140.47C106.648 140.505 106.566 140.559 106.5 140.629C106.366 140.787 106.298 140.991 106.31 141.199V142.249C106.298 142.456 106.366 142.66 106.5 142.819C106.566 142.89 106.647 142.945 106.737 142.982C106.827 143.018 106.923 143.034 107.02 143.029C107.118 143.034 107.217 143.018 107.308 142.982C107.4 142.946 107.482 142.89 107.55 142.819Z" fill="white"/>
<path d="M109.46 142.529C109.455 142.648 109.494 142.766 109.57 142.859C109.602 142.899 109.643 142.931 109.69 142.952C109.737 142.973 109.788 142.982 109.84 142.979H110.11V143.409H109.78C109.672 143.414 109.565 143.397 109.465 143.357C109.365 143.317 109.274 143.256 109.2 143.179C109.057 142.989 108.986 142.755 109 142.519V138.699H109.46V142.529Z" fill="white"/>
<path d="M111.19 143.319C111.015 143.223 110.872 143.077 110.78 142.899C110.687 142.692 110.642 142.466 110.65 142.239V141.239C110.642 141.015 110.686 140.792 110.78 140.589C110.872 140.411 111.015 140.265 111.19 140.169C111.386 140.071 111.602 140.023 111.82 140.029C112.042 140.025 112.261 140.073 112.46 140.169C112.632 140.266 112.771 140.412 112.86 140.589C112.958 140.791 113.006 141.014 113 141.239V142.289C113.005 142.513 112.957 142.736 112.86 142.939C112.771 143.115 112.632 143.261 112.46 143.359C112.261 143.455 112.042 143.503 111.82 143.499C111.599 143.492 111.382 143.43 111.19 143.319ZM112.35 142.819C112.481 142.659 112.545 142.455 112.53 142.249V141.199C112.545 140.993 112.481 140.789 112.35 140.629C112.282 140.559 112.199 140.505 112.108 140.47C112.016 140.435 111.918 140.421 111.82 140.429C111.724 140.421 111.628 140.436 111.538 140.47C111.448 140.505 111.367 140.559 111.3 140.629C111.166 140.787 111.098 140.991 111.11 141.199V142.249C111.098 142.456 111.166 142.66 111.3 142.819C111.366 142.89 111.447 142.945 111.537 142.982C111.627 143.018 111.724 143.034 111.82 143.029C111.919 143.034 112.017 143.018 112.108 142.982C112.2 142.946 112.283 142.89 112.35 142.819Z" fill="white"/>
<path d="M113.8 140.019H114.26V143.389H113.8V140.019ZM115.42 140.429C115.357 140.418 115.293 140.418 115.23 140.429C114.976 140.414 114.725 140.496 114.53 140.659C114.443 140.739 114.374 140.837 114.328 140.945C114.281 141.054 114.258 141.171 114.26 141.289L114.19 140.639C114.311 140.444 114.48 140.282 114.68 140.169C114.882 140.057 115.109 139.998 115.34 139.999C115.406 139.988 115.474 139.988 115.54 139.999C115.601 140.024 115.658 140.058 115.71 140.099L115.56 140.509L115.42 140.429Z" fill="white"/>
<path d="M116.96 143.459L116.68 143.309C116.498 143.201 116.35 143.045 116.25 142.859C116.154 142.635 116.106 142.393 116.11 142.149V141.369C116.099 141.115 116.147 140.862 116.25 140.629C116.333 140.432 116.477 140.268 116.66 140.159C116.86 140.042 117.088 139.983 117.32 139.989C117.541 139.982 117.759 140.038 117.95 140.149C118.126 140.254 118.266 140.411 118.35 140.599C118.447 140.823 118.495 141.065 118.49 141.309V141.929H116.41V141.499H118.04V141.279C118.049 141.053 117.982 140.831 117.85 140.649C117.785 140.573 117.703 140.513 117.611 140.473C117.52 140.433 117.42 140.415 117.32 140.419C117.214 140.412 117.108 140.43 117.011 140.471C116.914 140.513 116.828 140.577 116.76 140.659C116.612 140.854 116.541 141.095 116.56 141.339V142.159C116.545 142.391 116.621 142.62 116.77 142.799C116.847 142.876 116.939 142.937 117.041 142.976C117.142 143.016 117.251 143.034 117.36 143.029C117.51 143.032 117.657 142.986 117.78 142.899C117.892 142.814 117.973 142.695 118.01 142.559L118.45 142.689C118.4 142.92 118.265 143.124 118.07 143.259C117.862 143.402 117.612 143.472 117.36 143.459H116.96Z" fill="white"/>
<path d="M120.83 140.019H121.3V143.389H120.83V140.019ZM122.63 141.179C122.641 140.972 122.581 140.767 122.46 140.599C122.403 140.531 122.331 140.477 122.249 140.442C122.168 140.407 122.079 140.393 121.99 140.399C121.894 140.393 121.798 140.408 121.708 140.442C121.619 140.477 121.537 140.53 121.47 140.599C121.347 140.763 121.287 140.965 121.3 141.169L121.23 140.599C121.299 140.407 121.427 140.242 121.596 140.129C121.765 140.015 121.967 139.959 122.17 139.969C122.347 139.967 122.52 140.015 122.67 140.109C122.818 140.208 122.93 140.352 122.99 140.519C123.067 140.73 123.105 140.954 123.1 141.179V143.389H122.63V141.179ZM124.43 141.179C124.443 140.97 124.379 140.764 124.25 140.599C124.185 140.53 124.105 140.477 124.017 140.442C123.929 140.408 123.835 140.393 123.74 140.399C123.649 140.393 123.558 140.409 123.475 140.445C123.391 140.482 123.318 140.538 123.26 140.609C123.143 140.782 123.086 140.99 123.1 141.199L122.93 140.749C122.993 140.523 123.121 140.321 123.3 140.169C123.468 140.037 123.676 139.967 123.89 139.969C124.083 139.961 124.274 140.01 124.44 140.109C124.596 140.204 124.716 140.348 124.78 140.519C124.866 140.728 124.907 140.953 124.9 141.179V143.389H124.43V141.179Z" fill="white"/>
<path d="M125.92 143.209C125.827 143.11 125.756 142.994 125.709 142.867C125.663 142.739 125.643 142.604 125.65 142.469C125.64 142.324 125.659 142.178 125.707 142.04C125.756 141.902 125.831 141.776 125.93 141.669C126.04 141.572 126.169 141.499 126.308 141.452C126.447 141.406 126.594 141.388 126.74 141.399H127.6L127.65 141.789H126.74C126.653 141.784 126.565 141.796 126.483 141.825C126.4 141.854 126.325 141.9 126.26 141.959C126.144 142.103 126.087 142.285 126.1 142.469C126.095 142.553 126.109 142.636 126.14 142.714C126.171 142.792 126.219 142.862 126.28 142.919C126.43 143.029 126.615 143.082 126.8 143.069C126.999 143.083 127.197 143.038 127.37 142.939C127.435 142.902 127.487 142.848 127.523 142.782C127.558 142.717 127.574 142.643 127.57 142.569L127.64 142.929C127.612 143.04 127.553 143.14 127.47 143.219C127.378 143.302 127.269 143.364 127.15 143.399C127.008 143.442 126.859 143.462 126.71 143.459C126.425 143.478 126.143 143.388 125.92 143.209ZM127.57 141.109C127.583 141.013 127.574 140.914 127.543 140.822C127.512 140.73 127.46 140.646 127.391 140.578C127.323 140.509 127.239 140.457 127.147 140.426C127.055 140.395 126.956 140.386 126.86 140.399C126.713 140.397 126.568 140.435 126.44 140.509C126.315 140.582 126.216 140.695 126.16 140.829L125.77 140.709C125.829 140.492 125.964 140.304 126.15 140.179C126.361 140.043 126.609 139.977 126.86 139.989C127.077 139.982 127.293 140.027 127.49 140.119C127.657 140.202 127.793 140.335 127.88 140.499C127.982 140.682 128.031 140.89 128.02 141.099V143.409H127.57V141.109Z" fill="white"/>
<path d="M129.26 143.329C129.106 143.231 128.987 143.088 128.92 142.919C128.836 142.716 128.795 142.498 128.8 142.279V141.199C128.795 140.976 128.836 140.755 128.92 140.549C128.987 140.379 129.102 140.233 129.25 140.129C129.413 140.032 129.601 139.983 129.79 139.989C130 139.972 130.209 140.022 130.389 140.132C130.568 140.241 130.709 140.405 130.79 140.599L130.72 141.149C130.721 141.018 130.694 140.888 130.64 140.769C130.588 140.657 130.505 140.564 130.4 140.499C130.259 140.41 130.091 140.373 129.926 140.393C129.76 140.413 129.607 140.489 129.49 140.609C129.36 140.781 129.297 140.994 129.31 141.209V142.279C129.295 142.485 129.36 142.689 129.49 142.849C129.61 142.962 129.763 143.034 129.927 143.054C130.091 143.074 130.257 143.04 130.4 142.959C130.5 142.889 130.583 142.796 130.64 142.689C130.692 142.568 130.719 142.439 130.72 142.309V142.879C130.666 143.063 130.544 143.219 130.38 143.319C130.204 143.418 130.003 143.467 129.8 143.459C129.612 143.467 129.424 143.422 129.26 143.329ZM129.47 144.779L129.19 144.569C129.097 144.5 129.019 144.413 128.96 144.314C128.902 144.214 128.865 144.103 128.85 143.989L129.27 143.859C129.299 144.004 129.376 144.134 129.49 144.229C129.615 144.319 129.766 144.365 129.92 144.359C130.022 144.366 130.123 144.353 130.22 144.32C130.316 144.288 130.404 144.236 130.48 144.169C130.62 144.013 130.692 143.808 130.68 143.599V140.019H131.15V143.549C131.156 143.778 131.105 144.005 131 144.209C130.908 144.387 130.761 144.531 130.58 144.619C130.371 144.716 130.141 144.764 129.91 144.759L129.47 144.779Z" fill="white"/>
<path d="M132.01 140.019H132.48V143.389H132.01V140.019ZM133.92 141.179C133.928 141.076 133.915 140.972 133.883 140.874C133.85 140.777 133.798 140.686 133.73 140.609C133.66 140.537 133.576 140.482 133.482 140.448C133.389 140.413 133.289 140.4 133.19 140.409C133.093 140.401 132.996 140.415 132.905 140.447C132.813 140.48 132.73 140.532 132.66 140.599C132.531 140.756 132.466 140.956 132.48 141.159L132.41 140.599C132.486 140.402 132.622 140.234 132.8 140.119C132.976 140.017 133.176 139.965 133.38 139.969C133.52 139.959 133.661 139.982 133.791 140.036C133.921 140.089 134.037 140.173 134.13 140.279C134.317 140.54 134.409 140.858 134.39 141.179V143.389H133.92V141.179Z" fill="white"/>
<path d="M135.42 143.209C135.323 143.113 135.247 142.997 135.199 142.87C135.15 142.742 135.13 142.605 135.14 142.469C135.124 142.175 135.225 141.888 135.42 141.669C135.645 141.476 135.935 141.379 136.23 141.399H137.09L137.14 141.789H136.26C136.173 141.783 136.085 141.795 136.003 141.825C135.92 141.854 135.845 141.899 135.78 141.959C135.664 142.102 135.607 142.285 135.62 142.469C135.615 142.552 135.629 142.636 135.66 142.714C135.691 142.792 135.739 142.862 135.8 142.919C135.95 143.028 136.135 143.081 136.32 143.069C136.519 143.083 136.717 143.038 136.89 142.939C136.955 142.902 137.007 142.847 137.043 142.782C137.078 142.717 137.094 142.643 137.09 142.569L137.16 142.929C137.132 143.039 137.073 143.14 136.99 143.219C136.898 143.302 136.789 143.363 136.67 143.399C136.528 143.442 136.379 143.462 136.23 143.459C136.085 143.473 135.939 143.459 135.8 143.416C135.661 143.373 135.532 143.302 135.42 143.209ZM137.06 141.109C137.072 140.915 137.007 140.725 136.88 140.579C136.808 140.515 136.724 140.466 136.633 140.435C136.542 140.404 136.446 140.392 136.35 140.399C136.203 140.397 136.058 140.435 135.93 140.509C135.805 140.579 135.709 140.693 135.66 140.829L135.26 140.709C135.319 140.492 135.454 140.304 135.64 140.179C135.852 140.044 136.1 139.978 136.35 139.989C136.567 139.982 136.783 140.027 136.98 140.119C137.146 140.205 137.285 140.337 137.38 140.499C137.474 140.684 137.519 140.891 137.51 141.099V143.409H137.06V141.109Z" fill="white"/>
</g>
<path d="M114.877 102.508L120.976 89.2765H124.389L118.45 102.361H127.347V105.307H114.906L114.877 102.508ZM122.785 97.0644H125.857V108.214H122.785V97.0644Z" fill="#FF9900"/>
<path d="M134.492 108.197H131.381V92.8034L128.883 94.0663V90.801L131.642 89.265H134.487L134.492 108.197Z" fill="#FF9900"/>
<path d="M144.134 87.0237H147.963V89.8112H144.134V87.0237ZM144.134 109.659H147.963V112.447H144.134V109.659ZM146.518 87.0237H149.362V112.464H146.518V87.0237Z" fill="#FF9900"/>
<circle cx="104" cy="97" r="70.5" stroke="white"/>
<circle cx="104" cy="97" r="75.75" stroke="white" stroke-opacity="0.4" stroke-width="0.5" stroke-dasharray="5 5"/>
<g filter="url(#filter0_d_1553_38)">
<path fill-rule="evenodd" clip-rule="evenodd" d="M182.96 142C167.398 168.901 138.313 187 105 187C71.6872 187 42.6018 168.901 27.0403 142H25.887C41.5489 169.475 71.1111 188 105 188C138.889 188 168.451 169.475 184.113 142H182.96ZM23.3919 59C37.7181 28.2858 68.8732 7 105 7C141.127 7 172.282 28.2858 186.608 59H187.71C173.314 27.7176 141.693 6 105 6C68.3065 6 36.6855 27.7176 22.2896 59H23.3919Z" fill="#FF9900"/>
</g>
<path d="M4.29785 108H1.61719V95.1504H8.98242V97.3828H4.29785V100.696H8.65723V102.92H4.29785V108ZM16.374 100.784H21.4717V107.446C20.6455 107.716 19.8662 107.903 19.1338 108.009C18.4072 108.12 17.6631 108.176 16.9014 108.176C14.9619 108.176 13.4795 107.607 12.4541 106.471C11.4346 105.328 10.9248 103.69 10.9248 101.558C10.9248 99.4834 11.5166 97.8662 12.7002 96.7061C13.8896 95.5459 15.5361 94.9658 17.6396 94.9658C18.958 94.9658 20.2295 95.2295 21.4541 95.7568L20.5488 97.9365C19.6113 97.4678 18.6357 97.2334 17.6221 97.2334C16.4443 97.2334 15.501 97.6289 14.792 98.4199C14.083 99.2109 13.7285 100.274 13.7285 101.61C13.7285 103.005 14.0127 104.071 14.5811 104.81C15.1553 105.542 15.9873 105.908 17.0771 105.908C17.6455 105.908 18.2227 105.85 18.8086 105.732V103.052H16.374V100.784Z" fill="white"/>
<defs>
<filter id="filter0_d_1553_38" x="16.2896" y="0" width="177.421" height="194" filterUnits="userSpaceOnUse" color-interpolation-filters="sRGB">
<feFlood flood-opacity="0" result="BackgroundImageFix"/>
<feColorMatrix in="SourceAlpha" type="matrix" values="0 0 0 0 0 0 0 0 0 0 0 0 0 0 0 0 0 0 127 0" result="hardAlpha"/>
<feOffset/>
<feGaussianBlur stdDeviation="3"/>
<feComposite in2="hardAlpha" operator="out"/>
<feColorMatrix type="matrix" values="0 0 0 0 1 0 0 0 0 0.78 0 0 0 0 0 0 0 0 0.47 0"/>
<feBlend mode="normal" in2="BackgroundImageFix" result="effect1_dropShadow_1553_38"/>
<feBlend mode="normal" in="SourceGraphic" in2="effect1_dropShadow_1553_38" result="shape"/>
</filter>
</defs>
</svg>
