<svg width="310" height="65" viewBox="0 0 310 65" fill="none" xmlns="http://www.w3.org/2000/svg">
<path d="M1 28.72V1H28.72" stroke="#555555" stroke-miterlimit="10"/>
<path d="M37.2544 1H64.9744V28.72" stroke="#555555" stroke-miterlimit="10"/>
<path d="M51.1147 1H64.9747V14.86" stroke="#FF9900" stroke-width="2" stroke-miterlimit="10"/>
<path d="M1 14.86V1H14.86" stroke="#FF9900" stroke-width="2" stroke-miterlimit="10"/>
<path d="M64.9744 36.28V64H37.2544" stroke="#555555" stroke-miterlimit="10"/>
<path d="M28.72 64H1V36.28" stroke="#555555" stroke-miterlimit="10"/>
<path d="M14.86 64H1V50.14" stroke="#FF9900" stroke-width="2" stroke-miterlimit="10"/>
<path d="M64.9747 50.14V64H51.1147" stroke="#FF9900" stroke-width="2" stroke-miterlimit="10"/>
<path d="M33.3353 38.5411L40.0649 31.8114L33.3353 25.0817L26.6056 31.8114L33.3353 38.5411Z" fill="#FF9900"/>
<path d="M47.7754 31.8743H17.6849" stroke="#FF9900" stroke-width="1.15" stroke-miterlimit="10"/>
<path opacity="0.1" d="M309.9 23.02H75.0503V33.45H309.9V23.02Z" fill="#FF9900"/>
<path opacity="0.3" d="M185.81 23.02H75.0503V33.45H185.81V23.02Z" fill="#FF9900"/>
<path opacity="0.7" d="M78.4102 43.4336C79.5156 43.4336 80.3223 43.6504 80.8301 44.084C81.3418 44.5137 81.5977 45.1309 81.5977 45.9355C81.5977 46.2988 81.5371 46.6445 81.416 46.9727C81.2988 47.2969 81.1074 47.584 80.8418 47.834C80.5762 48.0801 80.2266 48.2754 79.793 48.4199C79.3633 48.5605 78.8359 48.6309 78.2109 48.6309H77.168V52H76.1719V43.4336H78.4102ZM78.3164 44.2832H77.168V47.7754H78.0996C78.6465 47.7754 79.1016 47.7168 79.4648 47.5996C79.832 47.4824 80.1074 47.293 80.291 47.0312C80.4746 46.7656 80.5664 46.4141 80.5664 45.9766C80.5664 45.4062 80.3848 44.9824 80.0215 44.7051C79.6582 44.4238 79.0898 44.2832 78.3164 44.2832ZM88.5469 45.5781V52H87.75L87.6094 51.0977H87.5566C87.4238 51.3203 87.252 51.5078 87.041 51.6602C86.8301 51.8125 86.5918 51.9258 86.3262 52C86.0645 52.0781 85.7852 52.1172 85.4883 52.1172C84.9805 52.1172 84.5547 52.0352 84.2109 51.8711C83.8672 51.707 83.6074 51.4531 83.4316 51.1094C83.2598 50.7656 83.1738 50.3242 83.1738 49.7852V45.5781H84.1582V49.7148C84.1582 50.25 84.2793 50.6504 84.5215 50.916C84.7637 51.1777 85.1328 51.3086 85.6289 51.3086C86.1055 51.3086 86.4844 51.2188 86.7656 51.0391C87.0508 50.8594 87.2559 50.5957 87.3809 50.248C87.5059 49.8965 87.5684 49.4668 87.5684 48.959V45.5781H88.5469ZM91.5762 42.8828V45.1621C91.5762 45.4238 91.5684 45.6777 91.5527 45.9238C91.541 46.1699 91.5312 46.3613 91.5234 46.498H91.5762C91.752 46.209 92.0059 45.9648 92.3379 45.7656C92.6699 45.5664 93.0938 45.4668 93.6094 45.4668C94.4141 45.4668 95.0547 45.7461 95.5312 46.3047C96.0117 46.8594 96.252 47.6855 96.252 48.7832C96.252 49.5059 96.1426 50.1152 95.9238 50.6113C95.7051 51.1074 95.3965 51.4824 94.998 51.7363C94.5996 51.9902 94.1289 52.1172 93.5859 52.1172C93.0781 52.1172 92.6602 52.0234 92.332 51.8359C92.0078 51.6445 91.7578 51.4121 91.582 51.1387H91.5059L91.3066 52H90.6035V42.8828H91.5762ZM93.4512 46.2812C92.9863 46.2812 92.6172 46.373 92.3438 46.5566C92.0703 46.7363 91.873 47.0098 91.752 47.377C91.6348 47.7402 91.5762 48.2012 91.5762 48.7598V48.8125C91.5762 49.6211 91.7109 50.2402 91.9805 50.6699C92.25 51.0957 92.7402 51.3086 93.4512 51.3086C94.0488 51.3086 94.4961 51.0898 94.793 50.6523C95.0938 50.2148 95.2441 49.5898 95.2441 48.7773C95.2441 47.9492 95.0957 47.3262 94.7988 46.9082C94.5059 46.4902 94.0566 46.2812 93.4512 46.2812ZM98.9297 52H97.9512V42.8828H98.9297V52ZM101.959 45.5781V52H100.986V45.5781H101.959ZM101.484 43.1758C101.645 43.1758 101.781 43.2285 101.895 43.334C102.012 43.4355 102.07 43.5957 102.07 43.8145C102.07 44.0293 102.012 44.1895 101.895 44.2949C101.781 44.4004 101.645 44.4531 101.484 44.4531C101.316 44.4531 101.176 44.4004 101.062 44.2949C100.953 44.1895 100.898 44.0293 100.898 43.8145C100.898 43.5957 100.953 43.4355 101.062 43.334C101.176 43.2285 101.316 43.1758 101.484 43.1758ZM106.594 52.1172C106.016 52.1172 105.506 51.998 105.064 51.7598C104.623 51.5215 104.279 51.1582 104.033 50.6699C103.787 50.1816 103.664 49.5664 103.664 48.8242C103.664 48.0469 103.793 47.4121 104.051 46.9199C104.312 46.4238 104.672 46.0566 105.129 45.8184C105.586 45.5801 106.105 45.4609 106.688 45.4609C107.008 45.4609 107.316 45.4941 107.613 45.5605C107.914 45.623 108.16 45.7031 108.352 45.8008L108.059 46.6152C107.863 46.5371 107.637 46.4668 107.379 46.4043C107.125 46.3418 106.887 46.3105 106.664 46.3105C106.219 46.3105 105.848 46.4062 105.551 46.5977C105.258 46.7891 105.037 47.0703 104.889 47.4414C104.744 47.8125 104.672 48.2695 104.672 48.8125C104.672 49.332 104.742 49.7754 104.883 50.1426C105.027 50.5098 105.24 50.791 105.521 50.9863C105.807 51.1777 106.162 51.2734 106.588 51.2734C106.928 51.2734 107.234 51.2383 107.508 51.168C107.781 51.0938 108.029 51.0078 108.252 50.9102V51.7773C108.037 51.8867 107.797 51.9707 107.531 52.0293C107.27 52.0879 106.957 52.1172 106.594 52.1172ZM120.469 47.7051C120.469 48.3652 120.385 48.9668 120.217 49.5098C120.049 50.0488 119.799 50.5137 119.467 50.9043C119.139 51.291 118.73 51.5898 118.242 51.8008C117.754 52.0117 117.188 52.1172 116.543 52.1172C115.879 52.1172 115.299 52.0117 114.803 51.8008C114.311 51.5898 113.9 51.2891 113.572 50.8984C113.248 50.5078 113.004 50.041 112.84 49.498C112.68 48.9551 112.6 48.3535 112.6 47.6934C112.6 46.8184 112.744 46.0508 113.033 45.3906C113.322 44.7305 113.76 44.2168 114.346 43.8496C114.936 43.4824 115.674 43.2988 116.561 43.2988C117.408 43.2988 118.121 43.4805 118.699 43.8438C119.281 44.207 119.721 44.7188 120.018 45.3789C120.318 46.0352 120.469 46.8105 120.469 47.7051ZM113.648 47.7051C113.648 48.4316 113.752 49.0605 113.959 49.5918C114.166 50.123 114.482 50.5332 114.908 50.8223C115.338 51.1113 115.883 51.2559 116.543 51.2559C117.207 51.2559 117.75 51.1113 118.172 50.8223C118.598 50.5332 118.912 50.123 119.115 49.5918C119.318 49.0605 119.42 48.4316 119.42 47.7051C119.42 46.5996 119.188 45.7363 118.723 45.1152C118.262 44.4902 117.541 44.1777 116.561 44.1777C115.896 44.1777 115.35 44.3203 114.92 44.6055C114.49 44.8906 114.17 45.2969 113.959 45.8242C113.752 46.3477 113.648 46.9746 113.648 47.7051ZM125.25 45.4609C126.051 45.4609 126.689 45.7363 127.166 46.2871C127.643 46.8379 127.881 47.666 127.881 48.7715C127.881 49.502 127.771 50.1152 127.553 50.6113C127.334 51.1074 127.025 51.4824 126.627 51.7363C126.232 51.9902 125.766 52.1172 125.227 52.1172C124.887 52.1172 124.588 52.0723 124.33 51.9824C124.072 51.8926 123.852 51.7715 123.668 51.6191C123.484 51.4668 123.332 51.3008 123.211 51.1211H123.141C123.152 51.2734 123.166 51.457 123.182 51.6719C123.201 51.8867 123.211 52.0742 123.211 52.2344V54.8711H122.232V45.5781H123.035L123.164 46.5273H123.211C123.336 46.332 123.488 46.1543 123.668 45.9941C123.848 45.8301 124.066 45.7012 124.324 45.6074C124.586 45.5098 124.895 45.4609 125.25 45.4609ZM125.08 46.2812C124.635 46.2812 124.275 46.3672 124.002 46.5391C123.732 46.7109 123.535 46.9688 123.41 47.3125C123.285 47.6523 123.219 48.0801 123.211 48.5957V48.7832C123.211 49.3262 123.27 49.7852 123.387 50.1602C123.508 50.5352 123.705 50.8203 123.979 51.0156C124.256 51.2109 124.627 51.3086 125.092 51.3086C125.49 51.3086 125.822 51.2012 126.088 50.9863C126.354 50.7715 126.551 50.4727 126.68 50.0898C126.812 49.7031 126.879 49.2598 126.879 48.7598C126.879 48.002 126.73 47.4004 126.434 46.9551C126.141 46.5059 125.689 46.2812 125.08 46.2812ZM130.553 45.5781V52H129.58V45.5781H130.553ZM130.078 43.1758C130.238 43.1758 130.375 43.2285 130.488 43.334C130.605 43.4355 130.664 43.5957 130.664 43.8145C130.664 44.0293 130.605 44.1895 130.488 44.2949C130.375 44.4004 130.238 44.4531 130.078 44.4531C129.91 44.4531 129.77 44.4004 129.656 44.2949C129.547 44.1895 129.492 44.0293 129.492 43.8145C129.492 43.5957 129.547 43.4355 129.656 43.334C129.77 43.2285 129.91 43.1758 130.078 43.1758ZM135.656 45.4609C136.418 45.4609 136.994 45.6484 137.385 46.0234C137.775 46.3945 137.971 46.9922 137.971 47.8164V52H137.01V47.8809C137.01 47.3457 136.887 46.9453 136.641 46.6797C136.398 46.4141 136.025 46.2812 135.521 46.2812C134.811 46.2812 134.311 46.4824 134.021 46.8848C133.732 47.2871 133.588 47.8711 133.588 48.6367V52H132.615V45.5781H133.4L133.547 46.5039H133.6C133.736 46.2773 133.91 46.0879 134.121 45.9355C134.332 45.7793 134.568 45.6621 134.83 45.584C135.092 45.502 135.367 45.4609 135.656 45.4609ZM140.947 45.5781V52H139.975V45.5781H140.947ZM140.473 43.1758C140.633 43.1758 140.77 43.2285 140.883 43.334C141 43.4355 141.059 43.5957 141.059 43.8145C141.059 44.0293 141 44.1895 140.883 44.2949C140.77 44.4004 140.633 44.4531 140.473 44.4531C140.305 44.4531 140.164 44.4004 140.051 44.2949C139.941 44.1895 139.887 44.0293 139.887 43.8145C139.887 43.5957 139.941 43.4355 140.051 43.334C140.164 43.2285 140.305 43.1758 140.473 43.1758ZM148.547 48.7773C148.547 49.3047 148.479 49.7754 148.342 50.1895C148.205 50.6035 148.008 50.9531 147.75 51.2383C147.492 51.5234 147.18 51.7422 146.812 51.8945C146.449 52.043 146.037 52.1172 145.576 52.1172C145.146 52.1172 144.752 52.043 144.393 51.8945C144.037 51.7422 143.729 51.5234 143.467 51.2383C143.209 50.9531 143.008 50.6035 142.863 50.1895C142.723 49.7754 142.652 49.3047 142.652 48.7773C142.652 48.0742 142.771 47.4766 143.01 46.9844C143.248 46.4883 143.588 46.1113 144.029 45.8535C144.475 45.5918 145.004 45.4609 145.617 45.4609C146.203 45.4609 146.715 45.5918 147.152 45.8535C147.594 46.1152 147.936 46.4941 148.178 46.9902C148.424 47.4824 148.547 48.0781 148.547 48.7773ZM143.66 48.7773C143.66 49.293 143.729 49.7402 143.865 50.1191C144.002 50.498 144.213 50.791 144.498 50.998C144.783 51.2051 145.15 51.3086 145.6 51.3086C146.045 51.3086 146.41 51.2051 146.695 50.998C146.984 50.791 147.197 50.498 147.334 50.1191C147.471 49.7402 147.539 49.293 147.539 48.7773C147.539 48.2656 147.471 47.8242 147.334 47.4531C147.197 47.0781 146.986 46.7891 146.701 46.5859C146.416 46.3828 146.047 46.2812 145.594 46.2812C144.926 46.2812 144.436 46.502 144.123 46.9434C143.814 47.3848 143.66 47.9961 143.66 48.7773ZM153.27 45.4609C154.031 45.4609 154.607 45.6484 154.998 46.0234C155.389 46.3945 155.584 46.9922 155.584 47.8164V52H154.623V47.8809C154.623 47.3457 154.5 46.9453 154.254 46.6797C154.012 46.4141 153.639 46.2812 153.135 46.2812C152.424 46.2812 151.924 46.4824 151.635 46.8848C151.346 47.2871 151.201 47.8711 151.201 48.6367V52H150.229V45.5781H151.014L151.16 46.5039H151.213C151.35 46.2773 151.523 46.0879 151.734 45.9355C151.945 45.7793 152.182 45.6621 152.443 45.584C152.705 45.502 152.98 45.4609 153.27 45.4609ZM166.225 52L165.17 49.2812H161.736L160.688 52H159.68L163.031 43.3984H163.928L167.256 52H166.225ZM164.871 48.3965L163.869 45.6953C163.846 45.625 163.807 45.5098 163.752 45.3496C163.701 45.1895 163.648 45.0234 163.594 44.8516C163.539 44.6797 163.494 44.541 163.459 44.4355C163.42 44.5957 163.377 44.7559 163.33 44.916C163.287 45.0723 163.244 45.2188 163.201 45.3555C163.158 45.4883 163.121 45.6016 163.09 45.6953L162.07 48.3965H164.871ZM170.871 52.1172C170.293 52.1172 169.783 51.998 169.342 51.7598C168.9 51.5215 168.557 51.1582 168.311 50.6699C168.064 50.1816 167.941 49.5664 167.941 48.8242C167.941 48.0469 168.07 47.4121 168.328 46.9199C168.59 46.4238 168.949 46.0566 169.406 45.8184C169.863 45.5801 170.383 45.4609 170.965 45.4609C171.285 45.4609 171.594 45.4941 171.891 45.5605C172.191 45.623 172.438 45.7031 172.629 45.8008L172.336 46.6152C172.141 46.5371 171.914 46.4668 171.656 46.4043C171.402 46.3418 171.164 46.3105 170.941 46.3105C170.496 46.3105 170.125 46.4062 169.828 46.5977C169.535 46.7891 169.314 47.0703 169.166 47.4414C169.021 47.8125 168.949 48.2695 168.949 48.8125C168.949 49.332 169.02 49.7754 169.16 50.1426C169.305 50.5098 169.518 50.791 169.799 50.9863C170.084 51.1777 170.439 51.2734 170.865 51.2734C171.205 51.2734 171.512 51.2383 171.785 51.168C172.059 51.0938 172.307 51.0078 172.529 50.9102V51.7773C172.314 51.8867 172.074 51.9707 171.809 52.0293C171.547 52.0879 171.234 52.1172 170.871 52.1172ZM176.625 52.1172C176.047 52.1172 175.537 51.998 175.096 51.7598C174.654 51.5215 174.311 51.1582 174.064 50.6699C173.818 50.1816 173.695 49.5664 173.695 48.8242C173.695 48.0469 173.824 47.4121 174.082 46.9199C174.344 46.4238 174.703 46.0566 175.16 45.8184C175.617 45.5801 176.137 45.4609 176.719 45.4609C177.039 45.4609 177.348 45.4941 177.645 45.5605C177.945 45.623 178.191 45.7031 178.383 45.8008L178.09 46.6152C177.895 46.5371 177.668 46.4668 177.41 46.4043C177.156 46.3418 176.918 46.3105 176.695 46.3105C176.25 46.3105 175.879 46.4062 175.582 46.5977C175.289 46.7891 175.068 47.0703 174.92 47.4414C174.775 47.8125 174.703 48.2695 174.703 48.8125C174.703 49.332 174.773 49.7754 174.914 50.1426C175.059 50.5098 175.271 50.791 175.553 50.9863C175.838 51.1777 176.193 51.2734 176.619 51.2734C176.959 51.2734 177.266 51.2383 177.539 51.168C177.812 51.0938 178.061 51.0078 178.283 50.9102V51.7773C178.068 51.8867 177.828 51.9707 177.562 52.0293C177.301 52.0879 176.988 52.1172 176.625 52.1172ZM182.279 45.4609C182.826 45.4609 183.295 45.582 183.686 45.8242C184.076 46.0664 184.375 46.4062 184.582 46.8438C184.789 47.2773 184.893 47.7852 184.893 48.3672V48.9707H180.457C180.469 49.7246 180.656 50.2988 181.02 50.6934C181.383 51.0879 181.895 51.2852 182.555 51.2852C182.961 51.2852 183.32 51.248 183.633 51.1738C183.945 51.0996 184.27 50.9902 184.605 50.8457V51.7012C184.281 51.8457 183.959 51.9512 183.639 52.0176C183.322 52.084 182.947 52.1172 182.514 52.1172C181.896 52.1172 181.357 51.9922 180.896 51.7422C180.439 51.4883 180.084 51.1172 179.83 50.6289C179.576 50.1406 179.449 49.543 179.449 48.8359C179.449 48.1445 179.564 47.5469 179.795 47.043C180.029 46.5352 180.357 46.1445 180.779 45.8711C181.205 45.5977 181.705 45.4609 182.279 45.4609ZM182.268 46.2578C181.748 46.2578 181.334 46.4277 181.025 46.7676C180.717 47.1074 180.533 47.582 180.475 48.1914H183.873C183.869 47.8086 183.809 47.4727 183.691 47.1836C183.578 46.8906 183.404 46.6641 183.17 46.5039C182.936 46.3398 182.635 46.2578 182.268 46.2578ZM190.699 50.2422C190.699 50.6523 190.596 50.998 190.389 51.2793C190.186 51.5566 189.893 51.7656 189.51 51.9062C189.131 52.0469 188.678 52.1172 188.15 52.1172C187.701 52.1172 187.312 52.082 186.984 52.0117C186.656 51.9414 186.369 51.8418 186.123 51.7129V50.8164C186.385 50.9453 186.697 51.0625 187.061 51.168C187.424 51.2734 187.795 51.3262 188.174 51.3262C188.729 51.3262 189.131 51.2363 189.381 51.0566C189.631 50.877 189.756 50.6328 189.756 50.3242C189.756 50.1484 189.705 49.9941 189.604 49.8613C189.506 49.7246 189.34 49.5938 189.105 49.4688C188.871 49.3398 188.547 49.1992 188.133 49.0469C187.723 48.8906 187.367 48.7363 187.066 48.584C186.77 48.4277 186.539 48.2383 186.375 48.0156C186.215 47.793 186.135 47.5039 186.135 47.1484C186.135 46.6055 186.354 46.1895 186.791 45.9004C187.232 45.6074 187.811 45.4609 188.525 45.4609C188.912 45.4609 189.273 45.5 189.609 45.5781C189.949 45.6523 190.266 45.7539 190.559 45.8828L190.23 46.6621C189.965 46.5488 189.682 46.4531 189.381 46.375C189.08 46.2969 188.773 46.2578 188.461 46.2578C188.012 46.2578 187.666 46.332 187.424 46.4805C187.186 46.6289 187.066 46.832 187.066 47.0898C187.066 47.2891 187.121 47.4531 187.23 47.582C187.344 47.7109 187.523 47.832 187.77 47.9453C188.016 48.0586 188.34 48.1914 188.742 48.3438C189.145 48.4922 189.492 48.6465 189.785 48.8066C190.078 48.9629 190.303 49.1543 190.459 49.3809C190.619 49.6035 190.699 49.8906 190.699 50.2422ZM196.418 50.2422C196.418 50.6523 196.314 50.998 196.107 51.2793C195.904 51.5566 195.611 51.7656 195.229 51.9062C194.85 52.0469 194.396 52.1172 193.869 52.1172C193.42 52.1172 193.031 52.082 192.703 52.0117C192.375 51.9414 192.088 51.8418 191.842 51.7129V50.8164C192.104 50.9453 192.416 51.0625 192.779 51.168C193.143 51.2734 193.514 51.3262 193.893 51.3262C194.447 51.3262 194.85 51.2363 195.1 51.0566C195.35 50.877 195.475 50.6328 195.475 50.3242C195.475 50.1484 195.424 49.9941 195.322 49.8613C195.225 49.7246 195.059 49.5938 194.824 49.4688C194.59 49.3398 194.266 49.1992 193.852 49.0469C193.441 48.8906 193.086 48.7363 192.785 48.584C192.488 48.4277 192.258 48.2383 192.094 48.0156C191.934 47.793 191.854 47.5039 191.854 47.1484C191.854 46.6055 192.072 46.1895 192.51 45.9004C192.951 45.6074 193.529 45.4609 194.244 45.4609C194.631 45.4609 194.992 45.5 195.328 45.5781C195.668 45.6523 195.984 45.7539 196.277 45.8828L195.949 46.6621C195.684 46.5488 195.4 46.4531 195.1 46.375C194.799 46.2969 194.492 46.2578 194.18 46.2578C193.73 46.2578 193.385 46.332 193.143 46.4805C192.904 46.6289 192.785 46.832 192.785 47.0898C192.785 47.2891 192.84 47.4531 192.949 47.582C193.062 47.7109 193.242 47.832 193.488 47.9453C193.734 48.0586 194.059 48.1914 194.461 48.3438C194.863 48.4922 195.211 48.6465 195.504 48.8066C195.797 48.9629 196.021 49.1543 196.178 49.3809C196.338 49.6035 196.418 49.8906 196.418 50.2422Z" fill="white"/>
<path d="M76.0103 8.27019H77.6302V16.9201H76.0103V8.27019ZM76.8302 15.3501H78.9002C79.3478 15.3801 79.7904 15.2409 80.1403 14.9601C80.2918 14.8218 80.4101 14.6511 80.4863 14.4606C80.5625 14.2701 80.5946 14.0648 80.5802 13.8602V11.3201C80.5932 11.1156 80.5604 10.9108 80.4843 10.7205C80.4082 10.5302 80.2907 10.3593 80.1403 10.2201C79.7867 9.94717 79.346 9.8121 78.9002 9.84013H76.8302V8.27019H78.8302C79.4626 8.25272 80.0911 8.37566 80.6703 8.63017C81.16 8.8548 81.5685 9.22488 81.8402 9.69011C82.1138 10.2068 82.2482 10.7858 82.2303 11.3702V13.8201C82.2458 14.3871 82.1149 14.9485 81.8503 15.4501C81.584 15.9173 81.1833 16.2936 80.7003 16.5301C80.113 16.8063 79.4689 16.94 78.8203 16.9201H76.8203L76.8302 15.3501Z" fill="white"/>
<path d="M86.1201 8.27002H87.1201L90.4301 16.9199H88.7201L86.6501 11.01L84.5801 16.9199H82.8301L86.1201 8.27002ZM84.4001 13.96H88.9501V15.5299H84.4001V13.96Z" fill="white"/>
<path d="M90.1001 8.27002H96.4401V9.83997H90.1001V8.27002ZM92.4601 8.97998H94.0801V16.9199H92.4601V8.97998Z" fill="white"/>
<path d="M99.33 8.27002H100.33L103.63 16.9199H101.92L99.85 11.01L97.78 16.9199H96.02L99.33 8.27002ZM97.61 13.96H102.16V15.5299H97.61V13.96Z" fill="white"/>
<path d="M108.07 7.25H109.52V18.86H108.07V7.25ZM108.76 7.25H110.58V8.69995H108.72L108.76 7.25ZM108.76 17.3999H110.58V18.86H108.72L108.76 17.3999Z" fill="white"/>
<path d="M117.03 11.59L118.97 8.27002H120.72L117.86 13.1599L115.66 16.9199H113.94L117.03 11.59ZM117.03 13.38L116.87 13.1L114 8.27002H115.72L117.66 11.5499L117.89 11.9299L120.89 16.9299H119.18L117.03 13.38Z" fill="white"/>
<path d="M124.15 7.25H125.98V8.69995H124.15V7.25ZM124.15 17.3999H125.98V18.86H124.15V17.3999ZM125.21 7.25H126.66V18.86H125.21V7.25Z" fill="white"/>
</svg>
