<svg width="134" height="130" viewBox="0 0 134 130" fill="none" xmlns="http://www.w3.org/2000/svg">
<rect x="0.5" y="110.5" width="110" height="35.3665" transform="rotate(-90 0.5 110.5)" stroke="#808082"/>
<rect opacity="0.5" x="5.6571" y="105.541" width="10.918" height="25.8606" transform="rotate(-90 5.6571 105.541)" fill="white"/>
<rect opacity="0.4" x="5.6571" y="92.8032" width="10.918" height="25.8606" transform="rotate(-90 5.6571 92.8032)" fill="white"/>
<rect opacity="0.3" x="5.6571" y="80.0656" width="10.918" height="25.8606" transform="rotate(-90 5.6571 80.0656)" fill="white"/>
<rect opacity="0.2" x="5.6571" y="67.3279" width="10.918" height="25.8606" transform="rotate(-90 5.6571 67.3279)" fill="white"/>
<path d="M11.0449 119.201C10.1035 119.201 9.35938 119.516 8.8125 120.145C8.26953 120.77 7.99805 121.627 7.99805 122.717C7.99805 123.838 8.25977 124.705 8.7832 125.318C9.31055 125.928 10.0605 126.232 11.0332 126.232C11.6309 126.232 12.3125 126.125 13.0781 125.91V126.783C12.4844 127.006 11.752 127.117 10.8809 127.117C9.61914 127.117 8.64453 126.734 7.95703 125.969C7.27344 125.203 6.93164 124.115 6.93164 122.705C6.93164 121.822 7.0957 121.049 7.42383 120.385C7.75586 119.721 8.23242 119.209 8.85352 118.85C9.47852 118.49 10.2129 118.311 11.0566 118.311C11.9551 118.311 12.7402 118.475 13.4121 118.803L12.9902 119.658C12.3418 119.354 11.6934 119.201 11.0449 119.201ZM22.3828 122.705C22.3828 124.076 22.0352 125.154 21.3398 125.939C20.6484 126.725 19.6855 127.117 18.4512 127.117C17.1895 127.117 16.2148 126.732 15.5273 125.963C14.8438 125.189 14.502 124.1 14.502 122.693C14.502 121.299 14.8457 120.219 15.5332 119.453C16.2207 118.684 17.1973 118.299 18.4629 118.299C19.6934 118.299 20.6543 118.689 21.3457 119.471C22.0371 120.252 22.3828 121.33 22.3828 122.705ZM15.5566 122.705C15.5566 123.865 15.8027 124.746 16.2949 125.348C16.791 125.945 17.5098 126.244 18.4512 126.244C19.4004 126.244 20.1172 125.945 20.6016 125.348C21.0859 124.75 21.3281 123.869 21.3281 122.705C21.3281 121.553 21.0859 120.68 20.6016 120.086C20.1211 119.488 19.4082 119.189 18.4629 119.189C17.5137 119.189 16.791 119.49 16.2949 120.092C15.8027 120.689 15.5566 121.561 15.5566 122.705ZM29.0742 127H24.2988V118.434H29.0742V119.318H25.2949V122.078H28.8457V122.957H25.2949V126.109H29.0742V127Z" fill="#FAFAFC"/>
<rect x="48.8667" y="110.5" width="110" height="35.3665" transform="rotate(-90 48.8667 110.5)" stroke="#808082"/>
<rect opacity="0.7" x="54.0238" y="105.541" width="10.918" height="25.8606" transform="rotate(-90 54.0238 105.541)" fill="#FE8618"/>
<rect opacity="0.6" x="54.0238" y="92.8032" width="10.918" height="25.8606" transform="rotate(-90 54.0238 92.8032)" fill="#FE8618"/>
<rect opacity="0.5" x="54.0238" y="80.0656" width="10.918" height="25.8606" transform="rotate(-90 54.0238 80.0656)" fill="#FE8618"/>
<rect opacity="0.4" x="54.0238" y="67.3279" width="10.918" height="25.8606" transform="rotate(-90 54.0238 67.3279)" fill="#FE8618"/>
<rect opacity="0.3" x="54.0238" y="54.918" width="10.918" height="25.8606" transform="rotate(-90 54.0238 54.918)" fill="#FE8618"/>
<rect opacity="0.2" x="54.0238" y="41.918" width="10.918" height="25.8606" transform="rotate(-90 54.0238 41.918)" fill="#FE8618"/>
<path d="M59.4409 119.201C58.4995 119.201 57.7554 119.516 57.2085 120.145C56.6655 120.77 56.394 121.627 56.394 122.717C56.394 123.838 56.6558 124.705 57.1792 125.318C57.7065 125.928 58.4565 126.232 59.4292 126.232C60.0269 126.232 60.7085 126.125 61.4741 125.91V126.783C60.8804 127.006 60.1479 127.117 59.2769 127.117C58.0151 127.117 57.0405 126.734 56.353 125.969C55.6694 125.203 55.3276 124.115 55.3276 122.705C55.3276 121.822 55.4917 121.049 55.8198 120.385C56.1519 119.721 56.6284 119.209 57.2495 118.85C57.8745 118.49 58.6089 118.311 59.4526 118.311C60.3511 118.311 61.1362 118.475 61.8081 118.803L61.3862 119.658C60.7378 119.354 60.0894 119.201 59.4409 119.201ZM68.7749 120.93C68.7749 121.797 68.478 122.465 67.8843 122.934C67.2944 123.398 66.4487 123.631 65.3472 123.631H64.3394V127H63.3433V118.434H65.564C67.7046 118.434 68.7749 119.266 68.7749 120.93ZM64.3394 122.775H65.2358C66.1187 122.775 66.7573 122.633 67.1519 122.348C67.5464 122.062 67.7437 121.605 67.7437 120.977C67.7437 120.41 67.5581 119.988 67.187 119.711C66.8159 119.434 66.2378 119.295 65.4526 119.295H64.3394V122.775ZM77.0425 118.434V123.977C77.0425 124.953 76.7476 125.721 76.1577 126.279C75.5679 126.838 74.7573 127.117 73.7261 127.117C72.6948 127.117 71.896 126.836 71.3296 126.273C70.7671 125.711 70.4858 124.938 70.4858 123.953V118.434H71.4819V124.023C71.4819 124.738 71.6772 125.287 72.0679 125.67C72.4585 126.053 73.0327 126.244 73.7905 126.244C74.5132 126.244 75.0698 126.053 75.4604 125.67C75.8511 125.283 76.0464 124.73 76.0464 124.012V118.434H77.0425Z" fill="#FAFAFC"/>
<rect x="97.2334" y="110.5" width="110" height="35.3665" transform="rotate(-90 97.2334 110.5)" stroke="#808082"/>
<rect opacity="0.7" x="102.391" y="105.541" width="10.918" height="25.8606" transform="rotate(-90 102.391 105.541)" fill="white"/>
<rect opacity="0.6" x="102.391" y="92.8032" width="10.918" height="25.8606" transform="rotate(-90 102.391 92.8032)" fill="white"/>
<rect opacity="0.5" x="102.391" y="80.0656" width="10.918" height="25.8606" transform="rotate(-90 102.391 80.0656)" fill="white"/>
<rect opacity="0.4" x="102.391" y="67.3279" width="10.918" height="25.8606" transform="rotate(-90 102.391 67.3279)" fill="white"/>
<rect opacity="0.3" x="102.391" y="54.918" width="10.918" height="25.8606" transform="rotate(-90 102.391 54.918)" fill="white"/>
<rect opacity="0.2" x="102.391" y="41.918" width="10.918" height="25.8606" transform="rotate(-90 102.391 41.918)" fill="white"/>
<rect opacity="0.1" x="102.391" y="28.9181" width="10.918" height="25.8606" transform="rotate(-90 102.391 28.9181)" fill="white"/>
<path d="M107.821 122.512H110.733V126.678C110.28 126.822 109.819 126.932 109.351 127.006C108.882 127.08 108.339 127.117 107.722 127.117C106.425 127.117 105.415 126.732 104.692 125.963C103.97 125.189 103.608 124.107 103.608 122.717C103.608 121.826 103.786 121.047 104.142 120.379C104.501 119.707 105.017 119.195 105.688 118.844C106.36 118.488 107.147 118.311 108.05 118.311C108.964 118.311 109.815 118.479 110.604 118.814L110.218 119.693C109.444 119.365 108.7 119.201 107.985 119.201C106.942 119.201 106.128 119.512 105.542 120.133C104.956 120.754 104.663 121.615 104.663 122.717C104.663 123.873 104.944 124.75 105.507 125.348C106.073 125.945 106.903 126.244 107.997 126.244C108.591 126.244 109.171 126.176 109.737 126.039V123.402H107.821V122.512ZM118.228 120.93C118.228 121.797 117.931 122.465 117.337 122.934C116.747 123.398 115.901 123.631 114.8 123.631H113.792V127H112.796V118.434H115.017C117.157 118.434 118.228 119.266 118.228 120.93ZM113.792 122.775H114.688C115.571 122.775 116.21 122.633 116.604 122.348C116.999 122.062 117.196 121.605 117.196 120.977C117.196 120.41 117.011 119.988 116.64 119.711C116.269 119.434 115.69 119.295 114.905 119.295H113.792V122.775ZM126.495 118.434V123.977C126.495 124.953 126.2 125.721 125.61 126.279C125.021 126.838 124.21 127.117 123.179 127.117C122.147 127.117 121.349 126.836 120.782 126.273C120.22 125.711 119.938 124.938 119.938 123.953V118.434H120.935V124.023C120.935 124.738 121.13 125.287 121.521 125.67C121.911 126.053 122.485 126.244 123.243 126.244C123.966 126.244 124.522 126.053 124.913 125.67C125.304 125.283 125.499 124.73 125.499 124.012V118.434H126.495Z" fill="#FAFAFC"/>
<path d="M56.9707 20L60.3574 12.6582H55.9043V11.4453H61.8281V12.4062L58.459 20H56.9707ZM68.6602 15.7168C68.6602 17.2051 68.4199 18.3105 67.9395 19.0332C67.4629 19.7559 66.7324 20.1172 65.748 20.1172C64.7949 20.1172 64.0723 19.7441 63.5801 18.998C63.0879 18.252 62.8418 17.1582 62.8418 15.7168C62.8418 14.2051 63.0801 13.0918 63.5566 12.377C64.0371 11.6582 64.7676 11.2988 65.748 11.2988C66.7051 11.2988 67.4297 11.6738 67.9219 12.4238C68.4141 13.1738 68.6602 14.2715 68.6602 15.7168ZM64.2363 15.7168C64.2363 16.8848 64.3555 17.7188 64.5938 18.2188C64.8359 18.7188 65.2207 18.9688 65.748 18.9688C66.2754 18.9688 66.6602 18.7148 66.9023 18.207C67.1484 17.6992 67.2715 16.8691 67.2715 15.7168C67.2715 14.5684 67.1484 13.7383 66.9023 13.2266C66.6602 12.7109 66.2754 12.4531 65.748 12.4531C65.2207 12.4531 64.8359 12.7051 64.5938 13.209C64.3555 13.7129 64.2363 14.5488 64.2363 15.7168ZM70.8164 14C70.8164 14.582 70.873 15.0156 70.9863 15.3008C71.0996 15.5859 71.2852 15.7285 71.543 15.7285C72.0586 15.7285 72.3164 15.1523 72.3164 14C72.3164 12.8477 72.0586 12.2715 71.543 12.2715C71.2852 12.2715 71.0996 12.4141 70.9863 12.6992C70.873 12.9844 70.8164 13.418 70.8164 14ZM73.4531 13.9883C73.4531 14.8867 73.291 15.5625 72.9668 16.0156C72.6465 16.4648 72.1719 16.6895 71.543 16.6895C70.9492 16.6895 70.4883 16.457 70.1602 15.9922C69.8359 15.5234 69.6738 14.8555 69.6738 13.9883C69.6738 12.2031 70.2969 11.3105 71.543 11.3105C72.1562 11.3105 72.627 11.543 72.9551 12.0078C73.2871 12.4688 73.4531 13.1289 73.4531 13.9883ZM76.3945 17.4219C76.3945 18.0039 76.4512 18.4395 76.5645 18.7285C76.6816 19.0176 76.8691 19.1621 77.127 19.1621C77.6387 19.1621 77.8945 18.582 77.8945 17.4219C77.8945 16.2773 77.6387 15.7051 77.127 15.7051C76.8691 15.7051 76.6816 15.8457 76.5645 16.127C76.4512 16.4082 76.3945 16.8398 76.3945 17.4219ZM79.0312 17.4219C79.0312 18.3203 78.8691 18.9941 78.5449 19.4434C78.2207 19.8926 77.748 20.1172 77.127 20.1172C76.5332 20.1172 76.0723 19.8867 75.7441 19.4258C75.416 18.9609 75.252 18.293 75.252 17.4219C75.252 15.6367 75.877 14.7441 77.127 14.7441C77.7285 14.7441 78.1953 14.9746 78.5273 15.4355C78.8633 15.8965 79.0312 16.5586 79.0312 17.4219ZM77.291 11.4336L72.5391 20H71.4023L76.1543 11.4336H77.291Z" fill="white"/>
</svg>
