<svg width="15" height="645" viewBox="0 0 15 645" fill="none" xmlns="http://www.w3.org/2000/svg">
<mask id="mask0_203_92" style="mask-type:alpha" maskUnits="userSpaceOnUse" x="0" y="0" width="10" height="80">
<rect width="10" height="80" fill="#D9D9D9"/>
</mask>
<g mask="url(#mask0_203_92)">
<line x1="2" y1="39.5" x2="10" y2="39.5" stroke="white" stroke-opacity="0.24"/>
<path d="M2.224 9.104C3.336 9.104 4.048 8.088 4.048 6.048C4.048 4.016 3.336 3.024 2.224 3.024C1.104 3.024 0.392 4.008 0.392 6.048C0.392 8.088 1.104 9.104 2.224 9.104ZM2.224 8.52C1.552 8.52 1.104 7.776 1.104 6.048C1.104 4.336 1.552 3.616 2.224 3.616C2.888 3.616 3.336 4.336 3.336 6.048C3.336 7.776 2.888 8.52 2.224 8.52Z" fill="white" fill-opacity="0.4"/>
</g>
<mask id="mask1_203_92" style="mask-type:alpha" maskUnits="userSpaceOnUse" x="0" y="80" width="10" height="80">
<rect y="80" width="10" height="80" fill="#D9D9D9"/>
</mask>
<g mask="url(#mask1_203_92)">
<line x1="2" y1="119.5" x2="10" y2="119.5" stroke="white" stroke-opacity="0.24"/>
<path d="M0.704 89H3.92V88.392H2.744V83.136H2.184C1.864 83.32 1.488 83.456 0.968 83.552V84.016H2.008V88.392H0.704V89ZM6.6615 89.104C7.7735 89.104 8.4855 88.088 8.4855 86.048C8.4855 84.016 7.7735 83.024 6.6615 83.024C5.5415 83.024 4.8295 84.008 4.8295 86.048C4.8295 88.088 5.5415 89.104 6.6615 89.104ZM6.6615 88.52C5.9895 88.52 5.5415 87.776 5.5415 86.048C5.5415 84.336 5.9895 83.616 6.6615 83.616C7.3255 83.616 7.7735 84.336 7.7735 86.048C7.7735 87.776 7.3255 88.52 6.6615 88.52Z" fill="white" fill-opacity="0.4"/>
</g>
<mask id="mask2_203_92" style="mask-type:alpha" maskUnits="userSpaceOnUse" x="0" y="160" width="10" height="80">
<rect y="160" width="10" height="80" fill="#D9D9D9"/>
</mask>
<g mask="url(#mask2_203_92)">
<line x1="2" y1="199.5" x2="10" y2="199.5" stroke="white" stroke-opacity="0.24"/>
<path d="M0.352 169H4.04V168.368H2.416C2.12 168.368 1.76 168.4 1.456 168.424C2.832 167.12 3.752 165.928 3.752 164.76C3.752 163.712 3.096 163.024 2.048 163.024C1.304 163.024 0.8 163.368 0.32 163.888L0.744 164.304C1.064 163.92 1.48 163.624 1.96 163.624C2.688 163.624 3.04 164.112 3.04 164.784C3.04 165.792 2.192 166.96 0.352 168.568V169ZM6.6615 169.104C7.7735 169.104 8.4855 168.088 8.4855 166.048C8.4855 164.016 7.7735 163.024 6.6615 163.024C5.5415 163.024 4.8295 164.008 4.8295 166.048C4.8295 168.088 5.5415 169.104 6.6615 169.104ZM6.6615 168.52C5.9895 168.52 5.5415 167.776 5.5415 166.048C5.5415 164.336 5.9895 163.616 6.6615 163.616C7.3255 163.616 7.7735 164.336 7.7735 166.048C7.7735 167.776 7.3255 168.52 6.6615 168.52Z" fill="white" fill-opacity="0.4"/>
</g>
<mask id="mask3_203_92" style="mask-type:alpha" maskUnits="userSpaceOnUse" x="0" y="240" width="10" height="80">
<rect y="240" width="10" height="80" fill="#D9D9D9"/>
</mask>
<g mask="url(#mask3_203_92)">
<line x1="2" y1="279.5" x2="10" y2="279.5" stroke="white" stroke-opacity="0.24"/>
<path d="M2.112 249.104C3.152 249.104 3.992 248.48 3.992 247.432C3.992 246.632 3.44 246.104 2.744 245.944V245.912C3.368 245.68 3.792 245.208 3.792 244.496C3.792 243.552 3.072 243.024 2.088 243.024C1.408 243.024 0.888 243.32 0.448 243.728L0.84 244.192C1.168 243.864 1.584 243.624 2.056 243.608C2.664 243.624 3.048 243.984 3.048 244.552C3.048 245.184 2.632 245.672 1.424 245.672V246.232C2.776 246.232 3.248 246.704 3.248 247.408C3.248 248.08 2.752 248.496 2.056 248.496C1.392 248.496 0.944 248.184 0.6 247.824L0.232 248.304C0.616 248.72 1.192 249.104 2.112 249.104ZM6.6615 249.104C7.7735 249.104 8.4855 248.088 8.4855 246.048C8.4855 244.016 7.7735 243.024 6.6615 243.024C5.5415 243.024 4.8295 244.008 4.8295 246.048C4.8295 248.088 5.5415 249.104 6.6615 249.104ZM6.6615 248.52C5.9895 248.52 5.5415 247.776 5.5415 246.048C5.5415 244.336 5.9895 243.616 6.6615 243.616C7.3255 243.616 7.7735 244.336 7.7735 246.048C7.7735 247.776 7.3255 248.52 6.6615 248.52Z" fill="white" fill-opacity="0.4"/>
</g>
<mask id="mask4_203_92" style="mask-type:alpha" maskUnits="userSpaceOnUse" x="0" y="320" width="10" height="80">
<rect y="320" width="10" height="80" fill="#D9D9D9"/>
</mask>
<g mask="url(#mask4_203_92)">
<line x1="2" y1="359.5" x2="10" y2="359.5" stroke="white" stroke-opacity="0.24"/>
<path d="M0.92 326.8L2.256 324.8C2.424 324.512 2.584 324.224 2.728 323.936H2.76C2.744 324.24 2.712 324.712 2.712 325V326.8H0.92ZM4.184 326.8H3.408V323.136H2.6L0.16 326.904V327.384H2.712V329H3.408V327.384H4.184V326.8ZM6.6615 329.104C7.7735 329.104 8.4855 328.088 8.4855 326.048C8.4855 324.016 7.7735 323.024 6.6615 323.024C5.5415 323.024 4.8295 324.008 4.8295 326.048C4.8295 328.088 5.5415 329.104 6.6615 329.104ZM6.6615 328.52C5.9895 328.52 5.5415 327.776 5.5415 326.048C5.5415 324.336 5.9895 323.616 6.6615 323.616C7.3255 323.616 7.7735 324.336 7.7735 326.048C7.7735 327.776 7.3255 328.52 6.6615 328.52Z" fill="white" fill-opacity="0.4"/>
</g>
<mask id="mask5_203_92" style="mask-type:alpha" maskUnits="userSpaceOnUse" x="0" y="400" width="10" height="80">
<rect y="400" width="10" height="80" fill="#D9D9D9"/>
</mask>
<g mask="url(#mask5_203_92)">
<line x1="2" y1="439.5" x2="10" y2="439.5" stroke="white" stroke-opacity="0.24"/>
<path d="M0.352 409H4.04V408.368H2.416C2.12 408.368 1.76 408.4 1.456 408.424C2.832 407.12 3.752 405.928 3.752 404.76C3.752 403.712 3.096 403.024 2.048 403.024C1.304 403.024 0.8 403.368 0.32 403.888L0.744 404.304C1.064 403.92 1.48 403.624 1.96 403.624C2.688 403.624 3.04 404.112 3.04 404.784C3.04 405.792 2.192 406.96 0.352 408.568V409ZM6.6615 409.104C7.7735 409.104 8.4855 408.088 8.4855 406.048C8.4855 404.016 7.7735 403.024 6.6615 403.024C5.5415 403.024 4.8295 404.008 4.8295 406.048C4.8295 408.088 5.5415 409.104 6.6615 409.104ZM6.6615 408.52C5.9895 408.52 5.5415 407.776 5.5415 406.048C5.5415 404.336 5.9895 403.616 6.6615 403.616C7.3255 403.616 7.7735 404.336 7.7735 406.048C7.7735 407.776 7.3255 408.52 6.6615 408.52Z" fill="white" fill-opacity="0.4"/>
</g>
<mask id="mask6_203_92" style="mask-type:alpha" maskUnits="userSpaceOnUse" x="0" y="480" width="10" height="80">
<rect y="480" width="10" height="80" fill="#D9D9D9"/>
</mask>
<g mask="url(#mask6_203_92)">
<line x1="2" y1="519.5" x2="10" y2="519.5" stroke="white" stroke-opacity="0.24"/>
<path d="M2.088 489.104C3.08 489.104 4.008 488.376 4.008 487.088C4.008 485.8 3.216 485.224 2.24 485.224C1.888 485.224 1.624 485.312 1.368 485.456L1.512 483.76H3.728V483.136H0.872L0.688 485.88L1.08 486.12C1.416 485.896 1.664 485.776 2.056 485.776C2.792 485.776 3.272 486.272 3.272 487.112C3.272 487.968 2.712 488.496 2.024 488.496C1.344 488.496 0.92 488.184 0.584 487.848L0.224 488.328C0.616 488.72 1.176 489.104 2.088 489.104ZM6.6615 489.104C7.7735 489.104 8.4855 488.088 8.4855 486.048C8.4855 484.016 7.7735 483.024 6.6615 483.024C5.5415 483.024 4.8295 484.008 4.8295 486.048C4.8295 488.088 5.5415 489.104 6.6615 489.104ZM6.6615 488.52C5.9895 488.52 5.5415 487.776 5.5415 486.048C5.5415 484.336 5.9895 483.616 6.6615 483.616C7.3255 483.616 7.7735 484.336 7.7735 486.048C7.7735 487.776 7.3255 488.52 6.6615 488.52Z" fill="white" fill-opacity="0.4"/>
</g>
<mask id="mask7_203_92" style="mask-type:alpha" maskUnits="userSpaceOnUse" x="0" y="560" width="10" height="80">
<rect y="560" width="10" height="80" fill="#D9D9D9"/>
</mask>
<g mask="url(#mask7_203_92)">
<line x1="2" y1="599.5" x2="10" y2="599.5" stroke="white" stroke-opacity="0.24"/>
<path d="M2.408 568.536C1.672 568.536 1.232 567.872 1.144 566.656C1.528 566.112 1.976 565.904 2.344 565.904C3.056 565.904 3.4 566.408 3.4 567.2C3.4 568 2.968 568.536 2.408 568.536ZM3.984 563.624C3.664 563.28 3.224 563.024 2.616 563.024C1.48 563.024 0.448 563.904 0.448 566.2C0.448 568.136 1.28 569.104 2.408 569.104C3.32 569.104 4.088 568.336 4.088 567.2C4.088 565.976 3.456 565.36 2.464 565.36C2 565.36 1.488 565.632 1.128 566.072C1.16 564.248 1.84 563.632 2.64 563.632C3 563.632 3.352 563.8 3.584 564.08L3.984 563.624ZM6.6615 569.104C7.7735 569.104 8.4855 568.088 8.4855 566.048C8.4855 564.016 7.7735 563.024 6.6615 563.024C5.5415 563.024 4.8295 564.008 4.8295 566.048C4.8295 568.088 5.5415 569.104 6.6615 569.104ZM6.6615 568.52C5.9895 568.52 5.5415 567.776 5.5415 566.048C5.5415 564.336 5.9895 563.616 6.6615 563.616C7.3255 563.616 7.7735 564.336 7.7735 566.048C7.7735 567.776 7.3255 568.52 6.6615 568.52Z" fill="white" fill-opacity="0.4"/>
</g>
<rect x="15" y="645" width="1" height="26" transform="rotate(-180 15 645)" fill="#F59E0B" fill-opacity="0.24"/>
<rect x="15" y="611" width="1" height="24" transform="rotate(-180 15 611)" fill="#F59E0B" fill-opacity="0.24"/>
<rect width="1" height="53" transform="matrix(-1 0 0 1 15 1)" fill="#F59E0B" fill-opacity="0.24"/>
<rect x="15" y="617" width="1" height="4" transform="rotate(-180 15 617)" fill="white" fill-opacity="0.72"/>
<rect x="15" y="585" width="1" height="4" transform="rotate(-180 15 585)" fill="white" fill-opacity="0.72"/>
<rect x="15" y="579" width="1" height="4" transform="rotate(-180 15 579)" fill="white" fill-opacity="0.72"/>
<rect x="15" y="573" width="1" height="4" transform="rotate(-180 15 573)" fill="white" fill-opacity="0.72"/>
<rect width="1" height="24" transform="matrix(-1 0 0 1 15 88)" fill="#F59E0B" fill-opacity="0.24"/>
<rect x="15" y="561" width="1" height="425" transform="rotate(-180 15 561)" fill="#F59E0B" fill-opacity="0.24"/>
<rect width="1" height="24" transform="matrix(-1 0 0 1 15 62)" fill="#F59E0B" fill-opacity="0.24"/>
<rect width="1" height="4" transform="matrix(-1 0 0 1 15 56)" fill="white" fill-opacity="0.72"/>
<rect width="1" height="4" transform="matrix(-1 0 0 1 15 116)" fill="white" fill-opacity="0.72"/>
<rect width="1" height="4" transform="matrix(-1 0 0 1 15 122)" fill="white" fill-opacity="0.72"/>
<rect width="1" height="4" transform="matrix(-1 0 0 1 15 128)" fill="white" fill-opacity="0.72"/>
</svg>
