<svg width="206" height="129" viewBox="0 0 206 129" fill="none" xmlns="http://www.w3.org/2000/svg">
<path d="M80.9763 83.5251C68.8124 99.8041 45.7549 103.14 29.4758 90.9763C13.1968 78.8124 9.86076 55.7549 22.0246 39.4758C34.1885 23.1968 57.246 19.8608 73.5251 32.0246C89.8041 44.1885 93.1402 67.246 80.9763 83.5251ZM24.3559 41.2178C13.1541 56.2093 16.2263 77.4432 31.2178 88.645C46.2093 99.8468 67.4432 96.7746 78.645 81.7831C89.8468 66.7916 86.7746 45.5577 71.7831 34.3559C56.7916 23.1541 35.5577 26.2263 24.3559 41.2178Z" fill="#808487"/>
<path d="M30.3468 89.8106C29.8658 90.4544 28.9519 90.5886 28.3277 90.0825C22.7285 85.5431 18.5769 79.4508 16.4049 72.5553C14.0869 65.1964 14.1407 57.2951 16.5587 49.9685C18.9767 42.642 23.6366 36.2608 29.8794 31.7273C36.1223 27.1938 43.6322 24.7374 51.3474 24.7053C59.0626 24.6732 66.5928 27.0671 72.8731 31.5485C79.1534 36.0299 83.8662 42.3721 86.345 49.6783C88.8239 56.9845 88.9435 64.8851 86.6868 72.263C84.5722 79.1763 80.4714 85.3029 74.9102 89.8887C74.2902 90.4 73.3752 90.2735 72.8888 89.6337V89.6337C72.4025 88.994 72.5291 88.0834 73.1474 87.57C78.2237 83.355 81.9677 77.7415 83.9038 71.4117C85.982 64.6174 85.8719 57.3417 83.5891 50.6133C81.3063 43.885 76.9663 38.0444 71.1827 33.9175C65.3991 29.7905 58.4645 27.5859 51.3595 27.6155C44.2545 27.645 37.3386 29.9072 31.5895 34.0821C25.8404 38.2571 21.5491 44.1335 19.3224 50.8806C17.0956 57.6277 17.046 64.9041 19.1807 71.6809C21.1693 77.9943 24.96 83.5766 30.0711 87.7492C30.6937 88.2574 30.8279 89.1669 30.3468 89.8106V89.8106Z" fill="white"/>
<path d="M26.4705 66.746C25.9014 66.8652 25.3411 66.5007 25.2444 65.9273C24.3001 60.3273 25.1701 54.5613 27.7427 49.4778C30.4741 44.0805 34.9619 39.7741 40.4672 37.2677C45.9725 34.7612 52.1672 34.204 58.0315 35.6879C63.8957 37.1717 69.0799 40.6081 72.7305 45.4314C76.3812 50.2546 78.2807 56.1772 78.1163 62.224C77.9519 68.2708 75.7335 74.0814 71.8262 78.6992C67.9189 83.3171 62.5557 86.4668 56.6195 87.6298C51.0284 88.7253 45.2428 87.9969 40.1097 85.5673C39.584 85.3186 39.3854 84.6804 39.6547 84.165V84.165C39.9241 83.6496 40.5594 83.4523 41.0859 83.6993C45.7943 85.9083 51.093 86.5667 56.2146 85.5632C61.6813 84.4921 66.6203 81.5915 70.2186 77.339C73.8168 73.0864 75.8598 67.7353 76.0112 62.1668C76.1625 56.5982 74.4133 51.1441 71.0514 46.7023C67.6895 42.2606 62.9153 39.0959 57.5149 37.7294C52.1145 36.3629 46.4097 36.8761 41.3398 39.1843C36.2699 41.4925 32.1371 45.4583 29.6218 50.4287C27.2652 55.0853 26.4599 60.3637 27.3073 65.4951C27.4021 66.0688 27.0397 66.6267 26.4705 66.746V66.746Z" fill="#808487"/>
<path d="M42.5824 52.0405V53.1765L34.7584 58.7605V61.0005H44.8064V58.7605H38.5664L44.8064 54.2965V50.9365L43.7024 49.8005H35.8624L34.7584 50.9365V53.1605H36.9984V52.0405H42.5824Z" fill="#FEA218"/>
<path d="M48.3221 57.3045V52.0405H52.4661L48.3221 57.3045ZM53.9061 58.7605H49.8421L53.9061 53.5445V58.7605ZM55.0261 61.0005L56.1301 59.8965V50.9365L55.0261 49.8005H47.1861L46.0821 50.9365V59.8965L47.1861 61.0005H55.0261Z" fill="#FEA218"/>
<path d="M59.9628 57.3045V52.0405H64.1068L59.9628 57.3045ZM65.5468 58.7605H61.4828L65.5468 53.5445V58.7605ZM66.6668 61.0005L67.7708 59.8965V50.9365L66.6668 49.8005H58.8268L57.7228 50.9365V59.8965L58.8268 61.0005H66.6668Z" fill="#FEA218"/>
<path d="M46.7236 75.0005L45.5458 71.2329C45.4716 71.0024 45.3329 70.479 45.1298 69.6626H45.0829C44.9267 70.3462 44.79 70.8735 44.6728 71.2446L43.4599 75.0005H42.3349L40.5829 68.5786H41.6025C42.0165 70.1919 42.331 71.4204 42.5458 72.2642C42.7646 73.1079 42.8896 73.6763 42.9208 73.9692H42.9677C43.0107 73.7466 43.079 73.4595 43.1728 73.1079C43.2704 72.7524 43.3544 72.4712 43.4247 72.2642L44.6025 68.5786H45.6572L46.8056 72.2642C47.0243 72.936 47.1728 73.5005 47.2509 73.9575H47.2978C47.3134 73.8169 47.3544 73.6001 47.4208 73.3071C47.4911 73.0142 47.8993 71.438 48.6454 68.5786H49.6532L47.8779 75.0005H46.7236ZM54.0712 66.4341L50.8779 75.0005H49.9052L53.0986 66.4341H54.0712ZM59.5966 74.1392H59.5439C59.0947 74.7915 58.4228 75.1177 57.5282 75.1177C56.6884 75.1177 56.0341 74.8306 55.5654 74.2563C55.1005 73.6821 54.8681 72.8657 54.8681 71.8071C54.8681 70.7485 55.1025 69.9263 55.5712 69.3403C56.04 68.7544 56.6923 68.4614 57.5282 68.4614C58.3993 68.4614 59.0673 68.7778 59.5322 69.4106H59.6083L59.5673 68.9478L59.5439 68.4966V65.8833H60.5165V75.0005H59.7255L59.5966 74.1392ZM57.6513 74.3032C58.3154 74.3032 58.7958 74.1235 59.0927 73.7642C59.3935 73.4009 59.5439 72.8169 59.5439 72.0122V71.8071C59.5439 70.897 59.3915 70.2485 59.0868 69.8618C58.7861 69.4712 58.3036 69.2759 57.6396 69.2759C57.0693 69.2759 56.6318 69.4985 56.3271 69.9438C56.0263 70.3853 55.8759 71.0103 55.8759 71.8188C55.8759 72.6392 56.0263 73.2583 56.3271 73.6763C56.6279 74.0942 57.0693 74.3032 57.6513 74.3032Z" fill="white" fill-opacity="0.9"/>
<path d="M20.4336 4.43359L17.3574 13H16.3555L13.2793 4.43359H14.3223L16.3262 10.0762C16.4082 10.3027 16.4805 10.5195 16.543 10.7266C16.6094 10.9336 16.668 11.1328 16.7188 11.3242C16.7695 11.5156 16.8145 11.7012 16.8535 11.8809C16.8926 11.7012 16.9375 11.5156 16.9883 11.3242C17.0391 11.1289 17.0977 10.9277 17.1641 10.7207C17.2305 10.5098 17.3047 10.2891 17.3867 10.0586L19.3789 4.43359H20.4336ZM23.9375 6.46094C24.4844 6.46094 24.9531 6.58203 25.3438 6.82422C25.7344 7.06641 26.0332 7.40625 26.2402 7.84375C26.4473 8.27734 26.5508 8.78516 26.5508 9.36719V9.9707H22.1152C22.127 10.7246 22.3145 11.2988 22.6777 11.6934C23.041 12.0879 23.5527 12.2852 24.2129 12.2852C24.6191 12.2852 24.9785 12.248 25.291 12.1738C25.6035 12.0996 25.9277 11.9902 26.2637 11.8457V12.7012C25.9395 12.8457 25.6172 12.9512 25.2969 13.0176C24.9805 13.084 24.6055 13.1172 24.1719 13.1172C23.5547 13.1172 23.0156 12.9922 22.5547 12.7422C22.0977 12.4883 21.7422 12.1172 21.4883 11.6289C21.2344 11.1406 21.1074 10.543 21.1074 9.83594C21.1074 9.14453 21.2227 8.54688 21.4531 8.04297C21.6875 7.53516 22.0156 7.14453 22.4375 6.87109C22.8633 6.59766 23.3633 6.46094 23.9375 6.46094ZM23.9258 7.25781C23.4062 7.25781 22.9922 7.42773 22.6836 7.76758C22.375 8.10742 22.1914 8.58203 22.1328 9.19141H25.5312C25.5273 8.80859 25.4668 8.47266 25.3496 8.18359C25.2363 7.89062 25.0625 7.66406 24.8281 7.50391C24.5938 7.33984 24.293 7.25781 23.9258 7.25781ZM29.1816 13H28.2031V3.88281H29.1816V13ZM36.7754 9.77734C36.7754 10.3047 36.707 10.7754 36.5703 11.1895C36.4336 11.6035 36.2363 11.9531 35.9785 12.2383C35.7207 12.5234 35.4082 12.7422 35.041 12.8945C34.6777 13.043 34.2656 13.1172 33.8047 13.1172C33.375 13.1172 32.9805 13.043 32.6211 12.8945C32.2656 12.7422 31.957 12.5234 31.6953 12.2383C31.4375 11.9531 31.2363 11.6035 31.0918 11.1895C30.9512 10.7754 30.8809 10.3047 30.8809 9.77734C30.8809 9.07422 31 8.47656 31.2383 7.98438C31.4766 7.48828 31.8164 7.11133 32.2578 6.85352C32.7031 6.5918 33.2324 6.46094 33.8457 6.46094C34.4316 6.46094 34.9434 6.5918 35.3809 6.85352C35.8223 7.11523 36.1641 7.49414 36.4062 7.99023C36.6523 8.48242 36.7754 9.07812 36.7754 9.77734ZM31.8887 9.77734C31.8887 10.293 31.957 10.7402 32.0938 11.1191C32.2305 11.498 32.4414 11.791 32.7266 11.998C33.0117 12.2051 33.3789 12.3086 33.8281 12.3086C34.2734 12.3086 34.6387 12.2051 34.9238 11.998C35.2129 11.791 35.4258 11.498 35.5625 11.1191C35.6992 10.7402 35.7676 10.293 35.7676 9.77734C35.7676 9.26562 35.6992 8.82422 35.5625 8.45312C35.4258 8.07812 35.2148 7.78906 34.9297 7.58594C34.6445 7.38281 34.2754 7.28125 33.8223 7.28125C33.1543 7.28125 32.6641 7.50195 32.3516 7.94336C32.043 8.38477 31.8887 8.99609 31.8887 9.77734ZM41.0293 13.1172C40.4512 13.1172 39.9414 12.998 39.5 12.7598C39.0586 12.5215 38.7148 12.1582 38.4688 11.6699C38.2227 11.1816 38.0996 10.5664 38.0996 9.82422C38.0996 9.04688 38.2285 8.41211 38.4863 7.91992C38.748 7.42383 39.1074 7.05664 39.5645 6.81836C40.0215 6.58008 40.541 6.46094 41.123 6.46094C41.4434 6.46094 41.752 6.49414 42.0488 6.56055C42.3496 6.62305 42.5957 6.70312 42.7871 6.80078L42.4941 7.61523C42.2988 7.53711 42.0723 7.4668 41.8145 7.4043C41.5605 7.3418 41.3223 7.31055 41.0996 7.31055C40.6543 7.31055 40.2832 7.40625 39.9863 7.59766C39.6934 7.78906 39.4727 8.07031 39.3242 8.44141C39.1797 8.8125 39.1074 9.26953 39.1074 9.8125C39.1074 10.332 39.1777 10.7754 39.3184 11.1426C39.4629 11.5098 39.6758 11.791 39.957 11.9863C40.2422 12.1777 40.5977 12.2734 41.0234 12.2734C41.3633 12.2734 41.6699 12.2383 41.9434 12.168C42.2168 12.0938 42.4648 12.0078 42.6875 11.9102V12.7773C42.4727 12.8867 42.2324 12.9707 41.9668 13.0293C41.7051 13.0879 41.3926 13.1172 41.0293 13.1172ZM45.1836 6.57812V13H44.2109V6.57812H45.1836ZM44.709 4.17578C44.8691 4.17578 45.0059 4.22852 45.1191 4.33398C45.2363 4.43555 45.2949 4.5957 45.2949 4.81445C45.2949 5.0293 45.2363 5.18945 45.1191 5.29492C45.0059 5.40039 44.8691 5.45312 44.709 5.45312C44.541 5.45312 44.4004 5.40039 44.2871 5.29492C44.1777 5.18945 44.123 5.0293 44.123 4.81445C44.123 4.5957 44.1777 4.43555 44.2871 4.33398C44.4004 4.22852 44.541 4.17578 44.709 4.17578ZM49.3203 12.3203C49.4805 12.3203 49.6445 12.3066 49.8125 12.2793C49.9805 12.252 50.1172 12.2188 50.2227 12.1797V12.9355C50.1094 12.9863 49.9512 13.0293 49.748 13.0645C49.5488 13.0996 49.3535 13.1172 49.1621 13.1172C48.8223 13.1172 48.5137 13.0586 48.2363 12.9414C47.959 12.8203 47.7363 12.6172 47.5684 12.332C47.4043 12.0469 47.3223 11.6523 47.3223 11.1484V7.33984H46.4082V6.86523L47.3281 6.48438L47.7148 5.08984H48.3008V6.57812H50.1816V7.33984H48.3008V11.1191C48.3008 11.5215 48.3926 11.8223 48.5762 12.0215C48.7637 12.2207 49.0117 12.3203 49.3203 12.3203ZM50.5098 6.57812H51.5527L52.9707 10.3047C53.0527 10.5234 53.1289 10.7344 53.1992 10.9375C53.2695 11.1367 53.332 11.3281 53.3867 11.5117C53.4414 11.6953 53.4844 11.873 53.5156 12.0449H53.5566C53.6113 11.8496 53.6895 11.5938 53.791 11.2773C53.8926 10.957 54.002 10.6309 54.1191 10.2988L55.4609 6.57812H56.5098L53.7148 13.9434C53.5664 14.3379 53.3926 14.6816 53.1934 14.9746C52.998 15.2676 52.7598 15.4922 52.4785 15.6484C52.1973 15.8086 51.8574 15.8887 51.459 15.8887C51.2754 15.8887 51.1133 15.877 50.9727 15.8535C50.832 15.834 50.7109 15.8105 50.6094 15.7832V15.0039C50.6953 15.0234 50.7988 15.041 50.9199 15.0566C51.0449 15.0723 51.1738 15.0801 51.3066 15.0801C51.5488 15.0801 51.7578 15.0332 51.9336 14.9395C52.1133 14.8496 52.2676 14.7168 52.3965 14.541C52.5254 14.3652 52.6367 14.1562 52.7305 13.9141L53.082 13.0117L50.5098 6.57812ZM60.1074 9.71289C60.1074 9.05273 60.1699 8.41016 60.2949 7.78516C60.4238 7.16016 60.6191 6.56445 60.8809 5.99805C61.1426 5.43164 61.4727 4.91016 61.8711 4.43359H62.8027C62.2363 5.17578 61.8105 6 61.5254 6.90625C61.2402 7.8125 61.0977 8.74414 61.0977 9.70117C61.0977 10.3262 61.1602 10.9434 61.2852 11.5527C61.4141 12.1582 61.6035 12.7422 61.8535 13.3047C62.1074 13.8672 62.4199 14.3984 62.791 14.8984H61.8711C61.4727 14.4297 61.1426 13.918 60.8809 13.3633C60.6191 12.8125 60.4238 12.2285 60.2949 11.6113C60.1699 10.9941 60.1074 10.3613 60.1074 9.71289ZM71.1406 8.63477C71.1406 9.59961 70.9648 10.4062 70.6133 11.0547C70.2617 11.6992 69.752 12.1855 69.084 12.5137C68.4199 12.8379 67.6133 13 66.6641 13H64.3379V4.43359H66.9219C67.793 4.43359 68.543 4.59375 69.1719 4.91406C69.8008 5.23047 70.2852 5.70117 70.625 6.32617C70.9688 6.94727 71.1406 7.7168 71.1406 8.63477ZM70.0918 8.66992C70.0918 7.90039 69.9629 7.26562 69.7051 6.76562C69.4512 6.26562 69.0762 5.89453 68.5801 5.65234C68.0879 5.40625 67.4844 5.2832 66.7695 5.2832H65.334V12.1445H66.5469C67.7266 12.1445 68.6113 11.8535 69.2012 11.2715C69.7949 10.6895 70.0918 9.82227 70.0918 8.66992ZM78.418 13L77.3633 10.2812H73.9297L72.8809 13H71.873L75.2246 4.39844H76.1211L79.4492 13H78.418ZM77.0645 9.39648L76.0625 6.69531C76.0391 6.625 76 6.50977 75.9453 6.34961C75.8945 6.18945 75.8418 6.02344 75.7871 5.85156C75.7324 5.67969 75.6875 5.54102 75.6523 5.43555C75.6133 5.5957 75.5703 5.75586 75.5234 5.91602C75.4805 6.07227 75.4375 6.21875 75.3945 6.35547C75.3516 6.48828 75.3145 6.60156 75.2832 6.69531L74.2637 9.39648H77.0645ZM82.8242 8.72852L85.1035 4.43359H86.1758L83.3223 9.67773V13H82.3262V9.72461L79.4668 4.43359H80.5566L82.8242 8.72852ZM89.2402 9.70117C89.2402 10.3535 89.1758 10.9902 89.0469 11.6113C88.9219 12.2285 88.7285 12.8145 88.4668 13.3691C88.209 13.9238 87.8789 14.4336 87.4766 14.8984H86.5566C86.9316 14.4023 87.2441 13.8711 87.4941 13.3047C87.748 12.7383 87.9375 12.1523 88.0625 11.5469C88.1914 10.9375 88.2559 10.3203 88.2559 9.69531C88.2559 9.05859 88.1914 8.43164 88.0625 7.81445C87.9336 7.19727 87.7422 6.60352 87.4883 6.0332C87.2383 5.46289 86.9238 4.92969 86.5449 4.43359H87.4766C87.8789 4.91406 88.209 5.4375 88.4668 6.00391C88.7285 6.56641 88.9219 7.16016 89.0469 7.78516C89.1758 8.40625 89.2402 9.04492 89.2402 9.70117Z" fill="#9BA3AA"/>
<path d="M183.976 83.5251C171.812 99.8041 148.755 103.14 132.476 90.9763C116.197 78.8124 112.861 55.7549 125.025 39.4758C137.188 23.1968 160.246 19.8608 176.525 32.0246C192.804 44.1885 196.14 67.246 183.976 83.5251ZM127.356 41.2178C116.154 56.2093 119.226 77.4432 134.218 88.645C149.209 99.8468 170.443 96.7746 181.645 81.7831C192.847 66.7916 189.775 45.5577 174.783 34.3559C159.792 23.1541 138.558 26.2263 127.356 41.2178Z" fill="#808487"/>
<path d="M133.347 89.8106C132.866 90.4544 131.952 90.5886 131.328 90.0825C125.728 85.5431 121.577 79.4508 119.405 72.5553C117.087 65.1964 117.141 57.2951 119.559 49.9685C121.977 42.642 126.637 36.2608 132.879 31.7273C139.122 27.1938 146.632 24.7374 154.347 24.7053C162.063 24.6732 169.593 27.0671 175.873 31.5485C182.153 36.0299 186.866 42.3721 189.345 49.6783C191.824 56.9845 191.943 64.8851 189.687 72.263C187.572 79.1763 183.471 85.3029 177.91 89.8887C177.29 90.4 176.375 90.2735 175.889 89.6337V89.6337C175.402 88.994 175.529 88.0834 176.147 87.57C181.224 83.355 184.968 77.7415 186.904 71.4117C188.982 64.6174 188.872 57.3417 186.589 50.6133C184.306 43.885 179.966 38.0444 174.183 33.9175C168.399 29.7905 161.465 27.5859 154.36 27.6155C147.255 27.645 140.339 29.9072 134.589 34.0821C128.84 38.2571 124.549 44.1335 122.322 50.8806C120.096 57.6277 120.046 64.9041 122.181 71.6809C124.169 77.9943 127.96 83.5766 133.071 87.7492C133.694 88.2574 133.828 89.1669 133.347 89.8106V89.8106Z" fill="#FEA218"/>
<path d="M133.347 89.8106C132.866 90.4544 131.952 90.5885 131.328 90.0824C126.251 85.9663 122.354 80.5657 120.052 74.4302C117.578 67.8399 117.047 60.6785 118.521 53.7954C119.995 46.9123 123.412 40.5965 128.368 35.5971C133.323 30.5978 139.609 27.1248 146.478 25.5901C153.348 24.0554 160.514 24.5235 167.126 26.9388C173.738 29.3541 179.518 33.6152 183.781 39.2167C188.044 44.8181 190.611 51.5249 191.177 58.5412C191.704 65.0734 190.476 71.6187 187.634 77.5041C187.284 78.2277 186.4 78.4952 185.691 78.1174V78.1174C184.981 77.7395 184.716 76.8594 185.063 76.1346C187.645 70.7416 188.758 64.7525 188.276 58.7753C187.755 52.3139 185.391 46.1376 181.465 40.9791C177.539 35.8207 172.216 31.8966 166.127 29.6723C160.038 27.4481 153.439 27.017 147.113 28.4303C140.786 29.8436 134.998 33.0419 130.435 37.6459C125.871 42.2498 122.724 48.0661 121.367 54.4048C120.009 60.7435 120.498 67.3385 122.776 73.4075C124.883 79.0217 128.439 83.9678 133.071 87.7492C133.694 88.2574 133.828 89.1669 133.347 89.8106V89.8106Z" fill="white"/>
<path d="M147.383 89H146.434V82.8945C146.434 82.3867 146.449 81.9062 146.48 81.4531C146.398 81.5352 146.307 81.6211 146.205 81.7109C146.104 81.8008 145.639 82.1816 144.811 82.8535L144.295 82.1855L146.562 80.4336H147.383V89ZM153.324 83.7676C154.227 83.7676 154.936 83.9922 155.451 84.4414C155.971 84.8867 156.23 85.498 156.23 86.2754C156.23 87.1621 155.947 87.8574 155.381 88.3613C154.818 88.8652 154.041 89.1172 153.049 89.1172C152.084 89.1172 151.348 88.9629 150.84 88.6543V87.7168C151.113 87.8926 151.453 88.0312 151.859 88.1328C152.266 88.2305 152.666 88.2793 153.061 88.2793C153.748 88.2793 154.281 88.1172 154.66 87.793C155.043 87.4688 155.234 87 155.234 86.3867C155.234 85.1914 154.502 84.5938 153.037 84.5938C152.666 84.5938 152.17 84.6504 151.549 84.7637L151.045 84.4414L151.367 80.4336H155.627V81.3301H152.199L151.982 83.9023C152.432 83.8125 152.879 83.7676 153.324 83.7676ZM158.346 82.9883C158.346 83.6523 158.418 84.1504 158.562 84.4824C158.707 84.8145 158.941 84.9805 159.266 84.9805C159.906 84.9805 160.227 84.3164 160.227 82.9883C160.227 81.668 159.906 81.0078 159.266 81.0078C158.941 81.0078 158.707 81.1719 158.562 81.5C158.418 81.8281 158.346 82.3242 158.346 82.9883ZM161.029 82.9883C161.029 83.8789 160.879 84.5527 160.578 85.0098C160.281 85.4629 159.844 85.6895 159.266 85.6895C158.719 85.6895 158.293 85.457 157.988 84.9922C157.688 84.5273 157.537 83.8594 157.537 82.9883C157.537 82.1016 157.682 81.4336 157.971 80.9844C158.264 80.5352 158.695 80.3105 159.266 80.3105C159.832 80.3105 160.268 80.543 160.572 81.0078C160.877 81.4727 161.029 82.1328 161.029 82.9883ZM163.502 86.4219C163.502 87.0898 163.574 87.5898 163.719 87.9219C163.863 88.25 164.1 88.4141 164.428 88.4141C164.756 88.4141 164.998 88.252 165.154 87.9277C165.311 87.5996 165.389 87.0977 165.389 86.4219C165.389 85.7539 165.311 85.2598 165.154 84.9395C164.998 84.6152 164.756 84.4531 164.428 84.4531C164.1 84.4531 163.863 84.6152 163.719 84.9395C163.574 85.2598 163.502 85.7539 163.502 86.4219ZM166.191 86.4219C166.191 87.3086 166.041 87.9805 165.74 88.4375C165.443 88.8906 165.006 89.1172 164.428 89.1172C163.873 89.1172 163.445 88.8848 163.145 88.4199C162.848 87.9551 162.699 87.2891 162.699 86.4219C162.699 85.5352 162.844 84.8672 163.133 84.418C163.426 83.9688 163.857 83.7441 164.428 83.7441C164.982 83.7441 165.414 83.9746 165.723 84.4355C166.035 84.8926 166.191 85.5547 166.191 86.4219ZM164.68 80.4336L159.928 89H159.066L163.818 80.4336H164.68Z" fill="white" fill-opacity="0.9"/>
<line x1="156.688" y1="61.6671" x2="187.688" y2="77.6671" stroke="white" stroke-width="3"/>
<path d="M127.85 4.43359V9.97656C127.85 10.582 127.727 11.1211 127.48 11.5938C127.238 12.0664 126.871 12.4395 126.379 12.7129C125.887 12.9824 125.27 13.1172 124.527 13.1172C123.469 13.1172 122.662 12.8301 122.107 12.2559C121.557 11.6816 121.281 10.9141 121.281 9.95312V4.43359H122.283V9.98242C122.283 10.709 122.475 11.2695 122.857 11.6641C123.244 12.0586 123.82 12.2559 124.586 12.2559C125.109 12.2559 125.537 12.1621 125.869 11.9746C126.205 11.7832 126.453 11.5176 126.613 11.1777C126.777 10.834 126.859 10.4375 126.859 9.98828V4.43359H127.85ZM134.131 11.2422C134.131 11.6523 134.027 11.998 133.82 12.2793C133.617 12.5566 133.324 12.7656 132.941 12.9062C132.562 13.0469 132.109 13.1172 131.582 13.1172C131.133 13.1172 130.744 13.082 130.416 13.0117C130.088 12.9414 129.801 12.8418 129.555 12.7129V11.8164C129.816 11.9453 130.129 12.0625 130.492 12.168C130.855 12.2734 131.227 12.3262 131.605 12.3262C132.16 12.3262 132.562 12.2363 132.812 12.0566C133.062 11.877 133.188 11.6328 133.188 11.3242C133.188 11.1484 133.137 10.9941 133.035 10.8613C132.938 10.7246 132.771 10.5938 132.537 10.4688C132.303 10.3398 131.979 10.1992 131.564 10.0469C131.154 9.89062 130.799 9.73633 130.498 9.58398C130.201 9.42773 129.971 9.23828 129.807 9.01562C129.646 8.79297 129.566 8.50391 129.566 8.14844C129.566 7.60547 129.785 7.18945 130.223 6.90039C130.664 6.60742 131.242 6.46094 131.957 6.46094C132.344 6.46094 132.705 6.5 133.041 6.57812C133.381 6.65234 133.697 6.75391 133.99 6.88281L133.662 7.66211C133.396 7.54883 133.113 7.45312 132.812 7.375C132.512 7.29688 132.205 7.25781 131.893 7.25781C131.443 7.25781 131.098 7.33203 130.855 7.48047C130.617 7.62891 130.498 7.83203 130.498 8.08984C130.498 8.28906 130.553 8.45312 130.662 8.58203C130.775 8.71094 130.955 8.83203 131.201 8.94531C131.447 9.05859 131.771 9.19141 132.174 9.34375C132.576 9.49219 132.924 9.64648 133.217 9.80664C133.51 9.96289 133.734 10.1543 133.891 10.3809C134.051 10.6035 134.131 10.8906 134.131 11.2422ZM138.098 6.47266C138.863 6.47266 139.432 6.64453 139.803 6.98828C140.174 7.33203 140.359 7.88086 140.359 8.63477V13H139.65L139.463 12.0508H139.416C139.236 12.2852 139.049 12.4824 138.854 12.6426C138.658 12.7988 138.432 12.918 138.174 13C137.92 13.0781 137.607 13.1172 137.236 13.1172C136.846 13.1172 136.498 13.0488 136.193 12.9121C135.893 12.7754 135.654 12.5684 135.479 12.291C135.307 12.0137 135.221 11.6621 135.221 11.2363C135.221 10.5957 135.475 10.1035 135.982 9.75977C136.49 9.41602 137.264 9.22852 138.303 9.19727L139.41 9.15039V8.75781C139.41 8.20312 139.291 7.81445 139.053 7.5918C138.814 7.36914 138.479 7.25781 138.045 7.25781C137.709 7.25781 137.389 7.30664 137.084 7.4043C136.779 7.50195 136.49 7.61719 136.217 7.75L135.918 7.01172C136.207 6.86328 136.539 6.73633 136.914 6.63086C137.289 6.52539 137.684 6.47266 138.098 6.47266ZM139.398 9.83594L138.42 9.87695C137.619 9.9082 137.055 10.0391 136.727 10.2695C136.398 10.5 136.234 10.8262 136.234 11.248C136.234 11.6152 136.346 11.8867 136.568 12.0625C136.791 12.2383 137.086 12.3262 137.453 12.3262C138.023 12.3262 138.49 12.168 138.854 11.8516C139.217 11.5352 139.398 11.0605 139.398 10.4277V9.83594ZM144.156 15.8828C143.312 15.8828 142.662 15.7246 142.205 15.4082C141.748 15.0957 141.52 14.6562 141.52 14.0898C141.52 13.6875 141.646 13.3438 141.9 13.0586C142.158 12.7734 142.514 12.584 142.967 12.4902C142.799 12.4121 142.654 12.2949 142.533 12.1387C142.416 11.9824 142.357 11.8027 142.357 11.5996C142.357 11.3652 142.422 11.1602 142.551 10.9844C142.684 10.8047 142.885 10.6328 143.154 10.4688C142.818 10.332 142.545 10.1016 142.334 9.77734C142.127 9.44922 142.023 9.06836 142.023 8.63477C142.023 8.17383 142.119 7.78125 142.311 7.45703C142.502 7.12891 142.779 6.87891 143.143 6.70703C143.506 6.53516 143.945 6.44922 144.461 6.44922C144.574 6.44922 144.688 6.45508 144.801 6.4668C144.918 6.47461 145.029 6.48828 145.135 6.50781C145.24 6.52344 145.332 6.54297 145.41 6.56641H147.613V7.19336L146.43 7.33984C146.547 7.49219 146.645 7.67578 146.723 7.89062C146.801 8.10547 146.84 8.34375 146.84 8.60547C146.84 9.24609 146.623 9.75586 146.189 10.1348C145.756 10.5098 145.16 10.6973 144.402 10.6973C144.223 10.6973 144.039 10.6816 143.852 10.6504C143.66 10.7559 143.514 10.873 143.412 11.002C143.314 11.1309 143.266 11.2793 143.266 11.4473C143.266 11.5723 143.303 11.6719 143.377 11.7461C143.455 11.8203 143.566 11.875 143.711 11.9102C143.855 11.9414 144.029 11.957 144.232 11.957H145.363C146.062 11.957 146.598 12.1035 146.969 12.3965C147.344 12.6895 147.531 13.1172 147.531 13.6797C147.531 14.3906 147.242 14.9355 146.664 15.3145C146.086 15.6934 145.25 15.8828 144.156 15.8828ZM144.186 15.1211C144.717 15.1211 145.156 15.0664 145.504 14.957C145.855 14.8516 146.117 14.6973 146.289 14.4941C146.465 14.2949 146.553 14.0566 146.553 13.7793C146.553 13.5215 146.494 13.3262 146.377 13.1934C146.26 13.0645 146.088 12.9785 145.861 12.9355C145.635 12.8887 145.357 12.8652 145.029 12.8652H143.916C143.627 12.8652 143.375 12.9102 143.16 13C142.945 13.0898 142.779 13.2227 142.662 13.3984C142.549 13.5742 142.492 13.793 142.492 14.0547C142.492 14.4023 142.639 14.666 142.932 14.8457C143.225 15.0293 143.643 15.1211 144.186 15.1211ZM144.438 9.98828C144.902 9.98828 145.252 9.87109 145.486 9.63672C145.721 9.40234 145.838 9.06055 145.838 8.61133C145.838 8.13086 145.719 7.77148 145.48 7.5332C145.242 7.29102 144.891 7.16992 144.426 7.16992C143.98 7.16992 143.637 7.29492 143.395 7.54492C143.156 7.79102 143.037 8.15234 143.037 8.62891C143.037 9.06641 143.158 9.40234 143.4 9.63672C143.643 9.87109 143.988 9.98828 144.438 9.98828ZM151.352 6.46094C151.898 6.46094 152.367 6.58203 152.758 6.82422C153.148 7.06641 153.447 7.40625 153.654 7.84375C153.861 8.27734 153.965 8.78516 153.965 9.36719V9.9707H149.529C149.541 10.7246 149.729 11.2988 150.092 11.6934C150.455 12.0879 150.967 12.2852 151.627 12.2852C152.033 12.2852 152.393 12.248 152.705 12.1738C153.018 12.0996 153.342 11.9902 153.678 11.8457V12.7012C153.354 12.8457 153.031 12.9512 152.711 13.0176C152.395 13.084 152.02 13.1172 151.586 13.1172C150.969 13.1172 150.43 12.9922 149.969 12.7422C149.512 12.4883 149.156 12.1172 148.902 11.6289C148.648 11.1406 148.521 10.543 148.521 9.83594C148.521 9.14453 148.637 8.54688 148.867 8.04297C149.102 7.53516 149.43 7.14453 149.852 6.87109C150.277 6.59766 150.777 6.46094 151.352 6.46094ZM151.34 7.25781C150.82 7.25781 150.406 7.42773 150.098 7.76758C149.789 8.10742 149.605 8.58203 149.547 9.19141H152.945C152.941 8.80859 152.881 8.47266 152.764 8.18359C152.65 7.89062 152.477 7.66406 152.242 7.50391C152.008 7.33984 151.707 7.25781 151.34 7.25781ZM158.189 9.71289C158.189 9.05273 158.252 8.41016 158.377 7.78516C158.506 7.16016 158.701 6.56445 158.963 5.99805C159.225 5.43164 159.555 4.91016 159.953 4.43359H160.885C160.318 5.17578 159.893 6 159.607 6.90625C159.322 7.8125 159.18 8.74414 159.18 9.70117C159.18 10.3262 159.242 10.9434 159.367 11.5527C159.496 12.1582 159.686 12.7422 159.936 13.3047C160.189 13.8672 160.502 14.3984 160.873 14.8984H159.953C159.555 14.4297 159.225 13.918 158.963 13.3633C158.701 12.8125 158.506 12.2285 158.377 11.6113C158.252 10.9941 158.189 10.3613 158.189 9.71289ZM169.223 8.63477C169.223 9.59961 169.047 10.4062 168.695 11.0547C168.344 11.6992 167.834 12.1855 167.166 12.5137C166.502 12.8379 165.695 13 164.746 13H162.42V4.43359H165.004C165.875 4.43359 166.625 4.59375 167.254 4.91406C167.883 5.23047 168.367 5.70117 168.707 6.32617C169.051 6.94727 169.223 7.7168 169.223 8.63477ZM168.174 8.66992C168.174 7.90039 168.045 7.26562 167.787 6.76562C167.533 6.26562 167.158 5.89453 166.662 5.65234C166.17 5.40625 165.566 5.2832 164.852 5.2832H163.416V12.1445H164.629C165.809 12.1445 166.693 11.8535 167.283 11.2715C167.877 10.6895 168.174 9.82227 168.174 8.66992ZM176.5 13L175.445 10.2812H172.012L170.963 13H169.955L173.307 4.39844H174.203L177.531 13H176.5ZM175.146 9.39648L174.145 6.69531C174.121 6.625 174.082 6.50977 174.027 6.34961C173.977 6.18945 173.924 6.02344 173.869 5.85156C173.814 5.67969 173.77 5.54102 173.734 5.43555C173.695 5.5957 173.652 5.75586 173.605 5.91602C173.562 6.07227 173.52 6.21875 173.477 6.35547C173.434 6.48828 173.396 6.60156 173.365 6.69531L172.346 9.39648H175.146ZM180.906 8.72852L183.186 4.43359H184.258L181.404 9.67773V13H180.408V9.72461L177.549 4.43359H178.639L180.906 8.72852ZM187.322 9.70117C187.322 10.3535 187.258 10.9902 187.129 11.6113C187.004 12.2285 186.811 12.8145 186.549 13.3691C186.291 13.9238 185.961 14.4336 185.559 14.8984H184.639C185.014 14.4023 185.326 13.8711 185.576 13.3047C185.83 12.7383 186.02 12.1523 186.145 11.5469C186.273 10.9375 186.338 10.3203 186.338 9.69531C186.338 9.05859 186.273 8.43164 186.145 7.81445C186.016 7.19727 185.824 6.60352 185.57 6.0332C185.32 5.46289 185.006 4.92969 184.627 4.43359H185.559C185.961 4.91406 186.291 5.4375 186.549 6.00391C186.811 6.56641 187.004 7.16016 187.129 7.78516C187.258 8.40625 187.322 9.04492 187.322 9.70117Z" fill="#9BA3AA"/>
<path d="M36.0918 119.635C36.0918 120.6 35.916 121.406 35.5645 122.055C35.2129 122.699 34.7031 123.186 34.0352 123.514C33.3711 123.838 32.5645 124 31.6152 124H29.2891V115.434H31.873C32.7441 115.434 33.4941 115.594 34.123 115.914C34.752 116.23 35.2363 116.701 35.5762 117.326C35.9199 117.947 36.0918 118.717 36.0918 119.635ZM35.043 119.67C35.043 118.9 34.9141 118.266 34.6562 117.766C34.4023 117.266 34.0273 116.895 33.5312 116.652C33.0391 116.406 32.4355 116.283 31.7207 116.283H30.2852V123.145H31.498C32.6777 123.145 33.5625 122.854 34.1523 122.271C34.7461 121.689 35.043 120.822 35.043 119.67ZM40.252 117.473C41.0176 117.473 41.5859 117.645 41.957 117.988C42.3281 118.332 42.5137 118.881 42.5137 119.635V124H41.8047L41.6172 123.051H41.5703C41.3906 123.285 41.2031 123.482 41.0078 123.643C40.8125 123.799 40.5859 123.918 40.3281 124C40.0742 124.078 39.7617 124.117 39.3906 124.117C39 124.117 38.6523 124.049 38.3477 123.912C38.0469 123.775 37.8086 123.568 37.6328 123.291C37.4609 123.014 37.375 122.662 37.375 122.236C37.375 121.596 37.6289 121.104 38.1367 120.76C38.6445 120.416 39.418 120.229 40.457 120.197L41.5645 120.15V119.758C41.5645 119.203 41.4453 118.814 41.207 118.592C40.9688 118.369 40.6328 118.258 40.1992 118.258C39.8633 118.258 39.543 118.307 39.2383 118.404C38.9336 118.502 38.6445 118.617 38.3711 118.75L38.0723 118.012C38.3613 117.863 38.6934 117.736 39.0684 117.631C39.4434 117.525 39.8379 117.473 40.252 117.473ZM41.5527 120.836L40.5742 120.877C39.7734 120.908 39.209 121.039 38.8809 121.27C38.5527 121.5 38.3887 121.826 38.3887 122.248C38.3887 122.615 38.5 122.887 38.7227 123.062C38.9453 123.238 39.2402 123.326 39.6074 123.326C40.1777 123.326 40.6445 123.168 41.0078 122.852C41.3711 122.535 41.5527 122.061 41.5527 121.428V120.836ZM46.5918 123.32C46.752 123.32 46.916 123.307 47.084 123.279C47.252 123.252 47.3887 123.219 47.4941 123.18V123.936C47.3809 123.986 47.2227 124.029 47.0195 124.064C46.8203 124.1 46.625 124.117 46.4336 124.117C46.0938 124.117 45.7852 124.059 45.5078 123.941C45.2305 123.82 45.0078 123.617 44.8398 123.332C44.6758 123.047 44.5938 122.652 44.5938 122.148V118.34H43.6797V117.865L44.5996 117.484L44.9863 116.09H45.5723V117.578H47.4531V118.34H45.5723V122.119C45.5723 122.521 45.6641 122.822 45.8477 123.021C46.0352 123.221 46.2832 123.32 46.5918 123.32ZM51.2676 117.461C51.8145 117.461 52.2832 117.582 52.6738 117.824C53.0645 118.066 53.3633 118.406 53.5703 118.844C53.7773 119.277 53.8809 119.785 53.8809 120.367V120.971H49.4453C49.457 121.725 49.6445 122.299 50.0078 122.693C50.3711 123.088 50.8828 123.285 51.543 123.285C51.9492 123.285 52.3086 123.248 52.6211 123.174C52.9336 123.1 53.2578 122.99 53.5938 122.846V123.701C53.2695 123.846 52.9473 123.951 52.627 124.018C52.3105 124.084 51.9355 124.117 51.502 124.117C50.8848 124.117 50.3457 123.992 49.8848 123.742C49.4277 123.488 49.0723 123.117 48.8184 122.629C48.5645 122.141 48.4375 121.543 48.4375 120.836C48.4375 120.145 48.5527 119.547 48.7832 119.043C49.0176 118.535 49.3457 118.145 49.7676 117.871C50.1934 117.598 50.6934 117.461 51.2676 117.461ZM51.2559 118.258C50.7363 118.258 50.3223 118.428 50.0137 118.768C49.7051 119.107 49.5215 119.582 49.4629 120.191H52.8613C52.8574 119.809 52.7969 119.473 52.6797 119.184C52.5664 118.891 52.3926 118.664 52.1582 118.504C51.9238 118.34 51.623 118.258 51.2559 118.258ZM60.5078 117.484C60.0158 117.484 59.5958 117.124 59.5958 116.584C59.5958 116.032 60.0158 115.672 60.5078 115.672C60.9878 115.672 61.4078 116.032 61.4078 116.584C61.4078 117.124 60.9878 117.484 60.5078 117.484ZM60.5078 123.352C60.0158 123.352 59.5958 123.004 59.5958 122.452C59.5958 121.9 60.0158 121.552 60.5078 121.552C60.9878 121.552 61.4078 121.9 61.4078 122.452C61.4078 123.004 60.9878 123.352 60.5078 123.352Z" fill="#808487"/>
<path d="M72.7129 124H67.0996V123.186L69.3906 120.859C69.8164 120.43 70.1738 120.047 70.4629 119.711C70.7559 119.375 70.9785 119.045 71.1309 118.721C71.2832 118.393 71.3594 118.033 71.3594 117.643C71.3594 117.158 71.2148 116.789 70.9258 116.535C70.6406 116.277 70.2637 116.148 69.7949 116.148C69.3848 116.148 69.0215 116.219 68.7051 116.359C68.3887 116.5 68.0645 116.699 67.7324 116.957L67.2109 116.301C67.4375 116.109 67.6836 115.939 67.9492 115.791C68.2188 115.643 68.5059 115.525 68.8105 115.439C69.1191 115.354 69.4473 115.311 69.7949 115.311C70.3223 115.311 70.7773 115.402 71.1602 115.586C71.543 115.77 71.8379 116.031 72.0449 116.371C72.2559 116.711 72.3613 117.115 72.3613 117.584C72.3613 118.037 72.2715 118.459 72.0918 118.85C71.9121 119.236 71.6602 119.621 71.3359 120.004C71.0117 120.383 70.6328 120.785 70.1992 121.211L68.3359 123.068V123.109H72.7129V124ZM79.627 119.705C79.627 120.4 79.5742 121.021 79.4688 121.568C79.3633 122.115 79.1973 122.578 78.9707 122.957C78.7441 123.336 78.4512 123.625 78.0918 123.824C77.7324 124.02 77.3008 124.117 76.7969 124.117C76.1602 124.117 75.6328 123.943 75.2148 123.596C74.8008 123.248 74.4902 122.746 74.2832 122.09C74.0801 121.43 73.9785 120.635 73.9785 119.705C73.9785 118.791 74.0703 118.006 74.2539 117.35C74.4414 116.689 74.7422 116.184 75.1562 115.832C75.5703 115.477 76.1172 115.299 76.7969 115.299C77.4414 115.299 77.9727 115.475 78.3906 115.826C78.8086 116.174 79.1191 116.678 79.3223 117.338C79.5254 117.994 79.627 118.783 79.627 119.705ZM74.957 119.705C74.957 120.502 75.0176 121.166 75.1387 121.697C75.2598 122.229 75.4551 122.627 75.7246 122.893C75.998 123.154 76.3555 123.285 76.7969 123.285C77.2383 123.285 77.5938 123.154 77.8633 122.893C78.1367 122.631 78.334 122.234 78.4551 121.703C78.5801 121.172 78.6426 120.506 78.6426 119.705C78.6426 118.92 78.582 118.264 78.4609 117.736C78.3398 117.205 78.1445 116.807 77.875 116.541C77.6055 116.271 77.2461 116.137 76.7969 116.137C76.3477 116.137 75.9883 116.271 75.7188 116.541C75.4492 116.807 75.2539 117.205 75.1328 117.736C75.0156 118.264 74.957 118.92 74.957 119.705ZM86.4473 124H80.834V123.186L83.125 120.859C83.5508 120.43 83.9082 120.047 84.1973 119.711C84.4902 119.375 84.7129 119.045 84.8652 118.721C85.0176 118.393 85.0938 118.033 85.0938 117.643C85.0938 117.158 84.9492 116.789 84.6602 116.535C84.375 116.277 83.998 116.148 83.5293 116.148C83.1191 116.148 82.7559 116.219 82.4395 116.359C82.123 116.5 81.7988 116.699 81.4668 116.957L80.9453 116.301C81.1719 116.109 81.418 115.939 81.6836 115.791C81.9531 115.643 82.2402 115.525 82.5449 115.439C82.8535 115.354 83.1816 115.311 83.5293 115.311C84.0566 115.311 84.5117 115.402 84.8945 115.586C85.2773 115.77 85.5723 116.031 85.7793 116.371C85.9902 116.711 86.0957 117.115 86.0957 117.584C86.0957 118.037 86.0059 118.459 85.8262 118.85C85.6465 119.236 85.3945 119.621 85.0703 120.004C84.7461 120.383 84.3672 120.785 83.9336 121.211L82.0703 123.068V123.109H86.4473V124ZM93.7422 122.014H92.459V124H91.5098V122.014H87.3672V121.193L91.4453 115.387H92.459V121.135H93.7422V122.014ZM91.5098 121.135V118.334C91.5098 118.119 91.5117 117.926 91.5156 117.754C91.5195 117.578 91.5254 117.416 91.5332 117.268C91.541 117.115 91.5469 116.971 91.5508 116.834C91.5586 116.697 91.5645 116.562 91.5684 116.43H91.5215C91.4473 116.586 91.3613 116.752 91.2637 116.928C91.1699 117.1 91.0742 117.254 90.9766 117.391L88.334 121.135H91.5098ZM98.248 115.434L95.0605 124H94.0996L97.293 115.434H98.248ZM104.635 119.705C104.635 120.4 104.582 121.021 104.477 121.568C104.371 122.115 104.205 122.578 103.979 122.957C103.752 123.336 103.459 123.625 103.1 123.824C102.74 124.02 102.309 124.117 101.805 124.117C101.168 124.117 100.641 123.943 100.223 123.596C99.8086 123.248 99.498 122.746 99.291 122.09C99.0879 121.43 98.9863 120.635 98.9863 119.705C98.9863 118.791 99.0781 118.006 99.2617 117.35C99.4492 116.689 99.75 116.184 100.164 115.832C100.578 115.477 101.125 115.299 101.805 115.299C102.449 115.299 102.98 115.475 103.398 115.826C103.816 116.174 104.127 116.678 104.33 117.338C104.533 117.994 104.635 118.783 104.635 119.705ZM99.9648 119.705C99.9648 120.502 100.025 121.166 100.146 121.697C100.268 122.229 100.463 122.627 100.732 122.893C101.006 123.154 101.363 123.285 101.805 123.285C102.246 123.285 102.602 123.154 102.871 122.893C103.145 122.631 103.342 122.234 103.463 121.703C103.588 121.172 103.65 120.506 103.65 119.705C103.65 118.92 103.59 118.264 103.469 117.736C103.348 117.205 103.152 116.807 102.883 116.541C102.613 116.271 102.254 116.137 101.805 116.137C101.355 116.137 100.996 116.271 100.727 116.541C100.457 116.807 100.262 117.205 100.141 117.736C100.023 118.264 99.9648 118.92 99.9648 119.705ZM111.455 124H105.842V123.186L108.133 120.859C108.559 120.43 108.916 120.047 109.205 119.711C109.498 119.375 109.721 119.045 109.873 118.721C110.025 118.393 110.102 118.033 110.102 117.643C110.102 117.158 109.957 116.789 109.668 116.535C109.383 116.277 109.006 116.148 108.537 116.148C108.127 116.148 107.764 116.219 107.447 116.359C107.131 116.5 106.807 116.699 106.475 116.957L105.953 116.301C106.18 116.109 106.426 115.939 106.691 115.791C106.961 115.643 107.248 115.525 107.553 115.439C107.861 115.354 108.189 115.311 108.537 115.311C109.064 115.311 109.52 115.402 109.902 115.586C110.285 115.77 110.58 116.031 110.787 116.371C110.998 116.711 111.104 117.115 111.104 117.584C111.104 118.037 111.014 118.459 110.834 118.85C110.654 119.236 110.402 119.621 110.078 120.004C109.754 120.383 109.375 120.785 108.941 121.211L107.078 123.068V123.109H111.455V124ZM116.389 115.434L113.201 124H112.24L115.434 115.434H116.389ZM122.775 119.705C122.775 120.4 122.723 121.021 122.617 121.568C122.512 122.115 122.346 122.578 122.119 122.957C121.893 123.336 121.6 123.625 121.24 123.824C120.881 124.02 120.449 124.117 119.945 124.117C119.309 124.117 118.781 123.943 118.363 123.596C117.949 123.248 117.639 122.746 117.432 122.09C117.229 121.43 117.127 120.635 117.127 119.705C117.127 118.791 117.219 118.006 117.402 117.35C117.59 116.689 117.891 116.184 118.305 115.832C118.719 115.477 119.266 115.299 119.945 115.299C120.59 115.299 121.121 115.475 121.539 115.826C121.957 116.174 122.268 116.678 122.471 117.338C122.674 117.994 122.775 118.783 122.775 119.705ZM118.105 119.705C118.105 120.502 118.166 121.166 118.287 121.697C118.408 122.229 118.604 122.627 118.873 122.893C119.146 123.154 119.504 123.285 119.945 123.285C120.387 123.285 120.742 123.154 121.012 122.893C121.285 122.631 121.482 122.234 121.604 121.703C121.729 121.172 121.791 120.506 121.791 119.705C121.791 118.92 121.73 118.264 121.609 117.736C121.488 117.205 121.293 116.807 121.023 116.541C120.754 116.271 120.395 116.137 119.945 116.137C119.496 116.137 119.137 116.271 118.867 116.541C118.598 116.807 118.402 117.205 118.281 117.736C118.164 118.264 118.105 118.92 118.105 119.705ZM129.596 124H123.982V123.186L126.273 120.859C126.699 120.43 127.057 120.047 127.346 119.711C127.639 119.375 127.861 119.045 128.014 118.721C128.166 118.393 128.242 118.033 128.242 117.643C128.242 117.158 128.098 116.789 127.809 116.535C127.523 116.277 127.146 116.148 126.678 116.148C126.268 116.148 125.904 116.219 125.588 116.359C125.271 116.5 124.947 116.699 124.615 116.957L124.094 116.301C124.32 116.109 124.566 115.939 124.832 115.791C125.102 115.643 125.389 115.525 125.693 115.439C126.002 115.354 126.33 115.311 126.678 115.311C127.205 115.311 127.66 115.402 128.043 115.586C128.426 115.77 128.721 116.031 128.928 116.371C129.139 116.711 129.244 117.115 129.244 117.584C129.244 118.037 129.154 118.459 128.975 118.85C128.795 119.236 128.543 119.621 128.219 120.004C127.895 120.383 127.516 120.785 127.082 121.211L125.219 123.068V123.109H129.596V124ZM137.588 124H136.639V117.93C136.639 117.699 136.639 117.502 136.639 117.338C136.643 117.17 136.646 117.018 136.65 116.881C136.658 116.74 136.668 116.598 136.68 116.453C136.559 116.578 136.445 116.686 136.34 116.775C136.234 116.861 136.104 116.969 135.947 117.098L134.969 117.883L134.459 117.221L136.779 115.434H137.588V124ZM141.941 124L145.457 116.324H140.787V115.434H146.5V116.184L143.008 124H141.941ZM147.988 123.391C147.988 123.117 148.055 122.924 148.188 122.811C148.32 122.693 148.482 122.635 148.674 122.635C148.873 122.635 149.041 122.693 149.178 122.811C149.314 122.924 149.383 123.117 149.383 123.391C149.383 123.66 149.314 123.857 149.178 123.982C149.041 124.104 148.873 124.164 148.674 124.164C148.482 124.164 148.32 124.104 148.188 123.982C148.055 123.857 147.988 123.66 147.988 123.391ZM147.988 118.193C147.988 117.912 148.055 117.715 148.188 117.602C148.32 117.484 148.482 117.426 148.674 117.426C148.873 117.426 149.041 117.484 149.178 117.602C149.314 117.715 149.383 117.912 149.383 118.193C149.383 118.459 149.314 118.652 149.178 118.773C149.041 118.895 148.873 118.955 148.674 118.955C148.482 118.955 148.32 118.895 148.188 118.773C148.055 118.652 147.988 118.459 147.988 118.193ZM156.514 119.705C156.514 120.4 156.461 121.021 156.355 121.568C156.25 122.115 156.084 122.578 155.857 122.957C155.631 123.336 155.338 123.625 154.979 123.824C154.619 124.02 154.188 124.117 153.684 124.117C153.047 124.117 152.52 123.943 152.102 123.596C151.688 123.248 151.377 122.746 151.17 122.09C150.967 121.43 150.865 120.635 150.865 119.705C150.865 118.791 150.957 118.006 151.141 117.35C151.328 116.689 151.629 116.184 152.043 115.832C152.457 115.477 153.004 115.299 153.684 115.299C154.328 115.299 154.859 115.475 155.277 115.826C155.695 116.174 156.006 116.678 156.209 117.338C156.412 117.994 156.514 118.783 156.514 119.705ZM151.844 119.705C151.844 120.502 151.904 121.166 152.025 121.697C152.146 122.229 152.342 122.627 152.611 122.893C152.885 123.154 153.242 123.285 153.684 123.285C154.125 123.285 154.48 123.154 154.75 122.893C155.023 122.631 155.221 122.234 155.342 121.703C155.467 121.172 155.529 120.506 155.529 119.705C155.529 118.92 155.469 118.264 155.348 117.736C155.227 117.205 155.031 116.807 154.762 116.541C154.492 116.271 154.133 116.137 153.684 116.137C153.234 116.137 152.875 116.271 152.605 116.541C152.336 116.807 152.141 117.205 152.02 117.736C151.902 118.264 151.844 118.92 151.844 119.705ZM163.381 119.705C163.381 120.4 163.328 121.021 163.223 121.568C163.117 122.115 162.951 122.578 162.725 122.957C162.498 123.336 162.205 123.625 161.846 123.824C161.486 124.02 161.055 124.117 160.551 124.117C159.914 124.117 159.387 123.943 158.969 123.596C158.555 123.248 158.244 122.746 158.037 122.09C157.834 121.43 157.732 120.635 157.732 119.705C157.732 118.791 157.824 118.006 158.008 117.35C158.195 116.689 158.496 116.184 158.91 115.832C159.324 115.477 159.871 115.299 160.551 115.299C161.195 115.299 161.727 115.475 162.145 115.826C162.562 116.174 162.873 116.678 163.076 117.338C163.279 117.994 163.381 118.783 163.381 119.705ZM158.711 119.705C158.711 120.502 158.771 121.166 158.893 121.697C159.014 122.229 159.209 122.627 159.479 122.893C159.752 123.154 160.109 123.285 160.551 123.285C160.992 123.285 161.348 123.154 161.617 122.893C161.891 122.631 162.088 122.234 162.209 121.703C162.334 121.172 162.396 120.506 162.396 119.705C162.396 118.92 162.336 118.264 162.215 117.736C162.094 117.205 161.898 116.807 161.629 116.541C161.359 116.271 161 116.137 160.551 116.137C160.102 116.137 159.742 116.271 159.473 116.541C159.203 116.807 159.008 117.205 158.887 117.736C158.77 118.264 158.711 118.92 158.711 119.705ZM164.875 123.391C164.875 123.117 164.941 122.924 165.074 122.811C165.207 122.693 165.369 122.635 165.561 122.635C165.76 122.635 165.928 122.693 166.064 122.811C166.201 122.924 166.27 123.117 166.27 123.391C166.27 123.66 166.201 123.857 166.064 123.982C165.928 124.104 165.76 124.164 165.561 124.164C165.369 124.164 165.207 124.104 165.074 123.982C164.941 123.857 164.875 123.66 164.875 123.391ZM164.875 118.193C164.875 117.912 164.941 117.715 165.074 117.602C165.207 117.484 165.369 117.426 165.561 117.426C165.76 117.426 165.928 117.484 166.064 117.602C166.201 117.715 166.27 117.912 166.27 118.193C166.27 118.459 166.201 118.652 166.064 118.773C165.928 118.895 165.76 118.955 165.561 118.955C165.369 118.955 165.207 118.895 165.074 118.773C164.941 118.652 164.875 118.459 164.875 118.193ZM173.4 119.705C173.4 120.4 173.348 121.021 173.242 121.568C173.137 122.115 172.971 122.578 172.744 122.957C172.518 123.336 172.225 123.625 171.865 123.824C171.506 124.02 171.074 124.117 170.57 124.117C169.934 124.117 169.406 123.943 168.988 123.596C168.574 123.248 168.264 122.746 168.057 122.09C167.854 121.43 167.752 120.635 167.752 119.705C167.752 118.791 167.844 118.006 168.027 117.35C168.215 116.689 168.516 116.184 168.93 115.832C169.344 115.477 169.891 115.299 170.57 115.299C171.215 115.299 171.746 115.475 172.164 115.826C172.582 116.174 172.893 116.678 173.096 117.338C173.299 117.994 173.4 118.783 173.4 119.705ZM168.73 119.705C168.73 120.502 168.791 121.166 168.912 121.697C169.033 122.229 169.229 122.627 169.498 122.893C169.771 123.154 170.129 123.285 170.57 123.285C171.012 123.285 171.367 123.154 171.637 122.893C171.91 122.631 172.107 122.234 172.229 121.703C172.354 121.172 172.416 120.506 172.416 119.705C172.416 118.92 172.355 118.264 172.234 117.736C172.113 117.205 171.918 116.807 171.648 116.541C171.379 116.271 171.02 116.137 170.57 116.137C170.121 116.137 169.762 116.271 169.492 116.541C169.223 116.807 169.027 117.205 168.906 117.736C168.789 118.264 168.73 118.92 168.73 119.705ZM180.268 119.705C180.268 120.4 180.215 121.021 180.109 121.568C180.004 122.115 179.838 122.578 179.611 122.957C179.385 123.336 179.092 123.625 178.732 123.824C178.373 124.02 177.941 124.117 177.438 124.117C176.801 124.117 176.273 123.943 175.855 123.596C175.441 123.248 175.131 122.746 174.924 122.09C174.721 121.43 174.619 120.635 174.619 119.705C174.619 118.791 174.711 118.006 174.895 117.35C175.082 116.689 175.383 116.184 175.797 115.832C176.211 115.477 176.758 115.299 177.438 115.299C178.082 115.299 178.613 115.475 179.031 115.826C179.449 116.174 179.76 116.678 179.963 117.338C180.166 117.994 180.268 118.783 180.268 119.705ZM175.598 119.705C175.598 120.502 175.658 121.166 175.779 121.697C175.9 122.229 176.096 122.627 176.365 122.893C176.639 123.154 176.996 123.285 177.438 123.285C177.879 123.285 178.234 123.154 178.504 122.893C178.777 122.631 178.975 122.234 179.096 121.703C179.221 121.172 179.283 120.506 179.283 119.705C179.283 118.92 179.223 118.264 179.102 117.736C178.98 117.205 178.785 116.807 178.516 116.541C178.246 116.271 177.887 116.137 177.438 116.137C176.988 116.137 176.629 116.271 176.359 116.541C176.09 116.807 175.895 117.205 175.773 117.736C175.656 118.264 175.598 118.92 175.598 119.705Z" fill="white"/>
<rect x="14.5" y="110.5" width="180" height="18" stroke="#3F4F5B"/>
</svg>
