<svg width="1872" height="4" viewBox="0 0 1872 4" fill="none" xmlns="http://www.w3.org/2000/svg">
<rect x="1527" y="1" width="1" height="224" transform="rotate(-90 1527 1)" fill="#EAB308" fill-opacity="0.24"/>
<rect x="824" y="1" width="1" height="224" transform="rotate(-90 824 1)" fill="#EAB308" fill-opacity="0.24"/>
<rect x="584" y="1" width="1" height="224" transform="rotate(-90 584 1)" fill="#EAB308" fill-opacity="0.24"/>
<rect x="125" y="1" width="1" height="415" transform="rotate(-90 125 1)" fill="#EAB308" fill-opacity="0.24"/>
<rect x="1064" y="1" width="1" height="463" transform="rotate(-90 1064 1)" fill="#EAB308" fill-opacity="0.24"/>
<rect x="1050" y="1" width="1" height="12" transform="rotate(-90 1050 1)" fill="#EAB308" fill-opacity="0.72"/>
<rect x="810" y="1" width="1" height="12" transform="rotate(-90 810 1)" fill="#EAB308" fill-opacity="0.72"/>
<rect x="570" y="1" width="1" height="12" transform="rotate(-90 570 1)" fill="#EAB308" fill-opacity="0.72"/>
<rect x="556" y="1" width="1" height="12" transform="rotate(-90 556 1)" fill="#EAB308" fill-opacity="0.72"/>
<rect x="542" y="1" width="1" height="12" transform="rotate(-90 542 1)" fill="#EAB308" fill-opacity="0.72"/>
<rect width="1" height="32" transform="matrix(0 -1 -1 0 1751 1)" fill="#EAB308"/>
<rect width="1" height="32" transform="matrix(0 -1 -1 0 157 1)" fill="#EAB308"/>
<rect y="1" width="1" height="123" transform="rotate(-90 0 1)" fill="#EAB308" fill-opacity="0.24"/>
<rect x="1751" y="1" width="1" height="121" transform="rotate(-90 1751 1)" fill="#EAB308" fill-opacity="0.24"/>
<path d="M0 4H16L20 0H0V4Z" fill="#EAB308"/>
<path d="M21 4H25L29 0H25L21 4Z" fill="#EAB308"/>
<path d="M30 4H34L38 0H34L30 4Z" fill="#EAB308"/>
<path d="M39 4H43L47 0H43L39 4Z" fill="#EAB308"/>
<path d="M1872 4H1856L1852 0H1872V4Z" fill="#EAB308"/>
<path d="M1851 4H1847L1843 0H1847L1851 4Z" fill="#EAB308"/>
<path d="M1842 4H1838L1834 0H1838L1842 4Z" fill="#EAB308"/>
<path d="M1833 4H1829L1825 0H1829L1833 4Z" fill="#EAB308"/>
</svg>
